M48
; DRILL file {KiCad 7.0.2-0} date 2024 February 05, Monday 21:00:45
; FORMAT={-:-/ absolute / metric / decimal}
; #@! TF.CreationDate,2024-02-05T21:00:45+01:00
; #@! TF.GenerationSoftware,Kicad,Pcbnew,7.0.2-0
; #@! TF.FileFunction,NonPlated,1,2,NPTH
FMAT,2
METRIC
; #@! TA.AperFunction,NonPlated,NPTH,ComponentDrill
T1C1.200
; #@! TA.AperFunction,NonPlated,NPTH,ComponentDrill
T2C1.500
; #@! TA.AperFunction,NonPlated,NPTH,ComponentDrill
T3C1.700
; #@! TA.AperFunction,NonPlated,NPTH,ComponentDrill
T4C1.750
; #@! TA.AperFunction,NonPlated,NPTH,ComponentDrill
T5C2.200
; #@! TA.AperFunction,NonPlated,NPTH,ComponentDrill
T6C3.048
; #@! TA.AperFunction,NonPlated,NPTH,ComponentDrill
T7C3.988
%
G90
G05
T1
X40.142Y-49.562
X40.142Y-68.662
X40.142Y-87.763
X40.142Y-106.862
X40.142Y-125.962
X59.242Y-49.562
X59.242Y-68.662
X59.242Y-87.763
X59.242Y-106.862
X59.242Y-125.962
X78.343Y-49.562
X78.343Y-68.662
X78.343Y-87.763
X78.343Y-106.862
X78.343Y-125.962
X97.442Y-49.562
X97.442Y-68.662
X97.442Y-87.763
X97.442Y-106.862
X97.442Y-125.962
X116.542Y-49.562
X116.542Y-68.662
X116.542Y-87.763
X116.542Y-106.862
X116.542Y-125.962
X126.093Y-106.862
X126.093Y-125.962
X135.642Y-49.562
X135.642Y-68.662
X135.642Y-87.763
X135.642Y-106.862
X135.642Y-125.962
X145.192Y-106.862
X145.192Y-125.962
X154.743Y-49.562
X154.743Y-68.662
X154.743Y-87.763
X154.743Y-106.862
X154.743Y-125.962
X164.292Y-106.862
X164.292Y-125.962
X173.843Y-49.562
X173.843Y-68.662
X173.843Y-87.763
X173.843Y-106.862
X173.843Y-125.962
X192.942Y-49.562
X192.942Y-68.662
X192.942Y-87.763
X192.942Y-106.862
X192.942Y-125.962
X212.042Y-49.562
X212.042Y-68.662
X212.042Y-87.763
X212.042Y-106.862
X212.042Y-125.962
X231.142Y-49.562
X231.142Y-68.662
X231.142Y-87.763
X231.142Y-106.862
X231.142Y-125.962
X250.242Y-49.562
X250.242Y-68.662
X250.242Y-87.763
X250.242Y-106.862
X250.242Y-125.962
T3
X39.862Y-45.362
X39.862Y-64.462
X39.862Y-83.562
X39.862Y-102.662
X39.862Y-121.762
X50.862Y-45.362
X50.862Y-64.462
X50.862Y-83.562
X50.862Y-102.662
X50.862Y-121.762
X58.962Y-45.362
X58.962Y-64.462
X58.962Y-83.562
X58.962Y-102.662
X58.962Y-121.762
X69.962Y-45.362
X69.962Y-64.462
X69.962Y-83.562
X69.962Y-102.662
X69.962Y-121.762
X78.062Y-45.362
X78.062Y-64.462
X78.062Y-83.562
X78.062Y-102.662
X78.062Y-121.762
X89.062Y-45.362
X89.062Y-64.462
X89.062Y-83.562
X89.062Y-102.662
X89.062Y-121.762
X97.162Y-45.362
X97.162Y-64.462
X97.162Y-83.562
X97.162Y-102.662
X97.162Y-121.762
X108.162Y-45.362
X108.162Y-64.462
X108.162Y-83.562
X108.162Y-102.662
X108.162Y-121.762
X116.262Y-45.362
X116.262Y-64.462
X116.262Y-83.562
X116.262Y-102.662
X116.262Y-121.762
X125.812Y-102.662
X125.812Y-121.762
X127.262Y-45.362
X127.262Y-64.462
X127.262Y-83.562
X127.262Y-102.662
X127.262Y-121.762
X135.362Y-45.362
X135.362Y-64.462
X135.362Y-83.562
X135.362Y-102.662
X135.362Y-121.762
X136.812Y-102.662
X136.812Y-121.762
X144.912Y-102.662
X144.912Y-121.762
X146.362Y-45.362
X146.362Y-64.462
X146.362Y-83.562
X146.362Y-102.662
X146.362Y-121.762
X154.463Y-45.362
X154.463Y-64.462
X154.463Y-83.562
X154.463Y-102.662
X154.463Y-121.762
X155.912Y-102.662
X155.912Y-121.762
X164.012Y-102.662
X164.012Y-121.762
X165.463Y-45.362
X165.463Y-64.462
X165.463Y-83.562
X165.463Y-102.662
X165.463Y-121.762
X173.562Y-45.362
X173.562Y-64.462
X173.562Y-83.562
X173.562Y-102.662
X173.562Y-121.762
X175.012Y-102.662
X175.012Y-121.762
X184.562Y-45.362
X184.562Y-64.462
X184.562Y-83.562
X184.562Y-102.662
X184.562Y-121.762
X192.662Y-45.362
X192.662Y-64.462
X192.662Y-83.562
X192.662Y-102.662
X192.662Y-121.762
X203.662Y-45.362
X203.662Y-64.462
X203.662Y-83.562
X203.662Y-102.662
X203.662Y-121.762
X211.762Y-45.362
X211.762Y-64.462
X211.762Y-83.562
X211.762Y-102.662
X211.762Y-121.762
X222.762Y-45.362
X222.762Y-64.462
X222.762Y-83.562
X222.762Y-102.662
X222.762Y-121.762
X230.862Y-45.362
X230.862Y-64.462
X230.862Y-83.562
X230.862Y-102.662
X230.862Y-121.762
X241.862Y-45.362
X241.862Y-64.462
X241.862Y-83.562
X241.862Y-102.662
X241.862Y-121.762
X249.962Y-45.362
X249.962Y-64.462
X249.962Y-83.562
X249.962Y-102.662
X249.962Y-121.762
X260.962Y-45.362
X260.962Y-64.462
X260.962Y-83.562
X260.962Y-102.662
X260.962Y-121.762
T4
X40.282Y-45.362
X40.282Y-64.462
X40.282Y-83.562
X40.282Y-102.662
X40.282Y-121.762
X50.442Y-45.362
X50.442Y-64.462
X50.442Y-83.562
X50.442Y-102.662
X50.442Y-121.762
X59.383Y-45.362
X59.383Y-64.462
X59.383Y-83.562
X59.383Y-102.662
X59.383Y-121.762
X69.542Y-45.362
X69.542Y-64.462
X69.542Y-83.562
X69.542Y-102.662
X69.542Y-121.762
X78.483Y-45.362
X78.483Y-64.462
X78.483Y-83.562
X78.483Y-102.662
X78.483Y-121.762
X88.642Y-45.362
X88.642Y-64.462
X88.642Y-83.562
X88.642Y-102.662
X88.642Y-121.762
X97.582Y-45.362
X97.582Y-64.462
X97.582Y-83.562
X97.582Y-102.662
X97.582Y-121.762
X107.742Y-45.362
X107.742Y-64.462
X107.742Y-83.562
X107.742Y-102.662
X107.742Y-121.762
X116.682Y-45.362
X116.682Y-64.462
X116.682Y-83.562
X116.682Y-102.662
X116.682Y-121.762
X126.232Y-102.662
X126.232Y-121.762
X126.843Y-45.362
X126.843Y-64.462
X126.843Y-83.562
X126.843Y-102.662
X126.843Y-121.762
X135.782Y-45.362
X135.782Y-64.462
X135.782Y-83.562
X135.782Y-102.662
X135.782Y-121.762
X136.392Y-102.662
X136.392Y-121.762
X145.332Y-102.662
X145.332Y-121.762
X145.942Y-45.362
X145.942Y-64.462
X145.942Y-83.562
X145.942Y-102.662
X145.942Y-121.762
X154.882Y-45.362
X154.882Y-64.462
X154.882Y-83.562
X154.882Y-102.662
X154.882Y-121.762
X155.493Y-102.662
X155.493Y-121.762
X164.433Y-102.662
X164.433Y-121.762
X165.042Y-45.362
X165.042Y-64.462
X165.042Y-83.562
X165.042Y-102.662
X165.042Y-121.762
X173.982Y-45.362
X173.982Y-64.462
X173.982Y-83.562
X173.982Y-102.662
X173.982Y-121.762
X174.593Y-102.662
X174.593Y-121.762
X184.142Y-45.362
X184.142Y-64.462
X184.142Y-83.562
X184.142Y-102.662
X184.142Y-121.762
X193.082Y-45.362
X193.082Y-64.462
X193.082Y-83.562
X193.082Y-102.662
X193.082Y-121.762
X203.242Y-45.362
X203.242Y-64.462
X203.242Y-83.562
X203.242Y-102.662
X203.242Y-121.762
X212.183Y-45.362
X212.183Y-64.462
X212.183Y-83.562
X212.183Y-102.662
X212.183Y-121.762
X222.343Y-45.362
X222.343Y-64.462
X222.343Y-83.562
X222.343Y-102.662
X222.343Y-121.762
X231.282Y-45.362
X231.282Y-64.462
X231.282Y-83.562
X231.282Y-102.662
X231.282Y-121.762
X241.442Y-45.362
X241.442Y-64.462
X241.442Y-83.562
X241.442Y-102.662
X241.442Y-121.762
X250.382Y-45.362
X250.382Y-64.462
X250.382Y-83.562
X250.382Y-102.662
X250.382Y-121.762
X260.542Y-45.362
X260.542Y-64.462
X260.542Y-83.562
X260.542Y-102.662
X260.542Y-121.762
T5
X54.912Y-54.912
X54.912Y-74.013
X54.912Y-93.112
X54.912Y-112.212
X74.0Y-54.912
X74.0Y-74.013
X74.025Y-93.112
X74.025Y-112.212
X93.112Y-54.912
X93.112Y-74.013
X93.112Y-93.112
X93.112Y-112.212
X112.2Y-54.912
X112.2Y-74.013
X112.2Y-93.112
X112.2Y-112.212
X131.312Y-54.912
X131.312Y-74.013
X131.312Y-93.112
X131.312Y-112.212
X150.4Y-54.912
X150.4Y-74.013
X150.4Y-93.112
X150.4Y-112.212
X169.418Y-54.912
X169.418Y-74.013
X169.512Y-93.112
X169.512Y-112.212
X188.6Y-54.912
X188.6Y-74.013
X188.6Y-93.112
X188.6Y-112.212
X207.712Y-54.912
X207.712Y-74.013
X207.712Y-93.112
X207.712Y-112.212
X226.8Y-54.912
X226.8Y-74.013
X226.8Y-93.112
X226.8Y-112.212
X245.912Y-54.912
X245.912Y-74.013
X245.912Y-93.112
X245.912Y-112.212
T6
X119.374Y-109.647
X119.374Y-128.748
X138.475Y-109.647
X138.475Y-128.748
X143.25Y-109.647
X143.25Y-128.748
X157.575Y-109.647
X157.575Y-128.748
X162.35Y-109.647
X162.35Y-128.748
X181.451Y-109.647
X181.451Y-128.748
T7
X45.362Y-45.362
X45.362Y-64.462
X45.362Y-83.562
X45.362Y-102.662
X45.362Y-121.762
X64.462Y-45.362
X64.462Y-64.462
X64.462Y-83.562
X64.462Y-102.662
X64.462Y-121.762
X83.562Y-45.362
X83.562Y-64.462
X83.562Y-83.562
X83.562Y-102.662
X83.562Y-121.762
X102.662Y-45.362
X102.662Y-64.462
X102.662Y-83.562
X102.662Y-102.662
X102.662Y-121.762
X119.374Y-94.407
X119.374Y-113.507
X121.762Y-45.362
X121.762Y-64.462
X121.762Y-83.562
X121.762Y-102.662
X121.762Y-121.762
X131.312Y-102.662
X131.312Y-121.762
X138.475Y-94.407
X138.475Y-113.507
X140.862Y-45.362
X140.862Y-64.462
X140.862Y-83.562
X140.862Y-102.662
X140.862Y-121.762
X143.25Y-94.407
X143.25Y-113.507
X150.412Y-102.662
X150.412Y-121.762
X157.575Y-94.407
X157.575Y-113.507
X159.963Y-45.362
X159.963Y-64.462
X159.963Y-83.562
X159.963Y-102.662
X159.963Y-121.762
X162.35Y-94.407
X162.35Y-113.507
X169.512Y-102.662
X169.512Y-121.762
X179.062Y-45.362
X179.062Y-64.462
X179.062Y-83.562
X179.062Y-102.662
X179.062Y-121.762
X181.451Y-94.407
X181.451Y-113.507
X198.162Y-45.362
X198.162Y-64.462
X198.162Y-83.562
X198.162Y-102.662
X198.162Y-121.762
X217.262Y-45.362
X217.262Y-64.462
X217.262Y-83.562
X217.262Y-102.662
X217.262Y-121.762
X236.362Y-45.362
X236.362Y-64.462
X236.362Y-83.562
X236.362Y-102.662
X236.362Y-121.762
X255.462Y-45.362
X255.462Y-64.462
X255.462Y-83.562
X255.462Y-102.662
X255.462Y-121.762
T2
X39.762Y-46.012G85X39.762Y-44.712
G05
X39.762Y-84.212G85X39.762Y-82.912
G05
X39.762Y-103.312G85X39.762Y-102.012
G05
X39.762Y-122.412G85X39.762Y-121.112
G05
X50.962Y-46.012G85X50.962Y-44.712
G05
X50.962Y-84.212G85X50.962Y-82.912
G05
X50.962Y-103.312G85X50.962Y-102.012
G05
X50.962Y-122.412G85X50.962Y-121.112
G05
X249.862Y-46.012G85X249.862Y-44.712
G05
X249.862Y-84.212G85X249.862Y-82.912
G05
X249.862Y-103.312G85X249.862Y-102.012
G05
X249.862Y-122.412G85X249.862Y-121.112
G05
X261.062Y-46.012G85X261.062Y-44.712
G05
X261.062Y-84.212G85X261.062Y-82.912
G05
X261.062Y-103.312G85X261.062Y-102.012
G05
X261.062Y-122.412G85X261.062Y-121.112
G05
T0
M30
