G04 #@! TF.GenerationSoftware,KiCad,Pcbnew,7.0.2-0*
G04 #@! TF.CreationDate,2024-03-28T17:46:44+01:00*
G04 #@! TF.ProjectId,CYOA_Ortho,43594f41-5f4f-4727-9468-6f2e6b696361,rev?*
G04 #@! TF.SameCoordinates,Original*
G04 #@! TF.FileFunction,Paste,Bot*
G04 #@! TF.FilePolarity,Positive*
%FSLAX46Y46*%
G04 Gerber Fmt 4.6, Leading zero omitted, Abs format (unit mm)*
G04 Created by KiCad (PCBNEW 7.0.2-0) date 2024-03-28 17:46:44*
%MOMM*%
%LPD*%
G01*
G04 APERTURE LIST*
%ADD10R,1.200000X1.600000*%
%ADD11R,1.600000X1.200000*%
G04 APERTURE END LIST*
D10*
X75438000Y-120520000D03*
X75438000Y-123320000D03*
X75438000Y-101470000D03*
X75438000Y-104270000D03*
X56400000Y-43962500D03*
X56400000Y-46762500D03*
X187000000Y-120012000D03*
X187000000Y-122812000D03*
D11*
X132700000Y-129400000D03*
X129900000Y-129400000D03*
D10*
X228300000Y-81912000D03*
X228300000Y-84712000D03*
X247400000Y-63062500D03*
X247400000Y-65862500D03*
X148844000Y-82166000D03*
X148844000Y-84966000D03*
X247400000Y-120362500D03*
X247400000Y-123162500D03*
X190100000Y-100708000D03*
X190100000Y-103508000D03*
X53400000Y-120568750D03*
X53400000Y-123368750D03*
X53400000Y-82162500D03*
X53400000Y-84962500D03*
X53400000Y-43962500D03*
X53400000Y-46762500D03*
X129794000Y-82166000D03*
X129794000Y-84966000D03*
X110700000Y-101262500D03*
X110700000Y-104062500D03*
D11*
X151800000Y-129400000D03*
X149000000Y-129400000D03*
D10*
X56400000Y-63062500D03*
X56400000Y-65862500D03*
X53400000Y-101262500D03*
X53400000Y-104062500D03*
X247400000Y-101262500D03*
X247400000Y-104062500D03*
X209200000Y-43962500D03*
X209200000Y-46762500D03*
X167900000Y-43200000D03*
X167900000Y-46000000D03*
X228300000Y-63062500D03*
X228300000Y-65862500D03*
X168000000Y-63116000D03*
X168000000Y-65916000D03*
X209318250Y-101262500D03*
X209318250Y-104062500D03*
X190100000Y-120012000D03*
X190100000Y-122812000D03*
D11*
X63116000Y-53594000D03*
X65916000Y-53594000D03*
D10*
X110600000Y-82162500D03*
X110600000Y-84962500D03*
X56400000Y-82162500D03*
X56400000Y-84962500D03*
X187000000Y-82420000D03*
X187000000Y-85220000D03*
X168000000Y-81912000D03*
X168000000Y-84712000D03*
X209318250Y-120362500D03*
X209318250Y-123162500D03*
X187000000Y-63116000D03*
X187000000Y-65916000D03*
X56400000Y-101262500D03*
X56400000Y-104062500D03*
X113700000Y-101262500D03*
X113700000Y-104062500D03*
X228554000Y-120774000D03*
X228554000Y-123574000D03*
X190100000Y-63062500D03*
X190100000Y-65862500D03*
X110744000Y-63062500D03*
X110744000Y-65862500D03*
X94488000Y-120774000D03*
X94488000Y-123574000D03*
X247400000Y-82162500D03*
X247400000Y-84962500D03*
X247400000Y-43962500D03*
X247400000Y-46762500D03*
X53400000Y-63062500D03*
X53400000Y-65862500D03*
X129794000Y-44066000D03*
X129794000Y-46866000D03*
X209200000Y-82162500D03*
X209200000Y-84962500D03*
X189914250Y-43962500D03*
X189914250Y-46762500D03*
X190100000Y-82420000D03*
X190100000Y-85220000D03*
X148900000Y-43200000D03*
X148900000Y-46000000D03*
X113700000Y-120774000D03*
X113700000Y-123574000D03*
X110744000Y-44066000D03*
X110744000Y-46866000D03*
X75438000Y-82162500D03*
X75438000Y-84962500D03*
X94488000Y-101262500D03*
X94488000Y-104062500D03*
D11*
X63116000Y-72644000D03*
X65916000Y-72644000D03*
D10*
X228300000Y-101262500D03*
X228300000Y-104062500D03*
X187000000Y-43962500D03*
X187000000Y-46762500D03*
X228300000Y-44168750D03*
X228300000Y-46968750D03*
X148844000Y-63116000D03*
X148844000Y-65916000D03*
X187000000Y-100708000D03*
X187000000Y-103508000D03*
X129794000Y-63116000D03*
X129794000Y-65916000D03*
X151900000Y-82175000D03*
X151900000Y-84975000D03*
X209200000Y-63062500D03*
X209200000Y-65862500D03*
X56400000Y-120568750D03*
X56400000Y-123368750D03*
M02*
