G04 #@! TF.GenerationSoftware,KiCad,Pcbnew,7.0.2-0*
G04 #@! TF.CreationDate,2024-03-28T17:46:45+01:00*
G04 #@! TF.ProjectId,CYOA_Ortho,43594f41-5f4f-4727-9468-6f2e6b696361,rev?*
G04 #@! TF.SameCoordinates,Original*
G04 #@! TF.FileFunction,Profile,NP*
%FSLAX46Y46*%
G04 Gerber Fmt 4.6, Leading zero omitted, Abs format (unit mm)*
G04 Created by KiCad (PCBNEW 7.0.2-0) date 2024-03-28 17:46:45*
%MOMM*%
%LPD*%
G01*
G04 APERTURE LIST*
G04 #@! TA.AperFunction,Profile*
%ADD10C,0.100000*%
G04 #@! TD*
G04 APERTURE END LIST*
D10*
X108668749Y-93099997D02*
G75*
G03*
X108668749Y-93099997I-499999J0D01*
G01*
X250556248Y-112212503D02*
G75*
G03*
X250556248Y-112212503I-500000J0D01*
G01*
X57300000Y-131312500D02*
X109786783Y-131299283D01*
X53012499Y-112212500D02*
G75*
G03*
X53012499Y-112212500I-500000J0D01*
G01*
X227300000Y-58737500D02*
G75*
G03*
X227300000Y-58737500I-500000J0D01*
G01*
X49470001Y-112212499D02*
G75*
G03*
X49470001Y-112212499I-300000J0D01*
G01*
X131600000Y-106393750D02*
G75*
G03*
X131600000Y-106393750I-300000J0D01*
G01*
X246200000Y-68293750D02*
G75*
G03*
X246200000Y-68293750I-300000J0D01*
G01*
X169800000Y-118237500D02*
G75*
G03*
X169800000Y-118237500I-300000J0D01*
G01*
X189074283Y-95250000D02*
G75*
G03*
X189074283Y-95250000I-500000J0D01*
G01*
X150700000Y-65118750D02*
G75*
G03*
X150700000Y-65118750I-300000J0D01*
G01*
X246200000Y-85756250D02*
G75*
G03*
X246200000Y-85756250I-300000J0D01*
G01*
X246400000Y-60325000D02*
G75*
G03*
X246400000Y-60325000I-500000J0D01*
G01*
X253731248Y-112212502D02*
G75*
G03*
X253731248Y-112212502I-499999J0D01*
G01*
X55361783Y-79406250D02*
G75*
G03*
X55361783Y-79406250I-500000J0D01*
G01*
X208000000Y-50831250D02*
G75*
G03*
X208000000Y-50831250I-300000J0D01*
G01*
X150900000Y-41275000D02*
G75*
G03*
X150900000Y-41275000I-500000J0D01*
G01*
X259912499Y-112212502D02*
G75*
G03*
X259912499Y-112212502I-300000J0D01*
G01*
X171963217Y-35812517D02*
G75*
G03*
X169575717Y-38200000I-17J-2387483D01*
G01*
X226749283Y-38200000D02*
X226850717Y-38200000D01*
X57806249Y-112212499D02*
G75*
G03*
X57806249Y-112212499I-499999J0D01*
G01*
X246400000Y-95250000D02*
G75*
G03*
X246400000Y-95250000I-500000J0D01*
G01*
X252143748Y-112212503D02*
G75*
G03*
X252143748Y-112212503I-500000J0D01*
G01*
X198068750Y-112212502D02*
G75*
G03*
X198068750Y-112212502I-499999J0D01*
G01*
X227300000Y-95250000D02*
G75*
G03*
X227300000Y-95250000I-500000J0D01*
G01*
X131800000Y-85756250D02*
G75*
G03*
X131800000Y-85756250I-500000J0D01*
G01*
X133763217Y-35812517D02*
G75*
G03*
X131375717Y-38200000I-17J-2387483D01*
G01*
X218056248Y-112212503D02*
G75*
G03*
X218056248Y-112212503I-300000J0D01*
G01*
X112700000Y-109637500D02*
G75*
G03*
X112700000Y-109637500I-500000J0D01*
G01*
X55161783Y-108012500D02*
G75*
G03*
X55161783Y-108012500I-300000J0D01*
G01*
X150700000Y-47656250D02*
G75*
G03*
X150700000Y-47656250I-300000J0D01*
G01*
X131600000Y-66706250D02*
G75*
G03*
X131600000Y-66706250I-300000J0D01*
G01*
X229431249Y-93100000D02*
G75*
G03*
X229431249Y-93100000I-500000J0D01*
G01*
X45018749Y-93099998D02*
G75*
G03*
X45018749Y-93099998I-500000J0D01*
G01*
X246200000Y-126206250D02*
G75*
G03*
X246200000Y-126206250I-300000J0D01*
G01*
X208200000Y-57150000D02*
G75*
G03*
X208200000Y-57150000I-500000J0D01*
G01*
X246200000Y-52450000D02*
G75*
G03*
X246200000Y-52450000I-300000J0D01*
G01*
X245950717Y-128911783D02*
G75*
G03*
X248338217Y-131299283I2387483J-17D01*
G01*
X112500000Y-49281250D02*
G75*
G03*
X112500000Y-49281250I-300000J0D01*
G01*
X265012500Y-38200000D02*
G75*
G03*
X262625000Y-35812500I-2387500J0D01*
G01*
X112275717Y-128911783D02*
G75*
G03*
X114663217Y-131299283I2387483J-17D01*
G01*
X78540000Y-93099996D02*
G75*
G03*
X78540000Y-93099996I-300000J0D01*
G01*
X40220000Y-112212501D02*
G75*
G03*
X40220000Y-112212501I-300000J0D01*
G01*
X224637498Y-112212502D02*
G75*
G03*
X224637498Y-112212502I-499999J0D01*
G01*
X246400000Y-127825000D02*
G75*
G03*
X246400000Y-127825000I-500000J0D01*
G01*
X250556248Y-93100000D02*
G75*
G03*
X250556248Y-93100000I-500000J0D01*
G01*
X189074283Y-63500000D02*
G75*
G03*
X189074283Y-63500000I-500000J0D01*
G01*
X43431249Y-93099998D02*
G75*
G03*
X43431249Y-93099998I-500000J0D01*
G01*
X208200000Y-42862500D02*
G75*
G03*
X208200000Y-42862500I-500000J0D01*
G01*
X229238217Y-131299283D02*
X243461783Y-131299283D01*
X55361783Y-69912500D02*
G75*
G03*
X55361783Y-69912500I-500000J0D01*
G01*
X189074283Y-82550000D02*
G75*
G03*
X189074283Y-82550000I-500000J0D01*
G01*
X189074283Y-60325000D02*
G75*
G03*
X189074283Y-60325000I-500000J0D01*
G01*
X135912499Y-112212501D02*
G75*
G03*
X135912499Y-112212501I-500000J0D01*
G01*
X148900000Y-112212501D02*
G75*
G03*
X148900000Y-112212501I-300000J0D01*
G01*
X246400000Y-118237500D02*
G75*
G03*
X246400000Y-118237500I-500000J0D01*
G01*
X188874283Y-90550000D02*
G75*
G03*
X188874283Y-90550000I-300000J0D01*
G01*
X248338217Y-35812517D02*
G75*
G03*
X245950717Y-38200000I-17J-2387483D01*
G01*
X240610000Y-112210000D02*
G75*
G03*
X240610000Y-112210000I-300000J0D01*
G01*
X112500000Y-50868750D02*
G75*
G03*
X112500000Y-50868750I-300000J0D01*
G01*
X170000000Y-46068750D02*
G75*
G03*
X170000000Y-46068750I-500000J0D01*
G01*
X208200000Y-107981250D02*
G75*
G03*
X208200000Y-107981250I-500000J0D01*
G01*
X227300000Y-107981250D02*
G75*
G03*
X227300000Y-107981250I-500000J0D01*
G01*
X112500000Y-106431250D02*
G75*
G03*
X112500000Y-106431250I-300000J0D01*
G01*
X227100000Y-77787500D02*
G75*
G03*
X227100000Y-77787500I-300000J0D01*
G01*
X246200000Y-87343750D02*
G75*
G03*
X246200000Y-87343750I-300000J0D01*
G01*
X40006250Y-93099998D02*
G75*
G03*
X40006250Y-93099998I-300000J0D01*
G01*
X227300000Y-119825000D02*
G75*
G03*
X227300000Y-119825000I-500000J0D01*
G01*
X112174283Y-128911783D02*
X112275717Y-128911783D01*
X133763217Y-131299283D02*
X147986783Y-131299283D01*
X229431249Y-112212503D02*
G75*
G03*
X229431249Y-112212503I-500000J0D01*
G01*
X186186783Y-131299283D02*
G75*
G03*
X188574283Y-128911783I17J2387483D01*
G01*
X246400000Y-58737500D02*
G75*
G03*
X246400000Y-58737500I-500000J0D01*
G01*
X131800000Y-76200000D02*
G75*
G03*
X131800000Y-76200000I-500000J0D01*
G01*
X169800000Y-68293750D02*
G75*
G03*
X169800000Y-68293750I-300000J0D01*
G01*
X205286783Y-131299283D02*
G75*
G03*
X207674283Y-128911783I17J2387483D01*
G01*
X83368749Y-93099996D02*
G75*
G03*
X83368749Y-93099996I-499999J0D01*
G01*
X265012500Y-114600000D02*
G75*
G03*
X262625000Y-112212500I-2387500J0D01*
G01*
X112700000Y-65156250D02*
G75*
G03*
X112700000Y-65156250I-500000J0D01*
G01*
X55361783Y-65150000D02*
G75*
G03*
X55361783Y-65150000I-500000J0D01*
G01*
X188874283Y-123031250D02*
G75*
G03*
X188874283Y-123031250I-300000J0D01*
G01*
X112700000Y-84206250D02*
G75*
G03*
X112700000Y-84206250I-500000J0D01*
G01*
X227300000Y-96837500D02*
G75*
G03*
X227300000Y-96837500I-500000J0D01*
G01*
X227300000Y-127825000D02*
G75*
G03*
X227300000Y-127825000I-500000J0D01*
G01*
X112500000Y-87381250D02*
G75*
G03*
X112500000Y-87381250I-300000J0D01*
G01*
X262586783Y-93112483D02*
G75*
G03*
X264974283Y-90725000I17J2387483D01*
G01*
X109786783Y-35812500D02*
X57300000Y-35812500D01*
X248338217Y-131299283D02*
X262625000Y-131312500D01*
X189074283Y-107981250D02*
G75*
G03*
X189074283Y-107981250I-500000J0D01*
G01*
X222540000Y-93099999D02*
G75*
G03*
X222540000Y-93099999I-300000J0D01*
G01*
X202743751Y-112212502D02*
G75*
G03*
X202743751Y-112212502I-300000J0D01*
G01*
X208000000Y-104806250D02*
G75*
G03*
X208000000Y-104806250I-300000J0D01*
G01*
X76987499Y-112212500D02*
G75*
G03*
X76987499Y-112212500I-500000J0D01*
G01*
X246400000Y-123031250D02*
G75*
G03*
X246400000Y-123031250I-500000J0D01*
G01*
X215031249Y-93099999D02*
G75*
G03*
X215031249Y-93099999I-499999J0D01*
G01*
X232656248Y-112212503D02*
G75*
G03*
X232656248Y-112212503I-500000J0D01*
G01*
X150700000Y-118237500D02*
G75*
G03*
X150700000Y-118237500I-300000J0D01*
G01*
X227300000Y-109600000D02*
G75*
G03*
X227300000Y-109600000I-500000J0D01*
G01*
X62568749Y-112212499D02*
G75*
G03*
X62568749Y-112212499I-499999J0D01*
G01*
X45018749Y-112212501D02*
G75*
G03*
X45018749Y-112212501I-500000J0D01*
G01*
X246200000Y-104806250D02*
G75*
G03*
X246200000Y-104806250I-300000J0D01*
G01*
X208200000Y-123031250D02*
G75*
G03*
X208200000Y-123031250I-500000J0D01*
G01*
X150475717Y-128911783D02*
G75*
G03*
X152863217Y-131299283I2387483J-17D01*
G01*
X188874283Y-68293750D02*
G75*
G03*
X188874283Y-68293750I-300000J0D01*
G01*
X55161783Y-52481250D02*
G75*
G03*
X55161783Y-52481250I-300000J0D01*
G01*
X55361783Y-57181250D02*
G75*
G03*
X55361783Y-57181250I-500000J0D01*
G01*
X169474300Y-38200000D02*
G75*
G03*
X167086783Y-35812500I-2387500J0D01*
G01*
X208000000Y-76200000D02*
G75*
G03*
X208000000Y-76200000I-300000J0D01*
G01*
X55361783Y-109631250D02*
G75*
G03*
X55361783Y-109631250I-500000J0D01*
G01*
X127693750Y-112212500D02*
G75*
G03*
X127693750Y-112212500I-300000J0D01*
G01*
X208200000Y-116650000D02*
G75*
G03*
X208200000Y-116650000I-500000J0D01*
G01*
X186875001Y-112212502D02*
G75*
G03*
X186875001Y-112212502I-499999J0D01*
G01*
X227300000Y-98425000D02*
G75*
G03*
X227300000Y-98425000I-500000J0D01*
G01*
X262625000Y-112212500D02*
G75*
G03*
X265012500Y-109825000I0J2387500D01*
G01*
X189074283Y-80962500D02*
G75*
G03*
X189074283Y-80962500I-500000J0D01*
G01*
X64187500Y-93099997D02*
G75*
G03*
X64187500Y-93099997I-500000J0D01*
G01*
X131274300Y-38200000D02*
G75*
G03*
X128886783Y-35812500I-2387500J0D01*
G01*
X95887500Y-93099997D02*
G75*
G03*
X95887500Y-93099997I-499999J0D01*
G01*
X114663217Y-131299283D02*
X128886783Y-131299283D01*
X229238217Y-35812517D02*
G75*
G03*
X226850717Y-38200000I-17J-2387483D01*
G01*
X149099999Y-93099998D02*
G75*
G03*
X149099999Y-93099998I-499999J0D01*
G01*
X237449998Y-93099999D02*
G75*
G03*
X237449998Y-93099999I-499999J0D01*
G01*
X204040000Y-93100000D02*
G75*
G03*
X204040000Y-93100000I-300000J0D01*
G01*
X227100000Y-68293750D02*
G75*
G03*
X227100000Y-68293750I-300000J0D01*
G01*
X246400000Y-46068750D02*
G75*
G03*
X246400000Y-46068750I-500000J0D01*
G01*
X170000000Y-76200000D02*
G75*
G03*
X170000000Y-76200000I-500000J0D01*
G01*
X189074283Y-58737500D02*
G75*
G03*
X189074283Y-58737500I-500000J0D01*
G01*
X150700000Y-66706250D02*
G75*
G03*
X150700000Y-66706250I-300000J0D01*
G01*
X246200000Y-39687500D02*
G75*
G03*
X246200000Y-39687500I-300000J0D01*
G01*
X227100000Y-66706250D02*
G75*
G03*
X227100000Y-66706250I-300000J0D01*
G01*
X246400000Y-107981250D02*
G75*
G03*
X246400000Y-107981250I-500000J0D01*
G01*
X131800000Y-80962500D02*
G75*
G03*
X131800000Y-80962500I-500000J0D01*
G01*
X253300000Y-93099999D02*
G75*
G03*
X253300000Y-93099999I-300000J0D01*
G01*
X169800000Y-71500000D02*
G75*
G03*
X169800000Y-71500000I-300000J0D01*
G01*
X208000000Y-90550000D02*
G75*
G03*
X208000000Y-90550000I-300000J0D01*
G01*
X170000000Y-109600000D02*
G75*
G03*
X170000000Y-109600000I-500000J0D01*
G01*
X208200000Y-109600000D02*
G75*
G03*
X208200000Y-109600000I-500000J0D01*
G01*
X246400000Y-96837500D02*
G75*
G03*
X246400000Y-96837500I-500000J0D01*
G01*
X178868749Y-112212502D02*
G75*
G03*
X178868749Y-112212502I-499999J0D01*
G01*
X54811066Y-38200000D02*
X54912500Y-38200000D01*
X55161783Y-126237500D02*
G75*
G03*
X55161783Y-126237500I-300000J0D01*
G01*
X89799999Y-112212500D02*
G75*
G03*
X89799999Y-112212500I-500000J0D01*
G01*
X35812500Y-128925000D02*
G75*
G03*
X38200000Y-131312500I2387500J0D01*
G01*
X116700000Y-112212501D02*
G75*
G03*
X116700000Y-112212501I-500000J0D01*
G01*
X112500000Y-68331250D02*
G75*
G03*
X112500000Y-68331250I-300000J0D01*
G01*
X208200000Y-103218750D02*
G75*
G03*
X208200000Y-103218750I-500000J0D01*
G01*
X41874999Y-93099997D02*
G75*
G03*
X41874999Y-93099997I-499999J0D01*
G01*
X169800000Y-82550000D02*
G75*
G03*
X169800000Y-82550000I-300000J0D01*
G01*
X227300000Y-79375000D02*
G75*
G03*
X227300000Y-79375000I-500000J0D01*
G01*
X188874283Y-87343750D02*
G75*
G03*
X188874283Y-87343750I-300000J0D01*
G01*
X227100000Y-126206250D02*
G75*
G03*
X227100000Y-126206250I-300000J0D01*
G01*
X238600000Y-112212502D02*
G75*
G03*
X238600000Y-112212502I-300000J0D01*
G01*
X169800000Y-39687500D02*
G75*
G03*
X169800000Y-39687500I-300000J0D01*
G01*
X131600000Y-58900000D02*
G75*
G03*
X131600000Y-58900000I-300000J0D01*
G01*
X246400000Y-79375000D02*
G75*
G03*
X246400000Y-79375000I-500000J0D01*
G01*
X189074283Y-98425000D02*
G75*
G03*
X189074283Y-98425000I-500000J0D01*
G01*
X261920000Y-112230000D02*
G75*
G03*
X261920000Y-112230000I-300000J0D01*
G01*
X208000000Y-68293750D02*
G75*
G03*
X208000000Y-68293750I-300000J0D01*
G01*
X227300000Y-101600000D02*
G75*
G03*
X227300000Y-101600000I-500000J0D01*
G01*
X154099999Y-112212501D02*
G75*
G03*
X154099999Y-112212501I-499999J0D01*
G01*
X99112499Y-112212501D02*
G75*
G03*
X99112499Y-112212501I-500000J0D01*
G01*
X264974283Y-90725000D02*
X265012500Y-38200000D01*
X208000000Y-66706250D02*
G75*
G03*
X208000000Y-66706250I-300000J0D01*
G01*
X150900000Y-107981250D02*
G75*
G03*
X150900000Y-107981250I-500000J0D01*
G01*
X189074283Y-65118750D02*
G75*
G03*
X189074283Y-65118750I-500000J0D01*
G01*
X112700000Y-79412500D02*
G75*
G03*
X112700000Y-79412500I-500000J0D01*
G01*
X150900000Y-61912500D02*
G75*
G03*
X150900000Y-61912500I-500000J0D01*
G01*
X55361783Y-115125000D02*
G75*
G03*
X55361783Y-115125000I-500000J0D01*
G01*
X150700000Y-106393750D02*
G75*
G03*
X150700000Y-106393750I-300000J0D01*
G01*
X131600000Y-118500000D02*
G75*
G03*
X131600000Y-118500000I-300000J0D01*
G01*
X194893750Y-112212502D02*
G75*
G03*
X194893750Y-112212502I-499999J0D01*
G01*
X246200000Y-66706250D02*
G75*
G03*
X246200000Y-66706250I-300000J0D01*
G01*
X60981249Y-112212499D02*
G75*
G03*
X60981249Y-112212499I-499999J0D01*
G01*
X199656250Y-112212502D02*
G75*
G03*
X199656250Y-112212502I-499999J0D01*
G01*
X55361783Y-71531250D02*
G75*
G03*
X55361783Y-71531250I-500000J0D01*
G01*
X131600000Y-52450000D02*
G75*
G03*
X131600000Y-52450000I-300000J0D01*
G01*
X124740000Y-93099997D02*
G75*
G03*
X124740000Y-93099997I-300000J0D01*
G01*
X207775717Y-128911783D02*
G75*
G03*
X210163217Y-131299283I2387483J-17D01*
G01*
X188874283Y-52450000D02*
G75*
G03*
X188874283Y-52450000I-300000J0D01*
G01*
X245849300Y-38200000D02*
G75*
G03*
X243461783Y-35812500I-2387500J0D01*
G01*
X246200000Y-76200000D02*
G75*
G03*
X246200000Y-76200000I-300000J0D01*
G01*
X227300000Y-100012500D02*
G75*
G03*
X227300000Y-100012500I-500000J0D01*
G01*
X175693749Y-112212502D02*
G75*
G03*
X175693749Y-112212502I-499999J0D01*
G01*
X208200000Y-118237500D02*
G75*
G03*
X208200000Y-118237500I-500000J0D01*
G01*
X227300000Y-121443750D02*
G75*
G03*
X227300000Y-121443750I-500000J0D01*
G01*
X170000000Y-79375000D02*
G75*
G03*
X170000000Y-79375000I-500000J0D01*
G01*
X131600000Y-90550000D02*
G75*
G03*
X131600000Y-90550000I-300000J0D01*
G01*
X169800000Y-90550000D02*
G75*
G03*
X169800000Y-90550000I-300000J0D01*
G01*
X141399999Y-112212501D02*
G75*
G03*
X141399999Y-112212501I-499999J0D01*
G01*
X131600000Y-39687500D02*
G75*
G03*
X131600000Y-39687500I-300000J0D01*
G01*
X227100000Y-69881250D02*
G75*
G03*
X227100000Y-69881250I-300000J0D01*
G01*
X227300000Y-82550000D02*
G75*
G03*
X227300000Y-82550000I-500000J0D01*
G01*
X55161783Y-66737500D02*
G75*
G03*
X55161783Y-66737500I-300000J0D01*
G01*
X211856249Y-112212503D02*
G75*
G03*
X211856249Y-112212503I-500000J0D01*
G01*
X246400000Y-101600000D02*
G75*
G03*
X246400000Y-101600000I-500000J0D01*
G01*
X265012500Y-109825000D02*
X264974283Y-95500000D01*
X112500000Y-57187500D02*
G75*
G03*
X112500000Y-57187500I-300000J0D01*
G01*
X112700000Y-119862500D02*
G75*
G03*
X112700000Y-119862500I-500000J0D01*
G01*
X150700000Y-57150000D02*
G75*
G03*
X150700000Y-57150000I-300000J0D01*
G01*
X97556249Y-93099997D02*
G75*
G03*
X97556249Y-93099997I-499999J0D01*
G01*
X189074283Y-46068750D02*
G75*
G03*
X189074283Y-46068750I-500000J0D01*
G01*
X169800000Y-98425000D02*
G75*
G03*
X169800000Y-98425000I-300000J0D01*
G01*
X112700000Y-77825000D02*
G75*
G03*
X112700000Y-77825000I-500000J0D01*
G01*
X150700000Y-126206250D02*
G75*
G03*
X150700000Y-126206250I-300000J0D01*
G01*
X188874283Y-71500000D02*
G75*
G03*
X188874283Y-71500000I-300000J0D01*
G01*
X246400000Y-63500000D02*
G75*
G03*
X246400000Y-63500000I-500000J0D01*
G01*
X189074283Y-101600000D02*
G75*
G03*
X189074283Y-101600000I-500000J0D01*
G01*
X227100000Y-88931250D02*
G75*
G03*
X227100000Y-88931250I-300000J0D01*
G01*
X246400000Y-42862500D02*
G75*
G03*
X246400000Y-42862500I-500000J0D01*
G01*
X227300000Y-44450000D02*
G75*
G03*
X227300000Y-44450000I-500000J0D01*
G01*
X227300000Y-123031250D02*
G75*
G03*
X227300000Y-123031250I-500000J0D01*
G01*
X112500000Y-121481250D02*
G75*
G03*
X112500000Y-121481250I-300000J0D01*
G01*
X65856249Y-112212499D02*
G75*
G03*
X65856249Y-112212499I-499999J0D01*
G01*
X169800000Y-65118750D02*
G75*
G03*
X169800000Y-65118750I-300000J0D01*
G01*
X169800000Y-52450000D02*
G75*
G03*
X169800000Y-52450000I-300000J0D01*
G01*
X112500000Y-127862500D02*
G75*
G03*
X112500000Y-127862500I-300000J0D01*
G01*
X35812500Y-109825000D02*
G75*
G03*
X38200000Y-112212500I2387500J0D01*
G01*
X122640000Y-93099998D02*
G75*
G03*
X122640000Y-93099998I-300000J0D01*
G01*
X55161783Y-87375000D02*
G75*
G03*
X55161783Y-87375000I-300000J0D01*
G01*
X112700000Y-66743750D02*
G75*
G03*
X112700000Y-66743750I-500000J0D01*
G01*
X170000000Y-63500000D02*
G75*
G03*
X170000000Y-63500000I-500000J0D01*
G01*
X262625000Y-131312500D02*
G75*
G03*
X265012500Y-128925000I0J2387500D01*
G01*
X160487499Y-93099999D02*
G75*
G03*
X160487499Y-93099999I-500000J0D01*
G01*
X55361783Y-58768750D02*
G75*
G03*
X55361783Y-58768750I-500000J0D01*
G01*
X169800000Y-85756250D02*
G75*
G03*
X169800000Y-85756250I-300000J0D01*
G01*
X246400000Y-90550000D02*
G75*
G03*
X246400000Y-90550000I-500000J0D01*
G01*
X131600000Y-49243750D02*
G75*
G03*
X131600000Y-49243750I-300000J0D01*
G01*
X227300000Y-115093750D02*
G75*
G03*
X227300000Y-115093750I-500000J0D01*
G01*
X246400000Y-109600000D02*
G75*
G03*
X246400000Y-109600000I-500000J0D01*
G01*
X80193749Y-112212499D02*
G75*
G03*
X80193749Y-112212499I-499999J0D01*
G01*
X112500000Y-108018750D02*
G75*
G03*
X112500000Y-108018750I-300000J0D01*
G01*
X246400000Y-103218750D02*
G75*
G03*
X246400000Y-103218750I-500000J0D01*
G01*
X206087500Y-112212503D02*
G75*
G03*
X206087500Y-112212503I-500000J0D01*
G01*
X169800000Y-69881250D02*
G75*
G03*
X169800000Y-69881250I-300000J0D01*
G01*
X38212500Y-93112500D02*
G75*
G03*
X35825000Y-95500000I0J-2387500D01*
G01*
X129481249Y-93099997D02*
G75*
G03*
X129481249Y-93099997I-499999J0D01*
G01*
X55361783Y-63531250D02*
G75*
G03*
X55361783Y-63531250I-500000J0D01*
G01*
X227300000Y-42862500D02*
G75*
G03*
X227300000Y-42862500I-500000J0D01*
G01*
X188874283Y-66706250D02*
G75*
G03*
X188874283Y-66706250I-300000J0D01*
G01*
X235831248Y-93099999D02*
G75*
G03*
X235831248Y-93099999I-499999J0D01*
G01*
X178868749Y-93099999D02*
G75*
G03*
X178868749Y-93099999I-499999J0D01*
G01*
X188874283Y-69881250D02*
G75*
G03*
X188874283Y-69881250I-300000J0D01*
G01*
X246200000Y-77787500D02*
G75*
G03*
X246200000Y-77787500I-300000J0D01*
G01*
X150700000Y-88931250D02*
G75*
G03*
X150700000Y-88931250I-300000J0D01*
G01*
X213443749Y-93100000D02*
G75*
G03*
X213443749Y-93100000I-500000J0D01*
G01*
X112500000Y-39900000D02*
G75*
G03*
X112500000Y-39900000I-300000J0D01*
G01*
X55361783Y-77818750D02*
G75*
G03*
X55361783Y-77818750I-500000J0D01*
G01*
X167061783Y-131299283D02*
G75*
G03*
X169449283Y-128911783I17J2387483D01*
G01*
X38200000Y-131312500D02*
X52423566Y-131312500D01*
X174106249Y-112212502D02*
G75*
G03*
X174106249Y-112212502I-499999J0D01*
G01*
X147986783Y-131299283D02*
G75*
G03*
X150374283Y-128911783I17J2387483D01*
G01*
X55361783Y-61943750D02*
G75*
G03*
X55361783Y-61943750I-500000J0D01*
G01*
X208200000Y-63500000D02*
G75*
G03*
X208200000Y-63500000I-500000J0D01*
G01*
X242212498Y-112212502D02*
G75*
G03*
X242212498Y-112212502I-499999J0D01*
G01*
X226749283Y-128911783D02*
X226850717Y-128911783D01*
X155475000Y-93099999D02*
G75*
G03*
X155475000Y-93099999I-300000J0D01*
G01*
X246400000Y-69881250D02*
G75*
G03*
X246400000Y-69881250I-500000J0D01*
G01*
X170000000Y-60325000D02*
G75*
G03*
X170000000Y-60325000I-500000J0D01*
G01*
X112700000Y-76237500D02*
G75*
G03*
X112700000Y-76237500I-500000J0D01*
G01*
X99112499Y-93099998D02*
G75*
G03*
X99112499Y-93099998I-500000J0D01*
G01*
X227300000Y-60325000D02*
G75*
G03*
X227300000Y-60325000I-500000J0D01*
G01*
X150700000Y-85756250D02*
G75*
G03*
X150700000Y-85756250I-300000J0D01*
G01*
X221431248Y-112212502D02*
G75*
G03*
X221431248Y-112212502I-499999J0D01*
G01*
X91387499Y-93099997D02*
G75*
G03*
X91387499Y-93099997I-500000J0D01*
G01*
X193275000Y-93099999D02*
G75*
G03*
X193275000Y-93099999I-499999J0D01*
G01*
X188874283Y-49243750D02*
G75*
G03*
X188874283Y-49243750I-300000J0D01*
G01*
X208000000Y-69881250D02*
G75*
G03*
X208000000Y-69881250I-300000J0D01*
G01*
X167756249Y-93099999D02*
G75*
G03*
X167756249Y-93099999I-499999J0D01*
G01*
X227300000Y-52450000D02*
G75*
G03*
X227300000Y-52450000I-500000J0D01*
G01*
X112700000Y-63537500D02*
G75*
G03*
X112700000Y-63537500I-500000J0D01*
G01*
X189074283Y-118237500D02*
G75*
G03*
X189074283Y-118237500I-500000J0D01*
G01*
X112700000Y-104843750D02*
G75*
G03*
X112700000Y-104843750I-500000J0D01*
G01*
X188874283Y-76200000D02*
G75*
G03*
X188874283Y-76200000I-300000J0D01*
G01*
X91387499Y-112212500D02*
G75*
G03*
X91387499Y-112212500I-500000J0D01*
G01*
X88190000Y-93099996D02*
G75*
G03*
X88190000Y-93099996I-300000J0D01*
G01*
X131600000Y-70000000D02*
G75*
G03*
X131600000Y-70000000I-300000J0D01*
G01*
X115112500Y-112212501D02*
G75*
G03*
X115112500Y-112212501I-500000J0D01*
G01*
X224361783Y-131299283D02*
G75*
G03*
X226749283Y-128911783I17J2387483D01*
G01*
X227100000Y-85756250D02*
G75*
G03*
X227100000Y-85756250I-300000J0D01*
G01*
X170000000Y-41275000D02*
G75*
G03*
X170000000Y-41275000I-500000J0D01*
G01*
X150900000Y-58737500D02*
G75*
G03*
X150900000Y-58737500I-500000J0D01*
G01*
X124687499Y-112212500D02*
G75*
G03*
X124687499Y-112212500I-499999J0D01*
G01*
X246200000Y-50831250D02*
G75*
G03*
X246200000Y-50831250I-300000J0D01*
G01*
X131375717Y-128911783D02*
G75*
G03*
X133763217Y-131299283I2387483J-17D01*
G01*
X246400000Y-80962500D02*
G75*
G03*
X246400000Y-80962500I-500000J0D01*
G01*
X208000000Y-52450000D02*
G75*
G03*
X208000000Y-52450000I-300000J0D01*
G01*
X54811100Y-38200000D02*
G75*
G03*
X52423566Y-35812500I-2387500J0D01*
G01*
X152500000Y-93099998D02*
G75*
G03*
X152500000Y-93099998I-300000J0D01*
G01*
X208000000Y-88931250D02*
G75*
G03*
X208000000Y-88931250I-300000J0D01*
G01*
X186875001Y-93099999D02*
G75*
G03*
X186875001Y-93099999I-499999J0D01*
G01*
X167086783Y-35812500D02*
X152838217Y-35812500D01*
X46310000Y-112212500D02*
G75*
G03*
X46310000Y-112212500I-300000J0D01*
G01*
X246400000Y-61912500D02*
G75*
G03*
X246400000Y-61912500I-500000J0D01*
G01*
X248999998Y-93099999D02*
G75*
G03*
X248999998Y-93099999I-499999J0D01*
G01*
X114663217Y-35812500D02*
X128886783Y-35812500D01*
X246400000Y-88931250D02*
G75*
G03*
X246400000Y-88931250I-500000J0D01*
G01*
X150700000Y-95000000D02*
G75*
G03*
X150700000Y-95000000I-300000J0D01*
G01*
X210299999Y-93099999D02*
G75*
G03*
X210299999Y-93099999I-499999J0D01*
G01*
X126306249Y-112212500D02*
G75*
G03*
X126306249Y-112212500I-499999J0D01*
G01*
X131800000Y-77787500D02*
G75*
G03*
X131800000Y-77787500I-500000J0D01*
G01*
X112700000Y-61950000D02*
G75*
G03*
X112700000Y-61950000I-500000J0D01*
G01*
X112700000Y-60362500D02*
G75*
G03*
X112700000Y-60362500I-500000J0D01*
G01*
X259912499Y-93099999D02*
G75*
G03*
X259912499Y-93099999I-300000J0D01*
G01*
X169800000Y-127825000D02*
G75*
G03*
X169800000Y-127825000I-300000J0D01*
G01*
X198068750Y-93099999D02*
G75*
G03*
X198068750Y-93099999I-499999J0D01*
G01*
X81781249Y-112212499D02*
G75*
G03*
X81781249Y-112212499I-499999J0D01*
G01*
X208200000Y-119825000D02*
G75*
G03*
X208200000Y-119825000I-500000J0D01*
G01*
X171938217Y-131299283D02*
X186186783Y-131299283D01*
X202943750Y-93099999D02*
G75*
G03*
X202943750Y-93099999I-499999J0D01*
G01*
X208200000Y-95250000D02*
G75*
G03*
X208200000Y-95250000I-500000J0D01*
G01*
X189074283Y-103218750D02*
G75*
G03*
X189074283Y-103218750I-500000J0D01*
G01*
X227100000Y-106393750D02*
G75*
G03*
X227100000Y-106393750I-300000J0D01*
G01*
X189074283Y-126206250D02*
G75*
G03*
X189074283Y-126206250I-500000J0D01*
G01*
X65656250Y-93099996D02*
G75*
G03*
X65656250Y-93099996I-300000J0D01*
G01*
X208200000Y-80962500D02*
G75*
G03*
X208200000Y-80962500I-500000J0D01*
G01*
X69000000Y-93099997D02*
G75*
G03*
X69000000Y-93099997I-500000J0D01*
G01*
X227100000Y-71500000D02*
G75*
G03*
X227100000Y-71500000I-300000J0D01*
G01*
X246200000Y-124618750D02*
G75*
G03*
X246200000Y-124618750I-300000J0D01*
G01*
X246400000Y-57150000D02*
G75*
G03*
X246400000Y-57150000I-500000J0D01*
G01*
X55361783Y-82581250D02*
G75*
G03*
X55361783Y-82581250I-500000J0D01*
G01*
X246400000Y-41275000D02*
G75*
G03*
X246400000Y-41275000I-500000J0D01*
G01*
X150900000Y-60325000D02*
G75*
G03*
X150900000Y-60325000I-500000J0D01*
G01*
X170000000Y-44450000D02*
G75*
G03*
X170000000Y-44450000I-500000J0D01*
G01*
X55161783Y-50810000D02*
G75*
G03*
X55161783Y-50810000I-300000J0D01*
G01*
X213443749Y-112212503D02*
G75*
G03*
X213443749Y-112212503I-500000J0D01*
G01*
X55361783Y-121475000D02*
G75*
G03*
X55361783Y-121475000I-500000J0D01*
G01*
X54912500Y-128925000D02*
G75*
G03*
X57300000Y-131312500I2387500J0D01*
G01*
X131274283Y-128911783D02*
X131375717Y-128911783D01*
X150700000Y-50831250D02*
G75*
G03*
X150700000Y-50831250I-300000J0D01*
G01*
X169800000Y-66706250D02*
G75*
G03*
X169800000Y-66706250I-300000J0D01*
G01*
X112700000Y-96875000D02*
G75*
G03*
X112700000Y-96875000I-500000J0D01*
G01*
X208200000Y-101600000D02*
G75*
G03*
X208200000Y-101600000I-500000J0D01*
G01*
X88043750Y-112212499D02*
G75*
G03*
X88043750Y-112212499I-300000J0D01*
G01*
X189074283Y-47656250D02*
G75*
G03*
X189074283Y-47656250I-500000J0D01*
G01*
X150700000Y-98425000D02*
G75*
G03*
X150700000Y-98425000I-300000J0D01*
G01*
X189074283Y-116650000D02*
G75*
G03*
X189074283Y-116650000I-500000J0D01*
G01*
X246400000Y-82550000D02*
G75*
G03*
X246400000Y-82550000I-500000J0D01*
G01*
X150700000Y-39687500D02*
G75*
G03*
X150700000Y-39687500I-300000J0D01*
G01*
X189074283Y-121443750D02*
G75*
G03*
X189074283Y-121443750I-500000J0D01*
G01*
X112500000Y-42800000D02*
G75*
G03*
X112500000Y-42800000I-300000J0D01*
G01*
X207674283Y-128911783D02*
X207775717Y-128911783D01*
X55161783Y-39920000D02*
G75*
G03*
X55161783Y-39920000I-300000J0D01*
G01*
X188874283Y-88931250D02*
G75*
G03*
X188874283Y-88931250I-300000J0D01*
G01*
X174106249Y-93099999D02*
G75*
G03*
X174106249Y-93099999I-499999J0D01*
G01*
X107120000Y-93099997D02*
G75*
G03*
X107120000Y-93099997I-300000J0D01*
G01*
X152838217Y-35812517D02*
G75*
G03*
X150450717Y-38200000I-17J-2387483D01*
G01*
X246200000Y-49243750D02*
G75*
G03*
X246200000Y-49243750I-300000J0D01*
G01*
X150700000Y-63500000D02*
G75*
G03*
X150700000Y-63500000I-300000J0D01*
G01*
X131600000Y-61700000D02*
G75*
G03*
X131600000Y-61700000I-300000J0D01*
G01*
X255300000Y-93099999D02*
G75*
G03*
X255300000Y-93099999I-300000J0D01*
G01*
X188574283Y-128911783D02*
X188675717Y-128911783D01*
X76520000Y-93099997D02*
G75*
G03*
X76520000Y-93099997I-300000J0D01*
G01*
X150700000Y-90550000D02*
G75*
G03*
X150700000Y-90550000I-300000J0D01*
G01*
X246200000Y-47656250D02*
G75*
G03*
X246200000Y-47656250I-300000J0D01*
G01*
X170000000Y-42862500D02*
G75*
G03*
X170000000Y-42862500I-500000J0D01*
G01*
X243831249Y-93100000D02*
G75*
G03*
X243831249Y-93100000I-500000J0D01*
G01*
X169800000Y-49243750D02*
G75*
G03*
X169800000Y-49243750I-300000J0D01*
G01*
X188675717Y-128911783D02*
G75*
G03*
X191063217Y-131299283I2387483J-17D01*
G01*
X112700000Y-116687500D02*
G75*
G03*
X112700000Y-116687500I-500000J0D01*
G01*
X55361783Y-76231250D02*
G75*
G03*
X55361783Y-76231250I-500000J0D01*
G01*
X208200000Y-41275000D02*
G75*
G03*
X208200000Y-41275000I-500000J0D01*
G01*
X208000000Y-39687500D02*
G75*
G03*
X208000000Y-39687500I-300000J0D01*
G01*
X71975001Y-112212499D02*
G75*
G03*
X71975001Y-112212499I-300000J0D01*
G01*
X216699998Y-93099999D02*
G75*
G03*
X216699998Y-93099999I-499999J0D01*
G01*
X112700000Y-124656250D02*
G75*
G03*
X112700000Y-124656250I-500000J0D01*
G01*
X191063217Y-35812500D02*
X205286783Y-35812500D01*
X86220000Y-93099997D02*
G75*
G03*
X86220000Y-93099997I-300000J0D01*
G01*
X210299999Y-112212502D02*
G75*
G03*
X210299999Y-112212502I-499999J0D01*
G01*
X170000000Y-61912500D02*
G75*
G03*
X170000000Y-61912500I-500000J0D01*
G01*
X147400000Y-112212501D02*
G75*
G03*
X147400000Y-112212501I-300000J0D01*
G01*
X141399999Y-93099998D02*
G75*
G03*
X141399999Y-93099998I-499999J0D01*
G01*
X169800000Y-100012500D02*
G75*
G03*
X169800000Y-100012500I-300000J0D01*
G01*
X208000000Y-71500000D02*
G75*
G03*
X208000000Y-71500000I-300000J0D01*
G01*
X188874283Y-124618750D02*
G75*
G03*
X188874283Y-124618750I-300000J0D01*
G01*
X112700000Y-98462500D02*
G75*
G03*
X112700000Y-98462500I-500000J0D01*
G01*
X145887499Y-112212502D02*
G75*
G03*
X145887499Y-112212502I-300000J0D01*
G01*
X131800000Y-107981250D02*
G75*
G03*
X131800000Y-107981250I-500000J0D01*
G01*
X68800000Y-112212500D02*
G75*
G03*
X68800000Y-112212500I-300000J0D01*
G01*
X84956249Y-112212499D02*
G75*
G03*
X84956249Y-112212499I-499999J0D01*
G01*
X227100000Y-124618750D02*
G75*
G03*
X227100000Y-124618750I-300000J0D01*
G01*
X112700000Y-115131250D02*
G75*
G03*
X112700000Y-115131250I-500000J0D01*
G01*
X67212499Y-93099997D02*
G75*
G03*
X67212499Y-93099997I-300000J0D01*
G01*
X208000000Y-47656250D02*
G75*
G03*
X208000000Y-47656250I-300000J0D01*
G01*
X246400000Y-121443750D02*
G75*
G03*
X246400000Y-121443750I-500000J0D01*
G01*
X189074283Y-44450000D02*
G75*
G03*
X189074283Y-44450000I-500000J0D01*
G01*
X55361783Y-42893750D02*
G75*
G03*
X55361783Y-42893750I-500000J0D01*
G01*
X256937498Y-112212502D02*
G75*
G03*
X256937498Y-112212502I-499999J0D01*
G01*
X134356249Y-112212500D02*
G75*
G03*
X134356249Y-112212500I-499999J0D01*
G01*
X112700000Y-103256250D02*
G75*
G03*
X112700000Y-103256250I-500000J0D01*
G01*
X112500000Y-58775000D02*
G75*
G03*
X112500000Y-58775000I-300000J0D01*
G01*
X191687500Y-112212503D02*
G75*
G03*
X191687500Y-112212503I-500000J0D01*
G01*
X208200000Y-100012500D02*
G75*
G03*
X208200000Y-100012500I-500000J0D01*
G01*
X81781249Y-93099996D02*
G75*
G03*
X81781249Y-93099996I-499999J0D01*
G01*
X227100000Y-87343750D02*
G75*
G03*
X227100000Y-87343750I-300000J0D01*
G01*
X234243748Y-93100000D02*
G75*
G03*
X234243748Y-93100000I-500000J0D01*
G01*
X175693749Y-93099999D02*
G75*
G03*
X175693749Y-93099999I-499999J0D01*
G01*
X188874283Y-50831250D02*
G75*
G03*
X188874283Y-50831250I-300000J0D01*
G01*
X55361783Y-98456250D02*
G75*
G03*
X55361783Y-98456250I-500000J0D01*
G01*
X150900000Y-46068750D02*
G75*
G03*
X150900000Y-46068750I-500000J0D01*
G01*
X131800000Y-84168750D02*
G75*
G03*
X131800000Y-84168750I-500000J0D01*
G01*
X54811066Y-128925000D02*
X54912500Y-128925000D01*
X211856249Y-93100000D02*
G75*
G03*
X211856249Y-93100000I-500000J0D01*
G01*
X227300000Y-116650000D02*
G75*
G03*
X227300000Y-116650000I-500000J0D01*
G01*
X150700000Y-100012500D02*
G75*
G03*
X150700000Y-100012500I-300000J0D01*
G01*
X89799999Y-93099997D02*
G75*
G03*
X89799999Y-93099997I-500000J0D01*
G01*
X169800000Y-47656250D02*
G75*
G03*
X169800000Y-47656250I-300000J0D01*
G01*
X219843748Y-93100000D02*
G75*
G03*
X219843748Y-93100000I-500000J0D01*
G01*
X55361783Y-116681250D02*
G75*
G03*
X55361783Y-116681250I-500000J0D01*
G01*
X103706250Y-112212500D02*
G75*
G03*
X103706250Y-112212500I-300000J0D01*
G01*
X216699998Y-112212502D02*
G75*
G03*
X216699998Y-112212502I-499999J0D01*
G01*
X150349300Y-38200000D02*
G75*
G03*
X147961783Y-35812500I-2387500J0D01*
G01*
X35812500Y-114600000D02*
X35812500Y-128925000D01*
X108668749Y-112212500D02*
G75*
G03*
X108668749Y-112212500I-499999J0D01*
G01*
X38200000Y-35812500D02*
G75*
G03*
X35812500Y-38200000I0J-2387500D01*
G01*
X55361783Y-44481250D02*
G75*
G03*
X55361783Y-44481250I-500000J0D01*
G01*
X204500000Y-112212503D02*
G75*
G03*
X204500000Y-112212503I-500000J0D01*
G01*
X102287499Y-112212500D02*
G75*
G03*
X102287499Y-112212500I-499999J0D01*
G01*
X131600000Y-88931250D02*
G75*
G03*
X131600000Y-88931250I-300000J0D01*
G01*
X169800000Y-88931250D02*
G75*
G03*
X169800000Y-88931250I-300000J0D01*
G01*
X221431248Y-93099999D02*
G75*
G03*
X221431248Y-93099999I-499999J0D01*
G01*
X246400000Y-115093750D02*
G75*
G03*
X246400000Y-115093750I-500000J0D01*
G01*
X150700000Y-127825000D02*
G75*
G03*
X150700000Y-127825000I-300000J0D01*
G01*
X150900000Y-42862500D02*
G75*
G03*
X150900000Y-42862500I-500000J0D01*
G01*
X55361783Y-127838217D02*
G75*
G03*
X55361783Y-127838217I-500000J0D01*
G01*
X194893750Y-93099999D02*
G75*
G03*
X194893750Y-93099999I-499999J0D01*
G01*
X210163217Y-35812500D02*
X224361783Y-35812500D01*
X232656248Y-93100000D02*
G75*
G03*
X232656248Y-93100000I-500000J0D01*
G01*
X131800000Y-41275000D02*
G75*
G03*
X131800000Y-41275000I-500000J0D01*
G01*
X246400000Y-84168750D02*
G75*
G03*
X246400000Y-84168750I-500000J0D01*
G01*
X256937498Y-93099999D02*
G75*
G03*
X256937498Y-93099999I-499999J0D01*
G01*
X240750000Y-93099999D02*
G75*
G03*
X240750000Y-93099999I-300000J0D01*
G01*
X172487499Y-93099999D02*
G75*
G03*
X172487499Y-93099999I-499999J0D01*
G01*
X150900000Y-79375000D02*
G75*
G03*
X150900000Y-79375000I-500000J0D01*
G01*
X150700000Y-69881250D02*
G75*
G03*
X150700000Y-69881250I-300000J0D01*
G01*
X189074283Y-106393750D02*
G75*
G03*
X189074283Y-106393750I-500000J0D01*
G01*
X229238217Y-35812500D02*
X243461783Y-35812500D01*
X189074283Y-85756250D02*
G75*
G03*
X189074283Y-85756250I-500000J0D01*
G01*
X165887501Y-112212502D02*
G75*
G03*
X165887501Y-112212502I-300000J0D01*
G01*
X131800000Y-42862500D02*
G75*
G03*
X131800000Y-42862500I-500000J0D01*
G01*
X59393749Y-93099996D02*
G75*
G03*
X59393749Y-93099996I-499999J0D01*
G01*
X210163217Y-35812517D02*
G75*
G03*
X207775717Y-38200000I-17J-2387483D01*
G01*
X227300000Y-118237500D02*
G75*
G03*
X227300000Y-118237500I-500000J0D01*
G01*
X167556250Y-112212502D02*
G75*
G03*
X167556250Y-112212502I-300000J0D01*
G01*
X208000000Y-87343750D02*
G75*
G03*
X208000000Y-87343750I-300000J0D01*
G01*
X83368749Y-112212499D02*
G75*
G03*
X83368749Y-112212499I-499999J0D01*
G01*
X55361783Y-100043750D02*
G75*
G03*
X55361783Y-100043750I-500000J0D01*
G01*
X227100000Y-39687500D02*
G75*
G03*
X227100000Y-39687500I-300000J0D01*
G01*
X208200000Y-84168750D02*
G75*
G03*
X208200000Y-84168750I-500000J0D01*
G01*
X150700000Y-49243750D02*
G75*
G03*
X150700000Y-49243750I-300000J0D01*
G01*
X55361783Y-104837500D02*
G75*
G03*
X55361783Y-104837500I-500000J0D01*
G01*
X49587501Y-93099996D02*
G75*
G03*
X49587501Y-93099996I-300000J0D01*
G01*
X189074283Y-127825000D02*
G75*
G03*
X189074283Y-127825000I-500000J0D01*
G01*
X258090000Y-112212502D02*
G75*
G03*
X258090000Y-112212502I-300000J0D01*
G01*
X55361783Y-101631250D02*
G75*
G03*
X55361783Y-101631250I-500000J0D01*
G01*
X177281249Y-93099999D02*
G75*
G03*
X177281249Y-93099999I-499999J0D01*
G01*
X131800000Y-109600000D02*
G75*
G03*
X131800000Y-109600000I-500000J0D01*
G01*
X243461783Y-131299283D02*
G75*
G03*
X245849283Y-128911783I17J2387483D01*
G01*
X112700000Y-82587500D02*
G75*
G03*
X112700000Y-82587500I-500000J0D01*
G01*
X112500000Y-44600000D02*
G75*
G03*
X112500000Y-44600000I-300000J0D01*
G01*
X131800000Y-126500000D02*
G75*
G03*
X131800000Y-126500000I-500000J0D01*
G01*
X258524998Y-93099999D02*
G75*
G03*
X258524998Y-93099999I-499999J0D01*
G01*
X169800000Y-106393750D02*
G75*
G03*
X169800000Y-106393750I-300000J0D01*
G01*
X43431249Y-112212501D02*
G75*
G03*
X43431249Y-112212501I-500000J0D01*
G01*
X189074283Y-79375000D02*
G75*
G03*
X189074283Y-79375000I-500000J0D01*
G01*
X208200000Y-115093750D02*
G75*
G03*
X208200000Y-115093750I-500000J0D01*
G01*
X55361783Y-123062500D02*
G75*
G03*
X55361783Y-123062500I-500000J0D01*
G01*
X185299999Y-93100000D02*
G75*
G03*
X185299999Y-93100000I-500000J0D01*
G01*
X131600000Y-98425000D02*
G75*
G03*
X131600000Y-98425000I-300000J0D01*
G01*
X227300000Y-61912500D02*
G75*
G03*
X227300000Y-61912500I-500000J0D01*
G01*
X150900000Y-76200000D02*
G75*
G03*
X150900000Y-76200000I-500000J0D01*
G01*
X248999998Y-112212502D02*
G75*
G03*
X248999998Y-112212502I-499999J0D01*
G01*
X150700000Y-52450000D02*
G75*
G03*
X150700000Y-52450000I-300000J0D01*
G01*
X189074283Y-61912500D02*
G75*
G03*
X189074283Y-61912500I-500000J0D01*
G01*
X48000000Y-93099997D02*
G75*
G03*
X48000000Y-93099997I-300000J0D01*
G01*
X131800000Y-60325000D02*
G75*
G03*
X131800000Y-60325000I-500000J0D01*
G01*
X246400000Y-98425000D02*
G75*
G03*
X246400000Y-98425000I-500000J0D01*
G01*
X103906249Y-93099997D02*
G75*
G03*
X103906249Y-93099997I-499999J0D01*
G01*
X150900000Y-109600000D02*
G75*
G03*
X150900000Y-109600000I-500000J0D01*
G01*
X208200000Y-46068750D02*
G75*
G03*
X208200000Y-46068750I-500000J0D01*
G01*
X242212498Y-93099999D02*
G75*
G03*
X242212498Y-93099999I-499999J0D01*
G01*
X131800000Y-79375000D02*
G75*
G03*
X131800000Y-79375000I-500000J0D01*
G01*
X208200000Y-44450000D02*
G75*
G03*
X208200000Y-44450000I-500000J0D01*
G01*
X131800000Y-124618750D02*
G75*
G03*
X131800000Y-124618750I-500000J0D01*
G01*
X38200000Y-35812500D02*
X52423566Y-35812500D01*
X245849283Y-128911783D02*
X245950717Y-128911783D01*
X112700000Y-95287500D02*
G75*
G03*
X112700000Y-95287500I-500000J0D01*
G01*
X201275001Y-93100000D02*
G75*
G03*
X201275001Y-93100000I-500000J0D01*
G01*
X107081249Y-112212500D02*
G75*
G03*
X107081249Y-112212500I-499999J0D01*
G01*
X131600000Y-87343750D02*
G75*
G03*
X131600000Y-87343750I-300000J0D01*
G01*
X112174283Y-38200000D02*
X112275717Y-38200000D01*
X252143748Y-93100000D02*
G75*
G03*
X252143748Y-93100000I-500000J0D01*
G01*
X55161783Y-85787500D02*
G75*
G03*
X55161783Y-85787500I-300000J0D01*
G01*
X62568749Y-93099996D02*
G75*
G03*
X62568749Y-93099996I-499999J0D01*
G01*
X55361783Y-60356250D02*
G75*
G03*
X55361783Y-60356250I-500000J0D01*
G01*
X189074283Y-84168750D02*
G75*
G03*
X189074283Y-84168750I-500000J0D01*
G01*
X147580000Y-93099998D02*
G75*
G03*
X147580000Y-93099998I-300000J0D01*
G01*
X208200000Y-127825000D02*
G75*
G03*
X208200000Y-127825000I-500000J0D01*
G01*
X134356249Y-93099997D02*
G75*
G03*
X134356249Y-93099997I-499999J0D01*
G01*
X196481250Y-93099999D02*
G75*
G03*
X196481250Y-93099999I-499999J0D01*
G01*
X150900000Y-44450000D02*
G75*
G03*
X150900000Y-44450000I-500000J0D01*
G01*
X265012500Y-128925000D02*
X265012500Y-114600000D01*
X131600000Y-127825000D02*
G75*
G03*
X131600000Y-127825000I-300000J0D01*
G01*
X116700000Y-93099998D02*
G75*
G03*
X116700000Y-93099998I-500000J0D01*
G01*
X112700000Y-81000000D02*
G75*
G03*
X112700000Y-81000000I-500000J0D01*
G01*
X246200000Y-106393750D02*
G75*
G03*
X246200000Y-106393750I-300000J0D01*
G01*
X115112500Y-93099998D02*
G75*
G03*
X115112500Y-93099998I-500000J0D01*
G01*
X189074283Y-119825000D02*
G75*
G03*
X189074283Y-119825000I-500000J0D01*
G01*
X160487499Y-112212502D02*
G75*
G03*
X160487499Y-112212502I-500000J0D01*
G01*
X224700000Y-93099999D02*
G75*
G03*
X224700000Y-93099999I-300000J0D01*
G01*
X208200000Y-96837500D02*
G75*
G03*
X208200000Y-96837500I-500000J0D01*
G01*
X264974300Y-95500000D02*
G75*
G03*
X262586783Y-93112500I-2387500J0D01*
G01*
X131600000Y-63600000D02*
G75*
G03*
X131600000Y-63600000I-300000J0D01*
G01*
X227100000Y-49243750D02*
G75*
G03*
X227100000Y-49243750I-300000J0D01*
G01*
X188874283Y-77787500D02*
G75*
G03*
X188874283Y-77787500I-300000J0D01*
G01*
X235831248Y-112212502D02*
G75*
G03*
X235831248Y-112212502I-499999J0D01*
G01*
X215031249Y-112212502D02*
G75*
G03*
X215031249Y-112212502I-499999J0D01*
G01*
X208200000Y-60325000D02*
G75*
G03*
X208200000Y-60325000I-500000J0D01*
G01*
X208000000Y-124618750D02*
G75*
G03*
X208000000Y-124618750I-300000J0D01*
G01*
X131600000Y-100012500D02*
G75*
G03*
X131600000Y-100012500I-300000J0D01*
G01*
X246400000Y-119825000D02*
G75*
G03*
X246400000Y-119825000I-500000J0D01*
G01*
X237449998Y-112212502D02*
G75*
G03*
X237449998Y-112212502I-499999J0D01*
G01*
X150900000Y-80962500D02*
G75*
G03*
X150900000Y-80962500I-500000J0D01*
G01*
X150900000Y-82550000D02*
G75*
G03*
X150900000Y-82550000I-500000J0D01*
G01*
X169800000Y-84168750D02*
G75*
G03*
X169800000Y-84168750I-300000J0D01*
G01*
X169800000Y-126206250D02*
G75*
G03*
X169800000Y-126206250I-300000J0D01*
G01*
X231099998Y-93099999D02*
G75*
G03*
X231099998Y-93099999I-499999J0D01*
G01*
X46412500Y-93099997D02*
G75*
G03*
X46412500Y-93099997I-300000J0D01*
G01*
X227300000Y-63500000D02*
G75*
G03*
X227300000Y-63500000I-500000J0D01*
G01*
X227300000Y-103218750D02*
G75*
G03*
X227300000Y-103218750I-500000J0D01*
G01*
X170000000Y-77787500D02*
G75*
G03*
X170000000Y-77787500I-500000J0D01*
G01*
X169800000Y-95000000D02*
G75*
G03*
X169800000Y-95000000I-300000J0D01*
G01*
X110287500Y-93099998D02*
G75*
G03*
X110287500Y-93099998I-500000J0D01*
G01*
X114663217Y-35812517D02*
G75*
G03*
X112275717Y-38200000I-17J-2387483D01*
G01*
X227100000Y-47656250D02*
G75*
G03*
X227100000Y-47656250I-300000J0D01*
G01*
X55361783Y-119856250D02*
G75*
G03*
X55361783Y-119856250I-500000J0D01*
G01*
X51370000Y-112212499D02*
G75*
G03*
X51370000Y-112212499I-300000J0D01*
G01*
X70387500Y-93099997D02*
G75*
G03*
X70387500Y-93099997I-300000J0D01*
G01*
X201075001Y-112212503D02*
G75*
G03*
X201075001Y-112212503I-300000J0D01*
G01*
X52423566Y-131312466D02*
G75*
G03*
X54811066Y-128925000I34J2387466D01*
G01*
X112500000Y-47693750D02*
G75*
G03*
X112500000Y-47693750I-300000J0D01*
G01*
X55361783Y-80993750D02*
G75*
G03*
X55361783Y-80993750I-500000J0D01*
G01*
X55361783Y-96868750D02*
G75*
G03*
X55361783Y-96868750I-500000J0D01*
G01*
X208200000Y-121443750D02*
G75*
G03*
X208200000Y-121443750I-500000J0D01*
G01*
X208200000Y-98425000D02*
G75*
G03*
X208200000Y-98425000I-500000J0D01*
G01*
X48100000Y-112212500D02*
G75*
G03*
X48100000Y-112212500I-300000J0D01*
G01*
X55161783Y-49275000D02*
G75*
G03*
X55161783Y-49275000I-300000J0D01*
G01*
X38200000Y-112212500D02*
G75*
G03*
X35812500Y-114600000I0J-2387500D01*
G01*
X112174300Y-38200000D02*
G75*
G03*
X109786783Y-35812500I-2387500J0D01*
G01*
X227100000Y-90550000D02*
G75*
G03*
X227100000Y-90550000I-300000J0D01*
G01*
X35825000Y-95500000D02*
X35812500Y-109825000D01*
X112500000Y-90587500D02*
G75*
G03*
X112500000Y-90587500I-300000J0D01*
G01*
X210163217Y-131299283D02*
X224361783Y-131299283D01*
X128886783Y-131299283D02*
G75*
G03*
X131274283Y-128911783I17J2387483D01*
G01*
X189074283Y-115093750D02*
G75*
G03*
X189074283Y-115093750I-500000J0D01*
G01*
X126306249Y-93099997D02*
G75*
G03*
X126306249Y-93099997I-499999J0D01*
G01*
X169800000Y-124618750D02*
G75*
G03*
X169800000Y-124618750I-300000J0D01*
G01*
X41874999Y-112212500D02*
G75*
G03*
X41874999Y-112212500I-499999J0D01*
G01*
X193275000Y-112212502D02*
G75*
G03*
X193275000Y-112212502I-499999J0D01*
G01*
X150700000Y-87343750D02*
G75*
G03*
X150700000Y-87343750I-300000J0D01*
G01*
X207674300Y-38200000D02*
G75*
G03*
X205286783Y-35812500I-2387500J0D01*
G01*
X226749300Y-38200000D02*
G75*
G03*
X224361783Y-35812500I-2387500J0D01*
G01*
X112500000Y-123068750D02*
G75*
G03*
X112500000Y-123068750I-300000J0D01*
G01*
X150374283Y-128911783D02*
X150475717Y-128911783D01*
X255349998Y-112212502D02*
G75*
G03*
X255349998Y-112212502I-499999J0D01*
G01*
X57806249Y-93099996D02*
G75*
G03*
X57806249Y-93099996I-499999J0D01*
G01*
X112500000Y-88968750D02*
G75*
G03*
X112500000Y-88968750I-300000J0D01*
G01*
X246400000Y-44450000D02*
G75*
G03*
X246400000Y-44450000I-500000J0D01*
G01*
X131600000Y-50831250D02*
G75*
G03*
X131600000Y-50831250I-300000J0D01*
G01*
X188574300Y-38200000D02*
G75*
G03*
X186186783Y-35812500I-2387500J0D01*
G01*
X100699999Y-93099998D02*
G75*
G03*
X100699999Y-93099998I-500000J0D01*
G01*
X135912499Y-93099998D02*
G75*
G03*
X135912499Y-93099998I-500000J0D01*
G01*
X227300000Y-80962500D02*
G75*
G03*
X227300000Y-80962500I-500000J0D01*
G01*
X95887500Y-112212500D02*
G75*
G03*
X95887500Y-112212500I-499999J0D01*
G01*
X208000000Y-77787500D02*
G75*
G03*
X208000000Y-77787500I-300000J0D01*
G01*
X131800000Y-82550000D02*
G75*
G03*
X131800000Y-82550000I-500000J0D01*
G01*
X169449283Y-128911783D02*
X169550717Y-128911783D01*
X131600000Y-71300000D02*
G75*
G03*
X131600000Y-71300000I-300000J0D01*
G01*
X155675000Y-112212502D02*
G75*
G03*
X155675000Y-112212502I-500000J0D01*
G01*
X238670000Y-93099999D02*
G75*
G03*
X238670000Y-93099999I-300000J0D01*
G01*
X59393749Y-112212499D02*
G75*
G03*
X59393749Y-112212499I-499999J0D01*
G01*
X208200000Y-58737500D02*
G75*
G03*
X208200000Y-58737500I-500000J0D01*
G01*
X97556249Y-112212500D02*
G75*
G03*
X97556249Y-112212500I-499999J0D01*
G01*
X208000000Y-85756250D02*
G75*
G03*
X208000000Y-85756250I-300000J0D01*
G01*
X208200000Y-79375000D02*
G75*
G03*
X208200000Y-79375000I-500000J0D01*
G01*
X185360000Y-112212503D02*
G75*
G03*
X185360000Y-112212503I-300000J0D01*
G01*
X133763217Y-35812500D02*
X147961783Y-35812500D01*
X112500000Y-52487500D02*
G75*
G03*
X112500000Y-52487500I-300000J0D01*
G01*
X55361783Y-84200000D02*
G75*
G03*
X55361783Y-84200000I-500000J0D01*
G01*
X53012499Y-93099997D02*
G75*
G03*
X53012499Y-93099997I-500000J0D01*
G01*
X196481250Y-112212502D02*
G75*
G03*
X196481250Y-112212502I-499999J0D01*
G01*
X131600000Y-57150000D02*
G75*
G03*
X131600000Y-57150000I-300000J0D01*
G01*
X172487499Y-112212502D02*
G75*
G03*
X172487499Y-112212502I-499999J0D01*
G01*
X199656250Y-93099999D02*
G75*
G03*
X199656250Y-93099999I-499999J0D01*
G01*
X110287500Y-112212501D02*
G75*
G03*
X110287500Y-112212501I-500000J0D01*
G01*
X231099998Y-112212502D02*
G75*
G03*
X231099998Y-112212502I-499999J0D01*
G01*
X227100000Y-104806250D02*
G75*
G03*
X227100000Y-104806250I-300000J0D01*
G01*
X55361783Y-103250000D02*
G75*
G03*
X55361783Y-103250000I-500000J0D01*
G01*
X131600000Y-46068750D02*
G75*
G03*
X131600000Y-46068750I-300000J0D01*
G01*
X227300000Y-50831250D02*
G75*
G03*
X227300000Y-50831250I-500000J0D01*
G01*
X188574283Y-38200000D02*
X188675717Y-38200000D01*
X208200000Y-82550000D02*
G75*
G03*
X208200000Y-82550000I-500000J0D01*
G01*
X131274283Y-38200000D02*
X131375717Y-38200000D01*
X189074283Y-41275000D02*
G75*
G03*
X189074283Y-41275000I-500000J0D01*
G01*
X189074283Y-96837500D02*
G75*
G03*
X189074283Y-96837500I-500000J0D01*
G01*
X100699999Y-112212501D02*
G75*
G03*
X100699999Y-112212501I-500000J0D01*
G01*
X171963217Y-35812500D02*
X186186783Y-35812500D01*
X165887501Y-93099999D02*
G75*
G03*
X165887501Y-93099999I-300000J0D01*
G01*
X207674283Y-38200000D02*
X207775717Y-38200000D01*
X227300000Y-84168750D02*
G75*
G03*
X227300000Y-84168750I-500000J0D01*
G01*
X152863217Y-131299283D02*
X167061783Y-131299283D01*
X55361783Y-95281250D02*
G75*
G03*
X55361783Y-95281250I-500000J0D01*
G01*
X208200000Y-61912500D02*
G75*
G03*
X208200000Y-61912500I-500000J0D01*
G01*
X109786783Y-131299283D02*
G75*
G03*
X112174283Y-128911783I17J2387483D01*
G01*
X105293750Y-112212500D02*
G75*
G03*
X105293750Y-112212500I-300000J0D01*
G01*
X189074283Y-109600000D02*
G75*
G03*
X189074283Y-109600000I-500000J0D01*
G01*
X112500000Y-100050000D02*
G75*
G03*
X112500000Y-100050000I-300000J0D01*
G01*
X102287499Y-93099997D02*
G75*
G03*
X102287499Y-93099997I-499999J0D01*
G01*
X57300000Y-35812500D02*
G75*
G03*
X54912500Y-38200000I0J-2387500D01*
G01*
X60981249Y-93099996D02*
G75*
G03*
X60981249Y-93099996I-499999J0D01*
G01*
X35812500Y-38200000D02*
X35825000Y-90725000D01*
X152500000Y-112212501D02*
G75*
G03*
X152500000Y-112212501I-300000J0D01*
G01*
X150700000Y-68293750D02*
G75*
G03*
X150700000Y-68293750I-300000J0D01*
G01*
X227300000Y-65118750D02*
G75*
G03*
X227300000Y-65118750I-500000J0D01*
G01*
X246400000Y-65118750D02*
G75*
G03*
X246400000Y-65118750I-500000J0D01*
G01*
X169550717Y-128911783D02*
G75*
G03*
X171938217Y-131299283I2387483J-17D01*
G01*
X112500000Y-69918750D02*
G75*
G03*
X112500000Y-69918750I-300000J0D01*
G01*
X84956249Y-93099996D02*
G75*
G03*
X84956249Y-93099996I-499999J0D01*
G01*
X51256250Y-93099996D02*
G75*
G03*
X51256250Y-93099996I-300000J0D01*
G01*
X70387500Y-112212500D02*
G75*
G03*
X70387500Y-112212500I-300000J0D01*
G01*
X55361783Y-47687500D02*
G75*
G03*
X55361783Y-47687500I-500000J0D01*
G01*
X112700000Y-41312500D02*
G75*
G03*
X112700000Y-41312500I-500000J0D01*
G01*
X55361783Y-46100000D02*
G75*
G03*
X55361783Y-46100000I-500000J0D01*
G01*
X112500000Y-126243750D02*
G75*
G03*
X112500000Y-126243750I-300000J0D01*
G01*
X170000000Y-107981250D02*
G75*
G03*
X170000000Y-107981250I-500000J0D01*
G01*
X226850717Y-128911783D02*
G75*
G03*
X229238217Y-131299283I2387483J-17D01*
G01*
X227300000Y-57150000D02*
G75*
G03*
X227300000Y-57150000I-500000J0D01*
G01*
X55361783Y-118268750D02*
G75*
G03*
X55361783Y-118268750I-500000J0D01*
G01*
X261531249Y-93100000D02*
G75*
G03*
X261531249Y-93100000I-300000J0D01*
G01*
X227300000Y-41275000D02*
G75*
G03*
X227300000Y-41275000I-500000J0D01*
G01*
X80193749Y-93099996D02*
G75*
G03*
X80193749Y-93099996I-499999J0D01*
G01*
X123099999Y-112212501D02*
G75*
G03*
X123099999Y-112212501I-500000J0D01*
G01*
X246400000Y-100012500D02*
G75*
G03*
X246400000Y-100012500I-500000J0D01*
G01*
X112500000Y-85793750D02*
G75*
G03*
X112500000Y-85793750I-300000J0D01*
G01*
X169800000Y-57150000D02*
G75*
G03*
X169800000Y-57150000I-300000J0D01*
G01*
X208000000Y-106393750D02*
G75*
G03*
X208000000Y-106393750I-300000J0D01*
G01*
X112500000Y-101637500D02*
G75*
G03*
X112500000Y-101637500I-300000J0D01*
G01*
X208000000Y-65118750D02*
G75*
G03*
X208000000Y-65118750I-300000J0D01*
G01*
X189074283Y-100012500D02*
G75*
G03*
X189074283Y-100012500I-500000J0D01*
G01*
X227100000Y-76200000D02*
G75*
G03*
X227100000Y-76200000I-300000J0D01*
G01*
X150349283Y-38200000D02*
X150450717Y-38200000D01*
X246400000Y-116650000D02*
G75*
G03*
X246400000Y-116650000I-500000J0D01*
G01*
X131600000Y-47656250D02*
G75*
G03*
X131600000Y-47656250I-300000J0D01*
G01*
X78574999Y-112212499D02*
G75*
G03*
X78574999Y-112212499I-499999J0D01*
G01*
X150900000Y-77787500D02*
G75*
G03*
X150900000Y-77787500I-500000J0D01*
G01*
X112700000Y-118275000D02*
G75*
G03*
X112700000Y-118275000I-500000J0D01*
G01*
X105060000Y-93099997D02*
G75*
G03*
X105060000Y-93099997I-300000J0D01*
G01*
X169800000Y-50831250D02*
G75*
G03*
X169800000Y-50831250I-300000J0D01*
G01*
X112500000Y-71300000D02*
G75*
G03*
X112500000Y-71300000I-300000J0D01*
G01*
X55161783Y-106425000D02*
G75*
G03*
X55161783Y-106425000I-300000J0D01*
G01*
X55161783Y-68325000D02*
G75*
G03*
X55161783Y-68325000I-300000J0D01*
G01*
X208000000Y-49243750D02*
G75*
G03*
X208000000Y-49243750I-300000J0D01*
G01*
X67212499Y-112212500D02*
G75*
G03*
X67212499Y-112212500I-300000J0D01*
G01*
X188874283Y-57150000D02*
G75*
G03*
X188874283Y-57150000I-300000J0D01*
G01*
X131800000Y-44450000D02*
G75*
G03*
X131800000Y-44450000I-500000J0D01*
G01*
X131800000Y-65118750D02*
G75*
G03*
X131800000Y-65118750I-500000J0D01*
G01*
X170000000Y-80962500D02*
G75*
G03*
X170000000Y-80962500I-500000J0D01*
G01*
X169800000Y-87343750D02*
G75*
G03*
X169800000Y-87343750I-300000J0D01*
G01*
X55361783Y-88962500D02*
G75*
G03*
X55361783Y-88962500I-500000J0D01*
G01*
X219870000Y-112212503D02*
G75*
G03*
X219870000Y-112212503I-300000J0D01*
G01*
X154000000Y-93099998D02*
G75*
G03*
X154000000Y-93099998I-300000J0D01*
G01*
X150700000Y-124618750D02*
G75*
G03*
X150700000Y-124618750I-300000J0D01*
G01*
X191063217Y-131299283D02*
X205286783Y-131299283D01*
X150700000Y-71500000D02*
G75*
G03*
X150700000Y-71500000I-300000J0D01*
G01*
X35825000Y-90725000D02*
G75*
G03*
X38212500Y-93112500I2387500J0D01*
G01*
X189074283Y-42862500D02*
G75*
G03*
X189074283Y-42862500I-500000J0D01*
G01*
X170000000Y-58737500D02*
G75*
G03*
X170000000Y-58737500I-500000J0D01*
G01*
X208000000Y-126206250D02*
G75*
G03*
X208000000Y-126206250I-300000J0D01*
G01*
X55361783Y-41306250D02*
G75*
G03*
X55361783Y-41306250I-500000J0D01*
G01*
X86375000Y-112212500D02*
G75*
G03*
X86375000Y-112212500I-300000J0D01*
G01*
X169474283Y-38200000D02*
X169575717Y-38200000D01*
X218256248Y-93100000D02*
G75*
G03*
X218256248Y-93100000I-500000J0D01*
G01*
X243831249Y-112212503D02*
G75*
G03*
X243831249Y-112212503I-500000J0D01*
G01*
X150700000Y-84168750D02*
G75*
G03*
X150700000Y-84168750I-300000J0D01*
G01*
X191063217Y-35812517D02*
G75*
G03*
X188675717Y-38200000I-17J-2387483D01*
G01*
X127893749Y-93099997D02*
G75*
G03*
X127893749Y-93099997I-499999J0D01*
G01*
X205887500Y-93100000D02*
G75*
G03*
X205887500Y-93100000I-300000J0D01*
G01*
X248338217Y-35812500D02*
X262625000Y-35812500D01*
X227300000Y-46068750D02*
G75*
G03*
X227300000Y-46068750I-500000J0D01*
G01*
X245849283Y-38200000D02*
X245950717Y-38200000D01*
X64187500Y-112212500D02*
G75*
G03*
X64187500Y-112212500I-500000J0D01*
G01*
X112700000Y-46106250D02*
G75*
G03*
X112700000Y-46106250I-500000J0D01*
G01*
X129281250Y-112212500D02*
G75*
G03*
X129281250Y-112212500I-300000J0D01*
G01*
X188874283Y-39687500D02*
G75*
G03*
X188874283Y-39687500I-300000J0D01*
G01*
X234243748Y-112212503D02*
G75*
G03*
X234243748Y-112212503I-500000J0D01*
G01*
X177281249Y-112212502D02*
G75*
G03*
X177281249Y-112212502I-499999J0D01*
G01*
X223049998Y-112212502D02*
G75*
G03*
X223049998Y-112212502I-499999J0D01*
G01*
X55161783Y-124650000D02*
G75*
G03*
X55161783Y-124650000I-300000J0D01*
G01*
X55361783Y-90581250D02*
G75*
G03*
X55361783Y-90581250I-500000J0D01*
G01*
X246400000Y-71500000D02*
G75*
G03*
X246400000Y-71500000I-500000J0D01*
G01*
X189074283Y-104806250D02*
G75*
G03*
X189074283Y-104806250I-500000J0D01*
G01*
X131600000Y-68500000D02*
G75*
G03*
X131600000Y-68500000I-300000J0D01*
G01*
M02*
