G04 #@! TF.GenerationSoftware,KiCad,Pcbnew,7.0.2-0*
G04 #@! TF.CreationDate,2024-02-05T21:00:43+01:00*
G04 #@! TF.ProjectId,CYOA_Ortho,43594f41-5f4f-4727-9468-6f2e6b696361,rev?*
G04 #@! TF.SameCoordinates,Original*
G04 #@! TF.FileFunction,Soldermask,Bot*
G04 #@! TF.FilePolarity,Negative*
%FSLAX46Y46*%
G04 Gerber Fmt 4.6, Leading zero omitted, Abs format (unit mm)*
G04 Created by KiCad (PCBNEW 7.0.2-0) date 2024-02-05 21:00:43*
%MOMM*%
%LPD*%
G01*
G04 APERTURE LIST*
G04 Aperture macros list*
%AMHorizOval*
0 Thick line with rounded ends*
0 $1 width*
0 $2 $3 position (X,Y) of the first rounded end (center of the circle)*
0 $4 $5 position (X,Y) of the second rounded end (center of the circle)*
0 Add line between two ends*
20,1,$1,$2,$3,$4,$5,0*
0 Add two circle primitives to create the rounded ends*
1,1,$1,$2,$3*
1,1,$1,$4,$5*%
G04 Aperture macros list end*
%ADD10C,2.200000*%
%ADD11R,1.200000X1.600000*%
%ADD12R,1.600000X1.600000*%
%ADD13C,1.600000*%
%ADD14C,1.700000*%
%ADD15C,1.200000*%
%ADD16C,1.750000*%
%ADD17C,3.987800*%
%ADD18HorizOval,2.250000X0.019771X0.290016X-0.019771X-0.290016X0*%
%ADD19C,2.250000*%
%ADD20C,2.000000*%
%ADD21HorizOval,2.250000X0.654995X0.730004X-0.654995X-0.730004X0*%
%ADD22O,2.000000X3.200000*%
%ADD23R,2.000000X2.000000*%
%ADD24R,1.600000X1.200000*%
%ADD25C,3.048000*%
%ADD26R,1.752600X1.752600*%
%ADD27C,1.752600*%
G04 APERTURE END LIST*
D10*
X112200000Y-54912500D03*
X93112500Y-54912500D03*
X93112500Y-74012500D03*
X74000000Y-54912500D03*
X74000000Y-74012500D03*
D11*
X75438000Y-120520000D03*
D12*
X75438000Y-118020000D03*
D13*
X75438000Y-125820000D03*
D11*
X75438000Y-123320000D03*
D14*
X116262500Y-102662500D03*
D15*
X116542500Y-106862500D03*
D16*
X116682500Y-102662500D03*
D17*
X121762500Y-102662500D03*
D16*
X126842500Y-102662500D03*
D14*
X127262500Y-102662500D03*
D18*
X124282271Y-97872484D03*
D19*
X124302500Y-97582500D03*
D20*
X126762500Y-98862500D03*
D21*
X118607495Y-99392496D03*
D19*
X119262500Y-98662500D03*
D20*
X121762500Y-96762500D03*
D22*
X249862500Y-83562500D03*
X261062500Y-83562500D03*
D23*
X252962500Y-91062500D03*
D20*
X257962500Y-91062500D03*
X255462500Y-91062500D03*
X257962500Y-76562500D03*
X252962500Y-76562500D03*
D11*
X75438000Y-101470000D03*
D12*
X75438000Y-98970000D03*
D13*
X75438000Y-106770000D03*
D11*
X75438000Y-104270000D03*
D14*
X249962500Y-64462500D03*
D15*
X250242500Y-68662500D03*
D16*
X250382500Y-64462500D03*
D17*
X255462500Y-64462500D03*
D16*
X260542500Y-64462500D03*
D14*
X260962500Y-64462500D03*
D18*
X257982271Y-59672484D03*
D19*
X258002500Y-59382500D03*
D20*
X260462500Y-60662500D03*
D21*
X252307495Y-61192496D03*
D19*
X252962500Y-60462500D03*
D20*
X255462500Y-58562500D03*
D14*
X58962500Y-121762500D03*
D15*
X59242500Y-125962500D03*
D16*
X59382500Y-121762500D03*
D17*
X64462500Y-121762500D03*
D16*
X69542500Y-121762500D03*
D14*
X69962500Y-121762500D03*
D18*
X66982271Y-116972484D03*
D19*
X67002500Y-116682500D03*
D20*
X69462500Y-117962500D03*
D21*
X61307495Y-118492496D03*
D19*
X61962500Y-117762500D03*
D20*
X64462500Y-115862500D03*
D11*
X56400000Y-43962500D03*
D12*
X56400000Y-41462500D03*
D13*
X56400000Y-49262500D03*
D11*
X56400000Y-46762500D03*
D14*
X135362500Y-45362500D03*
D15*
X135642500Y-49562500D03*
D16*
X135782500Y-45362500D03*
D17*
X140862500Y-45362500D03*
D16*
X145942500Y-45362500D03*
D14*
X146362500Y-45362500D03*
D18*
X143382271Y-40572484D03*
D19*
X143402500Y-40282500D03*
D20*
X145862500Y-41562500D03*
D21*
X137707495Y-42092496D03*
D19*
X138362500Y-41362500D03*
D20*
X140862500Y-39462500D03*
D10*
X207712500Y-74012500D03*
D14*
X78062500Y-102662500D03*
D15*
X78342500Y-106862500D03*
D16*
X78482500Y-102662500D03*
D17*
X83562500Y-102662500D03*
D16*
X88642500Y-102662500D03*
D14*
X89062500Y-102662500D03*
D18*
X86082271Y-97872484D03*
D19*
X86102500Y-97582500D03*
D20*
X88562500Y-98862500D03*
D21*
X80407495Y-99392496D03*
D19*
X81062500Y-98662500D03*
D20*
X83562500Y-96762500D03*
D10*
X226800000Y-112212500D03*
X74025000Y-93112500D03*
D11*
X187000000Y-120012000D03*
D12*
X187000000Y-117512000D03*
D13*
X187000000Y-125312000D03*
D11*
X187000000Y-122812000D03*
D24*
X132700000Y-129400000D03*
D12*
X135200000Y-129400000D03*
D13*
X127400000Y-129400000D03*
D24*
X129900000Y-129400000D03*
D11*
X228300000Y-81912000D03*
D12*
X228300000Y-79412000D03*
D13*
X228300000Y-87212000D03*
D11*
X228300000Y-84712000D03*
D22*
X249862500Y-121762500D03*
X261062500Y-121762500D03*
D23*
X252962500Y-129262500D03*
D20*
X257962500Y-129262500D03*
X255462500Y-129262500D03*
X257962500Y-114762500D03*
X252962500Y-114762500D03*
D10*
X207712500Y-93112500D03*
D11*
X247400000Y-63062500D03*
D12*
X247400000Y-60562500D03*
D13*
X247400000Y-68362500D03*
D11*
X247400000Y-65862500D03*
D10*
X54912500Y-112212500D03*
D14*
X249962500Y-121762500D03*
D15*
X250242500Y-125962500D03*
D16*
X250382500Y-121762500D03*
D17*
X255462500Y-121762500D03*
D16*
X260542500Y-121762500D03*
D14*
X260962500Y-121762500D03*
D18*
X257982271Y-116972484D03*
D19*
X258002500Y-116682500D03*
D20*
X260462500Y-117962500D03*
D21*
X252307495Y-118492496D03*
D19*
X252962500Y-117762500D03*
D20*
X255462500Y-115862500D03*
D14*
X116262500Y-64462500D03*
D15*
X116542500Y-68662500D03*
D16*
X116682500Y-64462500D03*
D17*
X121762500Y-64462500D03*
D16*
X126842500Y-64462500D03*
D14*
X127262500Y-64462500D03*
D18*
X124282271Y-59672484D03*
D19*
X124302500Y-59382500D03*
D20*
X126762500Y-60662500D03*
D21*
X118607495Y-61192496D03*
D19*
X119262500Y-60462500D03*
D20*
X121762500Y-58562500D03*
D14*
X192662500Y-102662500D03*
D15*
X192942500Y-106862500D03*
D16*
X193082500Y-102662500D03*
D17*
X198162500Y-102662500D03*
D16*
X203242500Y-102662500D03*
D14*
X203662500Y-102662500D03*
D18*
X200682271Y-97872484D03*
D19*
X200702500Y-97582500D03*
D20*
X203162500Y-98862500D03*
D21*
X195007495Y-99392496D03*
D19*
X195662500Y-98662500D03*
D20*
X198162500Y-96762500D03*
D17*
X119374500Y-113507500D03*
D25*
X119374500Y-128747500D03*
D14*
X125812500Y-121762500D03*
D15*
X126092500Y-125962500D03*
D16*
X126232500Y-121762500D03*
D17*
X131312500Y-121762500D03*
D16*
X136392500Y-121762500D03*
D14*
X136812500Y-121762500D03*
D17*
X143250500Y-113507500D03*
D25*
X143250500Y-128747500D03*
D21*
X128157495Y-118492496D03*
D19*
X128812500Y-117762500D03*
D20*
X131312500Y-115862500D03*
D18*
X133832271Y-116972484D03*
D19*
X133852500Y-116682500D03*
D20*
X136312500Y-117962500D03*
D14*
X173562500Y-102662500D03*
D15*
X173842500Y-106862500D03*
D16*
X173982500Y-102662500D03*
D17*
X179062500Y-102662500D03*
D16*
X184142500Y-102662500D03*
D14*
X184562500Y-102662500D03*
D18*
X181582271Y-97872484D03*
D19*
X181602500Y-97582500D03*
D20*
X184062500Y-98862500D03*
D21*
X175907495Y-99392496D03*
D19*
X176562500Y-98662500D03*
D20*
X179062500Y-96762500D03*
D11*
X148844000Y-82166000D03*
D12*
X148844000Y-79666000D03*
D13*
X148844000Y-87466000D03*
D11*
X148844000Y-84966000D03*
X247400000Y-120362500D03*
D12*
X247400000Y-117862500D03*
D13*
X247400000Y-125662500D03*
D11*
X247400000Y-123162500D03*
X190100000Y-100708000D03*
D12*
X190100000Y-98208000D03*
D13*
X190100000Y-106008000D03*
D11*
X190100000Y-103508000D03*
X53400000Y-120568750D03*
D12*
X53400000Y-118068750D03*
D13*
X53400000Y-125868750D03*
D11*
X53400000Y-123368750D03*
D14*
X230862500Y-64462500D03*
D15*
X231142500Y-68662500D03*
D16*
X231282500Y-64462500D03*
D17*
X236362500Y-64462500D03*
D16*
X241442500Y-64462500D03*
D14*
X241862500Y-64462500D03*
D18*
X238882271Y-59672484D03*
D19*
X238902500Y-59382500D03*
D20*
X241362500Y-60662500D03*
D21*
X233207495Y-61192496D03*
D19*
X233862500Y-60462500D03*
D20*
X236362500Y-58562500D03*
D11*
X53400000Y-82162500D03*
D12*
X53400000Y-79662500D03*
D13*
X53400000Y-87462500D03*
D11*
X53400000Y-84962500D03*
X53400000Y-43962500D03*
D12*
X53400000Y-41462500D03*
D13*
X53400000Y-49262500D03*
D11*
X53400000Y-46762500D03*
X129794000Y-82166000D03*
D12*
X129794000Y-79666000D03*
D13*
X129794000Y-87466000D03*
D11*
X129794000Y-84966000D03*
D10*
X112200000Y-74012500D03*
X169512500Y-112212500D03*
D14*
X97162500Y-83562500D03*
D15*
X97442500Y-87762500D03*
D16*
X97582500Y-83562500D03*
D17*
X102662500Y-83562500D03*
D16*
X107742500Y-83562500D03*
D14*
X108162500Y-83562500D03*
D18*
X105182271Y-78772484D03*
D19*
X105202500Y-78482500D03*
D20*
X107662500Y-79762500D03*
D21*
X99507495Y-80292496D03*
D19*
X100162500Y-79562500D03*
D20*
X102662500Y-77662500D03*
D14*
X230862500Y-45362500D03*
D15*
X231142500Y-49562500D03*
D16*
X231282500Y-45362500D03*
D17*
X236362500Y-45362500D03*
D16*
X241442500Y-45362500D03*
D14*
X241862500Y-45362500D03*
D18*
X238882271Y-40572484D03*
D19*
X238902500Y-40282500D03*
D20*
X241362500Y-41562500D03*
D21*
X233207495Y-42092496D03*
D19*
X233862500Y-41362500D03*
D20*
X236362500Y-39462500D03*
D14*
X154462500Y-121762500D03*
D15*
X154742500Y-125962500D03*
D16*
X154882500Y-121762500D03*
D17*
X159962500Y-121762500D03*
D16*
X165042500Y-121762500D03*
D14*
X165462500Y-121762500D03*
D18*
X162482271Y-116972484D03*
D19*
X162502500Y-116682500D03*
D20*
X164962500Y-117962500D03*
D21*
X156807495Y-118492496D03*
D19*
X157462500Y-117762500D03*
D20*
X159962500Y-115862500D03*
D14*
X39862500Y-64462500D03*
D15*
X40142500Y-68662500D03*
D16*
X40282500Y-64462500D03*
D17*
X45362500Y-64462500D03*
D16*
X50442500Y-64462500D03*
D14*
X50862500Y-64462500D03*
D18*
X47882271Y-59672484D03*
D19*
X47902500Y-59382500D03*
D20*
X50362500Y-60662500D03*
D21*
X42207495Y-61192496D03*
D19*
X42862500Y-60462500D03*
D20*
X45362500Y-58562500D03*
D10*
X169418000Y-74012500D03*
D14*
X154462500Y-102662500D03*
D15*
X154742500Y-106862500D03*
D16*
X154882500Y-102662500D03*
D17*
X159962500Y-102662500D03*
D16*
X165042500Y-102662500D03*
D14*
X165462500Y-102662500D03*
D18*
X162482271Y-97872484D03*
D19*
X162502500Y-97582500D03*
D20*
X164962500Y-98862500D03*
D21*
X156807495Y-99392496D03*
D19*
X157462500Y-98662500D03*
D20*
X159962500Y-96762500D03*
D14*
X211762500Y-64462500D03*
D15*
X212042500Y-68662500D03*
D16*
X212182500Y-64462500D03*
D17*
X217262500Y-64462500D03*
D16*
X222342500Y-64462500D03*
D14*
X222762500Y-64462500D03*
D18*
X219782271Y-59672484D03*
D19*
X219802500Y-59382500D03*
D20*
X222262500Y-60662500D03*
D21*
X214107495Y-61192496D03*
D19*
X214762500Y-60462500D03*
D20*
X217262500Y-58562500D03*
D11*
X110700000Y-101262500D03*
D12*
X110700000Y-98762500D03*
D13*
X110700000Y-106562500D03*
D11*
X110700000Y-104062500D03*
D24*
X151800000Y-129400000D03*
D12*
X154300000Y-129400000D03*
D13*
X146500000Y-129400000D03*
D24*
X149000000Y-129400000D03*
D14*
X78062500Y-64462500D03*
D15*
X78342500Y-68662500D03*
D16*
X78482500Y-64462500D03*
D17*
X83562500Y-64462500D03*
D16*
X88642500Y-64462500D03*
D14*
X89062500Y-64462500D03*
D18*
X86082271Y-59672484D03*
D19*
X86102500Y-59382500D03*
D20*
X88562500Y-60662500D03*
D21*
X80407495Y-61192496D03*
D19*
X81062500Y-60462500D03*
D20*
X83562500Y-58562500D03*
D14*
X211762500Y-45362500D03*
D15*
X212042500Y-49562500D03*
D16*
X212182500Y-45362500D03*
D17*
X217262500Y-45362500D03*
D16*
X222342500Y-45362500D03*
D14*
X222762500Y-45362500D03*
D18*
X219782271Y-40572484D03*
D19*
X219802500Y-40282500D03*
D20*
X222262500Y-41562500D03*
D21*
X214107495Y-42092496D03*
D19*
X214762500Y-41362500D03*
D20*
X217262500Y-39462500D03*
D11*
X56400000Y-63062500D03*
D12*
X56400000Y-60562500D03*
D13*
X56400000Y-68362500D03*
D11*
X56400000Y-65862500D03*
D10*
X226800000Y-74012500D03*
D11*
X53400000Y-101262500D03*
D12*
X53400000Y-98762500D03*
D13*
X53400000Y-106562500D03*
D11*
X53400000Y-104062500D03*
D10*
X245912500Y-93112500D03*
D11*
X247400000Y-101262500D03*
D12*
X247400000Y-98762500D03*
D13*
X247400000Y-106562500D03*
D11*
X247400000Y-104062500D03*
D10*
X54912500Y-74012500D03*
D11*
X209200000Y-43962500D03*
D12*
X209200000Y-41462500D03*
D13*
X209200000Y-49262500D03*
D11*
X209200000Y-46762500D03*
D14*
X39862500Y-121762500D03*
D15*
X40142500Y-125962500D03*
D16*
X40282500Y-121762500D03*
D17*
X45362500Y-121762500D03*
D16*
X50442500Y-121762500D03*
D14*
X50862500Y-121762500D03*
D18*
X47882271Y-116972484D03*
D19*
X47902500Y-116682500D03*
D20*
X50362500Y-117962500D03*
D21*
X42207495Y-118492496D03*
D19*
X42862500Y-117762500D03*
D20*
X45362500Y-115862500D03*
D14*
X97162500Y-45362500D03*
D15*
X97442500Y-49562500D03*
D16*
X97582500Y-45362500D03*
D17*
X102662500Y-45362500D03*
D16*
X107742500Y-45362500D03*
D14*
X108162500Y-45362500D03*
D18*
X105182271Y-40572484D03*
D19*
X105202500Y-40282500D03*
D20*
X107662500Y-41562500D03*
D21*
X99507495Y-42092496D03*
D19*
X100162500Y-41362500D03*
D20*
X102662500Y-39462500D03*
D14*
X173562500Y-64462500D03*
D15*
X173842500Y-68662500D03*
D16*
X173982500Y-64462500D03*
D17*
X179062500Y-64462500D03*
D16*
X184142500Y-64462500D03*
D14*
X184562500Y-64462500D03*
D18*
X181582271Y-59672484D03*
D19*
X181602500Y-59382500D03*
D20*
X184062500Y-60662500D03*
D21*
X175907495Y-61192496D03*
D19*
X176562500Y-60462500D03*
D20*
X179062500Y-58562500D03*
D10*
X150400000Y-112212500D03*
D14*
X116262500Y-45362500D03*
D15*
X116542500Y-49562500D03*
D16*
X116682500Y-45362500D03*
D17*
X121762500Y-45362500D03*
D16*
X126842500Y-45362500D03*
D14*
X127262500Y-45362500D03*
D18*
X124282271Y-40572484D03*
D19*
X124302500Y-40282500D03*
D20*
X126762500Y-41562500D03*
D21*
X118607495Y-42092496D03*
D19*
X119262500Y-41362500D03*
D20*
X121762500Y-39462500D03*
D10*
X93112500Y-112212500D03*
D14*
X135362500Y-64462500D03*
D15*
X135642500Y-68662500D03*
D16*
X135782500Y-64462500D03*
D17*
X140862500Y-64462500D03*
D16*
X145942500Y-64462500D03*
D14*
X146362500Y-64462500D03*
D18*
X143382271Y-59672484D03*
D19*
X143402500Y-59382500D03*
D20*
X145862500Y-60662500D03*
D21*
X137707495Y-61192496D03*
D19*
X138362500Y-60462500D03*
D20*
X140862500Y-58562500D03*
D10*
X131312500Y-74012500D03*
D11*
X167900000Y-43200000D03*
D12*
X167900000Y-40700000D03*
D13*
X167900000Y-48500000D03*
D11*
X167900000Y-46000000D03*
D14*
X39862500Y-102662500D03*
D15*
X40142500Y-106862500D03*
D16*
X40282500Y-102662500D03*
D17*
X45362500Y-102662500D03*
D16*
X50442500Y-102662500D03*
D14*
X50862500Y-102662500D03*
D18*
X47882271Y-97872484D03*
D19*
X47902500Y-97582500D03*
D20*
X50362500Y-98862500D03*
D21*
X42207495Y-99392496D03*
D19*
X42862500Y-98662500D03*
D20*
X45362500Y-96762500D03*
D10*
X169512500Y-93112500D03*
D14*
X116262500Y-83562500D03*
D15*
X116542500Y-87762500D03*
D16*
X116682500Y-83562500D03*
D17*
X121762500Y-83562500D03*
D16*
X126842500Y-83562500D03*
D14*
X127262500Y-83562500D03*
D18*
X124282271Y-78772484D03*
D19*
X124302500Y-78482500D03*
D20*
X126762500Y-79762500D03*
D21*
X118607495Y-80292496D03*
D19*
X119262500Y-79562500D03*
D20*
X121762500Y-77662500D03*
D11*
X228300000Y-63062500D03*
D12*
X228300000Y-60562500D03*
D13*
X228300000Y-68362500D03*
D11*
X228300000Y-65862500D03*
D14*
X192662500Y-45362500D03*
D15*
X192942500Y-49562500D03*
D16*
X193082500Y-45362500D03*
D17*
X198162500Y-45362500D03*
D16*
X203242500Y-45362500D03*
D14*
X203662500Y-45362500D03*
D18*
X200682271Y-40572484D03*
D19*
X200702500Y-40282500D03*
D20*
X203162500Y-41562500D03*
D21*
X195007495Y-42092496D03*
D19*
X195662500Y-41362500D03*
D20*
X198162500Y-39462500D03*
D10*
X245912500Y-54912500D03*
D14*
X58962500Y-83562500D03*
D15*
X59242500Y-87762500D03*
D16*
X59382500Y-83562500D03*
D17*
X64462500Y-83562500D03*
D16*
X69542500Y-83562500D03*
D14*
X69962500Y-83562500D03*
D18*
X66982271Y-78772484D03*
D19*
X67002500Y-78482500D03*
D20*
X69462500Y-79762500D03*
D21*
X61307495Y-80292496D03*
D19*
X61962500Y-79562500D03*
D20*
X64462500Y-77662500D03*
D10*
X169418000Y-54912500D03*
X131312500Y-112212500D03*
D11*
X168000000Y-63116000D03*
D12*
X168000000Y-60616000D03*
D13*
X168000000Y-68416000D03*
D11*
X168000000Y-65916000D03*
X209318250Y-101262500D03*
D12*
X209318250Y-98762500D03*
D13*
X209318250Y-106562500D03*
D11*
X209318250Y-104062500D03*
D10*
X150400000Y-74012500D03*
D11*
X190100000Y-120012000D03*
D12*
X190100000Y-117512000D03*
D13*
X190100000Y-125312000D03*
D11*
X190100000Y-122812000D03*
D10*
X112200000Y-93112500D03*
D24*
X63116000Y-53594000D03*
D12*
X60616000Y-53594000D03*
D13*
X68416000Y-53594000D03*
D24*
X65916000Y-53594000D03*
D10*
X207712500Y-54912500D03*
D11*
X110600000Y-82162500D03*
D12*
X110600000Y-79662500D03*
D13*
X110600000Y-87462500D03*
D11*
X110600000Y-84962500D03*
D10*
X245912500Y-112212500D03*
D11*
X56400000Y-82162500D03*
D12*
X56400000Y-79662500D03*
D13*
X56400000Y-87462500D03*
D11*
X56400000Y-84962500D03*
D17*
X157574500Y-113507500D03*
D25*
X157574500Y-128747500D03*
D14*
X164012500Y-121762500D03*
D15*
X164292500Y-125962500D03*
D16*
X164432500Y-121762500D03*
D17*
X169512500Y-121762500D03*
D16*
X174592500Y-121762500D03*
D14*
X175012500Y-121762500D03*
D17*
X181450500Y-113507500D03*
D25*
X181450500Y-128747500D03*
D21*
X166357495Y-118492496D03*
D19*
X167012500Y-117762500D03*
D20*
X169512500Y-115862500D03*
D18*
X172032271Y-116972484D03*
D19*
X172052500Y-116682500D03*
D20*
X174512500Y-117962500D03*
D14*
X58962500Y-45362500D03*
D15*
X59242500Y-49562500D03*
D16*
X59382500Y-45362500D03*
D17*
X64462500Y-45362500D03*
D16*
X69542500Y-45362500D03*
D14*
X69962500Y-45362500D03*
D18*
X66982271Y-40572484D03*
D19*
X67002500Y-40282500D03*
D20*
X69462500Y-41562500D03*
D21*
X61307495Y-42092496D03*
D19*
X61962500Y-41362500D03*
D20*
X64462500Y-39462500D03*
D14*
X97162500Y-64462500D03*
D15*
X97442500Y-68662500D03*
D16*
X97582500Y-64462500D03*
D17*
X102662500Y-64462500D03*
D16*
X107742500Y-64462500D03*
D14*
X108162500Y-64462500D03*
D18*
X105182271Y-59672484D03*
D19*
X105202500Y-59382500D03*
D20*
X107662500Y-60662500D03*
D21*
X99507495Y-61192496D03*
D19*
X100162500Y-60462500D03*
D20*
X102662500Y-58562500D03*
D17*
X138474500Y-94407500D03*
D25*
X138474500Y-109647500D03*
D14*
X144912500Y-102662500D03*
D15*
X145192500Y-106862500D03*
D16*
X145332500Y-102662500D03*
D17*
X150412500Y-102662500D03*
D16*
X155492500Y-102662500D03*
D14*
X155912500Y-102662500D03*
D17*
X162350500Y-94407500D03*
D25*
X162350500Y-109647500D03*
D21*
X147257495Y-99392496D03*
D19*
X147912500Y-98662500D03*
D20*
X150412500Y-96762500D03*
D18*
X152932271Y-97872484D03*
D19*
X152952500Y-97582500D03*
D20*
X155412500Y-98862500D03*
D17*
X157574500Y-94407500D03*
D25*
X157574500Y-109647500D03*
D14*
X164012500Y-102662500D03*
D15*
X164292500Y-106862500D03*
D16*
X164432500Y-102662500D03*
D17*
X169512500Y-102662500D03*
D16*
X174592500Y-102662500D03*
D14*
X175012500Y-102662500D03*
D17*
X181450500Y-94407500D03*
D25*
X181450500Y-109647500D03*
D21*
X166357495Y-99392496D03*
D19*
X167012500Y-98662500D03*
D20*
X169512500Y-96762500D03*
D18*
X172032271Y-97872484D03*
D19*
X172052500Y-97582500D03*
D20*
X174512500Y-98862500D03*
D11*
X187000000Y-82420000D03*
D12*
X187000000Y-79920000D03*
D13*
X187000000Y-87720000D03*
D11*
X187000000Y-85220000D03*
D14*
X211762500Y-102662500D03*
D15*
X212042500Y-106862500D03*
D16*
X212182500Y-102662500D03*
D17*
X217262500Y-102662500D03*
D16*
X222342500Y-102662500D03*
D14*
X222762500Y-102662500D03*
D18*
X219782271Y-97872484D03*
D19*
X219802500Y-97582500D03*
D20*
X222262500Y-98862500D03*
D21*
X214107495Y-99392496D03*
D19*
X214762500Y-98662500D03*
D20*
X217262500Y-96762500D03*
D10*
X245912500Y-74012500D03*
X226800000Y-54912500D03*
D14*
X78062500Y-83562500D03*
D15*
X78342500Y-87762500D03*
D16*
X78482500Y-83562500D03*
D17*
X83562500Y-83562500D03*
D16*
X88642500Y-83562500D03*
D14*
X89062500Y-83562500D03*
D18*
X86082271Y-78772484D03*
D19*
X86102500Y-78482500D03*
D20*
X88562500Y-79762500D03*
D21*
X80407495Y-80292496D03*
D19*
X81062500Y-79562500D03*
D20*
X83562500Y-77662500D03*
D14*
X97162500Y-102662500D03*
D15*
X97442500Y-106862500D03*
D16*
X97582500Y-102662500D03*
D17*
X102662500Y-102662500D03*
D16*
X107742500Y-102662500D03*
D14*
X108162500Y-102662500D03*
D18*
X105182271Y-97872484D03*
D19*
X105202500Y-97582500D03*
D20*
X107662500Y-98862500D03*
D21*
X99507495Y-99392496D03*
D19*
X100162500Y-98662500D03*
D20*
X102662500Y-96762500D03*
D14*
X135362500Y-102662500D03*
D15*
X135642500Y-106862500D03*
D16*
X135782500Y-102662500D03*
D17*
X140862500Y-102662500D03*
D16*
X145942500Y-102662500D03*
D14*
X146362500Y-102662500D03*
D18*
X143382271Y-97872484D03*
D19*
X143402500Y-97582500D03*
D20*
X145862500Y-98862500D03*
D21*
X137707495Y-99392496D03*
D19*
X138362500Y-98662500D03*
D20*
X140862500Y-96762500D03*
D14*
X39862500Y-83562500D03*
D15*
X40142500Y-87762500D03*
D16*
X40282500Y-83562500D03*
D17*
X45362500Y-83562500D03*
D16*
X50442500Y-83562500D03*
D14*
X50862500Y-83562500D03*
D18*
X47882271Y-78772484D03*
D19*
X47902500Y-78482500D03*
D20*
X50362500Y-79762500D03*
D21*
X42207495Y-80292496D03*
D19*
X42862500Y-79562500D03*
D20*
X45362500Y-77662500D03*
D11*
X168000000Y-81912000D03*
D12*
X168000000Y-79412000D03*
D13*
X168000000Y-87212000D03*
D11*
X168000000Y-84712000D03*
D14*
X173562500Y-121762500D03*
D15*
X173842500Y-125962500D03*
D16*
X173982500Y-121762500D03*
D17*
X179062500Y-121762500D03*
D16*
X184142500Y-121762500D03*
D14*
X184562500Y-121762500D03*
D18*
X181582271Y-116972484D03*
D19*
X181602500Y-116682500D03*
D20*
X184062500Y-117962500D03*
D21*
X175907495Y-118492496D03*
D19*
X176562500Y-117762500D03*
D20*
X179062500Y-115862500D03*
D14*
X154462500Y-45362500D03*
D15*
X154742500Y-49562500D03*
D16*
X154882500Y-45362500D03*
D17*
X159962500Y-45362500D03*
D16*
X165042500Y-45362500D03*
D14*
X165462500Y-45362500D03*
D18*
X162482271Y-40572484D03*
D19*
X162502500Y-40282500D03*
D20*
X164962500Y-41562500D03*
D21*
X156807495Y-42092496D03*
D19*
X157462500Y-41362500D03*
D20*
X159962500Y-39462500D03*
D14*
X211762500Y-121762500D03*
D15*
X212042500Y-125962500D03*
D16*
X212182500Y-121762500D03*
D17*
X217262500Y-121762500D03*
D16*
X222342500Y-121762500D03*
D14*
X222762500Y-121762500D03*
D18*
X219782271Y-116972484D03*
D19*
X219802500Y-116682500D03*
D20*
X222262500Y-117962500D03*
D21*
X214107495Y-118492496D03*
D19*
X214762500Y-117762500D03*
D20*
X217262500Y-115862500D03*
D10*
X188600000Y-112212500D03*
D14*
X192662500Y-121762500D03*
D15*
X192942500Y-125962500D03*
D16*
X193082500Y-121762500D03*
D17*
X198162500Y-121762500D03*
D16*
X203242500Y-121762500D03*
D14*
X203662500Y-121762500D03*
D18*
X200682271Y-116972484D03*
D19*
X200702500Y-116682500D03*
D20*
X203162500Y-117962500D03*
D21*
X195007495Y-118492496D03*
D19*
X195662500Y-117762500D03*
D20*
X198162500Y-115862500D03*
D14*
X58962500Y-102662500D03*
D15*
X59242500Y-106862500D03*
D16*
X59382500Y-102662500D03*
D17*
X64462500Y-102662500D03*
D16*
X69542500Y-102662500D03*
D14*
X69962500Y-102662500D03*
D18*
X66982271Y-97872484D03*
D19*
X67002500Y-97582500D03*
D20*
X69462500Y-98862500D03*
D21*
X61307495Y-99392496D03*
D19*
X61962500Y-98662500D03*
D20*
X64462500Y-96762500D03*
D14*
X230862500Y-121762500D03*
D15*
X231142500Y-125962500D03*
D16*
X231282500Y-121762500D03*
D17*
X236362500Y-121762500D03*
D16*
X241442500Y-121762500D03*
D14*
X241862500Y-121762500D03*
D18*
X238882271Y-116972484D03*
D19*
X238902500Y-116682500D03*
D20*
X241362500Y-117962500D03*
D21*
X233207495Y-118492496D03*
D19*
X233862500Y-117762500D03*
D20*
X236362500Y-115862500D03*
D11*
X209318250Y-120362500D03*
D12*
X209318250Y-117862500D03*
D13*
X209318250Y-125662500D03*
D11*
X209318250Y-123162500D03*
X187000000Y-63116000D03*
D12*
X187000000Y-60616000D03*
D13*
X187000000Y-68416000D03*
D11*
X187000000Y-65916000D03*
D14*
X39862500Y-45362500D03*
D15*
X40142500Y-49562500D03*
D16*
X40282500Y-45362500D03*
D17*
X45362500Y-45362500D03*
D16*
X50442500Y-45362500D03*
D14*
X50862500Y-45362500D03*
D18*
X47882271Y-40572484D03*
D19*
X47902500Y-40282500D03*
D20*
X50362500Y-41562500D03*
D21*
X42207495Y-42092496D03*
D19*
X42862500Y-41362500D03*
D20*
X45362500Y-39462500D03*
D10*
X93112500Y-93112500D03*
D14*
X249962500Y-102662500D03*
D15*
X250242500Y-106862500D03*
D16*
X250382500Y-102662500D03*
D17*
X255462500Y-102662500D03*
D16*
X260542500Y-102662500D03*
D14*
X260962500Y-102662500D03*
D18*
X257982271Y-97872484D03*
D19*
X258002500Y-97582500D03*
D20*
X260462500Y-98862500D03*
D21*
X252307495Y-99392496D03*
D19*
X252962500Y-98662500D03*
D20*
X255462500Y-96762500D03*
D11*
X56400000Y-101262500D03*
D12*
X56400000Y-98762500D03*
D13*
X56400000Y-106562500D03*
D11*
X56400000Y-104062500D03*
D22*
X249862500Y-102662500D03*
X261062500Y-102662500D03*
D23*
X252962500Y-110162500D03*
D20*
X257962500Y-110162500D03*
X255462500Y-110162500D03*
X257962500Y-95662500D03*
X252962500Y-95662500D03*
D11*
X113700000Y-101262500D03*
D12*
X113700000Y-98762500D03*
D13*
X113700000Y-106562500D03*
D11*
X113700000Y-104062500D03*
D10*
X207712500Y-112212500D03*
X188600000Y-74012500D03*
D14*
X249962500Y-45362500D03*
D15*
X250242500Y-49562500D03*
D16*
X250382500Y-45362500D03*
D17*
X255462500Y-45362500D03*
D16*
X260542500Y-45362500D03*
D14*
X260962500Y-45362500D03*
D18*
X257982271Y-40572484D03*
D19*
X258002500Y-40282500D03*
D20*
X260462500Y-41562500D03*
D21*
X252307495Y-42092496D03*
D19*
X252962500Y-41362500D03*
D20*
X255462500Y-39462500D03*
D14*
X192662500Y-83562500D03*
D15*
X192942500Y-87762500D03*
D16*
X193082500Y-83562500D03*
D17*
X198162500Y-83562500D03*
D16*
X203242500Y-83562500D03*
D14*
X203662500Y-83562500D03*
D18*
X200682271Y-78772484D03*
D19*
X200702500Y-78482500D03*
D20*
X203162500Y-79762500D03*
D21*
X195007495Y-80292496D03*
D19*
X195662500Y-79562500D03*
D20*
X198162500Y-77662500D03*
D17*
X138474500Y-113507500D03*
D25*
X138474500Y-128747500D03*
D14*
X144912500Y-121762500D03*
D15*
X145192500Y-125962500D03*
D16*
X145332500Y-121762500D03*
D17*
X150412500Y-121762500D03*
D16*
X155492500Y-121762500D03*
D14*
X155912500Y-121762500D03*
D17*
X162350500Y-113507500D03*
D25*
X162350500Y-128747500D03*
D21*
X147257495Y-118492496D03*
D19*
X147912500Y-117762500D03*
D20*
X150412500Y-115862500D03*
D18*
X152932271Y-116972484D03*
D19*
X152952500Y-116682500D03*
D20*
X155412500Y-117962500D03*
D11*
X228554000Y-120774000D03*
D12*
X228554000Y-118274000D03*
D13*
X228554000Y-126074000D03*
D11*
X228554000Y-123574000D03*
D22*
X249862500Y-45362500D03*
X261062500Y-45362500D03*
D23*
X252962500Y-52862500D03*
D20*
X257962500Y-52862500D03*
X255462500Y-52862500D03*
X257962500Y-38362500D03*
X252962500Y-38362500D03*
D11*
X190100000Y-63062500D03*
D12*
X190100000Y-60562500D03*
D13*
X190100000Y-68362500D03*
D11*
X190100000Y-65862500D03*
X110744000Y-63062500D03*
D12*
X110744000Y-60562500D03*
D13*
X110744000Y-68362500D03*
D11*
X110744000Y-65862500D03*
D10*
X74025000Y-112212500D03*
D14*
X116262500Y-121762500D03*
D15*
X116542500Y-125962500D03*
D16*
X116682500Y-121762500D03*
D17*
X121762500Y-121762500D03*
D16*
X126842500Y-121762500D03*
D14*
X127262500Y-121762500D03*
D18*
X124282271Y-116972484D03*
D19*
X124302500Y-116682500D03*
D20*
X126762500Y-117962500D03*
D21*
X118607495Y-118492496D03*
D19*
X119262500Y-117762500D03*
D20*
X121762500Y-115862500D03*
D11*
X94488000Y-120774000D03*
D12*
X94488000Y-118274000D03*
D13*
X94488000Y-126074000D03*
D11*
X94488000Y-123574000D03*
X247400000Y-82162500D03*
D12*
X247400000Y-79662500D03*
D13*
X247400000Y-87462500D03*
D11*
X247400000Y-84962500D03*
D22*
X39762500Y-121762500D03*
X50962500Y-121762500D03*
D23*
X42862500Y-129262500D03*
D20*
X47862500Y-129262500D03*
X45362500Y-129262500D03*
X47862500Y-114762500D03*
X42862500Y-114762500D03*
D11*
X247400000Y-43962500D03*
D12*
X247400000Y-41462500D03*
D13*
X247400000Y-49262500D03*
D11*
X247400000Y-46762500D03*
X53400000Y-63062500D03*
D12*
X53400000Y-60562500D03*
D13*
X53400000Y-68362500D03*
D11*
X53400000Y-65862500D03*
D26*
X75942500Y-39830000D03*
D27*
X75942500Y-42370000D03*
X75942500Y-44910000D03*
X75942500Y-47450000D03*
X75942500Y-49990000D03*
X75942500Y-52530000D03*
X75942500Y-55070000D03*
X75942500Y-57610000D03*
X75942500Y-60150000D03*
X75942500Y-62690000D03*
X75942500Y-65230000D03*
X75942500Y-67770000D03*
X91182500Y-67770000D03*
X91182500Y-65230000D03*
X91182500Y-62690000D03*
X91182500Y-60150000D03*
X91182500Y-57610000D03*
X91182500Y-55070000D03*
X91182500Y-52530000D03*
X91182500Y-49990000D03*
X91182500Y-47450000D03*
X91182500Y-44910000D03*
X91182500Y-42370000D03*
X91182500Y-39830000D03*
D11*
X129794000Y-44066000D03*
D12*
X129794000Y-41566000D03*
D13*
X129794000Y-49366000D03*
D11*
X129794000Y-46866000D03*
D10*
X150400000Y-93112500D03*
D11*
X209200000Y-82162500D03*
D12*
X209200000Y-79662500D03*
D13*
X209200000Y-87462500D03*
D11*
X209200000Y-84962500D03*
X189914250Y-43962500D03*
D12*
X189914250Y-41462500D03*
D13*
X189914250Y-49262500D03*
D11*
X189914250Y-46762500D03*
D14*
X249962500Y-83562500D03*
D15*
X250242500Y-87762500D03*
D16*
X250382500Y-83562500D03*
D17*
X255462500Y-83562500D03*
D16*
X260542500Y-83562500D03*
D14*
X260962500Y-83562500D03*
D18*
X257982271Y-78772484D03*
D19*
X258002500Y-78482500D03*
D20*
X260462500Y-79762500D03*
D21*
X252307495Y-80292496D03*
D19*
X252962500Y-79562500D03*
D20*
X255462500Y-77662500D03*
D14*
X154462500Y-64462500D03*
D15*
X154742500Y-68662500D03*
D16*
X154882500Y-64462500D03*
D17*
X159962500Y-64462500D03*
D16*
X165042500Y-64462500D03*
D14*
X165462500Y-64462500D03*
D18*
X162482271Y-59672484D03*
D19*
X162502500Y-59382500D03*
D20*
X164962500Y-60662500D03*
D21*
X156807495Y-61192496D03*
D19*
X157462500Y-60462500D03*
D20*
X159962500Y-58562500D03*
D11*
X190100000Y-82420000D03*
D12*
X190100000Y-79920000D03*
D13*
X190100000Y-87720000D03*
D11*
X190100000Y-85220000D03*
D14*
X173562500Y-83562500D03*
D15*
X173842500Y-87762500D03*
D16*
X173982500Y-83562500D03*
D17*
X179062500Y-83562500D03*
D16*
X184142500Y-83562500D03*
D14*
X184562500Y-83562500D03*
D18*
X181582271Y-78772484D03*
D19*
X181602500Y-78482500D03*
D20*
X184062500Y-79762500D03*
D21*
X175907495Y-80292496D03*
D19*
X176562500Y-79562500D03*
D20*
X179062500Y-77662500D03*
D14*
X78062500Y-45362500D03*
D15*
X78342500Y-49562500D03*
D16*
X78482500Y-45362500D03*
D17*
X83562500Y-45362500D03*
D16*
X88642500Y-45362500D03*
D14*
X89062500Y-45362500D03*
D18*
X86082271Y-40572484D03*
D19*
X86102500Y-40282500D03*
D20*
X88562500Y-41562500D03*
D21*
X80407495Y-42092496D03*
D19*
X81062500Y-41362500D03*
D20*
X83562500Y-39462500D03*
D14*
X97162500Y-121762500D03*
D15*
X97442500Y-125962500D03*
D16*
X97582500Y-121762500D03*
D17*
X102662500Y-121762500D03*
D16*
X107742500Y-121762500D03*
D14*
X108162500Y-121762500D03*
D18*
X105182271Y-116972484D03*
D19*
X105202500Y-116682500D03*
D20*
X107662500Y-117962500D03*
D21*
X99507495Y-118492496D03*
D19*
X100162500Y-117762500D03*
D20*
X102662500Y-115862500D03*
D17*
X119374500Y-94407500D03*
D25*
X119374500Y-109647500D03*
D14*
X125812500Y-102662500D03*
D15*
X126092500Y-106862500D03*
D16*
X126232500Y-102662500D03*
D17*
X131312500Y-102662500D03*
D16*
X136392500Y-102662500D03*
D14*
X136812500Y-102662500D03*
D17*
X143250500Y-94407500D03*
D25*
X143250500Y-109647500D03*
D21*
X128157495Y-99392496D03*
D19*
X128812500Y-98662500D03*
D20*
X131312500Y-96762500D03*
D18*
X133832271Y-97872484D03*
D19*
X133852500Y-97582500D03*
D20*
X136312500Y-98862500D03*
D10*
X131312500Y-93112500D03*
D14*
X135362500Y-121762500D03*
D15*
X135642500Y-125962500D03*
D16*
X135782500Y-121762500D03*
D17*
X140862500Y-121762500D03*
D16*
X145942500Y-121762500D03*
D14*
X146362500Y-121762500D03*
D18*
X143382271Y-116972484D03*
D19*
X143402500Y-116682500D03*
D20*
X145862500Y-117962500D03*
D21*
X137707495Y-118492496D03*
D19*
X138362500Y-117762500D03*
D20*
X140862500Y-115862500D03*
D14*
X230862500Y-83562500D03*
D15*
X231142500Y-87762500D03*
D16*
X231282500Y-83562500D03*
D17*
X236362500Y-83562500D03*
D16*
X241442500Y-83562500D03*
D14*
X241862500Y-83562500D03*
D18*
X238882271Y-78772484D03*
D19*
X238902500Y-78482500D03*
D20*
X241362500Y-79762500D03*
D21*
X233207495Y-80292496D03*
D19*
X233862500Y-79562500D03*
D20*
X236362500Y-77662500D03*
D22*
X39762500Y-83562500D03*
X50962500Y-83562500D03*
D23*
X42862500Y-91062500D03*
D20*
X47862500Y-91062500D03*
X45362500Y-91062500D03*
X47862500Y-76562500D03*
X42862500Y-76562500D03*
D11*
X148900000Y-43200000D03*
D12*
X148900000Y-40700000D03*
D13*
X148900000Y-48500000D03*
D11*
X148900000Y-46000000D03*
D14*
X230862500Y-102662500D03*
D15*
X231142500Y-106862500D03*
D16*
X231282500Y-102662500D03*
D17*
X236362500Y-102662500D03*
D16*
X241442500Y-102662500D03*
D14*
X241862500Y-102662500D03*
D18*
X238882271Y-97872484D03*
D19*
X238902500Y-97582500D03*
D20*
X241362500Y-98862500D03*
D21*
X233207495Y-99392496D03*
D19*
X233862500Y-98662500D03*
D20*
X236362500Y-96762500D03*
D11*
X113700000Y-120774000D03*
D12*
X113700000Y-118274000D03*
D13*
X113700000Y-126074000D03*
D11*
X113700000Y-123574000D03*
D10*
X131312500Y-54912500D03*
D14*
X58962500Y-64462500D03*
D15*
X59242500Y-68662500D03*
D16*
X59382500Y-64462500D03*
D17*
X64462500Y-64462500D03*
D16*
X69542500Y-64462500D03*
D14*
X69962500Y-64462500D03*
D18*
X66982271Y-59672484D03*
D19*
X67002500Y-59382500D03*
D20*
X69462500Y-60662500D03*
D21*
X61307495Y-61192496D03*
D19*
X61962500Y-60462500D03*
D20*
X64462500Y-58562500D03*
D22*
X39762500Y-45362500D03*
X50962500Y-45362500D03*
D23*
X42862500Y-52862500D03*
D20*
X47862500Y-52862500D03*
X45362500Y-52862500D03*
X47862500Y-38362500D03*
X42862500Y-38362500D03*
D10*
X54912500Y-54912500D03*
D11*
X110744000Y-44066000D03*
D12*
X110744000Y-41566000D03*
D13*
X110744000Y-49366000D03*
D11*
X110744000Y-46866000D03*
D14*
X154462500Y-83562500D03*
D15*
X154742500Y-87762500D03*
D16*
X154882500Y-83562500D03*
D17*
X159962500Y-83562500D03*
D16*
X165042500Y-83562500D03*
D14*
X165462500Y-83562500D03*
D18*
X162482271Y-78772484D03*
D19*
X162502500Y-78482500D03*
D20*
X164962500Y-79762500D03*
D21*
X156807495Y-80292496D03*
D19*
X157462500Y-79562500D03*
D20*
X159962500Y-77662500D03*
D10*
X150400000Y-54912500D03*
D11*
X75438000Y-82162500D03*
D12*
X75438000Y-79662500D03*
D13*
X75438000Y-87462500D03*
D11*
X75438000Y-84962500D03*
D10*
X54912500Y-93112500D03*
D11*
X94488000Y-101262500D03*
D12*
X94488000Y-98762500D03*
D13*
X94488000Y-106562500D03*
D11*
X94488000Y-104062500D03*
D24*
X63116000Y-72644000D03*
D12*
X60616000Y-72644000D03*
D13*
X68416000Y-72644000D03*
D24*
X65916000Y-72644000D03*
D14*
X173562500Y-45362500D03*
D15*
X173842500Y-49562500D03*
D16*
X173982500Y-45362500D03*
D17*
X179062500Y-45362500D03*
D16*
X184142500Y-45362500D03*
D14*
X184562500Y-45362500D03*
D18*
X181582271Y-40572484D03*
D19*
X181602500Y-40282500D03*
D20*
X184062500Y-41562500D03*
D21*
X175907495Y-42092496D03*
D19*
X176562500Y-41362500D03*
D20*
X179062500Y-39462500D03*
D14*
X192662500Y-64462500D03*
D15*
X192942500Y-68662500D03*
D16*
X193082500Y-64462500D03*
D17*
X198162500Y-64462500D03*
D16*
X203242500Y-64462500D03*
D14*
X203662500Y-64462500D03*
D18*
X200682271Y-59672484D03*
D19*
X200702500Y-59382500D03*
D20*
X203162500Y-60662500D03*
D21*
X195007495Y-61192496D03*
D19*
X195662500Y-60462500D03*
D20*
X198162500Y-58562500D03*
D11*
X228300000Y-101262500D03*
D12*
X228300000Y-98762500D03*
D13*
X228300000Y-106562500D03*
D11*
X228300000Y-104062500D03*
D14*
X211762500Y-83562500D03*
D15*
X212042500Y-87762500D03*
D16*
X212182500Y-83562500D03*
D17*
X217262500Y-83562500D03*
D16*
X222342500Y-83562500D03*
D14*
X222762500Y-83562500D03*
D18*
X219782271Y-78772484D03*
D19*
X219802500Y-78482500D03*
D20*
X222262500Y-79762500D03*
D21*
X214107495Y-80292496D03*
D19*
X214762500Y-79562500D03*
D20*
X217262500Y-77662500D03*
D11*
X187000000Y-43962500D03*
D12*
X187000000Y-41462500D03*
D13*
X187000000Y-49262500D03*
D11*
X187000000Y-46762500D03*
D22*
X39762500Y-102662500D03*
X50962500Y-102662500D03*
D23*
X42862500Y-110162500D03*
D20*
X47862500Y-110162500D03*
X45362500Y-110162500D03*
X47862500Y-95662500D03*
X42862500Y-95662500D03*
D14*
X78062500Y-121762500D03*
D15*
X78342500Y-125962500D03*
D16*
X78482500Y-121762500D03*
D17*
X83562500Y-121762500D03*
D16*
X88642500Y-121762500D03*
D14*
X89062500Y-121762500D03*
D18*
X86082271Y-116972484D03*
D19*
X86102500Y-116682500D03*
D20*
X88562500Y-117962500D03*
D21*
X80407495Y-118492496D03*
D19*
X81062500Y-117762500D03*
D20*
X83562500Y-115862500D03*
D11*
X228300000Y-44168750D03*
D12*
X228300000Y-41668750D03*
D13*
X228300000Y-49468750D03*
D11*
X228300000Y-46968750D03*
X148844000Y-63116000D03*
D12*
X148844000Y-60616000D03*
D13*
X148844000Y-68416000D03*
D11*
X148844000Y-65916000D03*
D10*
X112200000Y-112212500D03*
D14*
X135362500Y-83562500D03*
D15*
X135642500Y-87762500D03*
D16*
X135782500Y-83562500D03*
D17*
X140862500Y-83562500D03*
D16*
X145942500Y-83562500D03*
D14*
X146362500Y-83562500D03*
D18*
X143382271Y-78772484D03*
D19*
X143402500Y-78482500D03*
D20*
X145862500Y-79762500D03*
D21*
X137707495Y-80292496D03*
D19*
X138362500Y-79562500D03*
D20*
X140862500Y-77662500D03*
D10*
X188600000Y-54912500D03*
D11*
X187000000Y-100708000D03*
D12*
X187000000Y-98208000D03*
D13*
X187000000Y-106008000D03*
D11*
X187000000Y-103508000D03*
X129794000Y-63116000D03*
D12*
X129794000Y-60616000D03*
D13*
X129794000Y-68416000D03*
D11*
X129794000Y-65916000D03*
D10*
X226800000Y-93112500D03*
D11*
X151900000Y-82175000D03*
D12*
X151900000Y-79675000D03*
D13*
X151900000Y-87475000D03*
D11*
X151900000Y-84975000D03*
X209200000Y-63062500D03*
D12*
X209200000Y-60562500D03*
D13*
X209200000Y-68362500D03*
D11*
X209200000Y-65862500D03*
D10*
X188600000Y-93112500D03*
D11*
X56400000Y-120568750D03*
D12*
X56400000Y-118068750D03*
D13*
X56400000Y-125868750D03*
D11*
X56400000Y-123368750D03*
M02*
