%TF.GenerationSoftware,KiCad,Pcbnew,7.0.2-0*%
%TF.CreationDate,2024-03-28T17:47:01+01:00*%
%TF.ProjectId,CYOA_Ortho,43594f41-5f4f-4727-9468-6f2e6b696361,rev?*%
%TF.SameCoordinates,Original*%
%TF.FileFunction,Drillmap*%
%TF.FilePolarity,Positive*%
%FSLAX45Y45*%
G04 Gerber Fmt 4.5, Leading zero omitted, Abs format (unit mm)*
G04 Created by KiCad (PCBNEW 7.0.2-0) date 2024-03-28 17:47:01*
%MOMM*%
%LPD*%
G01*
G04 APERTURE LIST*
%ADD10C,0.100000*%
%ADD11C,0.200000*%
%ADD12C,0.040000*%
%ADD13C,0.109220*%
%ADD14C,0.120000*%
%ADD15C,0.147000*%
G04 APERTURE END LIST*
D10*
X10866875Y-9310000D02*
G75*
G03*
X10866875Y-9310000I-50000J0D01*
G01*
X25055625Y-11221250D02*
G75*
G03*
X25055625Y-11221250I-50000J0D01*
G01*
X5730000Y-13131250D02*
X10978678Y-13129928D01*
X5301250Y-11221250D02*
G75*
G03*
X5301250Y-11221250I-50000J0D01*
G01*
X22730000Y-5873750D02*
G75*
G03*
X22730000Y-5873750I-50000J0D01*
G01*
X4947000Y-11221250D02*
G75*
G03*
X4947000Y-11221250I-30000J0D01*
G01*
X13160000Y-10639375D02*
G75*
G03*
X13160000Y-10639375I-30000J0D01*
G01*
X24620000Y-6829375D02*
G75*
G03*
X24620000Y-6829375I-30000J0D01*
G01*
X16980000Y-11823750D02*
G75*
G03*
X16980000Y-11823750I-30000J0D01*
G01*
X18907428Y-9525000D02*
G75*
G03*
X18907428Y-9525000I-50000J0D01*
G01*
X15070000Y-6511875D02*
G75*
G03*
X15070000Y-6511875I-30000J0D01*
G01*
X24620000Y-8575625D02*
G75*
G03*
X24620000Y-8575625I-30000J0D01*
G01*
X24640000Y-6032500D02*
G75*
G03*
X24640000Y-6032500I-50000J0D01*
G01*
X25373125Y-11221250D02*
G75*
G03*
X25373125Y-11221250I-50000J0D01*
G01*
X5536178Y-7940625D02*
G75*
G03*
X5536178Y-7940625I-50000J0D01*
G01*
X20800000Y-5083125D02*
G75*
G03*
X20800000Y-5083125I-30000J0D01*
G01*
X15090000Y-4127500D02*
G75*
G03*
X15090000Y-4127500I-50000J0D01*
G01*
X25991250Y-11221250D02*
G75*
G03*
X25991250Y-11221250I-30000J0D01*
G01*
X17196322Y-3581252D02*
G75*
G03*
X16957572Y-3820000I-2J-238748D01*
G01*
X22674928Y-3820000D02*
X22685072Y-3820000D01*
X5780625Y-11221250D02*
G75*
G03*
X5780625Y-11221250I-50000J0D01*
G01*
X24640000Y-9525000D02*
G75*
G03*
X24640000Y-9525000I-50000J0D01*
G01*
X25214375Y-11221250D02*
G75*
G03*
X25214375Y-11221250I-50000J0D01*
G01*
X19806875Y-11221250D02*
G75*
G03*
X19806875Y-11221250I-50000J0D01*
G01*
X22730000Y-9525000D02*
G75*
G03*
X22730000Y-9525000I-50000J0D01*
G01*
X13180000Y-8575625D02*
G75*
G03*
X13180000Y-8575625I-50000J0D01*
G01*
X13376322Y-3581252D02*
G75*
G03*
X13137572Y-3820000I-2J-238748D01*
G01*
X21805625Y-11221250D02*
G75*
G03*
X21805625Y-11221250I-30000J0D01*
G01*
X11270000Y-10963750D02*
G75*
G03*
X11270000Y-10963750I-50000J0D01*
G01*
X5516178Y-10801250D02*
G75*
G03*
X5516178Y-10801250I-30000J0D01*
G01*
X15070000Y-4765625D02*
G75*
G03*
X15070000Y-4765625I-30000J0D01*
G01*
X13160000Y-6670625D02*
G75*
G03*
X13160000Y-6670625I-30000J0D01*
G01*
X22943125Y-9310000D02*
G75*
G03*
X22943125Y-9310000I-50000J0D01*
G01*
X4501875Y-9310000D02*
G75*
G03*
X4501875Y-9310000I-50000J0D01*
G01*
X24620000Y-12620625D02*
G75*
G03*
X24620000Y-12620625I-30000J0D01*
G01*
X20820000Y-5715000D02*
G75*
G03*
X20820000Y-5715000I-50000J0D01*
G01*
X24620000Y-5245000D02*
G75*
G03*
X24620000Y-5245000I-30000J0D01*
G01*
X24595072Y-12891178D02*
G75*
G03*
X24833822Y-13129928I238748J-2D01*
G01*
X11250000Y-4928125D02*
G75*
G03*
X11250000Y-4928125I-30000J0D01*
G01*
X26501250Y-3820000D02*
G75*
G03*
X26262500Y-3581250I-238750J0D01*
G01*
X11227572Y-12891178D02*
G75*
G03*
X11466322Y-13129928I238748J-2D01*
G01*
X7854000Y-9310000D02*
G75*
G03*
X7854000Y-9310000I-30000J0D01*
G01*
X4022000Y-11221250D02*
G75*
G03*
X4022000Y-11221250I-30000J0D01*
G01*
X22463750Y-11221250D02*
G75*
G03*
X22463750Y-11221250I-50000J0D01*
G01*
X24640000Y-12782500D02*
G75*
G03*
X24640000Y-12782500I-50000J0D01*
G01*
X25055625Y-9310000D02*
G75*
G03*
X25055625Y-9310000I-50000J0D01*
G01*
X18907428Y-6350000D02*
G75*
G03*
X18907428Y-6350000I-50000J0D01*
G01*
X4343125Y-9310000D02*
G75*
G03*
X4343125Y-9310000I-50000J0D01*
G01*
X20820000Y-4286250D02*
G75*
G03*
X20820000Y-4286250I-50000J0D01*
G01*
X22923822Y-13129928D02*
X24346178Y-13129928D01*
X5536178Y-6991250D02*
G75*
G03*
X5536178Y-6991250I-50000J0D01*
G01*
X18907428Y-8255000D02*
G75*
G03*
X18907428Y-8255000I-50000J0D01*
G01*
X18907428Y-6032500D02*
G75*
G03*
X18907428Y-6032500I-50000J0D01*
G01*
X13591250Y-11221250D02*
G75*
G03*
X13591250Y-11221250I-50000J0D01*
G01*
X14890000Y-11221250D02*
G75*
G03*
X14890000Y-11221250I-30000J0D01*
G01*
X24640000Y-11823750D02*
G75*
G03*
X24640000Y-11823750I-50000J0D01*
G01*
X18887428Y-9055000D02*
G75*
G03*
X18887428Y-9055000I-30000J0D01*
G01*
X24833822Y-3581252D02*
G75*
G03*
X24595072Y-3820000I-2J-238748D01*
G01*
X24061000Y-11221000D02*
G75*
G03*
X24061000Y-11221000I-30000J0D01*
G01*
X11250000Y-5086875D02*
G75*
G03*
X11250000Y-5086875I-30000J0D01*
G01*
X17000000Y-4606875D02*
G75*
G03*
X17000000Y-4606875I-50000J0D01*
G01*
X20820000Y-10798125D02*
G75*
G03*
X20820000Y-10798125I-50000J0D01*
G01*
X22730000Y-10798125D02*
G75*
G03*
X22730000Y-10798125I-50000J0D01*
G01*
X11250000Y-10643125D02*
G75*
G03*
X11250000Y-10643125I-30000J0D01*
G01*
X22710000Y-7778750D02*
G75*
G03*
X22710000Y-7778750I-30000J0D01*
G01*
X24620000Y-8734375D02*
G75*
G03*
X24620000Y-8734375I-30000J0D01*
G01*
X4000625Y-9310000D02*
G75*
G03*
X4000625Y-9310000I-30000J0D01*
G01*
X22730000Y-11982500D02*
G75*
G03*
X22730000Y-11982500I-50000J0D01*
G01*
X11217428Y-12891178D02*
X11227572Y-12891178D01*
X13376322Y-13129928D02*
X14798678Y-13129928D01*
X22943125Y-11221250D02*
G75*
G03*
X22943125Y-11221250I-50000J0D01*
G01*
X18618678Y-13129928D02*
G75*
G03*
X18857428Y-12891178I2J238748D01*
G01*
X24640000Y-5873750D02*
G75*
G03*
X24640000Y-5873750I-50000J0D01*
G01*
X13180000Y-7620000D02*
G75*
G03*
X13180000Y-7620000I-50000J0D01*
G01*
X16980000Y-6829375D02*
G75*
G03*
X16980000Y-6829375I-30000J0D01*
G01*
X20528678Y-13129928D02*
G75*
G03*
X20767428Y-12891178I2J238748D01*
G01*
X8336875Y-9310000D02*
G75*
G03*
X8336875Y-9310000I-50000J0D01*
G01*
X26501250Y-11460000D02*
G75*
G03*
X26262500Y-11221250I-238750J0D01*
G01*
X11270000Y-6515625D02*
G75*
G03*
X11270000Y-6515625I-50000J0D01*
G01*
X5536178Y-6515000D02*
G75*
G03*
X5536178Y-6515000I-50000J0D01*
G01*
X18887428Y-12303125D02*
G75*
G03*
X18887428Y-12303125I-30000J0D01*
G01*
X11270000Y-8420625D02*
G75*
G03*
X11270000Y-8420625I-50000J0D01*
G01*
X22730000Y-9683750D02*
G75*
G03*
X22730000Y-9683750I-50000J0D01*
G01*
X22730000Y-12782500D02*
G75*
G03*
X22730000Y-12782500I-50000J0D01*
G01*
X11250000Y-8738125D02*
G75*
G03*
X11250000Y-8738125I-30000J0D01*
G01*
X26258678Y-9311248D02*
G75*
G03*
X26497428Y-9072500I2J238748D01*
G01*
X10978678Y-3581250D02*
X5730000Y-3581250D01*
X24833822Y-13129928D02*
X26262500Y-13131250D01*
X18907428Y-10798125D02*
G75*
G03*
X18907428Y-10798125I-50000J0D01*
G01*
X22254000Y-9310000D02*
G75*
G03*
X22254000Y-9310000I-30000J0D01*
G01*
X20274375Y-11221250D02*
G75*
G03*
X20274375Y-11221250I-30000J0D01*
G01*
X20800000Y-10480625D02*
G75*
G03*
X20800000Y-10480625I-30000J0D01*
G01*
X7698750Y-11221250D02*
G75*
G03*
X7698750Y-11221250I-50000J0D01*
G01*
X24640000Y-12303125D02*
G75*
G03*
X24640000Y-12303125I-50000J0D01*
G01*
X21503125Y-9310000D02*
G75*
G03*
X21503125Y-9310000I-50000J0D01*
G01*
X23265625Y-11221250D02*
G75*
G03*
X23265625Y-11221250I-50000J0D01*
G01*
X15070000Y-11823750D02*
G75*
G03*
X15070000Y-11823750I-30000J0D01*
G01*
X22730000Y-10960000D02*
G75*
G03*
X22730000Y-10960000I-50000J0D01*
G01*
X6256875Y-11221250D02*
G75*
G03*
X6256875Y-11221250I-50000J0D01*
G01*
X4501875Y-11221250D02*
G75*
G03*
X4501875Y-11221250I-50000J0D01*
G01*
X24620000Y-10480625D02*
G75*
G03*
X24620000Y-10480625I-30000J0D01*
G01*
X20820000Y-12303125D02*
G75*
G03*
X20820000Y-12303125I-50000J0D01*
G01*
X15047572Y-12891178D02*
G75*
G03*
X15286322Y-13129928I238748J-2D01*
G01*
X18887428Y-6829375D02*
G75*
G03*
X18887428Y-6829375I-30000J0D01*
G01*
X5516178Y-5248125D02*
G75*
G03*
X5516178Y-5248125I-30000J0D01*
G01*
X5536178Y-5718125D02*
G75*
G03*
X5536178Y-5718125I-50000J0D01*
G01*
X16947430Y-3820000D02*
G75*
G03*
X16708678Y-3581250I-238750J0D01*
G01*
X20800000Y-7620000D02*
G75*
G03*
X20800000Y-7620000I-30000J0D01*
G01*
X5536178Y-10963125D02*
G75*
G03*
X5536178Y-10963125I-50000J0D01*
G01*
X12769375Y-11221250D02*
G75*
G03*
X12769375Y-11221250I-30000J0D01*
G01*
X20820000Y-11665000D02*
G75*
G03*
X20820000Y-11665000I-50000J0D01*
G01*
X18687500Y-11221250D02*
G75*
G03*
X18687500Y-11221250I-50000J0D01*
G01*
X22730000Y-9842500D02*
G75*
G03*
X22730000Y-9842500I-50000J0D01*
G01*
X26262500Y-11221250D02*
G75*
G03*
X26501250Y-10982500I0J238750D01*
G01*
X18907428Y-8096250D02*
G75*
G03*
X18907428Y-8096250I-50000J0D01*
G01*
X6418750Y-9310000D02*
G75*
G03*
X6418750Y-9310000I-50000J0D01*
G01*
X13127430Y-3820000D02*
G75*
G03*
X12888678Y-3581250I-238750J0D01*
G01*
X9588750Y-9310000D02*
G75*
G03*
X9588750Y-9310000I-50000J0D01*
G01*
X11466322Y-13129928D02*
X12888678Y-13129928D01*
X22923822Y-3581252D02*
G75*
G03*
X22685072Y-3820000I-2J-238748D01*
G01*
X14910000Y-9310000D02*
G75*
G03*
X14910000Y-9310000I-50000J0D01*
G01*
X23745000Y-9310000D02*
G75*
G03*
X23745000Y-9310000I-50000J0D01*
G01*
X20404000Y-9310000D02*
G75*
G03*
X20404000Y-9310000I-30000J0D01*
G01*
X22710000Y-6829375D02*
G75*
G03*
X22710000Y-6829375I-30000J0D01*
G01*
X24640000Y-4606875D02*
G75*
G03*
X24640000Y-4606875I-50000J0D01*
G01*
X17000000Y-7620000D02*
G75*
G03*
X17000000Y-7620000I-50000J0D01*
G01*
X18907428Y-5873750D02*
G75*
G03*
X18907428Y-5873750I-50000J0D01*
G01*
X15070000Y-6670625D02*
G75*
G03*
X15070000Y-6670625I-30000J0D01*
G01*
X24620000Y-3968750D02*
G75*
G03*
X24620000Y-3968750I-30000J0D01*
G01*
X22710000Y-6670625D02*
G75*
G03*
X22710000Y-6670625I-30000J0D01*
G01*
X24640000Y-10798125D02*
G75*
G03*
X24640000Y-10798125I-50000J0D01*
G01*
X13180000Y-8096250D02*
G75*
G03*
X13180000Y-8096250I-50000J0D01*
G01*
X25330000Y-9310000D02*
G75*
G03*
X25330000Y-9310000I-30000J0D01*
G01*
X16980000Y-7150000D02*
G75*
G03*
X16980000Y-7150000I-30000J0D01*
G01*
X20800000Y-9055000D02*
G75*
G03*
X20800000Y-9055000I-30000J0D01*
G01*
X17000000Y-10960000D02*
G75*
G03*
X17000000Y-10960000I-50000J0D01*
G01*
X20820000Y-10960000D02*
G75*
G03*
X20820000Y-10960000I-50000J0D01*
G01*
X24640000Y-9683750D02*
G75*
G03*
X24640000Y-9683750I-50000J0D01*
G01*
X17886875Y-11221250D02*
G75*
G03*
X17886875Y-11221250I-50000J0D01*
G01*
X5481107Y-3820000D02*
X5491250Y-3820000D01*
X5516178Y-12623750D02*
G75*
G03*
X5516178Y-12623750I-30000J0D01*
G01*
X8980000Y-11221250D02*
G75*
G03*
X8980000Y-11221250I-50000J0D01*
G01*
X3581250Y-12892500D02*
G75*
G03*
X3820000Y-13131250I238750J0D01*
G01*
X11670000Y-11221250D02*
G75*
G03*
X11670000Y-11221250I-50000J0D01*
G01*
X11250000Y-6833125D02*
G75*
G03*
X11250000Y-6833125I-30000J0D01*
G01*
X20820000Y-10321875D02*
G75*
G03*
X20820000Y-10321875I-50000J0D01*
G01*
X4187500Y-9310000D02*
G75*
G03*
X4187500Y-9310000I-50000J0D01*
G01*
X16980000Y-8255000D02*
G75*
G03*
X16980000Y-8255000I-30000J0D01*
G01*
X22730000Y-7937500D02*
G75*
G03*
X22730000Y-7937500I-50000J0D01*
G01*
X18887428Y-8734375D02*
G75*
G03*
X18887428Y-8734375I-30000J0D01*
G01*
X22710000Y-12620625D02*
G75*
G03*
X22710000Y-12620625I-30000J0D01*
G01*
X23860000Y-11221250D02*
G75*
G03*
X23860000Y-11221250I-30000J0D01*
G01*
X16980000Y-3968750D02*
G75*
G03*
X16980000Y-3968750I-30000J0D01*
G01*
X13160000Y-5890000D02*
G75*
G03*
X13160000Y-5890000I-30000J0D01*
G01*
X24640000Y-7937500D02*
G75*
G03*
X24640000Y-7937500I-50000J0D01*
G01*
X18907428Y-9842500D02*
G75*
G03*
X18907428Y-9842500I-50000J0D01*
G01*
X26192000Y-11223000D02*
G75*
G03*
X26192000Y-11223000I-30000J0D01*
G01*
X20800000Y-6829375D02*
G75*
G03*
X20800000Y-6829375I-30000J0D01*
G01*
X22730000Y-10160000D02*
G75*
G03*
X22730000Y-10160000I-50000J0D01*
G01*
X15410000Y-11221250D02*
G75*
G03*
X15410000Y-11221250I-50000J0D01*
G01*
X9911250Y-11221250D02*
G75*
G03*
X9911250Y-11221250I-50000J0D01*
G01*
X26497428Y-9072500D02*
X26501250Y-3820000D01*
X20800000Y-6670625D02*
G75*
G03*
X20800000Y-6670625I-30000J0D01*
G01*
X15090000Y-10798125D02*
G75*
G03*
X15090000Y-10798125I-50000J0D01*
G01*
X18907428Y-6511875D02*
G75*
G03*
X18907428Y-6511875I-50000J0D01*
G01*
X11270000Y-7941250D02*
G75*
G03*
X11270000Y-7941250I-50000J0D01*
G01*
X15090000Y-6191250D02*
G75*
G03*
X15090000Y-6191250I-50000J0D01*
G01*
X5536178Y-11512500D02*
G75*
G03*
X5536178Y-11512500I-50000J0D01*
G01*
X15070000Y-10639375D02*
G75*
G03*
X15070000Y-10639375I-30000J0D01*
G01*
X13160000Y-11850000D02*
G75*
G03*
X13160000Y-11850000I-30000J0D01*
G01*
X19489375Y-11221250D02*
G75*
G03*
X19489375Y-11221250I-50000J0D01*
G01*
X24620000Y-6670625D02*
G75*
G03*
X24620000Y-6670625I-30000J0D01*
G01*
X6098125Y-11221250D02*
G75*
G03*
X6098125Y-11221250I-50000J0D01*
G01*
X19965625Y-11221250D02*
G75*
G03*
X19965625Y-11221250I-50000J0D01*
G01*
X5536178Y-7153125D02*
G75*
G03*
X5536178Y-7153125I-50000J0D01*
G01*
X13160000Y-5245000D02*
G75*
G03*
X13160000Y-5245000I-30000J0D01*
G01*
X12474000Y-9310000D02*
G75*
G03*
X12474000Y-9310000I-30000J0D01*
G01*
X20777572Y-12891178D02*
G75*
G03*
X21016322Y-13129928I238748J-2D01*
G01*
X18887428Y-5245000D02*
G75*
G03*
X18887428Y-5245000I-30000J0D01*
G01*
X24584930Y-3820000D02*
G75*
G03*
X24346178Y-3581250I-238750J0D01*
G01*
X24620000Y-7620000D02*
G75*
G03*
X24620000Y-7620000I-30000J0D01*
G01*
X22730000Y-10001250D02*
G75*
G03*
X22730000Y-10001250I-50000J0D01*
G01*
X17569375Y-11221250D02*
G75*
G03*
X17569375Y-11221250I-50000J0D01*
G01*
X20820000Y-11823750D02*
G75*
G03*
X20820000Y-11823750I-50000J0D01*
G01*
X22730000Y-12144375D02*
G75*
G03*
X22730000Y-12144375I-50000J0D01*
G01*
X17000000Y-7937500D02*
G75*
G03*
X17000000Y-7937500I-50000J0D01*
G01*
X13160000Y-9055000D02*
G75*
G03*
X13160000Y-9055000I-30000J0D01*
G01*
X16980000Y-9055000D02*
G75*
G03*
X16980000Y-9055000I-30000J0D01*
G01*
X14140000Y-11221250D02*
G75*
G03*
X14140000Y-11221250I-50000J0D01*
G01*
X13160000Y-3968750D02*
G75*
G03*
X13160000Y-3968750I-30000J0D01*
G01*
X22710000Y-6988125D02*
G75*
G03*
X22710000Y-6988125I-30000J0D01*
G01*
X22730000Y-8255000D02*
G75*
G03*
X22730000Y-8255000I-50000J0D01*
G01*
X5516178Y-6673750D02*
G75*
G03*
X5516178Y-6673750I-30000J0D01*
G01*
X21185625Y-11221250D02*
G75*
G03*
X21185625Y-11221250I-50000J0D01*
G01*
X24640000Y-10160000D02*
G75*
G03*
X24640000Y-10160000I-50000J0D01*
G01*
X26501250Y-10982500D02*
X26497428Y-9550000D01*
X11250000Y-5718750D02*
G75*
G03*
X11250000Y-5718750I-30000J0D01*
G01*
X11270000Y-11986250D02*
G75*
G03*
X11270000Y-11986250I-50000J0D01*
G01*
X15070000Y-5715000D02*
G75*
G03*
X15070000Y-5715000I-30000J0D01*
G01*
X9755625Y-9310000D02*
G75*
G03*
X9755625Y-9310000I-50000J0D01*
G01*
X18907428Y-4606875D02*
G75*
G03*
X18907428Y-4606875I-50000J0D01*
G01*
X16980000Y-9842500D02*
G75*
G03*
X16980000Y-9842500I-30000J0D01*
G01*
X11270000Y-7782500D02*
G75*
G03*
X11270000Y-7782500I-50000J0D01*
G01*
X15070000Y-12620625D02*
G75*
G03*
X15070000Y-12620625I-30000J0D01*
G01*
X18887428Y-7150000D02*
G75*
G03*
X18887428Y-7150000I-30000J0D01*
G01*
X24640000Y-6350000D02*
G75*
G03*
X24640000Y-6350000I-50000J0D01*
G01*
X18907428Y-10160000D02*
G75*
G03*
X18907428Y-10160000I-50000J0D01*
G01*
X22710000Y-8893125D02*
G75*
G03*
X22710000Y-8893125I-30000J0D01*
G01*
X24640000Y-4286250D02*
G75*
G03*
X24640000Y-4286250I-50000J0D01*
G01*
X22730000Y-4445000D02*
G75*
G03*
X22730000Y-4445000I-50000J0D01*
G01*
X22730000Y-12303125D02*
G75*
G03*
X22730000Y-12303125I-50000J0D01*
G01*
X11250000Y-12148125D02*
G75*
G03*
X11250000Y-12148125I-30000J0D01*
G01*
X6585625Y-11221250D02*
G75*
G03*
X6585625Y-11221250I-50000J0D01*
G01*
X16980000Y-6511875D02*
G75*
G03*
X16980000Y-6511875I-30000J0D01*
G01*
X16980000Y-5245000D02*
G75*
G03*
X16980000Y-5245000I-30000J0D01*
G01*
X11250000Y-12786250D02*
G75*
G03*
X11250000Y-12786250I-30000J0D01*
G01*
X3581250Y-10982500D02*
G75*
G03*
X3820000Y-11221250I238750J0D01*
G01*
X12264000Y-9310000D02*
G75*
G03*
X12264000Y-9310000I-30000J0D01*
G01*
X5516178Y-8737500D02*
G75*
G03*
X5516178Y-8737500I-30000J0D01*
G01*
X11270000Y-6674375D02*
G75*
G03*
X11270000Y-6674375I-50000J0D01*
G01*
X17000000Y-6350000D02*
G75*
G03*
X17000000Y-6350000I-50000J0D01*
G01*
X26262500Y-13131250D02*
G75*
G03*
X26501250Y-12892500I0J238750D01*
G01*
X16048750Y-9310000D02*
G75*
G03*
X16048750Y-9310000I-50000J0D01*
G01*
X5536178Y-5876875D02*
G75*
G03*
X5536178Y-5876875I-50000J0D01*
G01*
X16980000Y-8575625D02*
G75*
G03*
X16980000Y-8575625I-30000J0D01*
G01*
X24640000Y-9055000D02*
G75*
G03*
X24640000Y-9055000I-50000J0D01*
G01*
X13160000Y-4924375D02*
G75*
G03*
X13160000Y-4924375I-30000J0D01*
G01*
X22730000Y-11509375D02*
G75*
G03*
X22730000Y-11509375I-50000J0D01*
G01*
X24640000Y-10960000D02*
G75*
G03*
X24640000Y-10960000I-50000J0D01*
G01*
X8019375Y-11221250D02*
G75*
G03*
X8019375Y-11221250I-50000J0D01*
G01*
X11250000Y-10801875D02*
G75*
G03*
X11250000Y-10801875I-30000J0D01*
G01*
X24640000Y-10321875D02*
G75*
G03*
X24640000Y-10321875I-50000J0D01*
G01*
X20608750Y-11221250D02*
G75*
G03*
X20608750Y-11221250I-50000J0D01*
G01*
X16980000Y-6988125D02*
G75*
G03*
X16980000Y-6988125I-30000J0D01*
G01*
X3821250Y-9311250D02*
G75*
G03*
X3582500Y-9550000I0J-238750D01*
G01*
X12948125Y-9310000D02*
G75*
G03*
X12948125Y-9310000I-50000J0D01*
G01*
X5536178Y-6353125D02*
G75*
G03*
X5536178Y-6353125I-50000J0D01*
G01*
X22730000Y-4286250D02*
G75*
G03*
X22730000Y-4286250I-50000J0D01*
G01*
X18887428Y-6670625D02*
G75*
G03*
X18887428Y-6670625I-30000J0D01*
G01*
X23583125Y-9310000D02*
G75*
G03*
X23583125Y-9310000I-50000J0D01*
G01*
X17886875Y-9310000D02*
G75*
G03*
X17886875Y-9310000I-50000J0D01*
G01*
X18887428Y-6988125D02*
G75*
G03*
X18887428Y-6988125I-30000J0D01*
G01*
X24620000Y-7778750D02*
G75*
G03*
X24620000Y-7778750I-30000J0D01*
G01*
X15070000Y-8893125D02*
G75*
G03*
X15070000Y-8893125I-30000J0D01*
G01*
X21344375Y-9310000D02*
G75*
G03*
X21344375Y-9310000I-50000J0D01*
G01*
X11250000Y-3990000D02*
G75*
G03*
X11250000Y-3990000I-30000J0D01*
G01*
X5536178Y-7781875D02*
G75*
G03*
X5536178Y-7781875I-50000J0D01*
G01*
X16706178Y-13129928D02*
G75*
G03*
X16944928Y-12891178I2J238748D01*
G01*
X3820000Y-13131250D02*
X5242357Y-13131250D01*
X17410625Y-11221250D02*
G75*
G03*
X17410625Y-11221250I-50000J0D01*
G01*
X14798678Y-13129928D02*
G75*
G03*
X15037428Y-12891178I2J238748D01*
G01*
X5536178Y-6194375D02*
G75*
G03*
X5536178Y-6194375I-50000J0D01*
G01*
X20820000Y-6350000D02*
G75*
G03*
X20820000Y-6350000I-50000J0D01*
G01*
X24221250Y-11221250D02*
G75*
G03*
X24221250Y-11221250I-50000J0D01*
G01*
X22674928Y-12891178D02*
X22685072Y-12891178D01*
X15547500Y-9310000D02*
G75*
G03*
X15547500Y-9310000I-30000J0D01*
G01*
X24640000Y-6988125D02*
G75*
G03*
X24640000Y-6988125I-50000J0D01*
G01*
X17000000Y-6032500D02*
G75*
G03*
X17000000Y-6032500I-50000J0D01*
G01*
X11270000Y-7623750D02*
G75*
G03*
X11270000Y-7623750I-50000J0D01*
G01*
X9911250Y-9310000D02*
G75*
G03*
X9911250Y-9310000I-50000J0D01*
G01*
X22730000Y-6032500D02*
G75*
G03*
X22730000Y-6032500I-50000J0D01*
G01*
X15070000Y-8575625D02*
G75*
G03*
X15070000Y-8575625I-30000J0D01*
G01*
X22143125Y-11221250D02*
G75*
G03*
X22143125Y-11221250I-50000J0D01*
G01*
X9138750Y-9310000D02*
G75*
G03*
X9138750Y-9310000I-50000J0D01*
G01*
X19327500Y-9310000D02*
G75*
G03*
X19327500Y-9310000I-50000J0D01*
G01*
X18887428Y-4924375D02*
G75*
G03*
X18887428Y-4924375I-30000J0D01*
G01*
X20800000Y-6988125D02*
G75*
G03*
X20800000Y-6988125I-30000J0D01*
G01*
X16775625Y-9310000D02*
G75*
G03*
X16775625Y-9310000I-50000J0D01*
G01*
X22730000Y-5245000D02*
G75*
G03*
X22730000Y-5245000I-50000J0D01*
G01*
X11270000Y-6353750D02*
G75*
G03*
X11270000Y-6353750I-50000J0D01*
G01*
X18907428Y-11823750D02*
G75*
G03*
X18907428Y-11823750I-50000J0D01*
G01*
X11270000Y-10484375D02*
G75*
G03*
X11270000Y-10484375I-50000J0D01*
G01*
X18887428Y-7620000D02*
G75*
G03*
X18887428Y-7620000I-30000J0D01*
G01*
X9138750Y-11221250D02*
G75*
G03*
X9138750Y-11221250I-50000J0D01*
G01*
X8819000Y-9310000D02*
G75*
G03*
X8819000Y-9310000I-30000J0D01*
G01*
X13160000Y-7000000D02*
G75*
G03*
X13160000Y-7000000I-30000J0D01*
G01*
X11511250Y-11221250D02*
G75*
G03*
X11511250Y-11221250I-50000J0D01*
G01*
X22436178Y-13129928D02*
G75*
G03*
X22674928Y-12891178I2J238748D01*
G01*
X22710000Y-8575625D02*
G75*
G03*
X22710000Y-8575625I-30000J0D01*
G01*
X17000000Y-4127500D02*
G75*
G03*
X17000000Y-4127500I-50000J0D01*
G01*
X15090000Y-5873750D02*
G75*
G03*
X15090000Y-5873750I-50000J0D01*
G01*
X12468750Y-11221250D02*
G75*
G03*
X12468750Y-11221250I-50000J0D01*
G01*
X24620000Y-5083125D02*
G75*
G03*
X24620000Y-5083125I-30000J0D01*
G01*
X13137572Y-12891178D02*
G75*
G03*
X13376322Y-13129928I238748J-2D01*
G01*
X24640000Y-8096250D02*
G75*
G03*
X24640000Y-8096250I-50000J0D01*
G01*
X20800000Y-5245000D02*
G75*
G03*
X20800000Y-5245000I-30000J0D01*
G01*
X5481110Y-3820000D02*
G75*
G03*
X5242357Y-3581250I-238750J0D01*
G01*
X15250000Y-9310000D02*
G75*
G03*
X15250000Y-9310000I-30000J0D01*
G01*
X20800000Y-8893125D02*
G75*
G03*
X20800000Y-8893125I-30000J0D01*
G01*
X18687500Y-9310000D02*
G75*
G03*
X18687500Y-9310000I-50000J0D01*
G01*
X16708678Y-3581250D02*
X15283822Y-3581250D01*
X4631000Y-11221250D02*
G75*
G03*
X4631000Y-11221250I-30000J0D01*
G01*
X24640000Y-6191250D02*
G75*
G03*
X24640000Y-6191250I-50000J0D01*
G01*
X24900000Y-9310000D02*
G75*
G03*
X24900000Y-9310000I-50000J0D01*
G01*
X11466322Y-3581250D02*
X12888678Y-3581250D01*
X24640000Y-8893125D02*
G75*
G03*
X24640000Y-8893125I-50000J0D01*
G01*
X15070000Y-9500000D02*
G75*
G03*
X15070000Y-9500000I-30000J0D01*
G01*
X21030000Y-9310000D02*
G75*
G03*
X21030000Y-9310000I-50000J0D01*
G01*
X12630625Y-11221250D02*
G75*
G03*
X12630625Y-11221250I-50000J0D01*
G01*
X13180000Y-7778750D02*
G75*
G03*
X13180000Y-7778750I-50000J0D01*
G01*
X11270000Y-6195000D02*
G75*
G03*
X11270000Y-6195000I-50000J0D01*
G01*
X11270000Y-6036250D02*
G75*
G03*
X11270000Y-6036250I-50000J0D01*
G01*
X25991250Y-9310000D02*
G75*
G03*
X25991250Y-9310000I-30000J0D01*
G01*
X16980000Y-12782500D02*
G75*
G03*
X16980000Y-12782500I-30000J0D01*
G01*
X19806875Y-9310000D02*
G75*
G03*
X19806875Y-9310000I-50000J0D01*
G01*
X8178125Y-11221250D02*
G75*
G03*
X8178125Y-11221250I-50000J0D01*
G01*
X20820000Y-11982500D02*
G75*
G03*
X20820000Y-11982500I-50000J0D01*
G01*
X17193822Y-13129928D02*
X18618678Y-13129928D01*
X20294375Y-9310000D02*
G75*
G03*
X20294375Y-9310000I-50000J0D01*
G01*
X20820000Y-9525000D02*
G75*
G03*
X20820000Y-9525000I-50000J0D01*
G01*
X18907428Y-10321875D02*
G75*
G03*
X18907428Y-10321875I-50000J0D01*
G01*
X22710000Y-10639375D02*
G75*
G03*
X22710000Y-10639375I-30000J0D01*
G01*
X18907428Y-12620625D02*
G75*
G03*
X18907428Y-12620625I-50000J0D01*
G01*
X6565625Y-9310000D02*
G75*
G03*
X6565625Y-9310000I-30000J0D01*
G01*
X20820000Y-8096250D02*
G75*
G03*
X20820000Y-8096250I-50000J0D01*
G01*
X6900000Y-9310000D02*
G75*
G03*
X6900000Y-9310000I-50000J0D01*
G01*
X22710000Y-7150000D02*
G75*
G03*
X22710000Y-7150000I-30000J0D01*
G01*
X24620000Y-12461875D02*
G75*
G03*
X24620000Y-12461875I-30000J0D01*
G01*
X24640000Y-5715000D02*
G75*
G03*
X24640000Y-5715000I-50000J0D01*
G01*
X5536178Y-8258125D02*
G75*
G03*
X5536178Y-8258125I-50000J0D01*
G01*
X24640000Y-4127500D02*
G75*
G03*
X24640000Y-4127500I-50000J0D01*
G01*
X15090000Y-6032500D02*
G75*
G03*
X15090000Y-6032500I-50000J0D01*
G01*
X17000000Y-4445000D02*
G75*
G03*
X17000000Y-4445000I-50000J0D01*
G01*
X5516178Y-5081000D02*
G75*
G03*
X5516178Y-5081000I-30000J0D01*
G01*
X21344375Y-11221250D02*
G75*
G03*
X21344375Y-11221250I-50000J0D01*
G01*
X5536178Y-12147500D02*
G75*
G03*
X5536178Y-12147500I-50000J0D01*
G01*
X5491250Y-12892500D02*
G75*
G03*
X5730000Y-13131250I238750J0D01*
G01*
X13127428Y-12891178D02*
X13137572Y-12891178D01*
X15070000Y-5083125D02*
G75*
G03*
X15070000Y-5083125I-30000J0D01*
G01*
X16980000Y-6670625D02*
G75*
G03*
X16980000Y-6670625I-30000J0D01*
G01*
X11270000Y-9687500D02*
G75*
G03*
X11270000Y-9687500I-50000J0D01*
G01*
X20820000Y-10160000D02*
G75*
G03*
X20820000Y-10160000I-50000J0D01*
G01*
X8804375Y-11221250D02*
G75*
G03*
X8804375Y-11221250I-30000J0D01*
G01*
X18907428Y-4765625D02*
G75*
G03*
X18907428Y-4765625I-50000J0D01*
G01*
X15070000Y-9842500D02*
G75*
G03*
X15070000Y-9842500I-30000J0D01*
G01*
X18907428Y-11665000D02*
G75*
G03*
X18907428Y-11665000I-50000J0D01*
G01*
X24640000Y-8255000D02*
G75*
G03*
X24640000Y-8255000I-50000J0D01*
G01*
X15070000Y-3968750D02*
G75*
G03*
X15070000Y-3968750I-30000J0D01*
G01*
X18907428Y-12144375D02*
G75*
G03*
X18907428Y-12144375I-50000J0D01*
G01*
X11250000Y-4280000D02*
G75*
G03*
X11250000Y-4280000I-30000J0D01*
G01*
X20767428Y-12891178D02*
X20777572Y-12891178D01*
X5516178Y-3992000D02*
G75*
G03*
X5516178Y-3992000I-30000J0D01*
G01*
X18887428Y-8893125D02*
G75*
G03*
X18887428Y-8893125I-30000J0D01*
G01*
X17410625Y-9310000D02*
G75*
G03*
X17410625Y-9310000I-50000J0D01*
G01*
X10712000Y-9310000D02*
G75*
G03*
X10712000Y-9310000I-30000J0D01*
G01*
X15283822Y-3581252D02*
G75*
G03*
X15045072Y-3820000I-2J-238748D01*
G01*
X24620000Y-4924375D02*
G75*
G03*
X24620000Y-4924375I-30000J0D01*
G01*
X15070000Y-6350000D02*
G75*
G03*
X15070000Y-6350000I-30000J0D01*
G01*
X13160000Y-6170000D02*
G75*
G03*
X13160000Y-6170000I-30000J0D01*
G01*
X25530000Y-9310000D02*
G75*
G03*
X25530000Y-9310000I-30000J0D01*
G01*
X18857428Y-12891178D02*
X18867572Y-12891178D01*
X7652000Y-9310000D02*
G75*
G03*
X7652000Y-9310000I-30000J0D01*
G01*
X15070000Y-9055000D02*
G75*
G03*
X15070000Y-9055000I-30000J0D01*
G01*
X24620000Y-4765625D02*
G75*
G03*
X24620000Y-4765625I-30000J0D01*
G01*
X17000000Y-4286250D02*
G75*
G03*
X17000000Y-4286250I-50000J0D01*
G01*
X24383125Y-9310000D02*
G75*
G03*
X24383125Y-9310000I-50000J0D01*
G01*
X16980000Y-4924375D02*
G75*
G03*
X16980000Y-4924375I-30000J0D01*
G01*
X18867572Y-12891178D02*
G75*
G03*
X19106322Y-13129928I238748J-2D01*
G01*
X11270000Y-11668750D02*
G75*
G03*
X11270000Y-11668750I-50000J0D01*
G01*
X5536178Y-7623125D02*
G75*
G03*
X5536178Y-7623125I-50000J0D01*
G01*
X20820000Y-4127500D02*
G75*
G03*
X20820000Y-4127500I-50000J0D01*
G01*
X20800000Y-3968750D02*
G75*
G03*
X20800000Y-3968750I-30000J0D01*
G01*
X7197500Y-11221250D02*
G75*
G03*
X7197500Y-11221250I-30000J0D01*
G01*
X21670000Y-9310000D02*
G75*
G03*
X21670000Y-9310000I-50000J0D01*
G01*
X11270000Y-12465625D02*
G75*
G03*
X11270000Y-12465625I-50000J0D01*
G01*
X19106322Y-3581250D02*
X20528678Y-3581250D01*
X8622000Y-9310000D02*
G75*
G03*
X8622000Y-9310000I-30000J0D01*
G01*
X21030000Y-11221250D02*
G75*
G03*
X21030000Y-11221250I-50000J0D01*
G01*
X17000000Y-6191250D02*
G75*
G03*
X17000000Y-6191250I-50000J0D01*
G01*
X14740000Y-11221250D02*
G75*
G03*
X14740000Y-11221250I-30000J0D01*
G01*
X14140000Y-9310000D02*
G75*
G03*
X14140000Y-9310000I-50000J0D01*
G01*
X16980000Y-10001250D02*
G75*
G03*
X16980000Y-10001250I-30000J0D01*
G01*
X20800000Y-7150000D02*
G75*
G03*
X20800000Y-7150000I-30000J0D01*
G01*
X18887428Y-12461875D02*
G75*
G03*
X18887428Y-12461875I-30000J0D01*
G01*
X11270000Y-9846250D02*
G75*
G03*
X11270000Y-9846250I-50000J0D01*
G01*
X14588750Y-11221250D02*
G75*
G03*
X14588750Y-11221250I-30000J0D01*
G01*
X13180000Y-10798125D02*
G75*
G03*
X13180000Y-10798125I-50000J0D01*
G01*
X6880000Y-11221250D02*
G75*
G03*
X6880000Y-11221250I-30000J0D01*
G01*
X8495625Y-11221250D02*
G75*
G03*
X8495625Y-11221250I-50000J0D01*
G01*
X22710000Y-12461875D02*
G75*
G03*
X22710000Y-12461875I-30000J0D01*
G01*
X11270000Y-11513125D02*
G75*
G03*
X11270000Y-11513125I-50000J0D01*
G01*
X6721250Y-9310000D02*
G75*
G03*
X6721250Y-9310000I-30000J0D01*
G01*
X20800000Y-4765625D02*
G75*
G03*
X20800000Y-4765625I-30000J0D01*
G01*
X24640000Y-12144375D02*
G75*
G03*
X24640000Y-12144375I-50000J0D01*
G01*
X18907428Y-4445000D02*
G75*
G03*
X18907428Y-4445000I-50000J0D01*
G01*
X5536178Y-4289375D02*
G75*
G03*
X5536178Y-4289375I-50000J0D01*
G01*
X25693750Y-11221250D02*
G75*
G03*
X25693750Y-11221250I-50000J0D01*
G01*
X13435625Y-11221250D02*
G75*
G03*
X13435625Y-11221250I-50000J0D01*
G01*
X11270000Y-10325625D02*
G75*
G03*
X11270000Y-10325625I-50000J0D01*
G01*
X11250000Y-5877500D02*
G75*
G03*
X11250000Y-5877500I-30000J0D01*
G01*
X19168750Y-11221250D02*
G75*
G03*
X19168750Y-11221250I-50000J0D01*
G01*
X20820000Y-10001250D02*
G75*
G03*
X20820000Y-10001250I-50000J0D01*
G01*
X8178125Y-9310000D02*
G75*
G03*
X8178125Y-9310000I-50000J0D01*
G01*
X22710000Y-8734375D02*
G75*
G03*
X22710000Y-8734375I-30000J0D01*
G01*
X23424375Y-9310000D02*
G75*
G03*
X23424375Y-9310000I-50000J0D01*
G01*
X17569375Y-9310000D02*
G75*
G03*
X17569375Y-9310000I-50000J0D01*
G01*
X18887428Y-5083125D02*
G75*
G03*
X18887428Y-5083125I-30000J0D01*
G01*
X5536178Y-9845625D02*
G75*
G03*
X5536178Y-9845625I-50000J0D01*
G01*
X15090000Y-4606875D02*
G75*
G03*
X15090000Y-4606875I-50000J0D01*
G01*
X13180000Y-8416875D02*
G75*
G03*
X13180000Y-8416875I-50000J0D01*
G01*
X5481107Y-12892500D02*
X5491250Y-12892500D01*
X21185625Y-9310000D02*
G75*
G03*
X21185625Y-9310000I-50000J0D01*
G01*
X22730000Y-11665000D02*
G75*
G03*
X22730000Y-11665000I-50000J0D01*
G01*
X15070000Y-10001250D02*
G75*
G03*
X15070000Y-10001250I-30000J0D01*
G01*
X8980000Y-9310000D02*
G75*
G03*
X8980000Y-9310000I-50000J0D01*
G01*
X16980000Y-4765625D02*
G75*
G03*
X16980000Y-4765625I-30000J0D01*
G01*
X21984375Y-9310000D02*
G75*
G03*
X21984375Y-9310000I-50000J0D01*
G01*
X5536178Y-11668125D02*
G75*
G03*
X5536178Y-11668125I-50000J0D01*
G01*
X10370625Y-11221250D02*
G75*
G03*
X10370625Y-11221250I-30000J0D01*
G01*
X21670000Y-11221250D02*
G75*
G03*
X21670000Y-11221250I-50000J0D01*
G01*
X15034930Y-3820000D02*
G75*
G03*
X14796178Y-3581250I-238750J0D01*
G01*
X3581250Y-11460000D02*
X3581250Y-12892500D01*
X10866875Y-11221250D02*
G75*
G03*
X10866875Y-11221250I-50000J0D01*
G01*
X3820000Y-3581250D02*
G75*
G03*
X3581250Y-3820000I0J-238750D01*
G01*
X5536178Y-4448125D02*
G75*
G03*
X5536178Y-4448125I-50000J0D01*
G01*
X20450000Y-11221250D02*
G75*
G03*
X20450000Y-11221250I-50000J0D01*
G01*
X10228750Y-11221250D02*
G75*
G03*
X10228750Y-11221250I-50000J0D01*
G01*
X13160000Y-8893125D02*
G75*
G03*
X13160000Y-8893125I-30000J0D01*
G01*
X16980000Y-8893125D02*
G75*
G03*
X16980000Y-8893125I-30000J0D01*
G01*
X22143125Y-9310000D02*
G75*
G03*
X22143125Y-9310000I-50000J0D01*
G01*
X24640000Y-11509375D02*
G75*
G03*
X24640000Y-11509375I-50000J0D01*
G01*
X15070000Y-12782500D02*
G75*
G03*
X15070000Y-12782500I-30000J0D01*
G01*
X15090000Y-4286250D02*
G75*
G03*
X15090000Y-4286250I-50000J0D01*
G01*
X5536178Y-12783822D02*
G75*
G03*
X5536178Y-12783822I-50000J0D01*
G01*
X19489375Y-9310000D02*
G75*
G03*
X19489375Y-9310000I-50000J0D01*
G01*
X21016322Y-3581250D02*
X22436178Y-3581250D01*
X23265625Y-9310000D02*
G75*
G03*
X23265625Y-9310000I-50000J0D01*
G01*
X13180000Y-4127500D02*
G75*
G03*
X13180000Y-4127500I-50000J0D01*
G01*
X24640000Y-8416875D02*
G75*
G03*
X24640000Y-8416875I-50000J0D01*
G01*
X25693750Y-9310000D02*
G75*
G03*
X25693750Y-9310000I-50000J0D01*
G01*
X24075000Y-9310000D02*
G75*
G03*
X24075000Y-9310000I-30000J0D01*
G01*
X17248750Y-9310000D02*
G75*
G03*
X17248750Y-9310000I-50000J0D01*
G01*
X15090000Y-7937500D02*
G75*
G03*
X15090000Y-7937500I-50000J0D01*
G01*
X15070000Y-6988125D02*
G75*
G03*
X15070000Y-6988125I-30000J0D01*
G01*
X18907428Y-10639375D02*
G75*
G03*
X18907428Y-10639375I-50000J0D01*
G01*
X22923822Y-3581250D02*
X24346178Y-3581250D01*
X18907428Y-8575625D02*
G75*
G03*
X18907428Y-8575625I-50000J0D01*
G01*
X16588750Y-11221250D02*
G75*
G03*
X16588750Y-11221250I-30000J0D01*
G01*
X13180000Y-4286250D02*
G75*
G03*
X13180000Y-4286250I-50000J0D01*
G01*
X5939375Y-9310000D02*
G75*
G03*
X5939375Y-9310000I-50000J0D01*
G01*
X21016322Y-3581252D02*
G75*
G03*
X20777572Y-3820000I-2J-238748D01*
G01*
X22730000Y-11823750D02*
G75*
G03*
X22730000Y-11823750I-50000J0D01*
G01*
X16755625Y-11221250D02*
G75*
G03*
X16755625Y-11221250I-30000J0D01*
G01*
X20800000Y-8734375D02*
G75*
G03*
X20800000Y-8734375I-30000J0D01*
G01*
X8336875Y-11221250D02*
G75*
G03*
X8336875Y-11221250I-50000J0D01*
G01*
X5536178Y-10004375D02*
G75*
G03*
X5536178Y-10004375I-50000J0D01*
G01*
X22710000Y-3968750D02*
G75*
G03*
X22710000Y-3968750I-30000J0D01*
G01*
X20820000Y-8416875D02*
G75*
G03*
X20820000Y-8416875I-50000J0D01*
G01*
X15070000Y-4924375D02*
G75*
G03*
X15070000Y-4924375I-30000J0D01*
G01*
X5536178Y-10483750D02*
G75*
G03*
X5536178Y-10483750I-50000J0D01*
G01*
X4958750Y-9310000D02*
G75*
G03*
X4958750Y-9310000I-30000J0D01*
G01*
X18907428Y-12782500D02*
G75*
G03*
X18907428Y-12782500I-50000J0D01*
G01*
X25809000Y-11221250D02*
G75*
G03*
X25809000Y-11221250I-30000J0D01*
G01*
X5536178Y-10163125D02*
G75*
G03*
X5536178Y-10163125I-50000J0D01*
G01*
X17728125Y-9310000D02*
G75*
G03*
X17728125Y-9310000I-50000J0D01*
G01*
X13180000Y-10960000D02*
G75*
G03*
X13180000Y-10960000I-50000J0D01*
G01*
X24346178Y-13129928D02*
G75*
G03*
X24584928Y-12891178I2J238748D01*
G01*
X11270000Y-8258750D02*
G75*
G03*
X11270000Y-8258750I-50000J0D01*
G01*
X11250000Y-4460000D02*
G75*
G03*
X11250000Y-4460000I-30000J0D01*
G01*
X13180000Y-12650000D02*
G75*
G03*
X13180000Y-12650000I-50000J0D01*
G01*
X25852500Y-9310000D02*
G75*
G03*
X25852500Y-9310000I-50000J0D01*
G01*
X16980000Y-10639375D02*
G75*
G03*
X16980000Y-10639375I-30000J0D01*
G01*
X4343125Y-11221250D02*
G75*
G03*
X4343125Y-11221250I-50000J0D01*
G01*
X18907428Y-7937500D02*
G75*
G03*
X18907428Y-7937500I-50000J0D01*
G01*
X20820000Y-11509375D02*
G75*
G03*
X20820000Y-11509375I-50000J0D01*
G01*
X5536178Y-12306250D02*
G75*
G03*
X5536178Y-12306250I-50000J0D01*
G01*
X18530000Y-9310000D02*
G75*
G03*
X18530000Y-9310000I-50000J0D01*
G01*
X13160000Y-9842500D02*
G75*
G03*
X13160000Y-9842500I-30000J0D01*
G01*
X22730000Y-6191250D02*
G75*
G03*
X22730000Y-6191250I-50000J0D01*
G01*
X15090000Y-7620000D02*
G75*
G03*
X15090000Y-7620000I-50000J0D01*
G01*
X24900000Y-11221250D02*
G75*
G03*
X24900000Y-11221250I-50000J0D01*
G01*
X15070000Y-5245000D02*
G75*
G03*
X15070000Y-5245000I-30000J0D01*
G01*
X18907428Y-6191250D02*
G75*
G03*
X18907428Y-6191250I-50000J0D01*
G01*
X4800000Y-9310000D02*
G75*
G03*
X4800000Y-9310000I-30000J0D01*
G01*
X13180000Y-6032500D02*
G75*
G03*
X13180000Y-6032500I-50000J0D01*
G01*
X24640000Y-9842500D02*
G75*
G03*
X24640000Y-9842500I-50000J0D01*
G01*
X10390625Y-9310000D02*
G75*
G03*
X10390625Y-9310000I-50000J0D01*
G01*
X15090000Y-10960000D02*
G75*
G03*
X15090000Y-10960000I-50000J0D01*
G01*
X20820000Y-4606875D02*
G75*
G03*
X20820000Y-4606875I-50000J0D01*
G01*
X24221250Y-9310000D02*
G75*
G03*
X24221250Y-9310000I-50000J0D01*
G01*
X13180000Y-7937500D02*
G75*
G03*
X13180000Y-7937500I-50000J0D01*
G01*
X20820000Y-4445000D02*
G75*
G03*
X20820000Y-4445000I-50000J0D01*
G01*
X13180000Y-12461875D02*
G75*
G03*
X13180000Y-12461875I-50000J0D01*
G01*
X3820000Y-3581250D02*
X5242357Y-3581250D01*
X24584928Y-12891178D02*
X24595072Y-12891178D01*
X11270000Y-9528750D02*
G75*
G03*
X11270000Y-9528750I-50000J0D01*
G01*
X20127500Y-9310000D02*
G75*
G03*
X20127500Y-9310000I-50000J0D01*
G01*
X10708125Y-11221250D02*
G75*
G03*
X10708125Y-11221250I-50000J0D01*
G01*
X13160000Y-8734375D02*
G75*
G03*
X13160000Y-8734375I-30000J0D01*
G01*
X11217428Y-3820000D02*
X11227572Y-3820000D01*
X25214375Y-9310000D02*
G75*
G03*
X25214375Y-9310000I-50000J0D01*
G01*
X5516178Y-8578750D02*
G75*
G03*
X5516178Y-8578750I-30000J0D01*
G01*
X6256875Y-9310000D02*
G75*
G03*
X6256875Y-9310000I-50000J0D01*
G01*
X5536178Y-6035625D02*
G75*
G03*
X5536178Y-6035625I-50000J0D01*
G01*
X18907428Y-8416875D02*
G75*
G03*
X18907428Y-8416875I-50000J0D01*
G01*
X14758000Y-9310000D02*
G75*
G03*
X14758000Y-9310000I-30000J0D01*
G01*
X20820000Y-12782500D02*
G75*
G03*
X20820000Y-12782500I-50000J0D01*
G01*
X13435625Y-9310000D02*
G75*
G03*
X13435625Y-9310000I-50000J0D01*
G01*
X19648125Y-9310000D02*
G75*
G03*
X19648125Y-9310000I-50000J0D01*
G01*
X15090000Y-4445000D02*
G75*
G03*
X15090000Y-4445000I-50000J0D01*
G01*
X26501250Y-12892500D02*
X26501250Y-11460000D01*
X13160000Y-12782500D02*
G75*
G03*
X13160000Y-12782500I-30000J0D01*
G01*
X11670000Y-9310000D02*
G75*
G03*
X11670000Y-9310000I-50000J0D01*
G01*
X11270000Y-8100000D02*
G75*
G03*
X11270000Y-8100000I-50000J0D01*
G01*
X24620000Y-10639375D02*
G75*
G03*
X24620000Y-10639375I-30000J0D01*
G01*
X11511250Y-9310000D02*
G75*
G03*
X11511250Y-9310000I-50000J0D01*
G01*
X18907428Y-11982500D02*
G75*
G03*
X18907428Y-11982500I-50000J0D01*
G01*
X16048750Y-11221250D02*
G75*
G03*
X16048750Y-11221250I-50000J0D01*
G01*
X22470000Y-9310000D02*
G75*
G03*
X22470000Y-9310000I-30000J0D01*
G01*
X20820000Y-9683750D02*
G75*
G03*
X20820000Y-9683750I-50000J0D01*
G01*
X26497430Y-9550000D02*
G75*
G03*
X26258678Y-9311250I-238750J0D01*
G01*
X13160000Y-6360000D02*
G75*
G03*
X13160000Y-6360000I-30000J0D01*
G01*
X22710000Y-4924375D02*
G75*
G03*
X22710000Y-4924375I-30000J0D01*
G01*
X18887428Y-7778750D02*
G75*
G03*
X18887428Y-7778750I-30000J0D01*
G01*
X23583125Y-11221250D02*
G75*
G03*
X23583125Y-11221250I-50000J0D01*
G01*
X21503125Y-11221250D02*
G75*
G03*
X21503125Y-11221250I-50000J0D01*
G01*
X20820000Y-6032500D02*
G75*
G03*
X20820000Y-6032500I-50000J0D01*
G01*
X20800000Y-12461875D02*
G75*
G03*
X20800000Y-12461875I-30000J0D01*
G01*
X13160000Y-10001250D02*
G75*
G03*
X13160000Y-10001250I-30000J0D01*
G01*
X24640000Y-11982500D02*
G75*
G03*
X24640000Y-11982500I-50000J0D01*
G01*
X23745000Y-11221250D02*
G75*
G03*
X23745000Y-11221250I-50000J0D01*
G01*
X15090000Y-8096250D02*
G75*
G03*
X15090000Y-8096250I-50000J0D01*
G01*
X15090000Y-8255000D02*
G75*
G03*
X15090000Y-8255000I-50000J0D01*
G01*
X16980000Y-8416875D02*
G75*
G03*
X16980000Y-8416875I-30000J0D01*
G01*
X16980000Y-12620625D02*
G75*
G03*
X16980000Y-12620625I-30000J0D01*
G01*
X23110000Y-9310000D02*
G75*
G03*
X23110000Y-9310000I-50000J0D01*
G01*
X4641250Y-9310000D02*
G75*
G03*
X4641250Y-9310000I-30000J0D01*
G01*
X22730000Y-6350000D02*
G75*
G03*
X22730000Y-6350000I-50000J0D01*
G01*
X22730000Y-10321875D02*
G75*
G03*
X22730000Y-10321875I-50000J0D01*
G01*
X17000000Y-7778750D02*
G75*
G03*
X17000000Y-7778750I-50000J0D01*
G01*
X16980000Y-9500000D02*
G75*
G03*
X16980000Y-9500000I-30000J0D01*
G01*
X11028750Y-9310000D02*
G75*
G03*
X11028750Y-9310000I-50000J0D01*
G01*
X11466322Y-3581252D02*
G75*
G03*
X11227572Y-3820000I-2J-238748D01*
G01*
X22710000Y-4765625D02*
G75*
G03*
X22710000Y-4765625I-30000J0D01*
G01*
X5536178Y-11985625D02*
G75*
G03*
X5536178Y-11985625I-50000J0D01*
G01*
X5137000Y-11221250D02*
G75*
G03*
X5137000Y-11221250I-30000J0D01*
G01*
X7038750Y-9310000D02*
G75*
G03*
X7038750Y-9310000I-30000J0D01*
G01*
X20107500Y-11221250D02*
G75*
G03*
X20107500Y-11221250I-30000J0D01*
G01*
X5242357Y-13131247D02*
G75*
G03*
X5481107Y-12892500I3J238747D01*
G01*
X11250000Y-4769375D02*
G75*
G03*
X11250000Y-4769375I-30000J0D01*
G01*
X5536178Y-8099375D02*
G75*
G03*
X5536178Y-8099375I-50000J0D01*
G01*
X5536178Y-9686875D02*
G75*
G03*
X5536178Y-9686875I-50000J0D01*
G01*
X20820000Y-12144375D02*
G75*
G03*
X20820000Y-12144375I-50000J0D01*
G01*
X20820000Y-9842500D02*
G75*
G03*
X20820000Y-9842500I-50000J0D01*
G01*
X4810000Y-11221250D02*
G75*
G03*
X4810000Y-11221250I-30000J0D01*
G01*
X5516178Y-4927500D02*
G75*
G03*
X5516178Y-4927500I-30000J0D01*
G01*
X3820000Y-11221250D02*
G75*
G03*
X3581250Y-11460000I0J-238750D01*
G01*
X11217430Y-3820000D02*
G75*
G03*
X10978678Y-3581250I-238750J0D01*
G01*
X22710000Y-9055000D02*
G75*
G03*
X22710000Y-9055000I-30000J0D01*
G01*
X3582500Y-9550000D02*
X3581250Y-10982500D01*
X11250000Y-9058750D02*
G75*
G03*
X11250000Y-9058750I-30000J0D01*
G01*
X21016322Y-13129928D02*
X22436178Y-13129928D01*
X12888678Y-13129928D02*
G75*
G03*
X13127428Y-12891178I2J238748D01*
G01*
X18907428Y-11509375D02*
G75*
G03*
X18907428Y-11509375I-50000J0D01*
G01*
X12630625Y-9310000D02*
G75*
G03*
X12630625Y-9310000I-50000J0D01*
G01*
X16980000Y-12461875D02*
G75*
G03*
X16980000Y-12461875I-30000J0D01*
G01*
X4187500Y-11221250D02*
G75*
G03*
X4187500Y-11221250I-50000J0D01*
G01*
X19327500Y-11221250D02*
G75*
G03*
X19327500Y-11221250I-50000J0D01*
G01*
X15070000Y-8734375D02*
G75*
G03*
X15070000Y-8734375I-30000J0D01*
G01*
X20767430Y-3820000D02*
G75*
G03*
X20528678Y-3581250I-238750J0D01*
G01*
X22674930Y-3820000D02*
G75*
G03*
X22436178Y-3581250I-238750J0D01*
G01*
X11250000Y-12306875D02*
G75*
G03*
X11250000Y-12306875I-30000J0D01*
G01*
X15037428Y-12891178D02*
X15047572Y-12891178D01*
X25535000Y-11221250D02*
G75*
G03*
X25535000Y-11221250I-50000J0D01*
G01*
X5780625Y-9310000D02*
G75*
G03*
X5780625Y-9310000I-50000J0D01*
G01*
X11250000Y-8896875D02*
G75*
G03*
X11250000Y-8896875I-30000J0D01*
G01*
X24640000Y-4445000D02*
G75*
G03*
X24640000Y-4445000I-50000J0D01*
G01*
X13160000Y-5083125D02*
G75*
G03*
X13160000Y-5083125I-30000J0D01*
G01*
X18857430Y-3820000D02*
G75*
G03*
X18618678Y-3581250I-238750J0D01*
G01*
X10070000Y-9310000D02*
G75*
G03*
X10070000Y-9310000I-50000J0D01*
G01*
X13591250Y-9310000D02*
G75*
G03*
X13591250Y-9310000I-50000J0D01*
G01*
X22730000Y-8096250D02*
G75*
G03*
X22730000Y-8096250I-50000J0D01*
G01*
X9588750Y-11221250D02*
G75*
G03*
X9588750Y-11221250I-50000J0D01*
G01*
X20800000Y-7778750D02*
G75*
G03*
X20800000Y-7778750I-30000J0D01*
G01*
X13180000Y-8255000D02*
G75*
G03*
X13180000Y-8255000I-50000J0D01*
G01*
X16944928Y-12891178D02*
X16955072Y-12891178D01*
X13160000Y-7130000D02*
G75*
G03*
X13160000Y-7130000I-30000J0D01*
G01*
X15567500Y-11221250D02*
G75*
G03*
X15567500Y-11221250I-50000J0D01*
G01*
X23867000Y-9310000D02*
G75*
G03*
X23867000Y-9310000I-30000J0D01*
G01*
X5939375Y-11221250D02*
G75*
G03*
X5939375Y-11221250I-50000J0D01*
G01*
X20820000Y-5873750D02*
G75*
G03*
X20820000Y-5873750I-50000J0D01*
G01*
X9755625Y-11221250D02*
G75*
G03*
X9755625Y-11221250I-50000J0D01*
G01*
X20800000Y-8575625D02*
G75*
G03*
X20800000Y-8575625I-30000J0D01*
G01*
X20820000Y-7937500D02*
G75*
G03*
X20820000Y-7937500I-50000J0D01*
G01*
X18536000Y-11221250D02*
G75*
G03*
X18536000Y-11221250I-30000J0D01*
G01*
X13376322Y-3581250D02*
X14796178Y-3581250D01*
X11250000Y-5248750D02*
G75*
G03*
X11250000Y-5248750I-30000J0D01*
G01*
X5536178Y-8420000D02*
G75*
G03*
X5536178Y-8420000I-50000J0D01*
G01*
X5301250Y-9310000D02*
G75*
G03*
X5301250Y-9310000I-50000J0D01*
G01*
X19648125Y-11221250D02*
G75*
G03*
X19648125Y-11221250I-50000J0D01*
G01*
X13160000Y-5715000D02*
G75*
G03*
X13160000Y-5715000I-30000J0D01*
G01*
X17248750Y-11221250D02*
G75*
G03*
X17248750Y-11221250I-50000J0D01*
G01*
X19965625Y-9310000D02*
G75*
G03*
X19965625Y-9310000I-50000J0D01*
G01*
X11028750Y-11221250D02*
G75*
G03*
X11028750Y-11221250I-50000J0D01*
G01*
X23110000Y-11221250D02*
G75*
G03*
X23110000Y-11221250I-50000J0D01*
G01*
X22710000Y-10480625D02*
G75*
G03*
X22710000Y-10480625I-30000J0D01*
G01*
X5536178Y-10325000D02*
G75*
G03*
X5536178Y-10325000I-50000J0D01*
G01*
X13160000Y-4606875D02*
G75*
G03*
X13160000Y-4606875I-30000J0D01*
G01*
X22730000Y-5083125D02*
G75*
G03*
X22730000Y-5083125I-50000J0D01*
G01*
X18857428Y-3820000D02*
X18867572Y-3820000D01*
X20820000Y-8255000D02*
G75*
G03*
X20820000Y-8255000I-50000J0D01*
G01*
X13127428Y-3820000D02*
X13137572Y-3820000D01*
X18907428Y-4127500D02*
G75*
G03*
X18907428Y-4127500I-50000J0D01*
G01*
X18907428Y-9683750D02*
G75*
G03*
X18907428Y-9683750I-50000J0D01*
G01*
X10070000Y-11221250D02*
G75*
G03*
X10070000Y-11221250I-50000J0D01*
G01*
X17196322Y-3581250D02*
X18618678Y-3581250D01*
X16588750Y-9310000D02*
G75*
G03*
X16588750Y-9310000I-30000J0D01*
G01*
X20767428Y-3820000D02*
X20777572Y-3820000D01*
X22730000Y-8416875D02*
G75*
G03*
X22730000Y-8416875I-50000J0D01*
G01*
X15286322Y-13129928D02*
X16706178Y-13129928D01*
X5536178Y-9528125D02*
G75*
G03*
X5536178Y-9528125I-50000J0D01*
G01*
X20820000Y-6191250D02*
G75*
G03*
X20820000Y-6191250I-50000J0D01*
G01*
X10978678Y-13129928D02*
G75*
G03*
X11217428Y-12891178I2J238748D01*
G01*
X10529375Y-11221250D02*
G75*
G03*
X10529375Y-11221250I-30000J0D01*
G01*
X18907428Y-10960000D02*
G75*
G03*
X18907428Y-10960000I-50000J0D01*
G01*
X11250000Y-10005000D02*
G75*
G03*
X11250000Y-10005000I-30000J0D01*
G01*
X10228750Y-9310000D02*
G75*
G03*
X10228750Y-9310000I-50000J0D01*
G01*
X5730000Y-3581250D02*
G75*
G03*
X5491250Y-3820000I0J-238750D01*
G01*
X6098125Y-9310000D02*
G75*
G03*
X6098125Y-9310000I-50000J0D01*
G01*
X3581250Y-3820000D02*
X3582500Y-9072500D01*
X15250000Y-11221250D02*
G75*
G03*
X15250000Y-11221250I-30000J0D01*
G01*
X15070000Y-6829375D02*
G75*
G03*
X15070000Y-6829375I-30000J0D01*
G01*
X22730000Y-6511875D02*
G75*
G03*
X22730000Y-6511875I-50000J0D01*
G01*
X24640000Y-6511875D02*
G75*
G03*
X24640000Y-6511875I-50000J0D01*
G01*
X16955072Y-12891178D02*
G75*
G03*
X17193822Y-13129928I238748J-2D01*
G01*
X11250000Y-6991875D02*
G75*
G03*
X11250000Y-6991875I-30000J0D01*
G01*
X8495625Y-9310000D02*
G75*
G03*
X8495625Y-9310000I-50000J0D01*
G01*
X5125625Y-9310000D02*
G75*
G03*
X5125625Y-9310000I-30000J0D01*
G01*
X7038750Y-11221250D02*
G75*
G03*
X7038750Y-11221250I-30000J0D01*
G01*
X5536178Y-4768750D02*
G75*
G03*
X5536178Y-4768750I-50000J0D01*
G01*
X11270000Y-4131250D02*
G75*
G03*
X11270000Y-4131250I-50000J0D01*
G01*
X5536178Y-4610000D02*
G75*
G03*
X5536178Y-4610000I-50000J0D01*
G01*
X11250000Y-12624375D02*
G75*
G03*
X11250000Y-12624375I-30000J0D01*
G01*
X17000000Y-10798125D02*
G75*
G03*
X17000000Y-10798125I-50000J0D01*
G01*
X22685072Y-12891178D02*
G75*
G03*
X22923822Y-13129928I238748J-2D01*
G01*
X22730000Y-5715000D02*
G75*
G03*
X22730000Y-5715000I-50000J0D01*
G01*
X5536178Y-11826875D02*
G75*
G03*
X5536178Y-11826875I-50000J0D01*
G01*
X26153125Y-9310000D02*
G75*
G03*
X26153125Y-9310000I-30000J0D01*
G01*
X22730000Y-4127500D02*
G75*
G03*
X22730000Y-4127500I-50000J0D01*
G01*
X8019375Y-9310000D02*
G75*
G03*
X8019375Y-9310000I-50000J0D01*
G01*
X12310000Y-11221250D02*
G75*
G03*
X12310000Y-11221250I-50000J0D01*
G01*
X24640000Y-10001250D02*
G75*
G03*
X24640000Y-10001250I-50000J0D01*
G01*
X11250000Y-8579375D02*
G75*
G03*
X11250000Y-8579375I-30000J0D01*
G01*
X16980000Y-5715000D02*
G75*
G03*
X16980000Y-5715000I-30000J0D01*
G01*
X20800000Y-10639375D02*
G75*
G03*
X20800000Y-10639375I-30000J0D01*
G01*
X11250000Y-10163750D02*
G75*
G03*
X11250000Y-10163750I-30000J0D01*
G01*
X20800000Y-6511875D02*
G75*
G03*
X20800000Y-6511875I-30000J0D01*
G01*
X18907428Y-10001250D02*
G75*
G03*
X18907428Y-10001250I-50000J0D01*
G01*
X22710000Y-7620000D02*
G75*
G03*
X22710000Y-7620000I-30000J0D01*
G01*
X15034928Y-3820000D02*
X15045072Y-3820000D01*
X24640000Y-11665000D02*
G75*
G03*
X24640000Y-11665000I-50000J0D01*
G01*
X13160000Y-4765625D02*
G75*
G03*
X13160000Y-4765625I-30000J0D01*
G01*
X7857500Y-11221250D02*
G75*
G03*
X7857500Y-11221250I-50000J0D01*
G01*
X15090000Y-7778750D02*
G75*
G03*
X15090000Y-7778750I-50000J0D01*
G01*
X11270000Y-11827500D02*
G75*
G03*
X11270000Y-11827500I-50000J0D01*
G01*
X10506000Y-9310000D02*
G75*
G03*
X10506000Y-9310000I-30000J0D01*
G01*
X16980000Y-5083125D02*
G75*
G03*
X16980000Y-5083125I-30000J0D01*
G01*
X11250000Y-7130000D02*
G75*
G03*
X11250000Y-7130000I-30000J0D01*
G01*
X5516178Y-10642500D02*
G75*
G03*
X5516178Y-10642500I-30000J0D01*
G01*
X5516178Y-6832500D02*
G75*
G03*
X5516178Y-6832500I-30000J0D01*
G01*
X20800000Y-4924375D02*
G75*
G03*
X20800000Y-4924375I-30000J0D01*
G01*
X6721250Y-11221250D02*
G75*
G03*
X6721250Y-11221250I-30000J0D01*
G01*
X18887428Y-5715000D02*
G75*
G03*
X18887428Y-5715000I-30000J0D01*
G01*
X13180000Y-4445000D02*
G75*
G03*
X13180000Y-4445000I-50000J0D01*
G01*
X13180000Y-6511875D02*
G75*
G03*
X13180000Y-6511875I-50000J0D01*
G01*
X17000000Y-8096250D02*
G75*
G03*
X17000000Y-8096250I-50000J0D01*
G01*
X16980000Y-8734375D02*
G75*
G03*
X16980000Y-8734375I-30000J0D01*
G01*
X5536178Y-8896250D02*
G75*
G03*
X5536178Y-8896250I-50000J0D01*
G01*
X21987000Y-11221250D02*
G75*
G03*
X21987000Y-11221250I-30000J0D01*
G01*
X15400000Y-9310000D02*
G75*
G03*
X15400000Y-9310000I-30000J0D01*
G01*
X15070000Y-12461875D02*
G75*
G03*
X15070000Y-12461875I-30000J0D01*
G01*
X19106322Y-13129928D02*
X20528678Y-13129928D01*
X15070000Y-7150000D02*
G75*
G03*
X15070000Y-7150000I-30000J0D01*
G01*
X3582500Y-9072500D02*
G75*
G03*
X3821250Y-9311250I238750J0D01*
G01*
X18907428Y-4286250D02*
G75*
G03*
X18907428Y-4286250I-50000J0D01*
G01*
X17000000Y-5873750D02*
G75*
G03*
X17000000Y-5873750I-50000J0D01*
G01*
X20800000Y-12620625D02*
G75*
G03*
X20800000Y-12620625I-30000J0D01*
G01*
X5536178Y-4130625D02*
G75*
G03*
X5536178Y-4130625I-50000J0D01*
G01*
X8637500Y-11221250D02*
G75*
G03*
X8637500Y-11221250I-30000J0D01*
G01*
X16947428Y-3820000D02*
X16957572Y-3820000D01*
X21825625Y-9310000D02*
G75*
G03*
X21825625Y-9310000I-50000J0D01*
G01*
X24383125Y-11221250D02*
G75*
G03*
X24383125Y-11221250I-50000J0D01*
G01*
X15070000Y-8416875D02*
G75*
G03*
X15070000Y-8416875I-30000J0D01*
G01*
X19106322Y-3581252D02*
G75*
G03*
X18867572Y-3820000I-2J-238748D01*
G01*
X12789375Y-9310000D02*
G75*
G03*
X12789375Y-9310000I-50000J0D01*
G01*
X20588750Y-9310000D02*
G75*
G03*
X20588750Y-9310000I-30000J0D01*
G01*
X24833822Y-3581250D02*
X26262500Y-3581250D01*
X22730000Y-4606875D02*
G75*
G03*
X22730000Y-4606875I-50000J0D01*
G01*
X24584928Y-3820000D02*
X24595072Y-3820000D01*
X6418750Y-11221250D02*
G75*
G03*
X6418750Y-11221250I-50000J0D01*
G01*
X11270000Y-4610625D02*
G75*
G03*
X11270000Y-4610625I-50000J0D01*
G01*
X12928125Y-11221250D02*
G75*
G03*
X12928125Y-11221250I-30000J0D01*
G01*
X18887428Y-3968750D02*
G75*
G03*
X18887428Y-3968750I-30000J0D01*
G01*
X23424375Y-11221250D02*
G75*
G03*
X23424375Y-11221250I-50000J0D01*
G01*
X17728125Y-11221250D02*
G75*
G03*
X17728125Y-11221250I-50000J0D01*
G01*
X22305000Y-11221250D02*
G75*
G03*
X22305000Y-11221250I-50000J0D01*
G01*
X5516178Y-12465000D02*
G75*
G03*
X5516178Y-12465000I-30000J0D01*
G01*
X5536178Y-9058125D02*
G75*
G03*
X5536178Y-9058125I-50000J0D01*
G01*
X24640000Y-7150000D02*
G75*
G03*
X24640000Y-7150000I-50000J0D01*
G01*
X18907428Y-10480625D02*
G75*
G03*
X18907428Y-10480625I-50000J0D01*
G01*
X13160000Y-6850000D02*
G75*
G03*
X13160000Y-6850000I-30000J0D01*
G01*
D11*
D12*
X3780000Y-10950000D02*
X3820000Y-10990000D01*
X3820000Y-10950000D02*
X3780000Y-10990000D01*
X3870000Y-5300000D02*
X3910000Y-5340000D01*
X3910000Y-5300000D02*
X3870000Y-5340000D01*
X4190000Y-5650000D02*
X4230000Y-5690000D01*
X4230000Y-5650000D02*
X4190000Y-5690000D01*
X4240000Y-4950000D02*
X4280000Y-4990000D01*
X4280000Y-4950000D02*
X4240000Y-4990000D01*
X4520000Y-7210000D02*
X4560000Y-7250000D01*
X4560000Y-7210000D02*
X4520000Y-7250000D01*
X5820000Y-5520000D02*
X5860000Y-5560000D01*
X5860000Y-5520000D02*
X5820000Y-5560000D01*
X6150000Y-4980000D02*
X6190000Y-5020000D01*
X6190000Y-4980000D02*
X6150000Y-5020000D01*
X6830000Y-8810000D02*
X6870000Y-8850000D01*
X6870000Y-8810000D02*
X6830000Y-8850000D01*
X6870000Y-4350000D02*
X6910000Y-4390000D01*
X6910000Y-4350000D02*
X6870000Y-4390000D01*
X6890000Y-10900000D02*
X6930000Y-10940000D01*
X6930000Y-10900000D02*
X6890000Y-10940000D01*
X7080000Y-10880000D02*
X7120000Y-10920000D01*
X7120000Y-10880000D02*
X7080000Y-10920000D01*
X7250175Y-6510000D02*
X7290175Y-6550000D01*
X7290175Y-6510000D02*
X7250175Y-6550000D01*
X7257450Y-6915547D02*
X7297450Y-6955547D01*
X7297450Y-6915547D02*
X7257450Y-6955547D01*
X7295175Y-6250000D02*
X7335175Y-6290000D01*
X7335175Y-6250000D02*
X7295175Y-6290000D01*
X7340000Y-8718700D02*
X7380000Y-8758700D01*
X7380000Y-8718700D02*
X7340000Y-8758700D01*
X7840000Y-7632450D02*
X7880000Y-7672450D01*
X7880000Y-7632450D02*
X7840000Y-7672450D01*
X7999838Y-8635058D02*
X8039838Y-8675058D01*
X8039838Y-8635058D02*
X7999838Y-8675058D01*
X8060000Y-9610000D02*
X8100000Y-9650000D01*
X8100000Y-9610000D02*
X8060000Y-9650000D01*
X8610000Y-6600000D02*
X8650000Y-6640000D01*
X8650000Y-6600000D02*
X8610000Y-6640000D01*
X9010000Y-8780000D02*
X9050000Y-8820000D01*
X9050000Y-8780000D02*
X9010000Y-8820000D01*
X9650000Y-7190000D02*
X9690000Y-7230000D01*
X9690000Y-7190000D02*
X9650000Y-7230000D01*
X10190000Y-6970000D02*
X10230000Y-7010000D01*
X10230000Y-6970000D02*
X10190000Y-7010000D01*
X10750000Y-5500000D02*
X10790000Y-5540000D01*
X10790000Y-5500000D02*
X10750000Y-5540000D01*
X11580000Y-4750000D02*
X11620000Y-4790000D01*
X11620000Y-4750000D02*
X11580000Y-4790000D01*
X12240000Y-5270000D02*
X12280000Y-5310000D01*
X12280000Y-5270000D02*
X12240000Y-5310000D01*
X12660000Y-10850000D02*
X12700000Y-10890000D01*
X12700000Y-10850000D02*
X12660000Y-10890000D01*
X13450000Y-10830000D02*
X13490000Y-10870000D01*
X13490000Y-10830000D02*
X13450000Y-10870000D01*
X13700000Y-4790000D02*
X13740000Y-4830000D01*
X13740000Y-4790000D02*
X13700000Y-4830000D01*
X13780000Y-12340000D02*
X13820000Y-12380000D01*
X13820000Y-12340000D02*
X13780000Y-12380000D01*
X14150000Y-5280000D02*
X14190000Y-5320000D01*
X14190000Y-5280000D02*
X14150000Y-5320000D01*
X14190000Y-9110000D02*
X14230000Y-9150000D01*
X14230000Y-9110000D02*
X14190000Y-9150000D01*
X14200000Y-7030000D02*
X14240000Y-7070000D01*
X14240000Y-7030000D02*
X14200000Y-7070000D01*
X15280000Y-6140000D02*
X15320000Y-6180000D01*
X15320000Y-6140000D02*
X15280000Y-6180000D01*
X15420000Y-10890000D02*
X15460000Y-10930000D01*
X15460000Y-10890000D02*
X15420000Y-10930000D01*
X15500000Y-9660000D02*
X15540000Y-9700000D01*
X15540000Y-9660000D02*
X15500000Y-9700000D01*
X16070000Y-5282450D02*
X16110000Y-5322450D01*
X16110000Y-5282450D02*
X16070000Y-5322450D01*
X16350000Y-8530000D02*
X16390000Y-8570000D01*
X16390000Y-8530000D02*
X16350000Y-8570000D01*
X17530000Y-11490000D02*
X17570000Y-11530000D01*
X17570000Y-11490000D02*
X17530000Y-11530000D01*
X17960000Y-6880000D02*
X18000000Y-6920000D01*
X18000000Y-6880000D02*
X17960000Y-6920000D01*
X18190000Y-8480000D02*
X18230000Y-8520000D01*
X18230000Y-8480000D02*
X18190000Y-8520000D01*
X18280000Y-4670000D02*
X18320000Y-4710000D01*
X18320000Y-4670000D02*
X18280000Y-4710000D01*
X19520000Y-5030000D02*
X19560000Y-5070000D01*
X19560000Y-5030000D02*
X19520000Y-5070000D01*
X20160000Y-8830000D02*
X20200000Y-8870000D01*
X20200000Y-8830000D02*
X20160000Y-8870000D01*
X20580000Y-8780000D02*
X20620000Y-8820000D01*
X20620000Y-8780000D02*
X20580000Y-8820000D01*
X21170000Y-5161609D02*
X21210000Y-5201609D01*
X21210000Y-5161609D02*
X21170000Y-5201609D01*
X23483750Y-6950000D02*
X23523750Y-6990000D01*
X23523750Y-6950000D02*
X23483750Y-6990000D01*
X23970000Y-7020000D02*
X24010000Y-7060000D01*
X24010000Y-7020000D02*
X23970000Y-7060000D01*
X24240000Y-8750000D02*
X24280000Y-8790000D01*
X24280000Y-8750000D02*
X24240000Y-8790000D01*
X25040000Y-5620000D02*
X25080000Y-5660000D01*
X25080000Y-5620000D02*
X25040000Y-5660000D01*
X25330000Y-4950000D02*
X25370000Y-4990000D01*
X25370000Y-4950000D02*
X25330000Y-4990000D01*
X25840000Y-8790000D02*
X25880000Y-8830000D01*
X25880000Y-8790000D02*
X25840000Y-8830000D01*
D10*
X4336250Y-3836250D02*
G75*
G03*
X4336250Y-3836250I-50000J0D01*
G01*
X4336250Y-5286250D02*
G75*
G03*
X4336250Y-5286250I-50000J0D01*
G01*
X4336250Y-7656250D02*
G75*
G03*
X4336250Y-7656250I-50000J0D01*
G01*
X4336250Y-9106250D02*
G75*
G03*
X4336250Y-9106250I-50000J0D01*
G01*
X4336250Y-9566250D02*
G75*
G03*
X4336250Y-9566250I-50000J0D01*
G01*
X4336250Y-11016250D02*
G75*
G03*
X4336250Y-11016250I-50000J0D01*
G01*
X4336250Y-11476250D02*
G75*
G03*
X4336250Y-11476250I-50000J0D01*
G01*
X4336250Y-12926250D02*
G75*
G03*
X4336250Y-12926250I-50000J0D01*
G01*
X4586250Y-5286250D02*
G75*
G03*
X4586250Y-5286250I-50000J0D01*
G01*
X4586250Y-9106250D02*
G75*
G03*
X4586250Y-9106250I-50000J0D01*
G01*
X4586250Y-11016250D02*
G75*
G03*
X4586250Y-11016250I-50000J0D01*
G01*
X4586250Y-12926250D02*
G75*
G03*
X4586250Y-12926250I-50000J0D01*
G01*
X4836250Y-3836250D02*
G75*
G03*
X4836250Y-3836250I-50000J0D01*
G01*
X4836250Y-5286250D02*
G75*
G03*
X4836250Y-5286250I-50000J0D01*
G01*
X4836250Y-7656250D02*
G75*
G03*
X4836250Y-7656250I-50000J0D01*
G01*
X4836250Y-9106250D02*
G75*
G03*
X4836250Y-9106250I-50000J0D01*
G01*
X4836250Y-9566250D02*
G75*
G03*
X4836250Y-9566250I-50000J0D01*
G01*
X4836250Y-11016250D02*
G75*
G03*
X4836250Y-11016250I-50000J0D01*
G01*
X4836250Y-11476250D02*
G75*
G03*
X4836250Y-11476250I-50000J0D01*
G01*
X4836250Y-12926250D02*
G75*
G03*
X4836250Y-12926250I-50000J0D01*
G01*
X5390000Y-4146250D02*
G75*
G03*
X5390000Y-4146250I-50000J0D01*
G01*
X5390000Y-4926250D02*
G75*
G03*
X5390000Y-4926250I-50000J0D01*
G01*
X5390000Y-6056250D02*
G75*
G03*
X5390000Y-6056250I-50000J0D01*
G01*
X5390000Y-6836250D02*
G75*
G03*
X5390000Y-6836250I-50000J0D01*
G01*
X5390000Y-7966250D02*
G75*
G03*
X5390000Y-7966250I-50000J0D01*
G01*
X5390000Y-8746250D02*
G75*
G03*
X5390000Y-8746250I-50000J0D01*
G01*
X5390000Y-9876250D02*
G75*
G03*
X5390000Y-9876250I-50000J0D01*
G01*
X5390000Y-10656250D02*
G75*
G03*
X5390000Y-10656250I-50000J0D01*
G01*
X5390000Y-11806875D02*
G75*
G03*
X5390000Y-11806875I-50000J0D01*
G01*
X5390000Y-12586875D02*
G75*
G03*
X5390000Y-12586875I-50000J0D01*
G01*
X5690000Y-4146250D02*
G75*
G03*
X5690000Y-4146250I-50000J0D01*
G01*
X5690000Y-4926250D02*
G75*
G03*
X5690000Y-4926250I-50000J0D01*
G01*
X5690000Y-6056250D02*
G75*
G03*
X5690000Y-6056250I-50000J0D01*
G01*
X5690000Y-6836250D02*
G75*
G03*
X5690000Y-6836250I-50000J0D01*
G01*
X5690000Y-7966250D02*
G75*
G03*
X5690000Y-7966250I-50000J0D01*
G01*
X5690000Y-8746250D02*
G75*
G03*
X5690000Y-8746250I-50000J0D01*
G01*
X5690000Y-9876250D02*
G75*
G03*
X5690000Y-9876250I-50000J0D01*
G01*
X5690000Y-10656250D02*
G75*
G03*
X5690000Y-10656250I-50000J0D01*
G01*
X5690000Y-11806875D02*
G75*
G03*
X5690000Y-11806875I-50000J0D01*
G01*
X5690000Y-12586875D02*
G75*
G03*
X5690000Y-12586875I-50000J0D01*
G01*
X6111600Y-5359400D02*
G75*
G03*
X6111600Y-5359400I-50000J0D01*
G01*
X6111600Y-7264400D02*
G75*
G03*
X6111600Y-7264400I-50000J0D01*
G01*
X6891600Y-5359400D02*
G75*
G03*
X6891600Y-5359400I-50000J0D01*
G01*
X6891600Y-7264400D02*
G75*
G03*
X6891600Y-7264400I-50000J0D01*
G01*
X7593800Y-7966250D02*
G75*
G03*
X7593800Y-7966250I-50000J0D01*
G01*
X7593800Y-8746250D02*
G75*
G03*
X7593800Y-8746250I-50000J0D01*
G01*
X7593800Y-9897000D02*
G75*
G03*
X7593800Y-9897000I-50000J0D01*
G01*
X7593800Y-10677000D02*
G75*
G03*
X7593800Y-10677000I-50000J0D01*
G01*
X7593800Y-11802000D02*
G75*
G03*
X7593800Y-11802000I-50000J0D01*
G01*
X7593800Y-12582000D02*
G75*
G03*
X7593800Y-12582000I-50000J0D01*
G01*
X9498800Y-9876250D02*
G75*
G03*
X9498800Y-9876250I-50000J0D01*
G01*
X9498800Y-10656250D02*
G75*
G03*
X9498800Y-10656250I-50000J0D01*
G01*
X9498800Y-11827400D02*
G75*
G03*
X9498800Y-11827400I-50000J0D01*
G01*
X9498800Y-12607400D02*
G75*
G03*
X9498800Y-12607400I-50000J0D01*
G01*
X11110000Y-7966250D02*
G75*
G03*
X11110000Y-7966250I-50000J0D01*
G01*
X11110000Y-8746250D02*
G75*
G03*
X11110000Y-8746250I-50000J0D01*
G01*
X11120000Y-9876250D02*
G75*
G03*
X11120000Y-9876250I-50000J0D01*
G01*
X11120000Y-10656250D02*
G75*
G03*
X11120000Y-10656250I-50000J0D01*
G01*
X11124400Y-4156600D02*
G75*
G03*
X11124400Y-4156600I-50000J0D01*
G01*
X11124400Y-4936600D02*
G75*
G03*
X11124400Y-4936600I-50000J0D01*
G01*
X11124400Y-6056250D02*
G75*
G03*
X11124400Y-6056250I-50000J0D01*
G01*
X11124400Y-6836250D02*
G75*
G03*
X11124400Y-6836250I-50000J0D01*
G01*
X11420000Y-9876250D02*
G75*
G03*
X11420000Y-9876250I-50000J0D01*
G01*
X11420000Y-10656250D02*
G75*
G03*
X11420000Y-10656250I-50000J0D01*
G01*
X11420000Y-11827400D02*
G75*
G03*
X11420000Y-11827400I-50000J0D01*
G01*
X11420000Y-12607400D02*
G75*
G03*
X11420000Y-12607400I-50000J0D01*
G01*
X12790000Y-12940000D02*
G75*
G03*
X12790000Y-12940000I-50000J0D01*
G01*
X13029400Y-4156600D02*
G75*
G03*
X13029400Y-4156600I-50000J0D01*
G01*
X13029400Y-4936600D02*
G75*
G03*
X13029400Y-4936600I-50000J0D01*
G01*
X13029400Y-6061600D02*
G75*
G03*
X13029400Y-6061600I-50000J0D01*
G01*
X13029400Y-6841600D02*
G75*
G03*
X13029400Y-6841600I-50000J0D01*
G01*
X13029400Y-7966600D02*
G75*
G03*
X13029400Y-7966600I-50000J0D01*
G01*
X13029400Y-8746600D02*
G75*
G03*
X13029400Y-8746600I-50000J0D01*
G01*
X13570000Y-12940000D02*
G75*
G03*
X13570000Y-12940000I-50000J0D01*
G01*
X14700000Y-12940000D02*
G75*
G03*
X14700000Y-12940000I-50000J0D01*
G01*
X14934400Y-6061600D02*
G75*
G03*
X14934400Y-6061600I-50000J0D01*
G01*
X14934400Y-6841600D02*
G75*
G03*
X14934400Y-6841600I-50000J0D01*
G01*
X14934400Y-7966600D02*
G75*
G03*
X14934400Y-7966600I-50000J0D01*
G01*
X14934400Y-8746600D02*
G75*
G03*
X14934400Y-8746600I-50000J0D01*
G01*
X14940000Y-4070000D02*
G75*
G03*
X14940000Y-4070000I-50000J0D01*
G01*
X14940000Y-4850000D02*
G75*
G03*
X14940000Y-4850000I-50000J0D01*
G01*
X15240000Y-7967500D02*
G75*
G03*
X15240000Y-7967500I-50000J0D01*
G01*
X15240000Y-8747500D02*
G75*
G03*
X15240000Y-8747500I-50000J0D01*
G01*
X15480000Y-12940000D02*
G75*
G03*
X15480000Y-12940000I-50000J0D01*
G01*
X16840000Y-4070000D02*
G75*
G03*
X16840000Y-4070000I-50000J0D01*
G01*
X16840000Y-4850000D02*
G75*
G03*
X16840000Y-4850000I-50000J0D01*
G01*
X16850000Y-6061600D02*
G75*
G03*
X16850000Y-6061600I-50000J0D01*
G01*
X16850000Y-6841600D02*
G75*
G03*
X16850000Y-6841600I-50000J0D01*
G01*
X16850000Y-7941200D02*
G75*
G03*
X16850000Y-7941200I-50000J0D01*
G01*
X16850000Y-8721200D02*
G75*
G03*
X16850000Y-8721200I-50000J0D01*
G01*
X18750000Y-4146250D02*
G75*
G03*
X18750000Y-4146250I-50000J0D01*
G01*
X18750000Y-4926250D02*
G75*
G03*
X18750000Y-4926250I-50000J0D01*
G01*
X18750000Y-6061600D02*
G75*
G03*
X18750000Y-6061600I-50000J0D01*
G01*
X18750000Y-6841600D02*
G75*
G03*
X18750000Y-6841600I-50000J0D01*
G01*
X18750000Y-7992000D02*
G75*
G03*
X18750000Y-7992000I-50000J0D01*
G01*
X18750000Y-8772000D02*
G75*
G03*
X18750000Y-8772000I-50000J0D01*
G01*
X18750000Y-9820800D02*
G75*
G03*
X18750000Y-9820800I-50000J0D01*
G01*
X18750000Y-10600800D02*
G75*
G03*
X18750000Y-10600800I-50000J0D01*
G01*
X18750000Y-11751200D02*
G75*
G03*
X18750000Y-11751200I-50000J0D01*
G01*
X18750000Y-12531200D02*
G75*
G03*
X18750000Y-12531200I-50000J0D01*
G01*
X19041425Y-4146250D02*
G75*
G03*
X19041425Y-4146250I-50000J0D01*
G01*
X19041425Y-4926250D02*
G75*
G03*
X19041425Y-4926250I-50000J0D01*
G01*
X19060000Y-6056250D02*
G75*
G03*
X19060000Y-6056250I-50000J0D01*
G01*
X19060000Y-6836250D02*
G75*
G03*
X19060000Y-6836250I-50000J0D01*
G01*
X19060000Y-7992000D02*
G75*
G03*
X19060000Y-7992000I-50000J0D01*
G01*
X19060000Y-8772000D02*
G75*
G03*
X19060000Y-8772000I-50000J0D01*
G01*
X19060000Y-9820800D02*
G75*
G03*
X19060000Y-9820800I-50000J0D01*
G01*
X19060000Y-10600800D02*
G75*
G03*
X19060000Y-10600800I-50000J0D01*
G01*
X19060000Y-11751200D02*
G75*
G03*
X19060000Y-11751200I-50000J0D01*
G01*
X19060000Y-12531200D02*
G75*
G03*
X19060000Y-12531200I-50000J0D01*
G01*
X20970000Y-4146250D02*
G75*
G03*
X20970000Y-4146250I-50000J0D01*
G01*
X20970000Y-4926250D02*
G75*
G03*
X20970000Y-4926250I-50000J0D01*
G01*
X20970000Y-6056250D02*
G75*
G03*
X20970000Y-6056250I-50000J0D01*
G01*
X20970000Y-6836250D02*
G75*
G03*
X20970000Y-6836250I-50000J0D01*
G01*
X20970000Y-7966250D02*
G75*
G03*
X20970000Y-7966250I-50000J0D01*
G01*
X20970000Y-8746250D02*
G75*
G03*
X20970000Y-8746250I-50000J0D01*
G01*
X20981825Y-9876250D02*
G75*
G03*
X20981825Y-9876250I-50000J0D01*
G01*
X20981825Y-10656250D02*
G75*
G03*
X20981825Y-10656250I-50000J0D01*
G01*
X20981825Y-11786250D02*
G75*
G03*
X20981825Y-11786250I-50000J0D01*
G01*
X20981825Y-12566250D02*
G75*
G03*
X20981825Y-12566250I-50000J0D01*
G01*
X22880000Y-4166875D02*
G75*
G03*
X22880000Y-4166875I-50000J0D01*
G01*
X22880000Y-4946875D02*
G75*
G03*
X22880000Y-4946875I-50000J0D01*
G01*
X22880000Y-6056250D02*
G75*
G03*
X22880000Y-6056250I-50000J0D01*
G01*
X22880000Y-6836250D02*
G75*
G03*
X22880000Y-6836250I-50000J0D01*
G01*
X22880000Y-7941200D02*
G75*
G03*
X22880000Y-7941200I-50000J0D01*
G01*
X22880000Y-8721200D02*
G75*
G03*
X22880000Y-8721200I-50000J0D01*
G01*
X22880000Y-9876250D02*
G75*
G03*
X22880000Y-9876250I-50000J0D01*
G01*
X22880000Y-10656250D02*
G75*
G03*
X22880000Y-10656250I-50000J0D01*
G01*
X22905400Y-11827400D02*
G75*
G03*
X22905400Y-11827400I-50000J0D01*
G01*
X22905400Y-12607400D02*
G75*
G03*
X22905400Y-12607400I-50000J0D01*
G01*
X24790000Y-4146250D02*
G75*
G03*
X24790000Y-4146250I-50000J0D01*
G01*
X24790000Y-4926250D02*
G75*
G03*
X24790000Y-4926250I-50000J0D01*
G01*
X24790000Y-6056250D02*
G75*
G03*
X24790000Y-6056250I-50000J0D01*
G01*
X24790000Y-6836250D02*
G75*
G03*
X24790000Y-6836250I-50000J0D01*
G01*
X24790000Y-7966250D02*
G75*
G03*
X24790000Y-7966250I-50000J0D01*
G01*
X24790000Y-8746250D02*
G75*
G03*
X24790000Y-8746250I-50000J0D01*
G01*
X24790000Y-9876250D02*
G75*
G03*
X24790000Y-9876250I-50000J0D01*
G01*
X24790000Y-10656250D02*
G75*
G03*
X24790000Y-10656250I-50000J0D01*
G01*
X24790000Y-11786250D02*
G75*
G03*
X24790000Y-11786250I-50000J0D01*
G01*
X24790000Y-12566250D02*
G75*
G03*
X24790000Y-12566250I-50000J0D01*
G01*
X25346250Y-3836250D02*
G75*
G03*
X25346250Y-3836250I-50000J0D01*
G01*
X25346250Y-5286250D02*
G75*
G03*
X25346250Y-5286250I-50000J0D01*
G01*
X25346250Y-7656250D02*
G75*
G03*
X25346250Y-7656250I-50000J0D01*
G01*
X25346250Y-9106250D02*
G75*
G03*
X25346250Y-9106250I-50000J0D01*
G01*
X25346250Y-9566250D02*
G75*
G03*
X25346250Y-9566250I-50000J0D01*
G01*
X25346250Y-11016250D02*
G75*
G03*
X25346250Y-11016250I-50000J0D01*
G01*
X25346250Y-11476250D02*
G75*
G03*
X25346250Y-11476250I-50000J0D01*
G01*
X25346250Y-12926250D02*
G75*
G03*
X25346250Y-12926250I-50000J0D01*
G01*
X25596250Y-5286250D02*
G75*
G03*
X25596250Y-5286250I-50000J0D01*
G01*
X25596250Y-9106250D02*
G75*
G03*
X25596250Y-9106250I-50000J0D01*
G01*
X25596250Y-11016250D02*
G75*
G03*
X25596250Y-11016250I-50000J0D01*
G01*
X25596250Y-12926250D02*
G75*
G03*
X25596250Y-12926250I-50000J0D01*
G01*
X25846250Y-3836250D02*
G75*
G03*
X25846250Y-3836250I-50000J0D01*
G01*
X25846250Y-5286250D02*
G75*
G03*
X25846250Y-5286250I-50000J0D01*
G01*
X25846250Y-7656250D02*
G75*
G03*
X25846250Y-7656250I-50000J0D01*
G01*
X25846250Y-9106250D02*
G75*
G03*
X25846250Y-9106250I-50000J0D01*
G01*
X25846250Y-9566250D02*
G75*
G03*
X25846250Y-9566250I-50000J0D01*
G01*
X25846250Y-11016250D02*
G75*
G03*
X25846250Y-11016250I-50000J0D01*
G01*
X25846250Y-11476250D02*
G75*
G03*
X25846250Y-11476250I-50000J0D01*
G01*
X25846250Y-12926250D02*
G75*
G03*
X25846250Y-12926250I-50000J0D01*
G01*
D13*
X7594250Y-3928390D02*
X7594250Y-4037610D01*
X7539640Y-3983000D02*
X7648860Y-3983000D01*
X7594250Y-4182390D02*
X7594250Y-4291610D01*
X7539640Y-4237000D02*
X7648860Y-4237000D01*
X7594250Y-4436390D02*
X7594250Y-4545610D01*
X7539640Y-4491000D02*
X7648860Y-4491000D01*
X7594250Y-4690390D02*
X7594250Y-4799610D01*
X7539640Y-4745000D02*
X7648860Y-4745000D01*
X7594250Y-4944390D02*
X7594250Y-5053610D01*
X7539640Y-4999000D02*
X7648860Y-4999000D01*
X7594250Y-5198390D02*
X7594250Y-5307610D01*
X7539640Y-5253000D02*
X7648860Y-5253000D01*
X7594250Y-5452390D02*
X7594250Y-5561610D01*
X7539640Y-5507000D02*
X7648860Y-5507000D01*
X7594250Y-5706390D02*
X7594250Y-5815610D01*
X7539640Y-5761000D02*
X7648860Y-5761000D01*
X7594250Y-5960390D02*
X7594250Y-6069610D01*
X7539640Y-6015000D02*
X7648860Y-6015000D01*
X7594250Y-6214390D02*
X7594250Y-6323610D01*
X7539640Y-6269000D02*
X7648860Y-6269000D01*
X7594250Y-6468390D02*
X7594250Y-6577610D01*
X7539640Y-6523000D02*
X7648860Y-6523000D01*
X7594250Y-6722390D02*
X7594250Y-6831610D01*
X7539640Y-6777000D02*
X7648860Y-6777000D01*
X9118250Y-3928390D02*
X9118250Y-4037610D01*
X9063640Y-3983000D02*
X9172860Y-3983000D01*
X9118250Y-4182390D02*
X9118250Y-4291610D01*
X9063640Y-4237000D02*
X9172860Y-4237000D01*
X9118250Y-4436390D02*
X9118250Y-4545610D01*
X9063640Y-4491000D02*
X9172860Y-4491000D01*
X9118250Y-4690390D02*
X9118250Y-4799610D01*
X9063640Y-4745000D02*
X9172860Y-4745000D01*
X9118250Y-4944390D02*
X9118250Y-5053610D01*
X9063640Y-4999000D02*
X9172860Y-4999000D01*
X9118250Y-5198390D02*
X9118250Y-5307610D01*
X9063640Y-5253000D02*
X9172860Y-5253000D01*
X9118250Y-5452390D02*
X9118250Y-5561610D01*
X9063640Y-5507000D02*
X9172860Y-5507000D01*
X9118250Y-5706390D02*
X9118250Y-5815610D01*
X9063640Y-5761000D02*
X9172860Y-5761000D01*
X9118250Y-5960390D02*
X9118250Y-6069610D01*
X9063640Y-6015000D02*
X9172860Y-6015000D01*
X9118250Y-6214390D02*
X9118250Y-6323610D01*
X9063640Y-6269000D02*
X9172860Y-6269000D01*
X9118250Y-6468390D02*
X9118250Y-6577610D01*
X9063640Y-6523000D02*
X9172860Y-6523000D01*
X9118250Y-6722390D02*
X9118250Y-6831610D01*
X9063640Y-6777000D02*
X9172860Y-6777000D01*
D14*
X4578677Y-3988677D02*
X4578677Y-3903823D01*
X4493823Y-3903823D01*
X4493823Y-3988677D01*
X4578677Y-3988677D01*
X4578677Y-5898677D02*
X4578677Y-5813823D01*
X4493823Y-5813823D01*
X4493823Y-5898677D01*
X4578677Y-5898677D01*
X4578677Y-7808677D02*
X4578677Y-7723823D01*
X4493823Y-7723823D01*
X4493823Y-7808677D01*
X4578677Y-7808677D01*
X4578677Y-9718677D02*
X4578677Y-9633823D01*
X4493823Y-9633823D01*
X4493823Y-9718677D01*
X4578677Y-9718677D01*
X4578677Y-11628677D02*
X4578677Y-11543823D01*
X4493823Y-11543823D01*
X4493823Y-11628677D01*
X4578677Y-11628677D01*
X5078677Y-4198677D02*
X5078677Y-4113823D01*
X4993823Y-4113823D01*
X4993823Y-4198677D01*
X5078677Y-4198677D01*
X5078677Y-6108677D02*
X5078677Y-6023823D01*
X4993823Y-6023823D01*
X4993823Y-6108677D01*
X5078677Y-6108677D01*
X5078677Y-8018677D02*
X5078677Y-7933823D01*
X4993823Y-7933823D01*
X4993823Y-8018677D01*
X5078677Y-8018677D01*
X5078677Y-9928677D02*
X5078677Y-9843823D01*
X4993823Y-9843823D01*
X4993823Y-9928677D01*
X5078677Y-9928677D01*
X5078677Y-11838677D02*
X5078677Y-11753823D01*
X4993823Y-11753823D01*
X4993823Y-11838677D01*
X5078677Y-11838677D01*
X6488677Y-3988677D02*
X6488677Y-3903823D01*
X6403823Y-3903823D01*
X6403823Y-3988677D01*
X6488677Y-3988677D01*
X6488677Y-5898677D02*
X6488677Y-5813823D01*
X6403823Y-5813823D01*
X6403823Y-5898677D01*
X6488677Y-5898677D01*
X6488677Y-7808677D02*
X6488677Y-7723823D01*
X6403823Y-7723823D01*
X6403823Y-7808677D01*
X6488677Y-7808677D01*
X6488677Y-9718677D02*
X6488677Y-9633823D01*
X6403823Y-9633823D01*
X6403823Y-9718677D01*
X6488677Y-9718677D01*
X6488677Y-11628677D02*
X6488677Y-11543823D01*
X6403823Y-11543823D01*
X6403823Y-11628677D01*
X6488677Y-11628677D01*
X6988677Y-4198677D02*
X6988677Y-4113823D01*
X6903823Y-4113823D01*
X6903823Y-4198677D01*
X6988677Y-4198677D01*
X6988677Y-6108677D02*
X6988677Y-6023823D01*
X6903823Y-6023823D01*
X6903823Y-6108677D01*
X6988677Y-6108677D01*
X6988677Y-8018677D02*
X6988677Y-7933823D01*
X6903823Y-7933823D01*
X6903823Y-8018677D01*
X6988677Y-8018677D01*
X6988677Y-9928677D02*
X6988677Y-9843823D01*
X6903823Y-9843823D01*
X6903823Y-9928677D01*
X6988677Y-9928677D01*
X6988677Y-11838677D02*
X6988677Y-11753823D01*
X6903823Y-11753823D01*
X6903823Y-11838677D01*
X6988677Y-11838677D01*
X8398677Y-3988677D02*
X8398677Y-3903823D01*
X8313823Y-3903823D01*
X8313823Y-3988677D01*
X8398677Y-3988677D01*
X8398677Y-5898677D02*
X8398677Y-5813823D01*
X8313823Y-5813823D01*
X8313823Y-5898677D01*
X8398677Y-5898677D01*
X8398677Y-7808677D02*
X8398677Y-7723823D01*
X8313823Y-7723823D01*
X8313823Y-7808677D01*
X8398677Y-7808677D01*
X8398677Y-9718677D02*
X8398677Y-9633823D01*
X8313823Y-9633823D01*
X8313823Y-9718677D01*
X8398677Y-9718677D01*
X8398677Y-11628677D02*
X8398677Y-11543823D01*
X8313823Y-11543823D01*
X8313823Y-11628677D01*
X8398677Y-11628677D01*
X8898677Y-4198677D02*
X8898677Y-4113823D01*
X8813823Y-4113823D01*
X8813823Y-4198677D01*
X8898677Y-4198677D01*
X8898677Y-6108677D02*
X8898677Y-6023823D01*
X8813823Y-6023823D01*
X8813823Y-6108677D01*
X8898677Y-6108677D01*
X8898677Y-8018677D02*
X8898677Y-7933823D01*
X8813823Y-7933823D01*
X8813823Y-8018677D01*
X8898677Y-8018677D01*
X8898677Y-9928677D02*
X8898677Y-9843823D01*
X8813823Y-9843823D01*
X8813823Y-9928677D01*
X8898677Y-9928677D01*
X8898677Y-11838677D02*
X8898677Y-11753823D01*
X8813823Y-11753823D01*
X8813823Y-11838677D01*
X8898677Y-11838677D01*
X10308677Y-3988677D02*
X10308677Y-3903823D01*
X10223823Y-3903823D01*
X10223823Y-3988677D01*
X10308677Y-3988677D01*
X10308677Y-5898677D02*
X10308677Y-5813823D01*
X10223823Y-5813823D01*
X10223823Y-5898677D01*
X10308677Y-5898677D01*
X10308677Y-7808677D02*
X10308677Y-7723823D01*
X10223823Y-7723823D01*
X10223823Y-7808677D01*
X10308677Y-7808677D01*
X10308677Y-9718677D02*
X10308677Y-9633823D01*
X10223823Y-9633823D01*
X10223823Y-9718677D01*
X10308677Y-9718677D01*
X10308677Y-11628677D02*
X10308677Y-11543823D01*
X10223823Y-11543823D01*
X10223823Y-11628677D01*
X10308677Y-11628677D01*
X10808677Y-4198677D02*
X10808677Y-4113823D01*
X10723823Y-4113823D01*
X10723823Y-4198677D01*
X10808677Y-4198677D01*
X10808677Y-6108677D02*
X10808677Y-6023823D01*
X10723823Y-6023823D01*
X10723823Y-6108677D01*
X10808677Y-6108677D01*
X10808677Y-8018677D02*
X10808677Y-7933823D01*
X10723823Y-7933823D01*
X10723823Y-8018677D01*
X10808677Y-8018677D01*
X10808677Y-9928677D02*
X10808677Y-9843823D01*
X10723823Y-9843823D01*
X10723823Y-9928677D01*
X10808677Y-9928677D01*
X10808677Y-11838677D02*
X10808677Y-11753823D01*
X10723823Y-11753823D01*
X10723823Y-11838677D01*
X10808677Y-11838677D01*
X12218677Y-3988677D02*
X12218677Y-3903823D01*
X12133823Y-3903823D01*
X12133823Y-3988677D01*
X12218677Y-3988677D01*
X12218677Y-5898677D02*
X12218677Y-5813823D01*
X12133823Y-5813823D01*
X12133823Y-5898677D01*
X12218677Y-5898677D01*
X12218677Y-7808677D02*
X12218677Y-7723823D01*
X12133823Y-7723823D01*
X12133823Y-7808677D01*
X12218677Y-7808677D01*
X12218677Y-9718677D02*
X12218677Y-9633823D01*
X12133823Y-9633823D01*
X12133823Y-9718677D01*
X12218677Y-9718677D01*
X12218677Y-11628677D02*
X12218677Y-11543823D01*
X12133823Y-11543823D01*
X12133823Y-11628677D01*
X12218677Y-11628677D01*
X12718677Y-4198677D02*
X12718677Y-4113823D01*
X12633823Y-4113823D01*
X12633823Y-4198677D01*
X12718677Y-4198677D01*
X12718677Y-6108677D02*
X12718677Y-6023823D01*
X12633823Y-6023823D01*
X12633823Y-6108677D01*
X12718677Y-6108677D01*
X12718677Y-8018677D02*
X12718677Y-7933823D01*
X12633823Y-7933823D01*
X12633823Y-8018677D01*
X12718677Y-8018677D01*
X12718677Y-9928677D02*
X12718677Y-9843823D01*
X12633823Y-9843823D01*
X12633823Y-9928677D01*
X12718677Y-9928677D01*
X12718677Y-11838677D02*
X12718677Y-11753823D01*
X12633823Y-11753823D01*
X12633823Y-11838677D01*
X12718677Y-11838677D01*
X13173677Y-9718677D02*
X13173677Y-9633823D01*
X13088823Y-9633823D01*
X13088823Y-9718677D01*
X13173677Y-9718677D01*
X13173677Y-11628677D02*
X13173677Y-11543823D01*
X13088823Y-11543823D01*
X13088823Y-11628677D01*
X13173677Y-11628677D01*
X13673677Y-9928677D02*
X13673677Y-9843823D01*
X13588823Y-9843823D01*
X13588823Y-9928677D01*
X13673677Y-9928677D01*
X13673677Y-11838677D02*
X13673677Y-11753823D01*
X13588823Y-11753823D01*
X13588823Y-11838677D01*
X13673677Y-11838677D01*
X14128677Y-3988677D02*
X14128677Y-3903823D01*
X14043823Y-3903823D01*
X14043823Y-3988677D01*
X14128677Y-3988677D01*
X14128677Y-5898677D02*
X14128677Y-5813823D01*
X14043823Y-5813823D01*
X14043823Y-5898677D01*
X14128677Y-5898677D01*
X14128677Y-7808677D02*
X14128677Y-7723823D01*
X14043823Y-7723823D01*
X14043823Y-7808677D01*
X14128677Y-7808677D01*
X14128677Y-9718677D02*
X14128677Y-9633823D01*
X14043823Y-9633823D01*
X14043823Y-9718677D01*
X14128677Y-9718677D01*
X14128677Y-11628677D02*
X14128677Y-11543823D01*
X14043823Y-11543823D01*
X14043823Y-11628677D01*
X14128677Y-11628677D01*
X14628677Y-4198677D02*
X14628677Y-4113823D01*
X14543823Y-4113823D01*
X14543823Y-4198677D01*
X14628677Y-4198677D01*
X14628677Y-6108677D02*
X14628677Y-6023823D01*
X14543823Y-6023823D01*
X14543823Y-6108677D01*
X14628677Y-6108677D01*
X14628677Y-8018677D02*
X14628677Y-7933823D01*
X14543823Y-7933823D01*
X14543823Y-8018677D01*
X14628677Y-8018677D01*
X14628677Y-9928677D02*
X14628677Y-9843823D01*
X14543823Y-9843823D01*
X14543823Y-9928677D01*
X14628677Y-9928677D01*
X14628677Y-11838677D02*
X14628677Y-11753823D01*
X14543823Y-11753823D01*
X14543823Y-11838677D01*
X14628677Y-11838677D01*
X15083677Y-9718677D02*
X15083677Y-9633823D01*
X14998823Y-9633823D01*
X14998823Y-9718677D01*
X15083677Y-9718677D01*
X15083677Y-11628677D02*
X15083677Y-11543823D01*
X14998823Y-11543823D01*
X14998823Y-11628677D01*
X15083677Y-11628677D01*
X15583677Y-9928677D02*
X15583677Y-9843823D01*
X15498823Y-9843823D01*
X15498823Y-9928677D01*
X15583677Y-9928677D01*
X15583677Y-11838677D02*
X15583677Y-11753823D01*
X15498823Y-11753823D01*
X15498823Y-11838677D01*
X15583677Y-11838677D01*
X16038677Y-3988677D02*
X16038677Y-3903823D01*
X15953823Y-3903823D01*
X15953823Y-3988677D01*
X16038677Y-3988677D01*
X16038677Y-5898677D02*
X16038677Y-5813823D01*
X15953823Y-5813823D01*
X15953823Y-5898677D01*
X16038677Y-5898677D01*
X16038677Y-7808677D02*
X16038677Y-7723823D01*
X15953823Y-7723823D01*
X15953823Y-7808677D01*
X16038677Y-7808677D01*
X16038677Y-9718677D02*
X16038677Y-9633823D01*
X15953823Y-9633823D01*
X15953823Y-9718677D01*
X16038677Y-9718677D01*
X16038677Y-11628677D02*
X16038677Y-11543823D01*
X15953823Y-11543823D01*
X15953823Y-11628677D01*
X16038677Y-11628677D01*
X16538677Y-4198677D02*
X16538677Y-4113823D01*
X16453823Y-4113823D01*
X16453823Y-4198677D01*
X16538677Y-4198677D01*
X16538677Y-6108677D02*
X16538677Y-6023823D01*
X16453823Y-6023823D01*
X16453823Y-6108677D01*
X16538677Y-6108677D01*
X16538677Y-8018677D02*
X16538677Y-7933823D01*
X16453823Y-7933823D01*
X16453823Y-8018677D01*
X16538677Y-8018677D01*
X16538677Y-9928677D02*
X16538677Y-9843823D01*
X16453823Y-9843823D01*
X16453823Y-9928677D01*
X16538677Y-9928677D01*
X16538677Y-11838677D02*
X16538677Y-11753823D01*
X16453823Y-11753823D01*
X16453823Y-11838677D01*
X16538677Y-11838677D01*
X16993677Y-9718677D02*
X16993677Y-9633823D01*
X16908823Y-9633823D01*
X16908823Y-9718677D01*
X16993677Y-9718677D01*
X16993677Y-11628677D02*
X16993677Y-11543823D01*
X16908823Y-11543823D01*
X16908823Y-11628677D01*
X16993677Y-11628677D01*
X17493677Y-9928677D02*
X17493677Y-9843823D01*
X17408823Y-9843823D01*
X17408823Y-9928677D01*
X17493677Y-9928677D01*
X17493677Y-11838677D02*
X17493677Y-11753823D01*
X17408823Y-11753823D01*
X17408823Y-11838677D01*
X17493677Y-11838677D01*
X17948677Y-3988677D02*
X17948677Y-3903823D01*
X17863823Y-3903823D01*
X17863823Y-3988677D01*
X17948677Y-3988677D01*
X17948677Y-5898677D02*
X17948677Y-5813823D01*
X17863823Y-5813823D01*
X17863823Y-5898677D01*
X17948677Y-5898677D01*
X17948677Y-7808677D02*
X17948677Y-7723823D01*
X17863823Y-7723823D01*
X17863823Y-7808677D01*
X17948677Y-7808677D01*
X17948677Y-9718677D02*
X17948677Y-9633823D01*
X17863823Y-9633823D01*
X17863823Y-9718677D01*
X17948677Y-9718677D01*
X17948677Y-11628677D02*
X17948677Y-11543823D01*
X17863823Y-11543823D01*
X17863823Y-11628677D01*
X17948677Y-11628677D01*
X18448677Y-4198677D02*
X18448677Y-4113823D01*
X18363823Y-4113823D01*
X18363823Y-4198677D01*
X18448677Y-4198677D01*
X18448677Y-6108677D02*
X18448677Y-6023823D01*
X18363823Y-6023823D01*
X18363823Y-6108677D01*
X18448677Y-6108677D01*
X18448677Y-8018677D02*
X18448677Y-7933823D01*
X18363823Y-7933823D01*
X18363823Y-8018677D01*
X18448677Y-8018677D01*
X18448677Y-9928677D02*
X18448677Y-9843823D01*
X18363823Y-9843823D01*
X18363823Y-9928677D01*
X18448677Y-9928677D01*
X18448677Y-11838677D02*
X18448677Y-11753823D01*
X18363823Y-11753823D01*
X18363823Y-11838677D01*
X18448677Y-11838677D01*
X19858677Y-3988677D02*
X19858677Y-3903823D01*
X19773823Y-3903823D01*
X19773823Y-3988677D01*
X19858677Y-3988677D01*
X19858677Y-5898677D02*
X19858677Y-5813823D01*
X19773823Y-5813823D01*
X19773823Y-5898677D01*
X19858677Y-5898677D01*
X19858677Y-7808677D02*
X19858677Y-7723823D01*
X19773823Y-7723823D01*
X19773823Y-7808677D01*
X19858677Y-7808677D01*
X19858677Y-9718677D02*
X19858677Y-9633823D01*
X19773823Y-9633823D01*
X19773823Y-9718677D01*
X19858677Y-9718677D01*
X19858677Y-11628677D02*
X19858677Y-11543823D01*
X19773823Y-11543823D01*
X19773823Y-11628677D01*
X19858677Y-11628677D01*
X20358677Y-4198677D02*
X20358677Y-4113823D01*
X20273823Y-4113823D01*
X20273823Y-4198677D01*
X20358677Y-4198677D01*
X20358677Y-6108677D02*
X20358677Y-6023823D01*
X20273823Y-6023823D01*
X20273823Y-6108677D01*
X20358677Y-6108677D01*
X20358677Y-8018677D02*
X20358677Y-7933823D01*
X20273823Y-7933823D01*
X20273823Y-8018677D01*
X20358677Y-8018677D01*
X20358677Y-9928677D02*
X20358677Y-9843823D01*
X20273823Y-9843823D01*
X20273823Y-9928677D01*
X20358677Y-9928677D01*
X20358677Y-11838677D02*
X20358677Y-11753823D01*
X20273823Y-11753823D01*
X20273823Y-11838677D01*
X20358677Y-11838677D01*
X21768677Y-3988677D02*
X21768677Y-3903823D01*
X21683823Y-3903823D01*
X21683823Y-3988677D01*
X21768677Y-3988677D01*
X21768677Y-5898677D02*
X21768677Y-5813823D01*
X21683823Y-5813823D01*
X21683823Y-5898677D01*
X21768677Y-5898677D01*
X21768677Y-7808677D02*
X21768677Y-7723823D01*
X21683823Y-7723823D01*
X21683823Y-7808677D01*
X21768677Y-7808677D01*
X21768677Y-9718677D02*
X21768677Y-9633823D01*
X21683823Y-9633823D01*
X21683823Y-9718677D01*
X21768677Y-9718677D01*
X21768677Y-11628677D02*
X21768677Y-11543823D01*
X21683823Y-11543823D01*
X21683823Y-11628677D01*
X21768677Y-11628677D01*
X22268677Y-4198677D02*
X22268677Y-4113823D01*
X22183823Y-4113823D01*
X22183823Y-4198677D01*
X22268677Y-4198677D01*
X22268677Y-6108677D02*
X22268677Y-6023823D01*
X22183823Y-6023823D01*
X22183823Y-6108677D01*
X22268677Y-6108677D01*
X22268677Y-8018677D02*
X22268677Y-7933823D01*
X22183823Y-7933823D01*
X22183823Y-8018677D01*
X22268677Y-8018677D01*
X22268677Y-9928677D02*
X22268677Y-9843823D01*
X22183823Y-9843823D01*
X22183823Y-9928677D01*
X22268677Y-9928677D01*
X22268677Y-11838677D02*
X22268677Y-11753823D01*
X22183823Y-11753823D01*
X22183823Y-11838677D01*
X22268677Y-11838677D01*
X23678677Y-3988677D02*
X23678677Y-3903823D01*
X23593823Y-3903823D01*
X23593823Y-3988677D01*
X23678677Y-3988677D01*
X23678677Y-5898677D02*
X23678677Y-5813823D01*
X23593823Y-5813823D01*
X23593823Y-5898677D01*
X23678677Y-5898677D01*
X23678677Y-7808677D02*
X23678677Y-7723823D01*
X23593823Y-7723823D01*
X23593823Y-7808677D01*
X23678677Y-7808677D01*
X23678677Y-9718677D02*
X23678677Y-9633823D01*
X23593823Y-9633823D01*
X23593823Y-9718677D01*
X23678677Y-9718677D01*
X23678677Y-11628677D02*
X23678677Y-11543823D01*
X23593823Y-11543823D01*
X23593823Y-11628677D01*
X23678677Y-11628677D01*
X24178677Y-4198677D02*
X24178677Y-4113823D01*
X24093823Y-4113823D01*
X24093823Y-4198677D01*
X24178677Y-4198677D01*
X24178677Y-6108677D02*
X24178677Y-6023823D01*
X24093823Y-6023823D01*
X24093823Y-6108677D01*
X24178677Y-6108677D01*
X24178677Y-8018677D02*
X24178677Y-7933823D01*
X24093823Y-7933823D01*
X24093823Y-8018677D01*
X24178677Y-8018677D01*
X24178677Y-9928677D02*
X24178677Y-9843823D01*
X24093823Y-9843823D01*
X24093823Y-9928677D01*
X24178677Y-9928677D01*
X24178677Y-11838677D02*
X24178677Y-11753823D01*
X24093823Y-11753823D01*
X24093823Y-11838677D01*
X24178677Y-11838677D01*
X25588677Y-3988677D02*
X25588677Y-3903823D01*
X25503823Y-3903823D01*
X25503823Y-3988677D01*
X25588677Y-3988677D01*
X25588677Y-5898677D02*
X25588677Y-5813823D01*
X25503823Y-5813823D01*
X25503823Y-5898677D01*
X25588677Y-5898677D01*
X25588677Y-7808677D02*
X25588677Y-7723823D01*
X25503823Y-7723823D01*
X25503823Y-7808677D01*
X25588677Y-7808677D01*
X25588677Y-9718677D02*
X25588677Y-9633823D01*
X25503823Y-9633823D01*
X25503823Y-9718677D01*
X25588677Y-9718677D01*
X25588677Y-11628677D02*
X25588677Y-11543823D01*
X25503823Y-11543823D01*
X25503823Y-11628677D01*
X25588677Y-11628677D01*
X26088677Y-4198677D02*
X26088677Y-4113823D01*
X26003823Y-4113823D01*
X26003823Y-4198677D01*
X26088677Y-4198677D01*
X26088677Y-6108677D02*
X26088677Y-6023823D01*
X26003823Y-6023823D01*
X26003823Y-6108677D01*
X26088677Y-6108677D01*
X26088677Y-8018677D02*
X26088677Y-7933823D01*
X26003823Y-7933823D01*
X26003823Y-8018677D01*
X26088677Y-8018677D01*
X26088677Y-9928677D02*
X26088677Y-9843823D01*
X26003823Y-9843823D01*
X26003823Y-9928677D01*
X26088677Y-9928677D01*
X26088677Y-11838677D02*
X26088677Y-11753823D01*
X26003823Y-11753823D01*
X26003823Y-11838677D01*
X26088677Y-11838677D01*
D15*
X4155250Y-4355750D02*
X4228750Y-4282250D01*
X4155250Y-4208750D01*
X4081750Y-4282250D01*
X4155250Y-4355750D01*
X4155250Y-6265750D02*
X4228750Y-6192250D01*
X4155250Y-6118750D01*
X4081750Y-6192250D01*
X4155250Y-6265750D01*
X4155250Y-8175750D02*
X4228750Y-8102250D01*
X4155250Y-8028750D01*
X4081750Y-8102250D01*
X4155250Y-8175750D01*
X4155250Y-10085750D02*
X4228750Y-10012250D01*
X4155250Y-9938750D01*
X4081750Y-10012250D01*
X4155250Y-10085750D01*
X4155250Y-11995750D02*
X4228750Y-11922250D01*
X4155250Y-11848750D01*
X4081750Y-11922250D01*
X4155250Y-11995750D01*
X4286250Y-4209750D02*
X4359750Y-4136250D01*
X4286250Y-4062750D01*
X4212750Y-4136250D01*
X4286250Y-4209750D01*
X4286250Y-6119750D02*
X4359750Y-6046250D01*
X4286250Y-5972750D01*
X4212750Y-6046250D01*
X4286250Y-6119750D01*
X4286250Y-8029750D02*
X4359750Y-7956250D01*
X4286250Y-7882750D01*
X4212750Y-7956250D01*
X4286250Y-8029750D01*
X4286250Y-9939750D02*
X4359750Y-9866250D01*
X4286250Y-9792750D01*
X4212750Y-9866250D01*
X4286250Y-9939750D01*
X4286250Y-11849750D02*
X4359750Y-11776250D01*
X4286250Y-11702750D01*
X4212750Y-11776250D01*
X4286250Y-11849750D01*
X4786250Y-4159750D02*
X4859750Y-4086250D01*
X4786250Y-4012750D01*
X4712750Y-4086250D01*
X4786250Y-4159750D01*
X4786250Y-6069750D02*
X4859750Y-5996250D01*
X4786250Y-5922750D01*
X4712750Y-5996250D01*
X4786250Y-6069750D01*
X4786250Y-7979750D02*
X4859750Y-7906250D01*
X4786250Y-7832750D01*
X4712750Y-7906250D01*
X4786250Y-7979750D01*
X4786250Y-9889750D02*
X4859750Y-9816250D01*
X4786250Y-9742750D01*
X4712750Y-9816250D01*
X4786250Y-9889750D01*
X4786250Y-11799750D02*
X4859750Y-11726250D01*
X4786250Y-11652750D01*
X4712750Y-11726250D01*
X4786250Y-11799750D01*
X4790250Y-4101750D02*
X4863750Y-4028250D01*
X4790250Y-3954750D01*
X4716750Y-4028250D01*
X4790250Y-4101750D01*
X4790250Y-6011750D02*
X4863750Y-5938250D01*
X4790250Y-5864750D01*
X4716750Y-5938250D01*
X4790250Y-6011750D01*
X4790250Y-7921750D02*
X4863750Y-7848250D01*
X4790250Y-7774750D01*
X4716750Y-7848250D01*
X4790250Y-7921750D01*
X4790250Y-9831750D02*
X4863750Y-9758250D01*
X4790250Y-9684750D01*
X4716750Y-9758250D01*
X4790250Y-9831750D01*
X4790250Y-11741750D02*
X4863750Y-11668250D01*
X4790250Y-11594750D01*
X4716750Y-11668250D01*
X4790250Y-11741750D01*
X6065250Y-4355750D02*
X6138750Y-4282250D01*
X6065250Y-4208750D01*
X5991750Y-4282250D01*
X6065250Y-4355750D01*
X6065250Y-6265750D02*
X6138750Y-6192250D01*
X6065250Y-6118750D01*
X5991750Y-6192250D01*
X6065250Y-6265750D01*
X6065250Y-8175750D02*
X6138750Y-8102250D01*
X6065250Y-8028750D01*
X5991750Y-8102250D01*
X6065250Y-8175750D01*
X6065250Y-10085750D02*
X6138750Y-10012250D01*
X6065250Y-9938750D01*
X5991750Y-10012250D01*
X6065250Y-10085750D01*
X6065250Y-11995750D02*
X6138750Y-11922250D01*
X6065250Y-11848750D01*
X5991750Y-11922250D01*
X6065250Y-11995750D01*
X6196250Y-4209750D02*
X6269750Y-4136250D01*
X6196250Y-4062750D01*
X6122750Y-4136250D01*
X6196250Y-4209750D01*
X6196250Y-6119750D02*
X6269750Y-6046250D01*
X6196250Y-5972750D01*
X6122750Y-6046250D01*
X6196250Y-6119750D01*
X6196250Y-8029750D02*
X6269750Y-7956250D01*
X6196250Y-7882750D01*
X6122750Y-7956250D01*
X6196250Y-8029750D01*
X6196250Y-9939750D02*
X6269750Y-9866250D01*
X6196250Y-9792750D01*
X6122750Y-9866250D01*
X6196250Y-9939750D01*
X6196250Y-11849750D02*
X6269750Y-11776250D01*
X6196250Y-11702750D01*
X6122750Y-11776250D01*
X6196250Y-11849750D01*
X6696250Y-4159750D02*
X6769750Y-4086250D01*
X6696250Y-4012750D01*
X6622750Y-4086250D01*
X6696250Y-4159750D01*
X6696250Y-6069750D02*
X6769750Y-5996250D01*
X6696250Y-5922750D01*
X6622750Y-5996250D01*
X6696250Y-6069750D01*
X6696250Y-7979750D02*
X6769750Y-7906250D01*
X6696250Y-7832750D01*
X6622750Y-7906250D01*
X6696250Y-7979750D01*
X6696250Y-9889750D02*
X6769750Y-9816250D01*
X6696250Y-9742750D01*
X6622750Y-9816250D01*
X6696250Y-9889750D01*
X6696250Y-11799750D02*
X6769750Y-11726250D01*
X6696250Y-11652750D01*
X6622750Y-11726250D01*
X6696250Y-11799750D01*
X6700250Y-4101750D02*
X6773750Y-4028250D01*
X6700250Y-3954750D01*
X6626750Y-4028250D01*
X6700250Y-4101750D01*
X6700250Y-6011750D02*
X6773750Y-5938250D01*
X6700250Y-5864750D01*
X6626750Y-5938250D01*
X6700250Y-6011750D01*
X6700250Y-7921750D02*
X6773750Y-7848250D01*
X6700250Y-7774750D01*
X6626750Y-7848250D01*
X6700250Y-7921750D01*
X6700250Y-9831750D02*
X6773750Y-9758250D01*
X6700250Y-9684750D01*
X6626750Y-9758250D01*
X6700250Y-9831750D01*
X6700250Y-11741750D02*
X6773750Y-11668250D01*
X6700250Y-11594750D01*
X6626750Y-11668250D01*
X6700250Y-11741750D01*
X7975250Y-4355750D02*
X8048750Y-4282250D01*
X7975250Y-4208750D01*
X7901750Y-4282250D01*
X7975250Y-4355750D01*
X7975250Y-6265750D02*
X8048750Y-6192250D01*
X7975250Y-6118750D01*
X7901750Y-6192250D01*
X7975250Y-6265750D01*
X7975250Y-8175750D02*
X8048750Y-8102250D01*
X7975250Y-8028750D01*
X7901750Y-8102250D01*
X7975250Y-8175750D01*
X7975250Y-10085750D02*
X8048750Y-10012250D01*
X7975250Y-9938750D01*
X7901750Y-10012250D01*
X7975250Y-10085750D01*
X7975250Y-11995750D02*
X8048750Y-11922250D01*
X7975250Y-11848750D01*
X7901750Y-11922250D01*
X7975250Y-11995750D01*
X8106250Y-4209750D02*
X8179750Y-4136250D01*
X8106250Y-4062750D01*
X8032750Y-4136250D01*
X8106250Y-4209750D01*
X8106250Y-6119750D02*
X8179750Y-6046250D01*
X8106250Y-5972750D01*
X8032750Y-6046250D01*
X8106250Y-6119750D01*
X8106250Y-8029750D02*
X8179750Y-7956250D01*
X8106250Y-7882750D01*
X8032750Y-7956250D01*
X8106250Y-8029750D01*
X8106250Y-9939750D02*
X8179750Y-9866250D01*
X8106250Y-9792750D01*
X8032750Y-9866250D01*
X8106250Y-9939750D01*
X8106250Y-11849750D02*
X8179750Y-11776250D01*
X8106250Y-11702750D01*
X8032750Y-11776250D01*
X8106250Y-11849750D01*
X8606250Y-4159750D02*
X8679750Y-4086250D01*
X8606250Y-4012750D01*
X8532750Y-4086250D01*
X8606250Y-4159750D01*
X8606250Y-6069750D02*
X8679750Y-5996250D01*
X8606250Y-5922750D01*
X8532750Y-5996250D01*
X8606250Y-6069750D01*
X8606250Y-7979750D02*
X8679750Y-7906250D01*
X8606250Y-7832750D01*
X8532750Y-7906250D01*
X8606250Y-7979750D01*
X8606250Y-9889750D02*
X8679750Y-9816250D01*
X8606250Y-9742750D01*
X8532750Y-9816250D01*
X8606250Y-9889750D01*
X8606250Y-11799750D02*
X8679750Y-11726250D01*
X8606250Y-11652750D01*
X8532750Y-11726250D01*
X8606250Y-11799750D01*
X8610250Y-4101750D02*
X8683750Y-4028250D01*
X8610250Y-3954750D01*
X8536750Y-4028250D01*
X8610250Y-4101750D01*
X8610250Y-6011750D02*
X8683750Y-5938250D01*
X8610250Y-5864750D01*
X8536750Y-5938250D01*
X8610250Y-6011750D01*
X8610250Y-7921750D02*
X8683750Y-7848250D01*
X8610250Y-7774750D01*
X8536750Y-7848250D01*
X8610250Y-7921750D01*
X8610250Y-9831750D02*
X8683750Y-9758250D01*
X8610250Y-9684750D01*
X8536750Y-9758250D01*
X8610250Y-9831750D01*
X8610250Y-11741750D02*
X8683750Y-11668250D01*
X8610250Y-11594750D01*
X8536750Y-11668250D01*
X8610250Y-11741750D01*
X9885250Y-4355750D02*
X9958750Y-4282250D01*
X9885250Y-4208750D01*
X9811750Y-4282250D01*
X9885250Y-4355750D01*
X9885250Y-6265750D02*
X9958750Y-6192250D01*
X9885250Y-6118750D01*
X9811750Y-6192250D01*
X9885250Y-6265750D01*
X9885250Y-8175750D02*
X9958750Y-8102250D01*
X9885250Y-8028750D01*
X9811750Y-8102250D01*
X9885250Y-8175750D01*
X9885250Y-10085750D02*
X9958750Y-10012250D01*
X9885250Y-9938750D01*
X9811750Y-10012250D01*
X9885250Y-10085750D01*
X9885250Y-11995750D02*
X9958750Y-11922250D01*
X9885250Y-11848750D01*
X9811750Y-11922250D01*
X9885250Y-11995750D01*
X10016250Y-4209750D02*
X10089750Y-4136250D01*
X10016250Y-4062750D01*
X9942750Y-4136250D01*
X10016250Y-4209750D01*
X10016250Y-6119750D02*
X10089750Y-6046250D01*
X10016250Y-5972750D01*
X9942750Y-6046250D01*
X10016250Y-6119750D01*
X10016250Y-8029750D02*
X10089750Y-7956250D01*
X10016250Y-7882750D01*
X9942750Y-7956250D01*
X10016250Y-8029750D01*
X10016250Y-9939750D02*
X10089750Y-9866250D01*
X10016250Y-9792750D01*
X9942750Y-9866250D01*
X10016250Y-9939750D01*
X10016250Y-11849750D02*
X10089750Y-11776250D01*
X10016250Y-11702750D01*
X9942750Y-11776250D01*
X10016250Y-11849750D01*
X10516250Y-4159750D02*
X10589750Y-4086250D01*
X10516250Y-4012750D01*
X10442750Y-4086250D01*
X10516250Y-4159750D01*
X10516250Y-6069750D02*
X10589750Y-5996250D01*
X10516250Y-5922750D01*
X10442750Y-5996250D01*
X10516250Y-6069750D01*
X10516250Y-7979750D02*
X10589750Y-7906250D01*
X10516250Y-7832750D01*
X10442750Y-7906250D01*
X10516250Y-7979750D01*
X10516250Y-9889750D02*
X10589750Y-9816250D01*
X10516250Y-9742750D01*
X10442750Y-9816250D01*
X10516250Y-9889750D01*
X10516250Y-11799750D02*
X10589750Y-11726250D01*
X10516250Y-11652750D01*
X10442750Y-11726250D01*
X10516250Y-11799750D01*
X10520250Y-4101750D02*
X10593750Y-4028250D01*
X10520250Y-3954750D01*
X10446750Y-4028250D01*
X10520250Y-4101750D01*
X10520250Y-6011750D02*
X10593750Y-5938250D01*
X10520250Y-5864750D01*
X10446750Y-5938250D01*
X10520250Y-6011750D01*
X10520250Y-7921750D02*
X10593750Y-7848250D01*
X10520250Y-7774750D01*
X10446750Y-7848250D01*
X10520250Y-7921750D01*
X10520250Y-9831750D02*
X10593750Y-9758250D01*
X10520250Y-9684750D01*
X10446750Y-9758250D01*
X10520250Y-9831750D01*
X10520250Y-11741750D02*
X10593750Y-11668250D01*
X10520250Y-11594750D01*
X10446750Y-11668250D01*
X10520250Y-11741750D01*
X11795250Y-4355750D02*
X11868750Y-4282250D01*
X11795250Y-4208750D01*
X11721750Y-4282250D01*
X11795250Y-4355750D01*
X11795250Y-6265750D02*
X11868750Y-6192250D01*
X11795250Y-6118750D01*
X11721750Y-6192250D01*
X11795250Y-6265750D01*
X11795250Y-8175750D02*
X11868750Y-8102250D01*
X11795250Y-8028750D01*
X11721750Y-8102250D01*
X11795250Y-8175750D01*
X11795250Y-10085750D02*
X11868750Y-10012250D01*
X11795250Y-9938750D01*
X11721750Y-10012250D01*
X11795250Y-10085750D01*
X11795250Y-11995750D02*
X11868750Y-11922250D01*
X11795250Y-11848750D01*
X11721750Y-11922250D01*
X11795250Y-11995750D01*
X11926250Y-4209750D02*
X11999750Y-4136250D01*
X11926250Y-4062750D01*
X11852750Y-4136250D01*
X11926250Y-4209750D01*
X11926250Y-6119750D02*
X11999750Y-6046250D01*
X11926250Y-5972750D01*
X11852750Y-6046250D01*
X11926250Y-6119750D01*
X11926250Y-8029750D02*
X11999750Y-7956250D01*
X11926250Y-7882750D01*
X11852750Y-7956250D01*
X11926250Y-8029750D01*
X11926250Y-9939750D02*
X11999750Y-9866250D01*
X11926250Y-9792750D01*
X11852750Y-9866250D01*
X11926250Y-9939750D01*
X11926250Y-11849750D02*
X11999750Y-11776250D01*
X11926250Y-11702750D01*
X11852750Y-11776250D01*
X11926250Y-11849750D01*
X12426250Y-4159750D02*
X12499750Y-4086250D01*
X12426250Y-4012750D01*
X12352750Y-4086250D01*
X12426250Y-4159750D01*
X12426250Y-6069750D02*
X12499750Y-5996250D01*
X12426250Y-5922750D01*
X12352750Y-5996250D01*
X12426250Y-6069750D01*
X12426250Y-7979750D02*
X12499750Y-7906250D01*
X12426250Y-7832750D01*
X12352750Y-7906250D01*
X12426250Y-7979750D01*
X12426250Y-9889750D02*
X12499750Y-9816250D01*
X12426250Y-9742750D01*
X12352750Y-9816250D01*
X12426250Y-9889750D01*
X12426250Y-11799750D02*
X12499750Y-11726250D01*
X12426250Y-11652750D01*
X12352750Y-11726250D01*
X12426250Y-11799750D01*
X12430250Y-4101750D02*
X12503750Y-4028250D01*
X12430250Y-3954750D01*
X12356750Y-4028250D01*
X12430250Y-4101750D01*
X12430250Y-6011750D02*
X12503750Y-5938250D01*
X12430250Y-5864750D01*
X12356750Y-5938250D01*
X12430250Y-6011750D01*
X12430250Y-7921750D02*
X12503750Y-7848250D01*
X12430250Y-7774750D01*
X12356750Y-7848250D01*
X12430250Y-7921750D01*
X12430250Y-9831750D02*
X12503750Y-9758250D01*
X12430250Y-9684750D01*
X12356750Y-9758250D01*
X12430250Y-9831750D01*
X12430250Y-11741750D02*
X12503750Y-11668250D01*
X12430250Y-11594750D01*
X12356750Y-11668250D01*
X12430250Y-11741750D01*
X12750250Y-10085750D02*
X12823750Y-10012250D01*
X12750250Y-9938750D01*
X12676750Y-10012250D01*
X12750250Y-10085750D01*
X12750250Y-11995750D02*
X12823750Y-11922250D01*
X12750250Y-11848750D01*
X12676750Y-11922250D01*
X12750250Y-11995750D01*
X12881250Y-9939750D02*
X12954750Y-9866250D01*
X12881250Y-9792750D01*
X12807750Y-9866250D01*
X12881250Y-9939750D01*
X12881250Y-11849750D02*
X12954750Y-11776250D01*
X12881250Y-11702750D01*
X12807750Y-11776250D01*
X12881250Y-11849750D01*
X13381250Y-9889750D02*
X13454750Y-9816250D01*
X13381250Y-9742750D01*
X13307750Y-9816250D01*
X13381250Y-9889750D01*
X13381250Y-11799750D02*
X13454750Y-11726250D01*
X13381250Y-11652750D01*
X13307750Y-11726250D01*
X13381250Y-11799750D01*
X13385250Y-9831750D02*
X13458750Y-9758250D01*
X13385250Y-9684750D01*
X13311750Y-9758250D01*
X13385250Y-9831750D01*
X13385250Y-11741750D02*
X13458750Y-11668250D01*
X13385250Y-11594750D01*
X13311750Y-11668250D01*
X13385250Y-11741750D01*
X13705250Y-4355750D02*
X13778750Y-4282250D01*
X13705250Y-4208750D01*
X13631750Y-4282250D01*
X13705250Y-4355750D01*
X13705250Y-6265750D02*
X13778750Y-6192250D01*
X13705250Y-6118750D01*
X13631750Y-6192250D01*
X13705250Y-6265750D01*
X13705250Y-8175750D02*
X13778750Y-8102250D01*
X13705250Y-8028750D01*
X13631750Y-8102250D01*
X13705250Y-8175750D01*
X13705250Y-10085750D02*
X13778750Y-10012250D01*
X13705250Y-9938750D01*
X13631750Y-10012250D01*
X13705250Y-10085750D01*
X13705250Y-11995750D02*
X13778750Y-11922250D01*
X13705250Y-11848750D01*
X13631750Y-11922250D01*
X13705250Y-11995750D01*
X13836250Y-4209750D02*
X13909750Y-4136250D01*
X13836250Y-4062750D01*
X13762750Y-4136250D01*
X13836250Y-4209750D01*
X13836250Y-6119750D02*
X13909750Y-6046250D01*
X13836250Y-5972750D01*
X13762750Y-6046250D01*
X13836250Y-6119750D01*
X13836250Y-8029750D02*
X13909750Y-7956250D01*
X13836250Y-7882750D01*
X13762750Y-7956250D01*
X13836250Y-8029750D01*
X13836250Y-9939750D02*
X13909750Y-9866250D01*
X13836250Y-9792750D01*
X13762750Y-9866250D01*
X13836250Y-9939750D01*
X13836250Y-11849750D02*
X13909750Y-11776250D01*
X13836250Y-11702750D01*
X13762750Y-11776250D01*
X13836250Y-11849750D01*
X14336250Y-4159750D02*
X14409750Y-4086250D01*
X14336250Y-4012750D01*
X14262750Y-4086250D01*
X14336250Y-4159750D01*
X14336250Y-6069750D02*
X14409750Y-5996250D01*
X14336250Y-5922750D01*
X14262750Y-5996250D01*
X14336250Y-6069750D01*
X14336250Y-7979750D02*
X14409750Y-7906250D01*
X14336250Y-7832750D01*
X14262750Y-7906250D01*
X14336250Y-7979750D01*
X14336250Y-9889750D02*
X14409750Y-9816250D01*
X14336250Y-9742750D01*
X14262750Y-9816250D01*
X14336250Y-9889750D01*
X14336250Y-11799750D02*
X14409750Y-11726250D01*
X14336250Y-11652750D01*
X14262750Y-11726250D01*
X14336250Y-11799750D01*
X14340250Y-4101750D02*
X14413750Y-4028250D01*
X14340250Y-3954750D01*
X14266750Y-4028250D01*
X14340250Y-4101750D01*
X14340250Y-6011750D02*
X14413750Y-5938250D01*
X14340250Y-5864750D01*
X14266750Y-5938250D01*
X14340250Y-6011750D01*
X14340250Y-7921750D02*
X14413750Y-7848250D01*
X14340250Y-7774750D01*
X14266750Y-7848250D01*
X14340250Y-7921750D01*
X14340250Y-9831750D02*
X14413750Y-9758250D01*
X14340250Y-9684750D01*
X14266750Y-9758250D01*
X14340250Y-9831750D01*
X14340250Y-11741750D02*
X14413750Y-11668250D01*
X14340250Y-11594750D01*
X14266750Y-11668250D01*
X14340250Y-11741750D01*
X14660250Y-10085750D02*
X14733750Y-10012250D01*
X14660250Y-9938750D01*
X14586750Y-10012250D01*
X14660250Y-10085750D01*
X14660250Y-11995750D02*
X14733750Y-11922250D01*
X14660250Y-11848750D01*
X14586750Y-11922250D01*
X14660250Y-11995750D01*
X14791250Y-9939750D02*
X14864750Y-9866250D01*
X14791250Y-9792750D01*
X14717750Y-9866250D01*
X14791250Y-9939750D01*
X14791250Y-11849750D02*
X14864750Y-11776250D01*
X14791250Y-11702750D01*
X14717750Y-11776250D01*
X14791250Y-11849750D01*
X15291250Y-9889750D02*
X15364750Y-9816250D01*
X15291250Y-9742750D01*
X15217750Y-9816250D01*
X15291250Y-9889750D01*
X15291250Y-11799750D02*
X15364750Y-11726250D01*
X15291250Y-11652750D01*
X15217750Y-11726250D01*
X15291250Y-11799750D01*
X15295250Y-9831750D02*
X15368750Y-9758250D01*
X15295250Y-9684750D01*
X15221750Y-9758250D01*
X15295250Y-9831750D01*
X15295250Y-11741750D02*
X15368750Y-11668250D01*
X15295250Y-11594750D01*
X15221750Y-11668250D01*
X15295250Y-11741750D01*
X15615250Y-4355750D02*
X15688750Y-4282250D01*
X15615250Y-4208750D01*
X15541750Y-4282250D01*
X15615250Y-4355750D01*
X15615250Y-6265750D02*
X15688750Y-6192250D01*
X15615250Y-6118750D01*
X15541750Y-6192250D01*
X15615250Y-6265750D01*
X15615250Y-8175750D02*
X15688750Y-8102250D01*
X15615250Y-8028750D01*
X15541750Y-8102250D01*
X15615250Y-8175750D01*
X15615250Y-10085750D02*
X15688750Y-10012250D01*
X15615250Y-9938750D01*
X15541750Y-10012250D01*
X15615250Y-10085750D01*
X15615250Y-11995750D02*
X15688750Y-11922250D01*
X15615250Y-11848750D01*
X15541750Y-11922250D01*
X15615250Y-11995750D01*
X15746250Y-4209750D02*
X15819750Y-4136250D01*
X15746250Y-4062750D01*
X15672750Y-4136250D01*
X15746250Y-4209750D01*
X15746250Y-6119750D02*
X15819750Y-6046250D01*
X15746250Y-5972750D01*
X15672750Y-6046250D01*
X15746250Y-6119750D01*
X15746250Y-8029750D02*
X15819750Y-7956250D01*
X15746250Y-7882750D01*
X15672750Y-7956250D01*
X15746250Y-8029750D01*
X15746250Y-9939750D02*
X15819750Y-9866250D01*
X15746250Y-9792750D01*
X15672750Y-9866250D01*
X15746250Y-9939750D01*
X15746250Y-11849750D02*
X15819750Y-11776250D01*
X15746250Y-11702750D01*
X15672750Y-11776250D01*
X15746250Y-11849750D01*
X16246250Y-4159750D02*
X16319750Y-4086250D01*
X16246250Y-4012750D01*
X16172750Y-4086250D01*
X16246250Y-4159750D01*
X16246250Y-6069750D02*
X16319750Y-5996250D01*
X16246250Y-5922750D01*
X16172750Y-5996250D01*
X16246250Y-6069750D01*
X16246250Y-7979750D02*
X16319750Y-7906250D01*
X16246250Y-7832750D01*
X16172750Y-7906250D01*
X16246250Y-7979750D01*
X16246250Y-9889750D02*
X16319750Y-9816250D01*
X16246250Y-9742750D01*
X16172750Y-9816250D01*
X16246250Y-9889750D01*
X16246250Y-11799750D02*
X16319750Y-11726250D01*
X16246250Y-11652750D01*
X16172750Y-11726250D01*
X16246250Y-11799750D01*
X16250250Y-4101750D02*
X16323750Y-4028250D01*
X16250250Y-3954750D01*
X16176750Y-4028250D01*
X16250250Y-4101750D01*
X16250250Y-6011750D02*
X16323750Y-5938250D01*
X16250250Y-5864750D01*
X16176750Y-5938250D01*
X16250250Y-6011750D01*
X16250250Y-7921750D02*
X16323750Y-7848250D01*
X16250250Y-7774750D01*
X16176750Y-7848250D01*
X16250250Y-7921750D01*
X16250250Y-9831750D02*
X16323750Y-9758250D01*
X16250250Y-9684750D01*
X16176750Y-9758250D01*
X16250250Y-9831750D01*
X16250250Y-11741750D02*
X16323750Y-11668250D01*
X16250250Y-11594750D01*
X16176750Y-11668250D01*
X16250250Y-11741750D01*
X16570250Y-10085750D02*
X16643750Y-10012250D01*
X16570250Y-9938750D01*
X16496750Y-10012250D01*
X16570250Y-10085750D01*
X16570250Y-11995750D02*
X16643750Y-11922250D01*
X16570250Y-11848750D01*
X16496750Y-11922250D01*
X16570250Y-11995750D01*
X16701250Y-9939750D02*
X16774750Y-9866250D01*
X16701250Y-9792750D01*
X16627750Y-9866250D01*
X16701250Y-9939750D01*
X16701250Y-11849750D02*
X16774750Y-11776250D01*
X16701250Y-11702750D01*
X16627750Y-11776250D01*
X16701250Y-11849750D01*
X17201250Y-9889750D02*
X17274750Y-9816250D01*
X17201250Y-9742750D01*
X17127750Y-9816250D01*
X17201250Y-9889750D01*
X17201250Y-11799750D02*
X17274750Y-11726250D01*
X17201250Y-11652750D01*
X17127750Y-11726250D01*
X17201250Y-11799750D01*
X17205250Y-9831750D02*
X17278750Y-9758250D01*
X17205250Y-9684750D01*
X17131750Y-9758250D01*
X17205250Y-9831750D01*
X17205250Y-11741750D02*
X17278750Y-11668250D01*
X17205250Y-11594750D01*
X17131750Y-11668250D01*
X17205250Y-11741750D01*
X17525250Y-4355750D02*
X17598750Y-4282250D01*
X17525250Y-4208750D01*
X17451750Y-4282250D01*
X17525250Y-4355750D01*
X17525250Y-6265750D02*
X17598750Y-6192250D01*
X17525250Y-6118750D01*
X17451750Y-6192250D01*
X17525250Y-6265750D01*
X17525250Y-8175750D02*
X17598750Y-8102250D01*
X17525250Y-8028750D01*
X17451750Y-8102250D01*
X17525250Y-8175750D01*
X17525250Y-10085750D02*
X17598750Y-10012250D01*
X17525250Y-9938750D01*
X17451750Y-10012250D01*
X17525250Y-10085750D01*
X17525250Y-11995750D02*
X17598750Y-11922250D01*
X17525250Y-11848750D01*
X17451750Y-11922250D01*
X17525250Y-11995750D01*
X17656250Y-4209750D02*
X17729750Y-4136250D01*
X17656250Y-4062750D01*
X17582750Y-4136250D01*
X17656250Y-4209750D01*
X17656250Y-6119750D02*
X17729750Y-6046250D01*
X17656250Y-5972750D01*
X17582750Y-6046250D01*
X17656250Y-6119750D01*
X17656250Y-8029750D02*
X17729750Y-7956250D01*
X17656250Y-7882750D01*
X17582750Y-7956250D01*
X17656250Y-8029750D01*
X17656250Y-9939750D02*
X17729750Y-9866250D01*
X17656250Y-9792750D01*
X17582750Y-9866250D01*
X17656250Y-9939750D01*
X17656250Y-11849750D02*
X17729750Y-11776250D01*
X17656250Y-11702750D01*
X17582750Y-11776250D01*
X17656250Y-11849750D01*
X18156250Y-4159750D02*
X18229750Y-4086250D01*
X18156250Y-4012750D01*
X18082750Y-4086250D01*
X18156250Y-4159750D01*
X18156250Y-6069750D02*
X18229750Y-5996250D01*
X18156250Y-5922750D01*
X18082750Y-5996250D01*
X18156250Y-6069750D01*
X18156250Y-7979750D02*
X18229750Y-7906250D01*
X18156250Y-7832750D01*
X18082750Y-7906250D01*
X18156250Y-7979750D01*
X18156250Y-9889750D02*
X18229750Y-9816250D01*
X18156250Y-9742750D01*
X18082750Y-9816250D01*
X18156250Y-9889750D01*
X18156250Y-11799750D02*
X18229750Y-11726250D01*
X18156250Y-11652750D01*
X18082750Y-11726250D01*
X18156250Y-11799750D01*
X18160250Y-4101750D02*
X18233750Y-4028250D01*
X18160250Y-3954750D01*
X18086750Y-4028250D01*
X18160250Y-4101750D01*
X18160250Y-6011750D02*
X18233750Y-5938250D01*
X18160250Y-5864750D01*
X18086750Y-5938250D01*
X18160250Y-6011750D01*
X18160250Y-7921750D02*
X18233750Y-7848250D01*
X18160250Y-7774750D01*
X18086750Y-7848250D01*
X18160250Y-7921750D01*
X18160250Y-9831750D02*
X18233750Y-9758250D01*
X18160250Y-9684750D01*
X18086750Y-9758250D01*
X18160250Y-9831750D01*
X18160250Y-11741750D02*
X18233750Y-11668250D01*
X18160250Y-11594750D01*
X18086750Y-11668250D01*
X18160250Y-11741750D01*
X19435250Y-4355750D02*
X19508750Y-4282250D01*
X19435250Y-4208750D01*
X19361750Y-4282250D01*
X19435250Y-4355750D01*
X19435250Y-6265750D02*
X19508750Y-6192250D01*
X19435250Y-6118750D01*
X19361750Y-6192250D01*
X19435250Y-6265750D01*
X19435250Y-8175750D02*
X19508750Y-8102250D01*
X19435250Y-8028750D01*
X19361750Y-8102250D01*
X19435250Y-8175750D01*
X19435250Y-10085750D02*
X19508750Y-10012250D01*
X19435250Y-9938750D01*
X19361750Y-10012250D01*
X19435250Y-10085750D01*
X19435250Y-11995750D02*
X19508750Y-11922250D01*
X19435250Y-11848750D01*
X19361750Y-11922250D01*
X19435250Y-11995750D01*
X19566250Y-4209750D02*
X19639750Y-4136250D01*
X19566250Y-4062750D01*
X19492750Y-4136250D01*
X19566250Y-4209750D01*
X19566250Y-6119750D02*
X19639750Y-6046250D01*
X19566250Y-5972750D01*
X19492750Y-6046250D01*
X19566250Y-6119750D01*
X19566250Y-8029750D02*
X19639750Y-7956250D01*
X19566250Y-7882750D01*
X19492750Y-7956250D01*
X19566250Y-8029750D01*
X19566250Y-9939750D02*
X19639750Y-9866250D01*
X19566250Y-9792750D01*
X19492750Y-9866250D01*
X19566250Y-9939750D01*
X19566250Y-11849750D02*
X19639750Y-11776250D01*
X19566250Y-11702750D01*
X19492750Y-11776250D01*
X19566250Y-11849750D01*
X20066250Y-4159750D02*
X20139750Y-4086250D01*
X20066250Y-4012750D01*
X19992750Y-4086250D01*
X20066250Y-4159750D01*
X20066250Y-6069750D02*
X20139750Y-5996250D01*
X20066250Y-5922750D01*
X19992750Y-5996250D01*
X20066250Y-6069750D01*
X20066250Y-7979750D02*
X20139750Y-7906250D01*
X20066250Y-7832750D01*
X19992750Y-7906250D01*
X20066250Y-7979750D01*
X20066250Y-9889750D02*
X20139750Y-9816250D01*
X20066250Y-9742750D01*
X19992750Y-9816250D01*
X20066250Y-9889750D01*
X20066250Y-11799750D02*
X20139750Y-11726250D01*
X20066250Y-11652750D01*
X19992750Y-11726250D01*
X20066250Y-11799750D01*
X20070250Y-4101750D02*
X20143750Y-4028250D01*
X20070250Y-3954750D01*
X19996750Y-4028250D01*
X20070250Y-4101750D01*
X20070250Y-6011750D02*
X20143750Y-5938250D01*
X20070250Y-5864750D01*
X19996750Y-5938250D01*
X20070250Y-6011750D01*
X20070250Y-7921750D02*
X20143750Y-7848250D01*
X20070250Y-7774750D01*
X19996750Y-7848250D01*
X20070250Y-7921750D01*
X20070250Y-9831750D02*
X20143750Y-9758250D01*
X20070250Y-9684750D01*
X19996750Y-9758250D01*
X20070250Y-9831750D01*
X20070250Y-11741750D02*
X20143750Y-11668250D01*
X20070250Y-11594750D01*
X19996750Y-11668250D01*
X20070250Y-11741750D01*
X21345250Y-4355750D02*
X21418750Y-4282250D01*
X21345250Y-4208750D01*
X21271750Y-4282250D01*
X21345250Y-4355750D01*
X21345250Y-6265750D02*
X21418750Y-6192250D01*
X21345250Y-6118750D01*
X21271750Y-6192250D01*
X21345250Y-6265750D01*
X21345250Y-8175750D02*
X21418750Y-8102250D01*
X21345250Y-8028750D01*
X21271750Y-8102250D01*
X21345250Y-8175750D01*
X21345250Y-10085750D02*
X21418750Y-10012250D01*
X21345250Y-9938750D01*
X21271750Y-10012250D01*
X21345250Y-10085750D01*
X21345250Y-11995750D02*
X21418750Y-11922250D01*
X21345250Y-11848750D01*
X21271750Y-11922250D01*
X21345250Y-11995750D01*
X21476250Y-4209750D02*
X21549750Y-4136250D01*
X21476250Y-4062750D01*
X21402750Y-4136250D01*
X21476250Y-4209750D01*
X21476250Y-6119750D02*
X21549750Y-6046250D01*
X21476250Y-5972750D01*
X21402750Y-6046250D01*
X21476250Y-6119750D01*
X21476250Y-8029750D02*
X21549750Y-7956250D01*
X21476250Y-7882750D01*
X21402750Y-7956250D01*
X21476250Y-8029750D01*
X21476250Y-9939750D02*
X21549750Y-9866250D01*
X21476250Y-9792750D01*
X21402750Y-9866250D01*
X21476250Y-9939750D01*
X21476250Y-11849750D02*
X21549750Y-11776250D01*
X21476250Y-11702750D01*
X21402750Y-11776250D01*
X21476250Y-11849750D01*
X21976250Y-4159750D02*
X22049750Y-4086250D01*
X21976250Y-4012750D01*
X21902750Y-4086250D01*
X21976250Y-4159750D01*
X21976250Y-6069750D02*
X22049750Y-5996250D01*
X21976250Y-5922750D01*
X21902750Y-5996250D01*
X21976250Y-6069750D01*
X21976250Y-7979750D02*
X22049750Y-7906250D01*
X21976250Y-7832750D01*
X21902750Y-7906250D01*
X21976250Y-7979750D01*
X21976250Y-9889750D02*
X22049750Y-9816250D01*
X21976250Y-9742750D01*
X21902750Y-9816250D01*
X21976250Y-9889750D01*
X21976250Y-11799750D02*
X22049750Y-11726250D01*
X21976250Y-11652750D01*
X21902750Y-11726250D01*
X21976250Y-11799750D01*
X21980250Y-4101750D02*
X22053750Y-4028250D01*
X21980250Y-3954750D01*
X21906750Y-4028250D01*
X21980250Y-4101750D01*
X21980250Y-6011750D02*
X22053750Y-5938250D01*
X21980250Y-5864750D01*
X21906750Y-5938250D01*
X21980250Y-6011750D01*
X21980250Y-7921750D02*
X22053750Y-7848250D01*
X21980250Y-7774750D01*
X21906750Y-7848250D01*
X21980250Y-7921750D01*
X21980250Y-9831750D02*
X22053750Y-9758250D01*
X21980250Y-9684750D01*
X21906750Y-9758250D01*
X21980250Y-9831750D01*
X21980250Y-11741750D02*
X22053750Y-11668250D01*
X21980250Y-11594750D01*
X21906750Y-11668250D01*
X21980250Y-11741750D01*
X23255250Y-4355750D02*
X23328750Y-4282250D01*
X23255250Y-4208750D01*
X23181750Y-4282250D01*
X23255250Y-4355750D01*
X23255250Y-6265750D02*
X23328750Y-6192250D01*
X23255250Y-6118750D01*
X23181750Y-6192250D01*
X23255250Y-6265750D01*
X23255250Y-8175750D02*
X23328750Y-8102250D01*
X23255250Y-8028750D01*
X23181750Y-8102250D01*
X23255250Y-8175750D01*
X23255250Y-10085750D02*
X23328750Y-10012250D01*
X23255250Y-9938750D01*
X23181750Y-10012250D01*
X23255250Y-10085750D01*
X23255250Y-11995750D02*
X23328750Y-11922250D01*
X23255250Y-11848750D01*
X23181750Y-11922250D01*
X23255250Y-11995750D01*
X23386250Y-4209750D02*
X23459750Y-4136250D01*
X23386250Y-4062750D01*
X23312750Y-4136250D01*
X23386250Y-4209750D01*
X23386250Y-6119750D02*
X23459750Y-6046250D01*
X23386250Y-5972750D01*
X23312750Y-6046250D01*
X23386250Y-6119750D01*
X23386250Y-8029750D02*
X23459750Y-7956250D01*
X23386250Y-7882750D01*
X23312750Y-7956250D01*
X23386250Y-8029750D01*
X23386250Y-9939750D02*
X23459750Y-9866250D01*
X23386250Y-9792750D01*
X23312750Y-9866250D01*
X23386250Y-9939750D01*
X23386250Y-11849750D02*
X23459750Y-11776250D01*
X23386250Y-11702750D01*
X23312750Y-11776250D01*
X23386250Y-11849750D01*
X23886250Y-4159750D02*
X23959750Y-4086250D01*
X23886250Y-4012750D01*
X23812750Y-4086250D01*
X23886250Y-4159750D01*
X23886250Y-6069750D02*
X23959750Y-5996250D01*
X23886250Y-5922750D01*
X23812750Y-5996250D01*
X23886250Y-6069750D01*
X23886250Y-7979750D02*
X23959750Y-7906250D01*
X23886250Y-7832750D01*
X23812750Y-7906250D01*
X23886250Y-7979750D01*
X23886250Y-9889750D02*
X23959750Y-9816250D01*
X23886250Y-9742750D01*
X23812750Y-9816250D01*
X23886250Y-9889750D01*
X23886250Y-11799750D02*
X23959750Y-11726250D01*
X23886250Y-11652750D01*
X23812750Y-11726250D01*
X23886250Y-11799750D01*
X23890250Y-4101750D02*
X23963750Y-4028250D01*
X23890250Y-3954750D01*
X23816750Y-4028250D01*
X23890250Y-4101750D01*
X23890250Y-6011750D02*
X23963750Y-5938250D01*
X23890250Y-5864750D01*
X23816750Y-5938250D01*
X23890250Y-6011750D01*
X23890250Y-7921750D02*
X23963750Y-7848250D01*
X23890250Y-7774750D01*
X23816750Y-7848250D01*
X23890250Y-7921750D01*
X23890250Y-9831750D02*
X23963750Y-9758250D01*
X23890250Y-9684750D01*
X23816750Y-9758250D01*
X23890250Y-9831750D01*
X23890250Y-11741750D02*
X23963750Y-11668250D01*
X23890250Y-11594750D01*
X23816750Y-11668250D01*
X23890250Y-11741750D01*
X25165250Y-4355750D02*
X25238750Y-4282250D01*
X25165250Y-4208750D01*
X25091750Y-4282250D01*
X25165250Y-4355750D01*
X25165250Y-6265750D02*
X25238750Y-6192250D01*
X25165250Y-6118750D01*
X25091750Y-6192250D01*
X25165250Y-6265750D01*
X25165250Y-8175750D02*
X25238750Y-8102250D01*
X25165250Y-8028750D01*
X25091750Y-8102250D01*
X25165250Y-8175750D01*
X25165250Y-10085750D02*
X25238750Y-10012250D01*
X25165250Y-9938750D01*
X25091750Y-10012250D01*
X25165250Y-10085750D01*
X25165250Y-11995750D02*
X25238750Y-11922250D01*
X25165250Y-11848750D01*
X25091750Y-11922250D01*
X25165250Y-11995750D01*
X25296250Y-4209750D02*
X25369750Y-4136250D01*
X25296250Y-4062750D01*
X25222750Y-4136250D01*
X25296250Y-4209750D01*
X25296250Y-6119750D02*
X25369750Y-6046250D01*
X25296250Y-5972750D01*
X25222750Y-6046250D01*
X25296250Y-6119750D01*
X25296250Y-8029750D02*
X25369750Y-7956250D01*
X25296250Y-7882750D01*
X25222750Y-7956250D01*
X25296250Y-8029750D01*
X25296250Y-9939750D02*
X25369750Y-9866250D01*
X25296250Y-9792750D01*
X25222750Y-9866250D01*
X25296250Y-9939750D01*
X25296250Y-11849750D02*
X25369750Y-11776250D01*
X25296250Y-11702750D01*
X25222750Y-11776250D01*
X25296250Y-11849750D01*
X25796250Y-4159750D02*
X25869750Y-4086250D01*
X25796250Y-4012750D01*
X25722750Y-4086250D01*
X25796250Y-4159750D01*
X25796250Y-6069750D02*
X25869750Y-5996250D01*
X25796250Y-5922750D01*
X25722750Y-5996250D01*
X25796250Y-6069750D01*
X25796250Y-7979750D02*
X25869750Y-7906250D01*
X25796250Y-7832750D01*
X25722750Y-7906250D01*
X25796250Y-7979750D01*
X25796250Y-9889750D02*
X25869750Y-9816250D01*
X25796250Y-9742750D01*
X25722750Y-9816250D01*
X25796250Y-9889750D01*
X25796250Y-11799750D02*
X25869750Y-11726250D01*
X25796250Y-11652750D01*
X25722750Y-11726250D01*
X25796250Y-11799750D01*
X25800250Y-4101750D02*
X25873750Y-4028250D01*
X25800250Y-3954750D01*
X25726750Y-4028250D01*
X25800250Y-4101750D01*
X25800250Y-6011750D02*
X25873750Y-5938250D01*
X25800250Y-5864750D01*
X25726750Y-5938250D01*
X25800250Y-6011750D01*
X25800250Y-7921750D02*
X25873750Y-7848250D01*
X25800250Y-7774750D01*
X25726750Y-7848250D01*
X25800250Y-7921750D01*
X25800250Y-9831750D02*
X25873750Y-9758250D01*
X25800250Y-9684750D01*
X25726750Y-9758250D01*
X25800250Y-9831750D01*
X25800250Y-11741750D02*
X25873750Y-11668250D01*
X25800250Y-11594750D01*
X25726750Y-11668250D01*
X25800250Y-11741750D01*
D11*
X3823869Y-13448774D02*
X3823869Y-13248774D01*
X3823869Y-13248774D02*
X3871488Y-13248774D01*
X3871488Y-13248774D02*
X3900059Y-13258298D01*
X3900059Y-13258298D02*
X3919107Y-13277345D01*
X3919107Y-13277345D02*
X3928631Y-13296393D01*
X3928631Y-13296393D02*
X3938155Y-13334488D01*
X3938155Y-13334488D02*
X3938155Y-13363059D01*
X3938155Y-13363059D02*
X3928631Y-13401155D01*
X3928631Y-13401155D02*
X3919107Y-13420202D01*
X3919107Y-13420202D02*
X3900059Y-13439250D01*
X3900059Y-13439250D02*
X3871488Y-13448774D01*
X3871488Y-13448774D02*
X3823869Y-13448774D01*
X4023869Y-13448774D02*
X4023869Y-13315440D01*
X4023869Y-13353536D02*
X4033393Y-13334488D01*
X4033393Y-13334488D02*
X4042917Y-13324964D01*
X4042917Y-13324964D02*
X4061964Y-13315440D01*
X4061964Y-13315440D02*
X4081012Y-13315440D01*
X4147678Y-13448774D02*
X4147678Y-13315440D01*
X4147678Y-13248774D02*
X4138155Y-13258298D01*
X4138155Y-13258298D02*
X4147678Y-13267821D01*
X4147678Y-13267821D02*
X4157202Y-13258298D01*
X4157202Y-13258298D02*
X4147678Y-13248774D01*
X4147678Y-13248774D02*
X4147678Y-13267821D01*
X4271488Y-13448774D02*
X4252440Y-13439250D01*
X4252440Y-13439250D02*
X4242917Y-13420202D01*
X4242917Y-13420202D02*
X4242917Y-13248774D01*
X4376250Y-13448774D02*
X4357202Y-13439250D01*
X4357202Y-13439250D02*
X4347679Y-13420202D01*
X4347679Y-13420202D02*
X4347679Y-13248774D01*
X4604821Y-13448774D02*
X4604821Y-13248774D01*
X4604821Y-13248774D02*
X4671488Y-13391631D01*
X4671488Y-13391631D02*
X4738155Y-13248774D01*
X4738155Y-13248774D02*
X4738155Y-13448774D01*
X4919107Y-13448774D02*
X4919107Y-13344012D01*
X4919107Y-13344012D02*
X4909583Y-13324964D01*
X4909583Y-13324964D02*
X4890536Y-13315440D01*
X4890536Y-13315440D02*
X4852440Y-13315440D01*
X4852440Y-13315440D02*
X4833393Y-13324964D01*
X4919107Y-13439250D02*
X4900060Y-13448774D01*
X4900060Y-13448774D02*
X4852440Y-13448774D01*
X4852440Y-13448774D02*
X4833393Y-13439250D01*
X4833393Y-13439250D02*
X4823869Y-13420202D01*
X4823869Y-13420202D02*
X4823869Y-13401155D01*
X4823869Y-13401155D02*
X4833393Y-13382107D01*
X4833393Y-13382107D02*
X4852440Y-13372583D01*
X4852440Y-13372583D02*
X4900060Y-13372583D01*
X4900060Y-13372583D02*
X4919107Y-13363059D01*
X5014345Y-13315440D02*
X5014345Y-13515440D01*
X5014345Y-13324964D02*
X5033393Y-13315440D01*
X5033393Y-13315440D02*
X5071488Y-13315440D01*
X5071488Y-13315440D02*
X5090536Y-13324964D01*
X5090536Y-13324964D02*
X5100060Y-13334488D01*
X5100060Y-13334488D02*
X5109583Y-13353536D01*
X5109583Y-13353536D02*
X5109583Y-13410678D01*
X5109583Y-13410678D02*
X5100060Y-13429726D01*
X5100060Y-13429726D02*
X5090536Y-13439250D01*
X5090536Y-13439250D02*
X5071488Y-13448774D01*
X5071488Y-13448774D02*
X5033393Y-13448774D01*
X5033393Y-13448774D02*
X5014345Y-13439250D01*
X5195298Y-13429726D02*
X5204821Y-13439250D01*
X5204821Y-13439250D02*
X5195298Y-13448774D01*
X5195298Y-13448774D02*
X5185774Y-13439250D01*
X5185774Y-13439250D02*
X5195298Y-13429726D01*
X5195298Y-13429726D02*
X5195298Y-13448774D01*
X5195298Y-13324964D02*
X5204821Y-13334488D01*
X5204821Y-13334488D02*
X5195298Y-13344012D01*
X5195298Y-13344012D02*
X5185774Y-13334488D01*
X5185774Y-13334488D02*
X5195298Y-13324964D01*
X5195298Y-13324964D02*
X5195298Y-13344012D01*
D12*
X3536250Y-13756250D02*
X3576250Y-13796250D01*
X3576250Y-13756250D02*
X3536250Y-13796250D01*
D11*
X3861964Y-13668774D02*
X3881012Y-13668774D01*
X3881012Y-13668774D02*
X3900059Y-13678298D01*
X3900059Y-13678298D02*
X3909583Y-13687821D01*
X3909583Y-13687821D02*
X3919107Y-13706869D01*
X3919107Y-13706869D02*
X3928631Y-13744964D01*
X3928631Y-13744964D02*
X3928631Y-13792583D01*
X3928631Y-13792583D02*
X3919107Y-13830678D01*
X3919107Y-13830678D02*
X3909583Y-13849726D01*
X3909583Y-13849726D02*
X3900059Y-13859250D01*
X3900059Y-13859250D02*
X3881012Y-13868774D01*
X3881012Y-13868774D02*
X3861964Y-13868774D01*
X3861964Y-13868774D02*
X3842917Y-13859250D01*
X3842917Y-13859250D02*
X3833393Y-13849726D01*
X3833393Y-13849726D02*
X3823869Y-13830678D01*
X3823869Y-13830678D02*
X3814345Y-13792583D01*
X3814345Y-13792583D02*
X3814345Y-13744964D01*
X3814345Y-13744964D02*
X3823869Y-13706869D01*
X3823869Y-13706869D02*
X3833393Y-13687821D01*
X3833393Y-13687821D02*
X3842917Y-13678298D01*
X3842917Y-13678298D02*
X3861964Y-13668774D01*
X4014345Y-13849726D02*
X4023869Y-13859250D01*
X4023869Y-13859250D02*
X4014345Y-13868774D01*
X4014345Y-13868774D02*
X4004821Y-13859250D01*
X4004821Y-13859250D02*
X4014345Y-13849726D01*
X4014345Y-13849726D02*
X4014345Y-13868774D01*
X4195298Y-13735440D02*
X4195298Y-13868774D01*
X4147678Y-13659250D02*
X4100059Y-13802107D01*
X4100059Y-13802107D02*
X4223869Y-13802107D01*
X4338155Y-13668774D02*
X4357202Y-13668774D01*
X4357202Y-13668774D02*
X4376250Y-13678298D01*
X4376250Y-13678298D02*
X4385774Y-13687821D01*
X4385774Y-13687821D02*
X4395298Y-13706869D01*
X4395298Y-13706869D02*
X4404821Y-13744964D01*
X4404821Y-13744964D02*
X4404821Y-13792583D01*
X4404821Y-13792583D02*
X4395298Y-13830678D01*
X4395298Y-13830678D02*
X4385774Y-13849726D01*
X4385774Y-13849726D02*
X4376250Y-13859250D01*
X4376250Y-13859250D02*
X4357202Y-13868774D01*
X4357202Y-13868774D02*
X4338155Y-13868774D01*
X4338155Y-13868774D02*
X4319107Y-13859250D01*
X4319107Y-13859250D02*
X4309583Y-13849726D01*
X4309583Y-13849726D02*
X4300060Y-13830678D01*
X4300060Y-13830678D02*
X4290536Y-13792583D01*
X4290536Y-13792583D02*
X4290536Y-13744964D01*
X4290536Y-13744964D02*
X4300060Y-13706869D01*
X4300060Y-13706869D02*
X4309583Y-13687821D01*
X4309583Y-13687821D02*
X4319107Y-13678298D01*
X4319107Y-13678298D02*
X4338155Y-13668774D01*
X4528631Y-13668774D02*
X4547679Y-13668774D01*
X4547679Y-13668774D02*
X4566726Y-13678298D01*
X4566726Y-13678298D02*
X4576250Y-13687821D01*
X4576250Y-13687821D02*
X4585774Y-13706869D01*
X4585774Y-13706869D02*
X4595298Y-13744964D01*
X4595298Y-13744964D02*
X4595298Y-13792583D01*
X4595298Y-13792583D02*
X4585774Y-13830678D01*
X4585774Y-13830678D02*
X4576250Y-13849726D01*
X4576250Y-13849726D02*
X4566726Y-13859250D01*
X4566726Y-13859250D02*
X4547679Y-13868774D01*
X4547679Y-13868774D02*
X4528631Y-13868774D01*
X4528631Y-13868774D02*
X4509583Y-13859250D01*
X4509583Y-13859250D02*
X4500060Y-13849726D01*
X4500060Y-13849726D02*
X4490536Y-13830678D01*
X4490536Y-13830678D02*
X4481012Y-13792583D01*
X4481012Y-13792583D02*
X4481012Y-13744964D01*
X4481012Y-13744964D02*
X4490536Y-13706869D01*
X4490536Y-13706869D02*
X4500060Y-13687821D01*
X4500060Y-13687821D02*
X4509583Y-13678298D01*
X4509583Y-13678298D02*
X4528631Y-13668774D01*
X4681012Y-13868774D02*
X4681012Y-13735440D01*
X4681012Y-13754488D02*
X4690536Y-13744964D01*
X4690536Y-13744964D02*
X4709583Y-13735440D01*
X4709583Y-13735440D02*
X4738155Y-13735440D01*
X4738155Y-13735440D02*
X4757202Y-13744964D01*
X4757202Y-13744964D02*
X4766726Y-13764012D01*
X4766726Y-13764012D02*
X4766726Y-13868774D01*
X4766726Y-13764012D02*
X4776250Y-13744964D01*
X4776250Y-13744964D02*
X4795298Y-13735440D01*
X4795298Y-13735440D02*
X4823869Y-13735440D01*
X4823869Y-13735440D02*
X4842917Y-13744964D01*
X4842917Y-13744964D02*
X4852441Y-13764012D01*
X4852441Y-13764012D02*
X4852441Y-13868774D01*
X4947679Y-13868774D02*
X4947679Y-13735440D01*
X4947679Y-13754488D02*
X4957202Y-13744964D01*
X4957202Y-13744964D02*
X4976250Y-13735440D01*
X4976250Y-13735440D02*
X5004822Y-13735440D01*
X5004822Y-13735440D02*
X5023869Y-13744964D01*
X5023869Y-13744964D02*
X5033393Y-13764012D01*
X5033393Y-13764012D02*
X5033393Y-13868774D01*
X5033393Y-13764012D02*
X5042917Y-13744964D01*
X5042917Y-13744964D02*
X5061964Y-13735440D01*
X5061964Y-13735440D02*
X5090536Y-13735440D01*
X5090536Y-13735440D02*
X5109583Y-13744964D01*
X5109583Y-13744964D02*
X5119107Y-13764012D01*
X5119107Y-13764012D02*
X5119107Y-13868774D01*
X5509583Y-13659250D02*
X5338155Y-13916393D01*
X5766726Y-13668774D02*
X5785774Y-13668774D01*
X5785774Y-13668774D02*
X5804822Y-13678298D01*
X5804822Y-13678298D02*
X5814345Y-13687821D01*
X5814345Y-13687821D02*
X5823869Y-13706869D01*
X5823869Y-13706869D02*
X5833393Y-13744964D01*
X5833393Y-13744964D02*
X5833393Y-13792583D01*
X5833393Y-13792583D02*
X5823869Y-13830678D01*
X5823869Y-13830678D02*
X5814345Y-13849726D01*
X5814345Y-13849726D02*
X5804822Y-13859250D01*
X5804822Y-13859250D02*
X5785774Y-13868774D01*
X5785774Y-13868774D02*
X5766726Y-13868774D01*
X5766726Y-13868774D02*
X5747679Y-13859250D01*
X5747679Y-13859250D02*
X5738155Y-13849726D01*
X5738155Y-13849726D02*
X5728631Y-13830678D01*
X5728631Y-13830678D02*
X5719107Y-13792583D01*
X5719107Y-13792583D02*
X5719107Y-13744964D01*
X5719107Y-13744964D02*
X5728631Y-13706869D01*
X5728631Y-13706869D02*
X5738155Y-13687821D01*
X5738155Y-13687821D02*
X5747679Y-13678298D01*
X5747679Y-13678298D02*
X5766726Y-13668774D01*
X5919107Y-13849726D02*
X5928631Y-13859250D01*
X5928631Y-13859250D02*
X5919107Y-13868774D01*
X5919107Y-13868774D02*
X5909583Y-13859250D01*
X5909583Y-13859250D02*
X5919107Y-13849726D01*
X5919107Y-13849726D02*
X5919107Y-13868774D01*
X6052441Y-13668774D02*
X6071488Y-13668774D01*
X6071488Y-13668774D02*
X6090536Y-13678298D01*
X6090536Y-13678298D02*
X6100060Y-13687821D01*
X6100060Y-13687821D02*
X6109583Y-13706869D01*
X6109583Y-13706869D02*
X6119107Y-13744964D01*
X6119107Y-13744964D02*
X6119107Y-13792583D01*
X6119107Y-13792583D02*
X6109583Y-13830678D01*
X6109583Y-13830678D02*
X6100060Y-13849726D01*
X6100060Y-13849726D02*
X6090536Y-13859250D01*
X6090536Y-13859250D02*
X6071488Y-13868774D01*
X6071488Y-13868774D02*
X6052441Y-13868774D01*
X6052441Y-13868774D02*
X6033393Y-13859250D01*
X6033393Y-13859250D02*
X6023869Y-13849726D01*
X6023869Y-13849726D02*
X6014345Y-13830678D01*
X6014345Y-13830678D02*
X6004822Y-13792583D01*
X6004822Y-13792583D02*
X6004822Y-13744964D01*
X6004822Y-13744964D02*
X6014345Y-13706869D01*
X6014345Y-13706869D02*
X6023869Y-13687821D01*
X6023869Y-13687821D02*
X6033393Y-13678298D01*
X6033393Y-13678298D02*
X6052441Y-13668774D01*
X6309583Y-13868774D02*
X6195298Y-13868774D01*
X6252441Y-13868774D02*
X6252441Y-13668774D01*
X6252441Y-13668774D02*
X6233393Y-13697345D01*
X6233393Y-13697345D02*
X6214345Y-13716393D01*
X6214345Y-13716393D02*
X6195298Y-13725917D01*
X6490536Y-13668774D02*
X6395298Y-13668774D01*
X6395298Y-13668774D02*
X6385774Y-13764012D01*
X6385774Y-13764012D02*
X6395298Y-13754488D01*
X6395298Y-13754488D02*
X6414345Y-13744964D01*
X6414345Y-13744964D02*
X6461964Y-13744964D01*
X6461964Y-13744964D02*
X6481012Y-13754488D01*
X6481012Y-13754488D02*
X6490536Y-13764012D01*
X6490536Y-13764012D02*
X6500060Y-13783059D01*
X6500060Y-13783059D02*
X6500060Y-13830678D01*
X6500060Y-13830678D02*
X6490536Y-13849726D01*
X6490536Y-13849726D02*
X6481012Y-13859250D01*
X6481012Y-13859250D02*
X6461964Y-13868774D01*
X6461964Y-13868774D02*
X6414345Y-13868774D01*
X6414345Y-13868774D02*
X6395298Y-13859250D01*
X6395298Y-13859250D02*
X6385774Y-13849726D01*
X6566726Y-13668774D02*
X6700060Y-13668774D01*
X6700060Y-13668774D02*
X6614345Y-13868774D01*
X6766726Y-13668774D02*
X6766726Y-13706869D01*
X6842917Y-13668774D02*
X6842917Y-13706869D01*
X7138155Y-13944964D02*
X7128631Y-13935440D01*
X7128631Y-13935440D02*
X7109584Y-13906869D01*
X7109584Y-13906869D02*
X7100060Y-13887821D01*
X7100060Y-13887821D02*
X7090536Y-13859250D01*
X7090536Y-13859250D02*
X7081012Y-13811631D01*
X7081012Y-13811631D02*
X7081012Y-13773536D01*
X7081012Y-13773536D02*
X7090536Y-13725917D01*
X7090536Y-13725917D02*
X7100060Y-13697345D01*
X7100060Y-13697345D02*
X7109584Y-13678298D01*
X7109584Y-13678298D02*
X7128631Y-13649726D01*
X7128631Y-13649726D02*
X7138155Y-13640202D01*
X7309584Y-13668774D02*
X7214345Y-13668774D01*
X7214345Y-13668774D02*
X7204822Y-13764012D01*
X7204822Y-13764012D02*
X7214345Y-13754488D01*
X7214345Y-13754488D02*
X7233393Y-13744964D01*
X7233393Y-13744964D02*
X7281012Y-13744964D01*
X7281012Y-13744964D02*
X7300060Y-13754488D01*
X7300060Y-13754488D02*
X7309584Y-13764012D01*
X7309584Y-13764012D02*
X7319107Y-13783059D01*
X7319107Y-13783059D02*
X7319107Y-13830678D01*
X7319107Y-13830678D02*
X7309584Y-13849726D01*
X7309584Y-13849726D02*
X7300060Y-13859250D01*
X7300060Y-13859250D02*
X7281012Y-13868774D01*
X7281012Y-13868774D02*
X7233393Y-13868774D01*
X7233393Y-13868774D02*
X7214345Y-13859250D01*
X7214345Y-13859250D02*
X7204822Y-13849726D01*
X7509584Y-13868774D02*
X7395298Y-13868774D01*
X7452441Y-13868774D02*
X7452441Y-13668774D01*
X7452441Y-13668774D02*
X7433393Y-13697345D01*
X7433393Y-13697345D02*
X7414345Y-13716393D01*
X7414345Y-13716393D02*
X7395298Y-13725917D01*
X7747679Y-13868774D02*
X7747679Y-13668774D01*
X7833393Y-13868774D02*
X7833393Y-13764012D01*
X7833393Y-13764012D02*
X7823869Y-13744964D01*
X7823869Y-13744964D02*
X7804822Y-13735440D01*
X7804822Y-13735440D02*
X7776250Y-13735440D01*
X7776250Y-13735440D02*
X7757203Y-13744964D01*
X7757203Y-13744964D02*
X7747679Y-13754488D01*
X7957203Y-13868774D02*
X7938155Y-13859250D01*
X7938155Y-13859250D02*
X7928631Y-13849726D01*
X7928631Y-13849726D02*
X7919107Y-13830678D01*
X7919107Y-13830678D02*
X7919107Y-13773536D01*
X7919107Y-13773536D02*
X7928631Y-13754488D01*
X7928631Y-13754488D02*
X7938155Y-13744964D01*
X7938155Y-13744964D02*
X7957203Y-13735440D01*
X7957203Y-13735440D02*
X7985774Y-13735440D01*
X7985774Y-13735440D02*
X8004822Y-13744964D01*
X8004822Y-13744964D02*
X8014346Y-13754488D01*
X8014346Y-13754488D02*
X8023869Y-13773536D01*
X8023869Y-13773536D02*
X8023869Y-13830678D01*
X8023869Y-13830678D02*
X8014346Y-13849726D01*
X8014346Y-13849726D02*
X8004822Y-13859250D01*
X8004822Y-13859250D02*
X7985774Y-13868774D01*
X7985774Y-13868774D02*
X7957203Y-13868774D01*
X8138155Y-13868774D02*
X8119107Y-13859250D01*
X8119107Y-13859250D02*
X8109584Y-13840202D01*
X8109584Y-13840202D02*
X8109584Y-13668774D01*
X8290536Y-13859250D02*
X8271488Y-13868774D01*
X8271488Y-13868774D02*
X8233393Y-13868774D01*
X8233393Y-13868774D02*
X8214346Y-13859250D01*
X8214346Y-13859250D02*
X8204822Y-13840202D01*
X8204822Y-13840202D02*
X8204822Y-13764012D01*
X8204822Y-13764012D02*
X8214346Y-13744964D01*
X8214346Y-13744964D02*
X8233393Y-13735440D01*
X8233393Y-13735440D02*
X8271488Y-13735440D01*
X8271488Y-13735440D02*
X8290536Y-13744964D01*
X8290536Y-13744964D02*
X8300060Y-13764012D01*
X8300060Y-13764012D02*
X8300060Y-13783059D01*
X8300060Y-13783059D02*
X8204822Y-13802107D01*
X8376250Y-13859250D02*
X8395298Y-13868774D01*
X8395298Y-13868774D02*
X8433393Y-13868774D01*
X8433393Y-13868774D02*
X8452441Y-13859250D01*
X8452441Y-13859250D02*
X8461965Y-13840202D01*
X8461965Y-13840202D02*
X8461965Y-13830678D01*
X8461965Y-13830678D02*
X8452441Y-13811631D01*
X8452441Y-13811631D02*
X8433393Y-13802107D01*
X8433393Y-13802107D02*
X8404822Y-13802107D01*
X8404822Y-13802107D02*
X8385774Y-13792583D01*
X8385774Y-13792583D02*
X8376250Y-13773536D01*
X8376250Y-13773536D02*
X8376250Y-13764012D01*
X8376250Y-13764012D02*
X8385774Y-13744964D01*
X8385774Y-13744964D02*
X8404822Y-13735440D01*
X8404822Y-13735440D02*
X8433393Y-13735440D01*
X8433393Y-13735440D02*
X8452441Y-13744964D01*
X8528631Y-13944964D02*
X8538155Y-13935440D01*
X8538155Y-13935440D02*
X8557203Y-13906869D01*
X8557203Y-13906869D02*
X8566727Y-13887821D01*
X8566727Y-13887821D02*
X8576250Y-13859250D01*
X8576250Y-13859250D02*
X8585774Y-13811631D01*
X8585774Y-13811631D02*
X8585774Y-13773536D01*
X8585774Y-13773536D02*
X8576250Y-13725917D01*
X8576250Y-13725917D02*
X8566727Y-13697345D01*
X8566727Y-13697345D02*
X8557203Y-13678298D01*
X8557203Y-13678298D02*
X8538155Y-13649726D01*
X8538155Y-13649726D02*
X8528631Y-13640202D01*
D10*
X3576250Y-14040250D02*
G75*
G03*
X3576250Y-14040250I-50000J0D01*
G01*
D11*
X3928631Y-14132774D02*
X3814345Y-14132774D01*
X3871488Y-14132774D02*
X3871488Y-13932774D01*
X3871488Y-13932774D02*
X3852440Y-13961345D01*
X3852440Y-13961345D02*
X3833393Y-13980393D01*
X3833393Y-13980393D02*
X3814345Y-13989917D01*
X4014345Y-14113726D02*
X4023869Y-14123250D01*
X4023869Y-14123250D02*
X4014345Y-14132774D01*
X4014345Y-14132774D02*
X4004821Y-14123250D01*
X4004821Y-14123250D02*
X4014345Y-14113726D01*
X4014345Y-14113726D02*
X4014345Y-14132774D01*
X4147678Y-13932774D02*
X4166726Y-13932774D01*
X4166726Y-13932774D02*
X4185774Y-13942298D01*
X4185774Y-13942298D02*
X4195298Y-13951821D01*
X4195298Y-13951821D02*
X4204821Y-13970869D01*
X4204821Y-13970869D02*
X4214345Y-14008964D01*
X4214345Y-14008964D02*
X4214345Y-14056583D01*
X4214345Y-14056583D02*
X4204821Y-14094678D01*
X4204821Y-14094678D02*
X4195298Y-14113726D01*
X4195298Y-14113726D02*
X4185774Y-14123250D01*
X4185774Y-14123250D02*
X4166726Y-14132774D01*
X4166726Y-14132774D02*
X4147678Y-14132774D01*
X4147678Y-14132774D02*
X4128631Y-14123250D01*
X4128631Y-14123250D02*
X4119107Y-14113726D01*
X4119107Y-14113726D02*
X4109583Y-14094678D01*
X4109583Y-14094678D02*
X4100059Y-14056583D01*
X4100059Y-14056583D02*
X4100059Y-14008964D01*
X4100059Y-14008964D02*
X4109583Y-13970869D01*
X4109583Y-13970869D02*
X4119107Y-13951821D01*
X4119107Y-13951821D02*
X4128631Y-13942298D01*
X4128631Y-13942298D02*
X4147678Y-13932774D01*
X4338155Y-13932774D02*
X4357202Y-13932774D01*
X4357202Y-13932774D02*
X4376250Y-13942298D01*
X4376250Y-13942298D02*
X4385774Y-13951821D01*
X4385774Y-13951821D02*
X4395298Y-13970869D01*
X4395298Y-13970869D02*
X4404821Y-14008964D01*
X4404821Y-14008964D02*
X4404821Y-14056583D01*
X4404821Y-14056583D02*
X4395298Y-14094678D01*
X4395298Y-14094678D02*
X4385774Y-14113726D01*
X4385774Y-14113726D02*
X4376250Y-14123250D01*
X4376250Y-14123250D02*
X4357202Y-14132774D01*
X4357202Y-14132774D02*
X4338155Y-14132774D01*
X4338155Y-14132774D02*
X4319107Y-14123250D01*
X4319107Y-14123250D02*
X4309583Y-14113726D01*
X4309583Y-14113726D02*
X4300060Y-14094678D01*
X4300060Y-14094678D02*
X4290536Y-14056583D01*
X4290536Y-14056583D02*
X4290536Y-14008964D01*
X4290536Y-14008964D02*
X4300060Y-13970869D01*
X4300060Y-13970869D02*
X4309583Y-13951821D01*
X4309583Y-13951821D02*
X4319107Y-13942298D01*
X4319107Y-13942298D02*
X4338155Y-13932774D01*
X4528631Y-13932774D02*
X4547679Y-13932774D01*
X4547679Y-13932774D02*
X4566726Y-13942298D01*
X4566726Y-13942298D02*
X4576250Y-13951821D01*
X4576250Y-13951821D02*
X4585774Y-13970869D01*
X4585774Y-13970869D02*
X4595298Y-14008964D01*
X4595298Y-14008964D02*
X4595298Y-14056583D01*
X4595298Y-14056583D02*
X4585774Y-14094678D01*
X4585774Y-14094678D02*
X4576250Y-14113726D01*
X4576250Y-14113726D02*
X4566726Y-14123250D01*
X4566726Y-14123250D02*
X4547679Y-14132774D01*
X4547679Y-14132774D02*
X4528631Y-14132774D01*
X4528631Y-14132774D02*
X4509583Y-14123250D01*
X4509583Y-14123250D02*
X4500060Y-14113726D01*
X4500060Y-14113726D02*
X4490536Y-14094678D01*
X4490536Y-14094678D02*
X4481012Y-14056583D01*
X4481012Y-14056583D02*
X4481012Y-14008964D01*
X4481012Y-14008964D02*
X4490536Y-13970869D01*
X4490536Y-13970869D02*
X4500060Y-13951821D01*
X4500060Y-13951821D02*
X4509583Y-13942298D01*
X4509583Y-13942298D02*
X4528631Y-13932774D01*
X4681012Y-14132774D02*
X4681012Y-13999440D01*
X4681012Y-14018488D02*
X4690536Y-14008964D01*
X4690536Y-14008964D02*
X4709583Y-13999440D01*
X4709583Y-13999440D02*
X4738155Y-13999440D01*
X4738155Y-13999440D02*
X4757202Y-14008964D01*
X4757202Y-14008964D02*
X4766726Y-14028012D01*
X4766726Y-14028012D02*
X4766726Y-14132774D01*
X4766726Y-14028012D02*
X4776250Y-14008964D01*
X4776250Y-14008964D02*
X4795298Y-13999440D01*
X4795298Y-13999440D02*
X4823869Y-13999440D01*
X4823869Y-13999440D02*
X4842917Y-14008964D01*
X4842917Y-14008964D02*
X4852441Y-14028012D01*
X4852441Y-14028012D02*
X4852441Y-14132774D01*
X4947679Y-14132774D02*
X4947679Y-13999440D01*
X4947679Y-14018488D02*
X4957202Y-14008964D01*
X4957202Y-14008964D02*
X4976250Y-13999440D01*
X4976250Y-13999440D02*
X5004822Y-13999440D01*
X5004822Y-13999440D02*
X5023869Y-14008964D01*
X5023869Y-14008964D02*
X5033393Y-14028012D01*
X5033393Y-14028012D02*
X5033393Y-14132774D01*
X5033393Y-14028012D02*
X5042917Y-14008964D01*
X5042917Y-14008964D02*
X5061964Y-13999440D01*
X5061964Y-13999440D02*
X5090536Y-13999440D01*
X5090536Y-13999440D02*
X5109583Y-14008964D01*
X5109583Y-14008964D02*
X5119107Y-14028012D01*
X5119107Y-14028012D02*
X5119107Y-14132774D01*
X5509583Y-13923250D02*
X5338155Y-14180393D01*
X5766726Y-13932774D02*
X5785774Y-13932774D01*
X5785774Y-13932774D02*
X5804822Y-13942298D01*
X5804822Y-13942298D02*
X5814345Y-13951821D01*
X5814345Y-13951821D02*
X5823869Y-13970869D01*
X5823869Y-13970869D02*
X5833393Y-14008964D01*
X5833393Y-14008964D02*
X5833393Y-14056583D01*
X5833393Y-14056583D02*
X5823869Y-14094678D01*
X5823869Y-14094678D02*
X5814345Y-14113726D01*
X5814345Y-14113726D02*
X5804822Y-14123250D01*
X5804822Y-14123250D02*
X5785774Y-14132774D01*
X5785774Y-14132774D02*
X5766726Y-14132774D01*
X5766726Y-14132774D02*
X5747679Y-14123250D01*
X5747679Y-14123250D02*
X5738155Y-14113726D01*
X5738155Y-14113726D02*
X5728631Y-14094678D01*
X5728631Y-14094678D02*
X5719107Y-14056583D01*
X5719107Y-14056583D02*
X5719107Y-14008964D01*
X5719107Y-14008964D02*
X5728631Y-13970869D01*
X5728631Y-13970869D02*
X5738155Y-13951821D01*
X5738155Y-13951821D02*
X5747679Y-13942298D01*
X5747679Y-13942298D02*
X5766726Y-13932774D01*
X5919107Y-14113726D02*
X5928631Y-14123250D01*
X5928631Y-14123250D02*
X5919107Y-14132774D01*
X5919107Y-14132774D02*
X5909583Y-14123250D01*
X5909583Y-14123250D02*
X5919107Y-14113726D01*
X5919107Y-14113726D02*
X5919107Y-14132774D01*
X6052441Y-13932774D02*
X6071488Y-13932774D01*
X6071488Y-13932774D02*
X6090536Y-13942298D01*
X6090536Y-13942298D02*
X6100060Y-13951821D01*
X6100060Y-13951821D02*
X6109583Y-13970869D01*
X6109583Y-13970869D02*
X6119107Y-14008964D01*
X6119107Y-14008964D02*
X6119107Y-14056583D01*
X6119107Y-14056583D02*
X6109583Y-14094678D01*
X6109583Y-14094678D02*
X6100060Y-14113726D01*
X6100060Y-14113726D02*
X6090536Y-14123250D01*
X6090536Y-14123250D02*
X6071488Y-14132774D01*
X6071488Y-14132774D02*
X6052441Y-14132774D01*
X6052441Y-14132774D02*
X6033393Y-14123250D01*
X6033393Y-14123250D02*
X6023869Y-14113726D01*
X6023869Y-14113726D02*
X6014345Y-14094678D01*
X6014345Y-14094678D02*
X6004822Y-14056583D01*
X6004822Y-14056583D02*
X6004822Y-14008964D01*
X6004822Y-14008964D02*
X6014345Y-13970869D01*
X6014345Y-13970869D02*
X6023869Y-13951821D01*
X6023869Y-13951821D02*
X6033393Y-13942298D01*
X6033393Y-13942298D02*
X6052441Y-13932774D01*
X6185774Y-13932774D02*
X6309583Y-13932774D01*
X6309583Y-13932774D02*
X6242917Y-14008964D01*
X6242917Y-14008964D02*
X6271488Y-14008964D01*
X6271488Y-14008964D02*
X6290536Y-14018488D01*
X6290536Y-14018488D02*
X6300060Y-14028012D01*
X6300060Y-14028012D02*
X6309583Y-14047059D01*
X6309583Y-14047059D02*
X6309583Y-14094678D01*
X6309583Y-14094678D02*
X6300060Y-14113726D01*
X6300060Y-14113726D02*
X6290536Y-14123250D01*
X6290536Y-14123250D02*
X6271488Y-14132774D01*
X6271488Y-14132774D02*
X6214345Y-14132774D01*
X6214345Y-14132774D02*
X6195298Y-14123250D01*
X6195298Y-14123250D02*
X6185774Y-14113726D01*
X6404822Y-14132774D02*
X6442917Y-14132774D01*
X6442917Y-14132774D02*
X6461964Y-14123250D01*
X6461964Y-14123250D02*
X6471488Y-14113726D01*
X6471488Y-14113726D02*
X6490536Y-14085155D01*
X6490536Y-14085155D02*
X6500060Y-14047059D01*
X6500060Y-14047059D02*
X6500060Y-13970869D01*
X6500060Y-13970869D02*
X6490536Y-13951821D01*
X6490536Y-13951821D02*
X6481012Y-13942298D01*
X6481012Y-13942298D02*
X6461964Y-13932774D01*
X6461964Y-13932774D02*
X6423869Y-13932774D01*
X6423869Y-13932774D02*
X6404822Y-13942298D01*
X6404822Y-13942298D02*
X6395298Y-13951821D01*
X6395298Y-13951821D02*
X6385774Y-13970869D01*
X6385774Y-13970869D02*
X6385774Y-14018488D01*
X6385774Y-14018488D02*
X6395298Y-14037536D01*
X6395298Y-14037536D02*
X6404822Y-14047059D01*
X6404822Y-14047059D02*
X6423869Y-14056583D01*
X6423869Y-14056583D02*
X6461964Y-14056583D01*
X6461964Y-14056583D02*
X6481012Y-14047059D01*
X6481012Y-14047059D02*
X6490536Y-14037536D01*
X6490536Y-14037536D02*
X6500060Y-14018488D01*
X6671488Y-13999440D02*
X6671488Y-14132774D01*
X6623869Y-13923250D02*
X6576250Y-14066107D01*
X6576250Y-14066107D02*
X6700060Y-14066107D01*
X6766726Y-13932774D02*
X6766726Y-13970869D01*
X6842917Y-13932774D02*
X6842917Y-13970869D01*
X7138155Y-14208964D02*
X7128631Y-14199440D01*
X7128631Y-14199440D02*
X7109584Y-14170869D01*
X7109584Y-14170869D02*
X7100060Y-14151821D01*
X7100060Y-14151821D02*
X7090536Y-14123250D01*
X7090536Y-14123250D02*
X7081012Y-14075631D01*
X7081012Y-14075631D02*
X7081012Y-14037536D01*
X7081012Y-14037536D02*
X7090536Y-13989917D01*
X7090536Y-13989917D02*
X7100060Y-13961345D01*
X7100060Y-13961345D02*
X7109584Y-13942298D01*
X7109584Y-13942298D02*
X7128631Y-13913726D01*
X7128631Y-13913726D02*
X7138155Y-13904202D01*
X7319107Y-14132774D02*
X7204822Y-14132774D01*
X7261964Y-14132774D02*
X7261964Y-13932774D01*
X7261964Y-13932774D02*
X7242917Y-13961345D01*
X7242917Y-13961345D02*
X7223869Y-13980393D01*
X7223869Y-13980393D02*
X7204822Y-13989917D01*
X7490536Y-13932774D02*
X7452441Y-13932774D01*
X7452441Y-13932774D02*
X7433393Y-13942298D01*
X7433393Y-13942298D02*
X7423869Y-13951821D01*
X7423869Y-13951821D02*
X7404822Y-13980393D01*
X7404822Y-13980393D02*
X7395298Y-14018488D01*
X7395298Y-14018488D02*
X7395298Y-14094678D01*
X7395298Y-14094678D02*
X7404822Y-14113726D01*
X7404822Y-14113726D02*
X7414345Y-14123250D01*
X7414345Y-14123250D02*
X7433393Y-14132774D01*
X7433393Y-14132774D02*
X7471488Y-14132774D01*
X7471488Y-14132774D02*
X7490536Y-14123250D01*
X7490536Y-14123250D02*
X7500060Y-14113726D01*
X7500060Y-14113726D02*
X7509584Y-14094678D01*
X7509584Y-14094678D02*
X7509584Y-14047059D01*
X7509584Y-14047059D02*
X7500060Y-14028012D01*
X7500060Y-14028012D02*
X7490536Y-14018488D01*
X7490536Y-14018488D02*
X7471488Y-14008964D01*
X7471488Y-14008964D02*
X7433393Y-14008964D01*
X7433393Y-14008964D02*
X7414345Y-14018488D01*
X7414345Y-14018488D02*
X7404822Y-14028012D01*
X7404822Y-14028012D02*
X7395298Y-14047059D01*
X7633393Y-13932774D02*
X7652441Y-13932774D01*
X7652441Y-13932774D02*
X7671488Y-13942298D01*
X7671488Y-13942298D02*
X7681012Y-13951821D01*
X7681012Y-13951821D02*
X7690536Y-13970869D01*
X7690536Y-13970869D02*
X7700060Y-14008964D01*
X7700060Y-14008964D02*
X7700060Y-14056583D01*
X7700060Y-14056583D02*
X7690536Y-14094678D01*
X7690536Y-14094678D02*
X7681012Y-14113726D01*
X7681012Y-14113726D02*
X7671488Y-14123250D01*
X7671488Y-14123250D02*
X7652441Y-14132774D01*
X7652441Y-14132774D02*
X7633393Y-14132774D01*
X7633393Y-14132774D02*
X7614345Y-14123250D01*
X7614345Y-14123250D02*
X7604822Y-14113726D01*
X7604822Y-14113726D02*
X7595298Y-14094678D01*
X7595298Y-14094678D02*
X7585774Y-14056583D01*
X7585774Y-14056583D02*
X7585774Y-14008964D01*
X7585774Y-14008964D02*
X7595298Y-13970869D01*
X7595298Y-13970869D02*
X7604822Y-13951821D01*
X7604822Y-13951821D02*
X7614345Y-13942298D01*
X7614345Y-13942298D02*
X7633393Y-13932774D01*
X7938155Y-14132774D02*
X7938155Y-13932774D01*
X8023869Y-14132774D02*
X8023869Y-14028012D01*
X8023869Y-14028012D02*
X8014346Y-14008964D01*
X8014346Y-14008964D02*
X7995298Y-13999440D01*
X7995298Y-13999440D02*
X7966726Y-13999440D01*
X7966726Y-13999440D02*
X7947679Y-14008964D01*
X7947679Y-14008964D02*
X7938155Y-14018488D01*
X8147679Y-14132774D02*
X8128631Y-14123250D01*
X8128631Y-14123250D02*
X8119107Y-14113726D01*
X8119107Y-14113726D02*
X8109584Y-14094678D01*
X8109584Y-14094678D02*
X8109584Y-14037536D01*
X8109584Y-14037536D02*
X8119107Y-14018488D01*
X8119107Y-14018488D02*
X8128631Y-14008964D01*
X8128631Y-14008964D02*
X8147679Y-13999440D01*
X8147679Y-13999440D02*
X8176250Y-13999440D01*
X8176250Y-13999440D02*
X8195298Y-14008964D01*
X8195298Y-14008964D02*
X8204822Y-14018488D01*
X8204822Y-14018488D02*
X8214346Y-14037536D01*
X8214346Y-14037536D02*
X8214346Y-14094678D01*
X8214346Y-14094678D02*
X8204822Y-14113726D01*
X8204822Y-14113726D02*
X8195298Y-14123250D01*
X8195298Y-14123250D02*
X8176250Y-14132774D01*
X8176250Y-14132774D02*
X8147679Y-14132774D01*
X8328631Y-14132774D02*
X8309584Y-14123250D01*
X8309584Y-14123250D02*
X8300060Y-14104202D01*
X8300060Y-14104202D02*
X8300060Y-13932774D01*
X8481012Y-14123250D02*
X8461965Y-14132774D01*
X8461965Y-14132774D02*
X8423869Y-14132774D01*
X8423869Y-14132774D02*
X8404822Y-14123250D01*
X8404822Y-14123250D02*
X8395298Y-14104202D01*
X8395298Y-14104202D02*
X8395298Y-14028012D01*
X8395298Y-14028012D02*
X8404822Y-14008964D01*
X8404822Y-14008964D02*
X8423869Y-13999440D01*
X8423869Y-13999440D02*
X8461965Y-13999440D01*
X8461965Y-13999440D02*
X8481012Y-14008964D01*
X8481012Y-14008964D02*
X8490536Y-14028012D01*
X8490536Y-14028012D02*
X8490536Y-14047059D01*
X8490536Y-14047059D02*
X8395298Y-14066107D01*
X8566727Y-14123250D02*
X8585774Y-14132774D01*
X8585774Y-14132774D02*
X8623869Y-14132774D01*
X8623869Y-14132774D02*
X8642917Y-14123250D01*
X8642917Y-14123250D02*
X8652441Y-14104202D01*
X8652441Y-14104202D02*
X8652441Y-14094678D01*
X8652441Y-14094678D02*
X8642917Y-14075631D01*
X8642917Y-14075631D02*
X8623869Y-14066107D01*
X8623869Y-14066107D02*
X8595298Y-14066107D01*
X8595298Y-14066107D02*
X8576250Y-14056583D01*
X8576250Y-14056583D02*
X8566727Y-14037536D01*
X8566727Y-14037536D02*
X8566727Y-14028012D01*
X8566727Y-14028012D02*
X8576250Y-14008964D01*
X8576250Y-14008964D02*
X8595298Y-13999440D01*
X8595298Y-13999440D02*
X8623869Y-13999440D01*
X8623869Y-13999440D02*
X8642917Y-14008964D01*
X8719108Y-14208964D02*
X8728631Y-14199440D01*
X8728631Y-14199440D02*
X8747679Y-14170869D01*
X8747679Y-14170869D02*
X8757203Y-14151821D01*
X8757203Y-14151821D02*
X8766727Y-14123250D01*
X8766727Y-14123250D02*
X8776250Y-14075631D01*
X8776250Y-14075631D02*
X8776250Y-14037536D01*
X8776250Y-14037536D02*
X8766727Y-13989917D01*
X8766727Y-13989917D02*
X8757203Y-13961345D01*
X8757203Y-13961345D02*
X8747679Y-13942298D01*
X8747679Y-13942298D02*
X8728631Y-13913726D01*
X8728631Y-13913726D02*
X8719108Y-13904202D01*
D13*
X3521640Y-14249640D02*
X3521640Y-14358860D01*
X3467030Y-14304250D02*
X3576250Y-14304250D01*
D11*
X3928631Y-14396774D02*
X3814345Y-14396774D01*
X3871488Y-14396774D02*
X3871488Y-14196774D01*
X3871488Y-14196774D02*
X3852440Y-14225345D01*
X3852440Y-14225345D02*
X3833393Y-14244393D01*
X3833393Y-14244393D02*
X3814345Y-14253917D01*
X4014345Y-14377726D02*
X4023869Y-14387250D01*
X4023869Y-14387250D02*
X4014345Y-14396774D01*
X4014345Y-14396774D02*
X4004821Y-14387250D01*
X4004821Y-14387250D02*
X4014345Y-14377726D01*
X4014345Y-14377726D02*
X4014345Y-14396774D01*
X4147678Y-14196774D02*
X4166726Y-14196774D01*
X4166726Y-14196774D02*
X4185774Y-14206298D01*
X4185774Y-14206298D02*
X4195298Y-14215821D01*
X4195298Y-14215821D02*
X4204821Y-14234869D01*
X4204821Y-14234869D02*
X4214345Y-14272964D01*
X4214345Y-14272964D02*
X4214345Y-14320583D01*
X4214345Y-14320583D02*
X4204821Y-14358678D01*
X4204821Y-14358678D02*
X4195298Y-14377726D01*
X4195298Y-14377726D02*
X4185774Y-14387250D01*
X4185774Y-14387250D02*
X4166726Y-14396774D01*
X4166726Y-14396774D02*
X4147678Y-14396774D01*
X4147678Y-14396774D02*
X4128631Y-14387250D01*
X4128631Y-14387250D02*
X4119107Y-14377726D01*
X4119107Y-14377726D02*
X4109583Y-14358678D01*
X4109583Y-14358678D02*
X4100059Y-14320583D01*
X4100059Y-14320583D02*
X4100059Y-14272964D01*
X4100059Y-14272964D02*
X4109583Y-14234869D01*
X4109583Y-14234869D02*
X4119107Y-14215821D01*
X4119107Y-14215821D02*
X4128631Y-14206298D01*
X4128631Y-14206298D02*
X4147678Y-14196774D01*
X4309583Y-14396774D02*
X4347679Y-14396774D01*
X4347679Y-14396774D02*
X4366726Y-14387250D01*
X4366726Y-14387250D02*
X4376250Y-14377726D01*
X4376250Y-14377726D02*
X4395298Y-14349155D01*
X4395298Y-14349155D02*
X4404821Y-14311059D01*
X4404821Y-14311059D02*
X4404821Y-14234869D01*
X4404821Y-14234869D02*
X4395298Y-14215821D01*
X4395298Y-14215821D02*
X4385774Y-14206298D01*
X4385774Y-14206298D02*
X4366726Y-14196774D01*
X4366726Y-14196774D02*
X4328631Y-14196774D01*
X4328631Y-14196774D02*
X4309583Y-14206298D01*
X4309583Y-14206298D02*
X4300060Y-14215821D01*
X4300060Y-14215821D02*
X4290536Y-14234869D01*
X4290536Y-14234869D02*
X4290536Y-14282488D01*
X4290536Y-14282488D02*
X4300060Y-14301536D01*
X4300060Y-14301536D02*
X4309583Y-14311059D01*
X4309583Y-14311059D02*
X4328631Y-14320583D01*
X4328631Y-14320583D02*
X4366726Y-14320583D01*
X4366726Y-14320583D02*
X4385774Y-14311059D01*
X4385774Y-14311059D02*
X4395298Y-14301536D01*
X4395298Y-14301536D02*
X4404821Y-14282488D01*
X4481012Y-14215821D02*
X4490536Y-14206298D01*
X4490536Y-14206298D02*
X4509583Y-14196774D01*
X4509583Y-14196774D02*
X4557202Y-14196774D01*
X4557202Y-14196774D02*
X4576250Y-14206298D01*
X4576250Y-14206298D02*
X4585774Y-14215821D01*
X4585774Y-14215821D02*
X4595298Y-14234869D01*
X4595298Y-14234869D02*
X4595298Y-14253917D01*
X4595298Y-14253917D02*
X4585774Y-14282488D01*
X4585774Y-14282488D02*
X4471488Y-14396774D01*
X4471488Y-14396774D02*
X4595298Y-14396774D01*
X4681012Y-14396774D02*
X4681012Y-14263440D01*
X4681012Y-14282488D02*
X4690536Y-14272964D01*
X4690536Y-14272964D02*
X4709583Y-14263440D01*
X4709583Y-14263440D02*
X4738155Y-14263440D01*
X4738155Y-14263440D02*
X4757202Y-14272964D01*
X4757202Y-14272964D02*
X4766726Y-14292012D01*
X4766726Y-14292012D02*
X4766726Y-14396774D01*
X4766726Y-14292012D02*
X4776250Y-14272964D01*
X4776250Y-14272964D02*
X4795298Y-14263440D01*
X4795298Y-14263440D02*
X4823869Y-14263440D01*
X4823869Y-14263440D02*
X4842917Y-14272964D01*
X4842917Y-14272964D02*
X4852441Y-14292012D01*
X4852441Y-14292012D02*
X4852441Y-14396774D01*
X4947679Y-14396774D02*
X4947679Y-14263440D01*
X4947679Y-14282488D02*
X4957202Y-14272964D01*
X4957202Y-14272964D02*
X4976250Y-14263440D01*
X4976250Y-14263440D02*
X5004822Y-14263440D01*
X5004822Y-14263440D02*
X5023869Y-14272964D01*
X5023869Y-14272964D02*
X5033393Y-14292012D01*
X5033393Y-14292012D02*
X5033393Y-14396774D01*
X5033393Y-14292012D02*
X5042917Y-14272964D01*
X5042917Y-14272964D02*
X5061964Y-14263440D01*
X5061964Y-14263440D02*
X5090536Y-14263440D01*
X5090536Y-14263440D02*
X5109583Y-14272964D01*
X5109583Y-14272964D02*
X5119107Y-14292012D01*
X5119107Y-14292012D02*
X5119107Y-14396774D01*
X5509583Y-14187250D02*
X5338155Y-14444393D01*
X5766726Y-14196774D02*
X5785774Y-14196774D01*
X5785774Y-14196774D02*
X5804822Y-14206298D01*
X5804822Y-14206298D02*
X5814345Y-14215821D01*
X5814345Y-14215821D02*
X5823869Y-14234869D01*
X5823869Y-14234869D02*
X5833393Y-14272964D01*
X5833393Y-14272964D02*
X5833393Y-14320583D01*
X5833393Y-14320583D02*
X5823869Y-14358678D01*
X5823869Y-14358678D02*
X5814345Y-14377726D01*
X5814345Y-14377726D02*
X5804822Y-14387250D01*
X5804822Y-14387250D02*
X5785774Y-14396774D01*
X5785774Y-14396774D02*
X5766726Y-14396774D01*
X5766726Y-14396774D02*
X5747679Y-14387250D01*
X5747679Y-14387250D02*
X5738155Y-14377726D01*
X5738155Y-14377726D02*
X5728631Y-14358678D01*
X5728631Y-14358678D02*
X5719107Y-14320583D01*
X5719107Y-14320583D02*
X5719107Y-14272964D01*
X5719107Y-14272964D02*
X5728631Y-14234869D01*
X5728631Y-14234869D02*
X5738155Y-14215821D01*
X5738155Y-14215821D02*
X5747679Y-14206298D01*
X5747679Y-14206298D02*
X5766726Y-14196774D01*
X5919107Y-14377726D02*
X5928631Y-14387250D01*
X5928631Y-14387250D02*
X5919107Y-14396774D01*
X5919107Y-14396774D02*
X5909583Y-14387250D01*
X5909583Y-14387250D02*
X5919107Y-14377726D01*
X5919107Y-14377726D02*
X5919107Y-14396774D01*
X6052441Y-14196774D02*
X6071488Y-14196774D01*
X6071488Y-14196774D02*
X6090536Y-14206298D01*
X6090536Y-14206298D02*
X6100060Y-14215821D01*
X6100060Y-14215821D02*
X6109583Y-14234869D01*
X6109583Y-14234869D02*
X6119107Y-14272964D01*
X6119107Y-14272964D02*
X6119107Y-14320583D01*
X6119107Y-14320583D02*
X6109583Y-14358678D01*
X6109583Y-14358678D02*
X6100060Y-14377726D01*
X6100060Y-14377726D02*
X6090536Y-14387250D01*
X6090536Y-14387250D02*
X6071488Y-14396774D01*
X6071488Y-14396774D02*
X6052441Y-14396774D01*
X6052441Y-14396774D02*
X6033393Y-14387250D01*
X6033393Y-14387250D02*
X6023869Y-14377726D01*
X6023869Y-14377726D02*
X6014345Y-14358678D01*
X6014345Y-14358678D02*
X6004822Y-14320583D01*
X6004822Y-14320583D02*
X6004822Y-14272964D01*
X6004822Y-14272964D02*
X6014345Y-14234869D01*
X6014345Y-14234869D02*
X6023869Y-14215821D01*
X6023869Y-14215821D02*
X6033393Y-14206298D01*
X6033393Y-14206298D02*
X6052441Y-14196774D01*
X6290536Y-14263440D02*
X6290536Y-14396774D01*
X6242917Y-14187250D02*
X6195298Y-14330107D01*
X6195298Y-14330107D02*
X6319107Y-14330107D01*
X6376250Y-14196774D02*
X6500060Y-14196774D01*
X6500060Y-14196774D02*
X6433393Y-14272964D01*
X6433393Y-14272964D02*
X6461964Y-14272964D01*
X6461964Y-14272964D02*
X6481012Y-14282488D01*
X6481012Y-14282488D02*
X6490536Y-14292012D01*
X6490536Y-14292012D02*
X6500060Y-14311059D01*
X6500060Y-14311059D02*
X6500060Y-14358678D01*
X6500060Y-14358678D02*
X6490536Y-14377726D01*
X6490536Y-14377726D02*
X6481012Y-14387250D01*
X6481012Y-14387250D02*
X6461964Y-14396774D01*
X6461964Y-14396774D02*
X6404822Y-14396774D01*
X6404822Y-14396774D02*
X6385774Y-14387250D01*
X6385774Y-14387250D02*
X6376250Y-14377726D01*
X6623869Y-14196774D02*
X6642917Y-14196774D01*
X6642917Y-14196774D02*
X6661964Y-14206298D01*
X6661964Y-14206298D02*
X6671488Y-14215821D01*
X6671488Y-14215821D02*
X6681012Y-14234869D01*
X6681012Y-14234869D02*
X6690536Y-14272964D01*
X6690536Y-14272964D02*
X6690536Y-14320583D01*
X6690536Y-14320583D02*
X6681012Y-14358678D01*
X6681012Y-14358678D02*
X6671488Y-14377726D01*
X6671488Y-14377726D02*
X6661964Y-14387250D01*
X6661964Y-14387250D02*
X6642917Y-14396774D01*
X6642917Y-14396774D02*
X6623869Y-14396774D01*
X6623869Y-14396774D02*
X6604822Y-14387250D01*
X6604822Y-14387250D02*
X6595298Y-14377726D01*
X6595298Y-14377726D02*
X6585774Y-14358678D01*
X6585774Y-14358678D02*
X6576250Y-14320583D01*
X6576250Y-14320583D02*
X6576250Y-14272964D01*
X6576250Y-14272964D02*
X6585774Y-14234869D01*
X6585774Y-14234869D02*
X6595298Y-14215821D01*
X6595298Y-14215821D02*
X6604822Y-14206298D01*
X6604822Y-14206298D02*
X6623869Y-14196774D01*
X6766726Y-14196774D02*
X6766726Y-14234869D01*
X6842917Y-14196774D02*
X6842917Y-14234869D01*
X7138155Y-14472964D02*
X7128631Y-14463440D01*
X7128631Y-14463440D02*
X7109584Y-14434869D01*
X7109584Y-14434869D02*
X7100060Y-14415821D01*
X7100060Y-14415821D02*
X7090536Y-14387250D01*
X7090536Y-14387250D02*
X7081012Y-14339631D01*
X7081012Y-14339631D02*
X7081012Y-14301536D01*
X7081012Y-14301536D02*
X7090536Y-14253917D01*
X7090536Y-14253917D02*
X7100060Y-14225345D01*
X7100060Y-14225345D02*
X7109584Y-14206298D01*
X7109584Y-14206298D02*
X7128631Y-14177726D01*
X7128631Y-14177726D02*
X7138155Y-14168202D01*
X7204822Y-14215821D02*
X7214345Y-14206298D01*
X7214345Y-14206298D02*
X7233393Y-14196774D01*
X7233393Y-14196774D02*
X7281012Y-14196774D01*
X7281012Y-14196774D02*
X7300060Y-14206298D01*
X7300060Y-14206298D02*
X7309584Y-14215821D01*
X7309584Y-14215821D02*
X7319107Y-14234869D01*
X7319107Y-14234869D02*
X7319107Y-14253917D01*
X7319107Y-14253917D02*
X7309584Y-14282488D01*
X7309584Y-14282488D02*
X7195298Y-14396774D01*
X7195298Y-14396774D02*
X7319107Y-14396774D01*
X7490536Y-14263440D02*
X7490536Y-14396774D01*
X7442917Y-14187250D02*
X7395298Y-14330107D01*
X7395298Y-14330107D02*
X7519107Y-14330107D01*
X7747679Y-14396774D02*
X7747679Y-14196774D01*
X7833393Y-14396774D02*
X7833393Y-14292012D01*
X7833393Y-14292012D02*
X7823869Y-14272964D01*
X7823869Y-14272964D02*
X7804822Y-14263440D01*
X7804822Y-14263440D02*
X7776250Y-14263440D01*
X7776250Y-14263440D02*
X7757203Y-14272964D01*
X7757203Y-14272964D02*
X7747679Y-14282488D01*
X7957203Y-14396774D02*
X7938155Y-14387250D01*
X7938155Y-14387250D02*
X7928631Y-14377726D01*
X7928631Y-14377726D02*
X7919107Y-14358678D01*
X7919107Y-14358678D02*
X7919107Y-14301536D01*
X7919107Y-14301536D02*
X7928631Y-14282488D01*
X7928631Y-14282488D02*
X7938155Y-14272964D01*
X7938155Y-14272964D02*
X7957203Y-14263440D01*
X7957203Y-14263440D02*
X7985774Y-14263440D01*
X7985774Y-14263440D02*
X8004822Y-14272964D01*
X8004822Y-14272964D02*
X8014346Y-14282488D01*
X8014346Y-14282488D02*
X8023869Y-14301536D01*
X8023869Y-14301536D02*
X8023869Y-14358678D01*
X8023869Y-14358678D02*
X8014346Y-14377726D01*
X8014346Y-14377726D02*
X8004822Y-14387250D01*
X8004822Y-14387250D02*
X7985774Y-14396774D01*
X7985774Y-14396774D02*
X7957203Y-14396774D01*
X8138155Y-14396774D02*
X8119107Y-14387250D01*
X8119107Y-14387250D02*
X8109584Y-14368202D01*
X8109584Y-14368202D02*
X8109584Y-14196774D01*
X8290536Y-14387250D02*
X8271488Y-14396774D01*
X8271488Y-14396774D02*
X8233393Y-14396774D01*
X8233393Y-14396774D02*
X8214346Y-14387250D01*
X8214346Y-14387250D02*
X8204822Y-14368202D01*
X8204822Y-14368202D02*
X8204822Y-14292012D01*
X8204822Y-14292012D02*
X8214346Y-14272964D01*
X8214346Y-14272964D02*
X8233393Y-14263440D01*
X8233393Y-14263440D02*
X8271488Y-14263440D01*
X8271488Y-14263440D02*
X8290536Y-14272964D01*
X8290536Y-14272964D02*
X8300060Y-14292012D01*
X8300060Y-14292012D02*
X8300060Y-14311059D01*
X8300060Y-14311059D02*
X8204822Y-14330107D01*
X8376250Y-14387250D02*
X8395298Y-14396774D01*
X8395298Y-14396774D02*
X8433393Y-14396774D01*
X8433393Y-14396774D02*
X8452441Y-14387250D01*
X8452441Y-14387250D02*
X8461965Y-14368202D01*
X8461965Y-14368202D02*
X8461965Y-14358678D01*
X8461965Y-14358678D02*
X8452441Y-14339631D01*
X8452441Y-14339631D02*
X8433393Y-14330107D01*
X8433393Y-14330107D02*
X8404822Y-14330107D01*
X8404822Y-14330107D02*
X8385774Y-14320583D01*
X8385774Y-14320583D02*
X8376250Y-14301536D01*
X8376250Y-14301536D02*
X8376250Y-14292012D01*
X8376250Y-14292012D02*
X8385774Y-14272964D01*
X8385774Y-14272964D02*
X8404822Y-14263440D01*
X8404822Y-14263440D02*
X8433393Y-14263440D01*
X8433393Y-14263440D02*
X8452441Y-14272964D01*
X8528631Y-14472964D02*
X8538155Y-14463440D01*
X8538155Y-14463440D02*
X8557203Y-14434869D01*
X8557203Y-14434869D02*
X8566727Y-14415821D01*
X8566727Y-14415821D02*
X8576250Y-14387250D01*
X8576250Y-14387250D02*
X8585774Y-14339631D01*
X8585774Y-14339631D02*
X8585774Y-14301536D01*
X8585774Y-14301536D02*
X8576250Y-14253917D01*
X8576250Y-14253917D02*
X8566727Y-14225345D01*
X8566727Y-14225345D02*
X8557203Y-14206298D01*
X8557203Y-14206298D02*
X8538155Y-14177726D01*
X8538155Y-14177726D02*
X8528631Y-14168202D01*
D14*
X3558677Y-14610677D02*
X3558677Y-14525823D01*
X3473823Y-14525823D01*
X3473823Y-14610677D01*
X3558677Y-14610677D01*
D11*
X3928631Y-14660774D02*
X3814345Y-14660774D01*
X3871488Y-14660774D02*
X3871488Y-14460774D01*
X3871488Y-14460774D02*
X3852440Y-14489345D01*
X3852440Y-14489345D02*
X3833393Y-14508393D01*
X3833393Y-14508393D02*
X3814345Y-14517917D01*
X4014345Y-14641726D02*
X4023869Y-14651250D01*
X4023869Y-14651250D02*
X4014345Y-14660774D01*
X4014345Y-14660774D02*
X4004821Y-14651250D01*
X4004821Y-14651250D02*
X4014345Y-14641726D01*
X4014345Y-14641726D02*
X4014345Y-14660774D01*
X4100059Y-14479821D02*
X4109583Y-14470298D01*
X4109583Y-14470298D02*
X4128631Y-14460774D01*
X4128631Y-14460774D02*
X4176250Y-14460774D01*
X4176250Y-14460774D02*
X4195298Y-14470298D01*
X4195298Y-14470298D02*
X4204821Y-14479821D01*
X4204821Y-14479821D02*
X4214345Y-14498869D01*
X4214345Y-14498869D02*
X4214345Y-14517917D01*
X4214345Y-14517917D02*
X4204821Y-14546488D01*
X4204821Y-14546488D02*
X4090536Y-14660774D01*
X4090536Y-14660774D02*
X4214345Y-14660774D01*
X4338155Y-14460774D02*
X4357202Y-14460774D01*
X4357202Y-14460774D02*
X4376250Y-14470298D01*
X4376250Y-14470298D02*
X4385774Y-14479821D01*
X4385774Y-14479821D02*
X4395298Y-14498869D01*
X4395298Y-14498869D02*
X4404821Y-14536964D01*
X4404821Y-14536964D02*
X4404821Y-14584583D01*
X4404821Y-14584583D02*
X4395298Y-14622678D01*
X4395298Y-14622678D02*
X4385774Y-14641726D01*
X4385774Y-14641726D02*
X4376250Y-14651250D01*
X4376250Y-14651250D02*
X4357202Y-14660774D01*
X4357202Y-14660774D02*
X4338155Y-14660774D01*
X4338155Y-14660774D02*
X4319107Y-14651250D01*
X4319107Y-14651250D02*
X4309583Y-14641726D01*
X4309583Y-14641726D02*
X4300060Y-14622678D01*
X4300060Y-14622678D02*
X4290536Y-14584583D01*
X4290536Y-14584583D02*
X4290536Y-14536964D01*
X4290536Y-14536964D02*
X4300060Y-14498869D01*
X4300060Y-14498869D02*
X4309583Y-14479821D01*
X4309583Y-14479821D02*
X4319107Y-14470298D01*
X4319107Y-14470298D02*
X4338155Y-14460774D01*
X4528631Y-14460774D02*
X4547679Y-14460774D01*
X4547679Y-14460774D02*
X4566726Y-14470298D01*
X4566726Y-14470298D02*
X4576250Y-14479821D01*
X4576250Y-14479821D02*
X4585774Y-14498869D01*
X4585774Y-14498869D02*
X4595298Y-14536964D01*
X4595298Y-14536964D02*
X4595298Y-14584583D01*
X4595298Y-14584583D02*
X4585774Y-14622678D01*
X4585774Y-14622678D02*
X4576250Y-14641726D01*
X4576250Y-14641726D02*
X4566726Y-14651250D01*
X4566726Y-14651250D02*
X4547679Y-14660774D01*
X4547679Y-14660774D02*
X4528631Y-14660774D01*
X4528631Y-14660774D02*
X4509583Y-14651250D01*
X4509583Y-14651250D02*
X4500060Y-14641726D01*
X4500060Y-14641726D02*
X4490536Y-14622678D01*
X4490536Y-14622678D02*
X4481012Y-14584583D01*
X4481012Y-14584583D02*
X4481012Y-14536964D01*
X4481012Y-14536964D02*
X4490536Y-14498869D01*
X4490536Y-14498869D02*
X4500060Y-14479821D01*
X4500060Y-14479821D02*
X4509583Y-14470298D01*
X4509583Y-14470298D02*
X4528631Y-14460774D01*
X4681012Y-14660774D02*
X4681012Y-14527440D01*
X4681012Y-14546488D02*
X4690536Y-14536964D01*
X4690536Y-14536964D02*
X4709583Y-14527440D01*
X4709583Y-14527440D02*
X4738155Y-14527440D01*
X4738155Y-14527440D02*
X4757202Y-14536964D01*
X4757202Y-14536964D02*
X4766726Y-14556012D01*
X4766726Y-14556012D02*
X4766726Y-14660774D01*
X4766726Y-14556012D02*
X4776250Y-14536964D01*
X4776250Y-14536964D02*
X4795298Y-14527440D01*
X4795298Y-14527440D02*
X4823869Y-14527440D01*
X4823869Y-14527440D02*
X4842917Y-14536964D01*
X4842917Y-14536964D02*
X4852441Y-14556012D01*
X4852441Y-14556012D02*
X4852441Y-14660774D01*
X4947679Y-14660774D02*
X4947679Y-14527440D01*
X4947679Y-14546488D02*
X4957202Y-14536964D01*
X4957202Y-14536964D02*
X4976250Y-14527440D01*
X4976250Y-14527440D02*
X5004822Y-14527440D01*
X5004822Y-14527440D02*
X5023869Y-14536964D01*
X5023869Y-14536964D02*
X5033393Y-14556012D01*
X5033393Y-14556012D02*
X5033393Y-14660774D01*
X5033393Y-14556012D02*
X5042917Y-14536964D01*
X5042917Y-14536964D02*
X5061964Y-14527440D01*
X5061964Y-14527440D02*
X5090536Y-14527440D01*
X5090536Y-14527440D02*
X5109583Y-14536964D01*
X5109583Y-14536964D02*
X5119107Y-14556012D01*
X5119107Y-14556012D02*
X5119107Y-14660774D01*
X5509583Y-14451250D02*
X5338155Y-14708393D01*
X5766726Y-14460774D02*
X5785774Y-14460774D01*
X5785774Y-14460774D02*
X5804822Y-14470298D01*
X5804822Y-14470298D02*
X5814345Y-14479821D01*
X5814345Y-14479821D02*
X5823869Y-14498869D01*
X5823869Y-14498869D02*
X5833393Y-14536964D01*
X5833393Y-14536964D02*
X5833393Y-14584583D01*
X5833393Y-14584583D02*
X5823869Y-14622678D01*
X5823869Y-14622678D02*
X5814345Y-14641726D01*
X5814345Y-14641726D02*
X5804822Y-14651250D01*
X5804822Y-14651250D02*
X5785774Y-14660774D01*
X5785774Y-14660774D02*
X5766726Y-14660774D01*
X5766726Y-14660774D02*
X5747679Y-14651250D01*
X5747679Y-14651250D02*
X5738155Y-14641726D01*
X5738155Y-14641726D02*
X5728631Y-14622678D01*
X5728631Y-14622678D02*
X5719107Y-14584583D01*
X5719107Y-14584583D02*
X5719107Y-14536964D01*
X5719107Y-14536964D02*
X5728631Y-14498869D01*
X5728631Y-14498869D02*
X5738155Y-14479821D01*
X5738155Y-14479821D02*
X5747679Y-14470298D01*
X5747679Y-14470298D02*
X5766726Y-14460774D01*
X5919107Y-14641726D02*
X5928631Y-14651250D01*
X5928631Y-14651250D02*
X5919107Y-14660774D01*
X5919107Y-14660774D02*
X5909583Y-14651250D01*
X5909583Y-14651250D02*
X5919107Y-14641726D01*
X5919107Y-14641726D02*
X5919107Y-14660774D01*
X6052441Y-14460774D02*
X6071488Y-14460774D01*
X6071488Y-14460774D02*
X6090536Y-14470298D01*
X6090536Y-14470298D02*
X6100060Y-14479821D01*
X6100060Y-14479821D02*
X6109583Y-14498869D01*
X6109583Y-14498869D02*
X6119107Y-14536964D01*
X6119107Y-14536964D02*
X6119107Y-14584583D01*
X6119107Y-14584583D02*
X6109583Y-14622678D01*
X6109583Y-14622678D02*
X6100060Y-14641726D01*
X6100060Y-14641726D02*
X6090536Y-14651250D01*
X6090536Y-14651250D02*
X6071488Y-14660774D01*
X6071488Y-14660774D02*
X6052441Y-14660774D01*
X6052441Y-14660774D02*
X6033393Y-14651250D01*
X6033393Y-14651250D02*
X6023869Y-14641726D01*
X6023869Y-14641726D02*
X6014345Y-14622678D01*
X6014345Y-14622678D02*
X6004822Y-14584583D01*
X6004822Y-14584583D02*
X6004822Y-14536964D01*
X6004822Y-14536964D02*
X6014345Y-14498869D01*
X6014345Y-14498869D02*
X6023869Y-14479821D01*
X6023869Y-14479821D02*
X6033393Y-14470298D01*
X6033393Y-14470298D02*
X6052441Y-14460774D01*
X6290536Y-14527440D02*
X6290536Y-14660774D01*
X6242917Y-14451250D02*
X6195298Y-14594107D01*
X6195298Y-14594107D02*
X6319107Y-14594107D01*
X6376250Y-14460774D02*
X6509583Y-14460774D01*
X6509583Y-14460774D02*
X6423869Y-14660774D01*
X6576250Y-14479821D02*
X6585774Y-14470298D01*
X6585774Y-14470298D02*
X6604822Y-14460774D01*
X6604822Y-14460774D02*
X6652441Y-14460774D01*
X6652441Y-14460774D02*
X6671488Y-14470298D01*
X6671488Y-14470298D02*
X6681012Y-14479821D01*
X6681012Y-14479821D02*
X6690536Y-14498869D01*
X6690536Y-14498869D02*
X6690536Y-14517917D01*
X6690536Y-14517917D02*
X6681012Y-14546488D01*
X6681012Y-14546488D02*
X6566726Y-14660774D01*
X6566726Y-14660774D02*
X6690536Y-14660774D01*
X6766726Y-14460774D02*
X6766726Y-14498869D01*
X6842917Y-14460774D02*
X6842917Y-14498869D01*
X7138155Y-14736964D02*
X7128631Y-14727440D01*
X7128631Y-14727440D02*
X7109584Y-14698869D01*
X7109584Y-14698869D02*
X7100060Y-14679821D01*
X7100060Y-14679821D02*
X7090536Y-14651250D01*
X7090536Y-14651250D02*
X7081012Y-14603631D01*
X7081012Y-14603631D02*
X7081012Y-14565536D01*
X7081012Y-14565536D02*
X7090536Y-14517917D01*
X7090536Y-14517917D02*
X7100060Y-14489345D01*
X7100060Y-14489345D02*
X7109584Y-14470298D01*
X7109584Y-14470298D02*
X7128631Y-14441726D01*
X7128631Y-14441726D02*
X7138155Y-14432202D01*
X7319107Y-14660774D02*
X7204822Y-14660774D01*
X7261964Y-14660774D02*
X7261964Y-14460774D01*
X7261964Y-14460774D02*
X7242917Y-14489345D01*
X7242917Y-14489345D02*
X7223869Y-14508393D01*
X7223869Y-14508393D02*
X7204822Y-14517917D01*
X7385774Y-14460774D02*
X7509584Y-14460774D01*
X7509584Y-14460774D02*
X7442917Y-14536964D01*
X7442917Y-14536964D02*
X7471488Y-14536964D01*
X7471488Y-14536964D02*
X7490536Y-14546488D01*
X7490536Y-14546488D02*
X7500060Y-14556012D01*
X7500060Y-14556012D02*
X7509584Y-14575059D01*
X7509584Y-14575059D02*
X7509584Y-14622678D01*
X7509584Y-14622678D02*
X7500060Y-14641726D01*
X7500060Y-14641726D02*
X7490536Y-14651250D01*
X7490536Y-14651250D02*
X7471488Y-14660774D01*
X7471488Y-14660774D02*
X7414345Y-14660774D01*
X7414345Y-14660774D02*
X7395298Y-14651250D01*
X7395298Y-14651250D02*
X7385774Y-14641726D01*
X7585774Y-14479821D02*
X7595298Y-14470298D01*
X7595298Y-14470298D02*
X7614345Y-14460774D01*
X7614345Y-14460774D02*
X7661965Y-14460774D01*
X7661965Y-14460774D02*
X7681012Y-14470298D01*
X7681012Y-14470298D02*
X7690536Y-14479821D01*
X7690536Y-14479821D02*
X7700060Y-14498869D01*
X7700060Y-14498869D02*
X7700060Y-14517917D01*
X7700060Y-14517917D02*
X7690536Y-14546488D01*
X7690536Y-14546488D02*
X7576250Y-14660774D01*
X7576250Y-14660774D02*
X7700060Y-14660774D01*
X7938155Y-14660774D02*
X7938155Y-14460774D01*
X8023869Y-14660774D02*
X8023869Y-14556012D01*
X8023869Y-14556012D02*
X8014346Y-14536964D01*
X8014346Y-14536964D02*
X7995298Y-14527440D01*
X7995298Y-14527440D02*
X7966726Y-14527440D01*
X7966726Y-14527440D02*
X7947679Y-14536964D01*
X7947679Y-14536964D02*
X7938155Y-14546488D01*
X8147679Y-14660774D02*
X8128631Y-14651250D01*
X8128631Y-14651250D02*
X8119107Y-14641726D01*
X8119107Y-14641726D02*
X8109584Y-14622678D01*
X8109584Y-14622678D02*
X8109584Y-14565536D01*
X8109584Y-14565536D02*
X8119107Y-14546488D01*
X8119107Y-14546488D02*
X8128631Y-14536964D01*
X8128631Y-14536964D02*
X8147679Y-14527440D01*
X8147679Y-14527440D02*
X8176250Y-14527440D01*
X8176250Y-14527440D02*
X8195298Y-14536964D01*
X8195298Y-14536964D02*
X8204822Y-14546488D01*
X8204822Y-14546488D02*
X8214346Y-14565536D01*
X8214346Y-14565536D02*
X8214346Y-14622678D01*
X8214346Y-14622678D02*
X8204822Y-14641726D01*
X8204822Y-14641726D02*
X8195298Y-14651250D01*
X8195298Y-14651250D02*
X8176250Y-14660774D01*
X8176250Y-14660774D02*
X8147679Y-14660774D01*
X8328631Y-14660774D02*
X8309584Y-14651250D01*
X8309584Y-14651250D02*
X8300060Y-14632202D01*
X8300060Y-14632202D02*
X8300060Y-14460774D01*
X8481012Y-14651250D02*
X8461965Y-14660774D01*
X8461965Y-14660774D02*
X8423869Y-14660774D01*
X8423869Y-14660774D02*
X8404822Y-14651250D01*
X8404822Y-14651250D02*
X8395298Y-14632202D01*
X8395298Y-14632202D02*
X8395298Y-14556012D01*
X8395298Y-14556012D02*
X8404822Y-14536964D01*
X8404822Y-14536964D02*
X8423869Y-14527440D01*
X8423869Y-14527440D02*
X8461965Y-14527440D01*
X8461965Y-14527440D02*
X8481012Y-14536964D01*
X8481012Y-14536964D02*
X8490536Y-14556012D01*
X8490536Y-14556012D02*
X8490536Y-14575059D01*
X8490536Y-14575059D02*
X8395298Y-14594107D01*
X8566727Y-14651250D02*
X8585774Y-14660774D01*
X8585774Y-14660774D02*
X8623869Y-14660774D01*
X8623869Y-14660774D02*
X8642917Y-14651250D01*
X8642917Y-14651250D02*
X8652441Y-14632202D01*
X8652441Y-14632202D02*
X8652441Y-14622678D01*
X8652441Y-14622678D02*
X8642917Y-14603631D01*
X8642917Y-14603631D02*
X8623869Y-14594107D01*
X8623869Y-14594107D02*
X8595298Y-14594107D01*
X8595298Y-14594107D02*
X8576250Y-14584583D01*
X8576250Y-14584583D02*
X8566727Y-14565536D01*
X8566727Y-14565536D02*
X8566727Y-14556012D01*
X8566727Y-14556012D02*
X8576250Y-14536964D01*
X8576250Y-14536964D02*
X8595298Y-14527440D01*
X8595298Y-14527440D02*
X8623869Y-14527440D01*
X8623869Y-14527440D02*
X8642917Y-14536964D01*
X8719108Y-14736964D02*
X8728631Y-14727440D01*
X8728631Y-14727440D02*
X8747679Y-14698869D01*
X8747679Y-14698869D02*
X8757203Y-14679821D01*
X8757203Y-14679821D02*
X8766727Y-14651250D01*
X8766727Y-14651250D02*
X8776250Y-14603631D01*
X8776250Y-14603631D02*
X8776250Y-14565536D01*
X8776250Y-14565536D02*
X8766727Y-14517917D01*
X8766727Y-14517917D02*
X8757203Y-14489345D01*
X8757203Y-14489345D02*
X8747679Y-14470298D01*
X8747679Y-14470298D02*
X8728631Y-14441726D01*
X8728631Y-14441726D02*
X8719108Y-14432202D01*
D15*
X3502750Y-14905750D02*
X3576250Y-14832250D01*
X3502750Y-14758750D01*
X3429250Y-14832250D01*
X3502750Y-14905750D01*
D11*
X3928631Y-14924774D02*
X3814345Y-14924774D01*
X3871488Y-14924774D02*
X3871488Y-14724774D01*
X3871488Y-14724774D02*
X3852440Y-14753345D01*
X3852440Y-14753345D02*
X3833393Y-14772393D01*
X3833393Y-14772393D02*
X3814345Y-14781917D01*
X4014345Y-14905726D02*
X4023869Y-14915250D01*
X4023869Y-14915250D02*
X4014345Y-14924774D01*
X4014345Y-14924774D02*
X4004821Y-14915250D01*
X4004821Y-14915250D02*
X4014345Y-14905726D01*
X4014345Y-14905726D02*
X4014345Y-14924774D01*
X4195298Y-14791440D02*
X4195298Y-14924774D01*
X4147678Y-14715250D02*
X4100059Y-14858107D01*
X4100059Y-14858107D02*
X4223869Y-14858107D01*
X4281012Y-14724774D02*
X4414345Y-14724774D01*
X4414345Y-14724774D02*
X4328631Y-14924774D01*
X4528631Y-14724774D02*
X4547679Y-14724774D01*
X4547679Y-14724774D02*
X4566726Y-14734298D01*
X4566726Y-14734298D02*
X4576250Y-14743821D01*
X4576250Y-14743821D02*
X4585774Y-14762869D01*
X4585774Y-14762869D02*
X4595298Y-14800964D01*
X4595298Y-14800964D02*
X4595298Y-14848583D01*
X4595298Y-14848583D02*
X4585774Y-14886678D01*
X4585774Y-14886678D02*
X4576250Y-14905726D01*
X4576250Y-14905726D02*
X4566726Y-14915250D01*
X4566726Y-14915250D02*
X4547679Y-14924774D01*
X4547679Y-14924774D02*
X4528631Y-14924774D01*
X4528631Y-14924774D02*
X4509583Y-14915250D01*
X4509583Y-14915250D02*
X4500060Y-14905726D01*
X4500060Y-14905726D02*
X4490536Y-14886678D01*
X4490536Y-14886678D02*
X4481012Y-14848583D01*
X4481012Y-14848583D02*
X4481012Y-14800964D01*
X4481012Y-14800964D02*
X4490536Y-14762869D01*
X4490536Y-14762869D02*
X4500060Y-14743821D01*
X4500060Y-14743821D02*
X4509583Y-14734298D01*
X4509583Y-14734298D02*
X4528631Y-14724774D01*
X4681012Y-14924774D02*
X4681012Y-14791440D01*
X4681012Y-14810488D02*
X4690536Y-14800964D01*
X4690536Y-14800964D02*
X4709583Y-14791440D01*
X4709583Y-14791440D02*
X4738155Y-14791440D01*
X4738155Y-14791440D02*
X4757202Y-14800964D01*
X4757202Y-14800964D02*
X4766726Y-14820012D01*
X4766726Y-14820012D02*
X4766726Y-14924774D01*
X4766726Y-14820012D02*
X4776250Y-14800964D01*
X4776250Y-14800964D02*
X4795298Y-14791440D01*
X4795298Y-14791440D02*
X4823869Y-14791440D01*
X4823869Y-14791440D02*
X4842917Y-14800964D01*
X4842917Y-14800964D02*
X4852441Y-14820012D01*
X4852441Y-14820012D02*
X4852441Y-14924774D01*
X4947679Y-14924774D02*
X4947679Y-14791440D01*
X4947679Y-14810488D02*
X4957202Y-14800964D01*
X4957202Y-14800964D02*
X4976250Y-14791440D01*
X4976250Y-14791440D02*
X5004822Y-14791440D01*
X5004822Y-14791440D02*
X5023869Y-14800964D01*
X5023869Y-14800964D02*
X5033393Y-14820012D01*
X5033393Y-14820012D02*
X5033393Y-14924774D01*
X5033393Y-14820012D02*
X5042917Y-14800964D01*
X5042917Y-14800964D02*
X5061964Y-14791440D01*
X5061964Y-14791440D02*
X5090536Y-14791440D01*
X5090536Y-14791440D02*
X5109583Y-14800964D01*
X5109583Y-14800964D02*
X5119107Y-14820012D01*
X5119107Y-14820012D02*
X5119107Y-14924774D01*
X5509583Y-14715250D02*
X5338155Y-14972393D01*
X5766726Y-14724774D02*
X5785774Y-14724774D01*
X5785774Y-14724774D02*
X5804822Y-14734298D01*
X5804822Y-14734298D02*
X5814345Y-14743821D01*
X5814345Y-14743821D02*
X5823869Y-14762869D01*
X5823869Y-14762869D02*
X5833393Y-14800964D01*
X5833393Y-14800964D02*
X5833393Y-14848583D01*
X5833393Y-14848583D02*
X5823869Y-14886678D01*
X5823869Y-14886678D02*
X5814345Y-14905726D01*
X5814345Y-14905726D02*
X5804822Y-14915250D01*
X5804822Y-14915250D02*
X5785774Y-14924774D01*
X5785774Y-14924774D02*
X5766726Y-14924774D01*
X5766726Y-14924774D02*
X5747679Y-14915250D01*
X5747679Y-14915250D02*
X5738155Y-14905726D01*
X5738155Y-14905726D02*
X5728631Y-14886678D01*
X5728631Y-14886678D02*
X5719107Y-14848583D01*
X5719107Y-14848583D02*
X5719107Y-14800964D01*
X5719107Y-14800964D02*
X5728631Y-14762869D01*
X5728631Y-14762869D02*
X5738155Y-14743821D01*
X5738155Y-14743821D02*
X5747679Y-14734298D01*
X5747679Y-14734298D02*
X5766726Y-14724774D01*
X5919107Y-14905726D02*
X5928631Y-14915250D01*
X5928631Y-14915250D02*
X5919107Y-14924774D01*
X5919107Y-14924774D02*
X5909583Y-14915250D01*
X5909583Y-14915250D02*
X5919107Y-14905726D01*
X5919107Y-14905726D02*
X5919107Y-14924774D01*
X6052441Y-14724774D02*
X6071488Y-14724774D01*
X6071488Y-14724774D02*
X6090536Y-14734298D01*
X6090536Y-14734298D02*
X6100060Y-14743821D01*
X6100060Y-14743821D02*
X6109583Y-14762869D01*
X6109583Y-14762869D02*
X6119107Y-14800964D01*
X6119107Y-14800964D02*
X6119107Y-14848583D01*
X6119107Y-14848583D02*
X6109583Y-14886678D01*
X6109583Y-14886678D02*
X6100060Y-14905726D01*
X6100060Y-14905726D02*
X6090536Y-14915250D01*
X6090536Y-14915250D02*
X6071488Y-14924774D01*
X6071488Y-14924774D02*
X6052441Y-14924774D01*
X6052441Y-14924774D02*
X6033393Y-14915250D01*
X6033393Y-14915250D02*
X6023869Y-14905726D01*
X6023869Y-14905726D02*
X6014345Y-14886678D01*
X6014345Y-14886678D02*
X6004822Y-14848583D01*
X6004822Y-14848583D02*
X6004822Y-14800964D01*
X6004822Y-14800964D02*
X6014345Y-14762869D01*
X6014345Y-14762869D02*
X6023869Y-14743821D01*
X6023869Y-14743821D02*
X6033393Y-14734298D01*
X6033393Y-14734298D02*
X6052441Y-14724774D01*
X6300060Y-14724774D02*
X6204822Y-14724774D01*
X6204822Y-14724774D02*
X6195298Y-14820012D01*
X6195298Y-14820012D02*
X6204822Y-14810488D01*
X6204822Y-14810488D02*
X6223869Y-14800964D01*
X6223869Y-14800964D02*
X6271488Y-14800964D01*
X6271488Y-14800964D02*
X6290536Y-14810488D01*
X6290536Y-14810488D02*
X6300060Y-14820012D01*
X6300060Y-14820012D02*
X6309583Y-14839059D01*
X6309583Y-14839059D02*
X6309583Y-14886678D01*
X6309583Y-14886678D02*
X6300060Y-14905726D01*
X6300060Y-14905726D02*
X6290536Y-14915250D01*
X6290536Y-14915250D02*
X6271488Y-14924774D01*
X6271488Y-14924774D02*
X6223869Y-14924774D01*
X6223869Y-14924774D02*
X6204822Y-14915250D01*
X6204822Y-14915250D02*
X6195298Y-14905726D01*
X6376250Y-14724774D02*
X6509583Y-14724774D01*
X6509583Y-14724774D02*
X6423869Y-14924774D01*
X6595298Y-14924774D02*
X6633393Y-14924774D01*
X6633393Y-14924774D02*
X6652441Y-14915250D01*
X6652441Y-14915250D02*
X6661964Y-14905726D01*
X6661964Y-14905726D02*
X6681012Y-14877155D01*
X6681012Y-14877155D02*
X6690536Y-14839059D01*
X6690536Y-14839059D02*
X6690536Y-14762869D01*
X6690536Y-14762869D02*
X6681012Y-14743821D01*
X6681012Y-14743821D02*
X6671488Y-14734298D01*
X6671488Y-14734298D02*
X6652441Y-14724774D01*
X6652441Y-14724774D02*
X6614345Y-14724774D01*
X6614345Y-14724774D02*
X6595298Y-14734298D01*
X6595298Y-14734298D02*
X6585774Y-14743821D01*
X6585774Y-14743821D02*
X6576250Y-14762869D01*
X6576250Y-14762869D02*
X6576250Y-14810488D01*
X6576250Y-14810488D02*
X6585774Y-14829536D01*
X6585774Y-14829536D02*
X6595298Y-14839059D01*
X6595298Y-14839059D02*
X6614345Y-14848583D01*
X6614345Y-14848583D02*
X6652441Y-14848583D01*
X6652441Y-14848583D02*
X6671488Y-14839059D01*
X6671488Y-14839059D02*
X6681012Y-14829536D01*
X6681012Y-14829536D02*
X6690536Y-14810488D01*
X6766726Y-14724774D02*
X6766726Y-14762869D01*
X6842917Y-14724774D02*
X6842917Y-14762869D01*
X7138155Y-15000964D02*
X7128631Y-14991440D01*
X7128631Y-14991440D02*
X7109584Y-14962869D01*
X7109584Y-14962869D02*
X7100060Y-14943821D01*
X7100060Y-14943821D02*
X7090536Y-14915250D01*
X7090536Y-14915250D02*
X7081012Y-14867631D01*
X7081012Y-14867631D02*
X7081012Y-14829536D01*
X7081012Y-14829536D02*
X7090536Y-14781917D01*
X7090536Y-14781917D02*
X7100060Y-14753345D01*
X7100060Y-14753345D02*
X7109584Y-14734298D01*
X7109584Y-14734298D02*
X7128631Y-14705726D01*
X7128631Y-14705726D02*
X7138155Y-14696202D01*
X7204822Y-14743821D02*
X7214345Y-14734298D01*
X7214345Y-14734298D02*
X7233393Y-14724774D01*
X7233393Y-14724774D02*
X7281012Y-14724774D01*
X7281012Y-14724774D02*
X7300060Y-14734298D01*
X7300060Y-14734298D02*
X7309584Y-14743821D01*
X7309584Y-14743821D02*
X7319107Y-14762869D01*
X7319107Y-14762869D02*
X7319107Y-14781917D01*
X7319107Y-14781917D02*
X7309584Y-14810488D01*
X7309584Y-14810488D02*
X7195298Y-14924774D01*
X7195298Y-14924774D02*
X7319107Y-14924774D01*
X7490536Y-14724774D02*
X7452441Y-14724774D01*
X7452441Y-14724774D02*
X7433393Y-14734298D01*
X7433393Y-14734298D02*
X7423869Y-14743821D01*
X7423869Y-14743821D02*
X7404822Y-14772393D01*
X7404822Y-14772393D02*
X7395298Y-14810488D01*
X7395298Y-14810488D02*
X7395298Y-14886678D01*
X7395298Y-14886678D02*
X7404822Y-14905726D01*
X7404822Y-14905726D02*
X7414345Y-14915250D01*
X7414345Y-14915250D02*
X7433393Y-14924774D01*
X7433393Y-14924774D02*
X7471488Y-14924774D01*
X7471488Y-14924774D02*
X7490536Y-14915250D01*
X7490536Y-14915250D02*
X7500060Y-14905726D01*
X7500060Y-14905726D02*
X7509584Y-14886678D01*
X7509584Y-14886678D02*
X7509584Y-14839059D01*
X7509584Y-14839059D02*
X7500060Y-14820012D01*
X7500060Y-14820012D02*
X7490536Y-14810488D01*
X7490536Y-14810488D02*
X7471488Y-14800964D01*
X7471488Y-14800964D02*
X7433393Y-14800964D01*
X7433393Y-14800964D02*
X7414345Y-14810488D01*
X7414345Y-14810488D02*
X7404822Y-14820012D01*
X7404822Y-14820012D02*
X7395298Y-14839059D01*
X7681012Y-14791440D02*
X7681012Y-14924774D01*
X7633393Y-14715250D02*
X7585774Y-14858107D01*
X7585774Y-14858107D02*
X7709584Y-14858107D01*
X7938155Y-14924774D02*
X7938155Y-14724774D01*
X8023869Y-14924774D02*
X8023869Y-14820012D01*
X8023869Y-14820012D02*
X8014346Y-14800964D01*
X8014346Y-14800964D02*
X7995298Y-14791440D01*
X7995298Y-14791440D02*
X7966726Y-14791440D01*
X7966726Y-14791440D02*
X7947679Y-14800964D01*
X7947679Y-14800964D02*
X7938155Y-14810488D01*
X8147679Y-14924774D02*
X8128631Y-14915250D01*
X8128631Y-14915250D02*
X8119107Y-14905726D01*
X8119107Y-14905726D02*
X8109584Y-14886678D01*
X8109584Y-14886678D02*
X8109584Y-14829536D01*
X8109584Y-14829536D02*
X8119107Y-14810488D01*
X8119107Y-14810488D02*
X8128631Y-14800964D01*
X8128631Y-14800964D02*
X8147679Y-14791440D01*
X8147679Y-14791440D02*
X8176250Y-14791440D01*
X8176250Y-14791440D02*
X8195298Y-14800964D01*
X8195298Y-14800964D02*
X8204822Y-14810488D01*
X8204822Y-14810488D02*
X8214346Y-14829536D01*
X8214346Y-14829536D02*
X8214346Y-14886678D01*
X8214346Y-14886678D02*
X8204822Y-14905726D01*
X8204822Y-14905726D02*
X8195298Y-14915250D01*
X8195298Y-14915250D02*
X8176250Y-14924774D01*
X8176250Y-14924774D02*
X8147679Y-14924774D01*
X8328631Y-14924774D02*
X8309584Y-14915250D01*
X8309584Y-14915250D02*
X8300060Y-14896202D01*
X8300060Y-14896202D02*
X8300060Y-14724774D01*
X8481012Y-14915250D02*
X8461965Y-14924774D01*
X8461965Y-14924774D02*
X8423869Y-14924774D01*
X8423869Y-14924774D02*
X8404822Y-14915250D01*
X8404822Y-14915250D02*
X8395298Y-14896202D01*
X8395298Y-14896202D02*
X8395298Y-14820012D01*
X8395298Y-14820012D02*
X8404822Y-14800964D01*
X8404822Y-14800964D02*
X8423869Y-14791440D01*
X8423869Y-14791440D02*
X8461965Y-14791440D01*
X8461965Y-14791440D02*
X8481012Y-14800964D01*
X8481012Y-14800964D02*
X8490536Y-14820012D01*
X8490536Y-14820012D02*
X8490536Y-14839059D01*
X8490536Y-14839059D02*
X8395298Y-14858107D01*
X8566727Y-14915250D02*
X8585774Y-14924774D01*
X8585774Y-14924774D02*
X8623869Y-14924774D01*
X8623869Y-14924774D02*
X8642917Y-14915250D01*
X8642917Y-14915250D02*
X8652441Y-14896202D01*
X8652441Y-14896202D02*
X8652441Y-14886678D01*
X8652441Y-14886678D02*
X8642917Y-14867631D01*
X8642917Y-14867631D02*
X8623869Y-14858107D01*
X8623869Y-14858107D02*
X8595298Y-14858107D01*
X8595298Y-14858107D02*
X8576250Y-14848583D01*
X8576250Y-14848583D02*
X8566727Y-14829536D01*
X8566727Y-14829536D02*
X8566727Y-14820012D01*
X8566727Y-14820012D02*
X8576250Y-14800964D01*
X8576250Y-14800964D02*
X8595298Y-14791440D01*
X8595298Y-14791440D02*
X8623869Y-14791440D01*
X8623869Y-14791440D02*
X8642917Y-14800964D01*
X8719108Y-15000964D02*
X8728631Y-14991440D01*
X8728631Y-14991440D02*
X8747679Y-14962869D01*
X8747679Y-14962869D02*
X8757203Y-14943821D01*
X8757203Y-14943821D02*
X8766727Y-14915250D01*
X8766727Y-14915250D02*
X8776250Y-14867631D01*
X8776250Y-14867631D02*
X8776250Y-14829536D01*
X8776250Y-14829536D02*
X8766727Y-14781917D01*
X8766727Y-14781917D02*
X8757203Y-14753345D01*
X8757203Y-14753345D02*
X8747679Y-14734298D01*
X8747679Y-14734298D02*
X8728631Y-14705726D01*
X8728631Y-14705726D02*
X8719108Y-14696202D01*
M02*
