M48
; DRILL file {KiCad 7.0.2-0} date 2024 January 31, Wednesday 20:23:40
; FORMAT={-:-/ absolute / metric / decimal}
; #@! TF.CreationDate,2024-01-31T20:23:40+01:00
; #@! TF.GenerationSoftware,Kicad,Pcbnew,7.0.2-0
; #@! TF.FileFunction,Plated,1,2,PTH
FMAT,2
METRIC
; #@! TA.AperFunction,Plated,PTH,ViaDrill
T1C0.400
; #@! TA.AperFunction,Plated,PTH,ComponentDrill
T2C1.000
; #@! TA.AperFunction,Plated,PTH,ComponentDrill
T3C1.092
; #@! TA.AperFunction,Plated,PTH,ComponentDrill
T4C1.200
; #@! TA.AperFunction,Plated,PTH,ComponentDrill
T5C1.470
%
G90
G05
T1
X58.4Y-55.4
X61.7Y-50.0
X68.9Y-43.7
X69.1Y-109.2
X71.0Y-109.0
X72.702Y-65.3
X72.775Y-69.355
X73.152Y-62.7
X73.6Y-87.387
X76.0Y-76.525
X80.198Y-86.551
X90.3Y-88.0
X102.1Y-69.9
X122.6Y-52.9
X126.8Y-108.7
X134.7Y-108.5
X138.0Y-123.6
X141.7Y-53.0
X142.1Y-91.3
X154.4Y-109.1
X155.2Y-96.8
X160.9Y-53.024
X163.7Y-85.5
X179.8Y-69.0
X182.1Y-85.0
X195.4Y-50.5
X201.8Y-88.5
X206.0Y-88.0
X211.9Y-51.816
X235.037Y-69.7
X242.6Y-87.7
X250.6Y-56.4
X253.5Y-49.7
X258.6Y-88.1
T2
X42.862Y-38.362
X42.862Y-52.862
X42.862Y-76.562
X42.862Y-91.062
X42.862Y-95.662
X42.862Y-110.162
X42.862Y-114.762
X42.862Y-129.262
X45.362Y-52.862
X45.362Y-91.062
X45.362Y-110.162
X45.362Y-129.262
X47.862Y-38.362
X47.862Y-52.862
X47.862Y-76.562
X47.862Y-91.062
X47.862Y-95.662
X47.862Y-110.162
X47.862Y-114.762
X47.862Y-129.262
X53.4Y-41.462
X53.4Y-49.262
X53.4Y-60.562
X53.4Y-68.362
X53.4Y-79.662
X53.4Y-87.462
X53.4Y-98.762
X53.4Y-106.562
X53.4Y-118.069
X53.4Y-125.869
X56.4Y-41.462
X56.4Y-49.262
X56.4Y-60.562
X56.4Y-68.362
X56.4Y-79.662
X56.4Y-87.462
X56.4Y-98.762
X56.4Y-106.562
X56.4Y-118.069
X56.4Y-125.869
X60.616Y-53.594
X60.616Y-72.644
X68.416Y-53.594
X68.416Y-72.644
X75.438Y-79.662
X75.438Y-87.462
X75.438Y-98.97
X75.438Y-106.77
X75.438Y-118.02
X75.438Y-125.82
X94.488Y-98.762
X94.488Y-106.562
X94.488Y-118.274
X94.488Y-126.074
X110.6Y-79.662
X110.6Y-87.462
X110.7Y-98.762
X110.7Y-106.562
X110.744Y-41.566
X110.744Y-49.366
X110.744Y-60.562
X110.744Y-68.362
X113.7Y-98.762
X113.7Y-106.562
X113.7Y-118.274
X113.7Y-126.074
X127.4Y-129.4
X129.794Y-41.566
X129.794Y-49.366
X129.794Y-60.616
X129.794Y-68.416
X129.794Y-79.666
X129.794Y-87.466
X135.2Y-129.4
X146.5Y-129.4
X148.844Y-60.616
X148.844Y-68.416
X148.844Y-79.666
X148.844Y-87.466
X148.9Y-40.7
X148.9Y-48.5
X151.9Y-79.675
X151.9Y-87.475
X154.3Y-129.4
X167.9Y-40.7
X167.9Y-48.5
X168.0Y-60.616
X168.0Y-68.416
X168.0Y-79.412
X168.0Y-87.212
X187.0Y-41.462
X187.0Y-49.262
X187.0Y-60.616
X187.0Y-68.416
X187.0Y-79.92
X187.0Y-87.72
X187.0Y-98.208
X187.0Y-106.008
X187.0Y-117.512
X187.0Y-125.312
X189.914Y-41.462
X189.914Y-49.262
X190.1Y-60.562
X190.1Y-68.362
X190.1Y-79.92
X190.1Y-87.72
X190.1Y-98.208
X190.1Y-106.008
X190.1Y-117.512
X190.1Y-125.312
X209.2Y-41.462
X209.2Y-49.262
X209.2Y-60.562
X209.2Y-68.362
X209.2Y-79.662
X209.2Y-87.462
X209.318Y-98.762
X209.318Y-106.562
X209.318Y-117.862
X209.318Y-125.662
X228.3Y-41.669
X228.3Y-49.469
X228.3Y-60.562
X228.3Y-68.362
X228.3Y-79.412
X228.3Y-87.212
X228.3Y-98.762
X228.3Y-106.562
X228.554Y-118.274
X228.554Y-126.074
X247.4Y-41.462
X247.4Y-49.262
X247.4Y-60.562
X247.4Y-68.362
X247.4Y-79.662
X247.4Y-87.462
X247.4Y-98.762
X247.4Y-106.562
X247.4Y-117.862
X247.4Y-125.662
X252.962Y-38.362
X252.962Y-52.862
X252.962Y-76.562
X252.962Y-91.062
X252.962Y-95.662
X252.962Y-110.162
X252.962Y-114.762
X252.962Y-129.262
X255.462Y-52.862
X255.462Y-91.062
X255.462Y-110.162
X255.462Y-129.262
X257.962Y-38.362
X257.962Y-52.862
X257.962Y-76.562
X257.962Y-91.062
X257.962Y-95.662
X257.962Y-110.162
X257.962Y-114.762
X257.962Y-129.262
T3
X75.942Y-39.83
X75.942Y-42.37
X75.942Y-44.91
X75.942Y-47.45
X75.942Y-49.99
X75.942Y-52.53
X75.942Y-55.07
X75.942Y-57.61
X75.942Y-60.15
X75.942Y-62.69
X75.942Y-65.23
X75.942Y-67.77
X91.182Y-39.83
X91.182Y-42.37
X91.182Y-44.91
X91.182Y-47.45
X91.182Y-49.99
X91.182Y-52.53
X91.182Y-55.07
X91.182Y-57.61
X91.182Y-60.15
X91.182Y-62.69
X91.182Y-65.23
X91.182Y-67.77
T4
X45.362Y-39.462
X45.362Y-58.562
X45.362Y-77.662
X45.362Y-96.762
X45.362Y-115.862
X50.362Y-41.562
X50.362Y-60.662
X50.362Y-79.763
X50.362Y-98.862
X50.362Y-117.962
X64.462Y-39.462
X64.462Y-58.562
X64.462Y-77.662
X64.462Y-96.762
X64.462Y-115.862
X69.462Y-41.562
X69.462Y-60.662
X69.462Y-79.763
X69.462Y-98.862
X69.462Y-117.962
X83.562Y-39.462
X83.562Y-58.562
X83.562Y-77.662
X83.562Y-96.762
X83.562Y-115.862
X88.562Y-41.562
X88.562Y-60.662
X88.562Y-79.763
X88.562Y-98.862
X88.562Y-117.962
X102.662Y-39.462
X102.662Y-58.562
X102.662Y-77.662
X102.662Y-96.762
X102.662Y-115.862
X107.662Y-41.562
X107.662Y-60.662
X107.662Y-79.763
X107.662Y-98.862
X107.662Y-117.962
X121.762Y-39.462
X121.762Y-58.562
X121.762Y-77.662
X121.762Y-96.762
X121.762Y-115.862
X126.762Y-41.562
X126.762Y-60.662
X126.762Y-79.763
X126.762Y-98.862
X126.762Y-117.962
X131.312Y-96.762
X131.312Y-115.862
X136.312Y-98.862
X136.312Y-117.962
X140.862Y-39.462
X140.862Y-58.562
X140.862Y-77.662
X140.862Y-96.762
X140.862Y-115.862
X145.862Y-41.562
X145.862Y-60.662
X145.862Y-79.763
X145.862Y-98.862
X145.862Y-117.962
X150.412Y-96.762
X150.412Y-115.862
X155.412Y-98.862
X155.412Y-117.962
X159.963Y-39.462
X159.963Y-58.562
X159.963Y-77.662
X159.963Y-96.762
X159.963Y-115.862
X164.963Y-41.562
X164.963Y-60.662
X164.963Y-79.763
X164.963Y-98.862
X164.963Y-117.962
X169.512Y-96.762
X169.512Y-115.862
X174.512Y-98.862
X174.512Y-117.962
X179.062Y-39.462
X179.062Y-58.562
X179.062Y-77.662
X179.062Y-96.762
X179.062Y-115.862
X184.062Y-41.562
X184.062Y-60.662
X184.062Y-79.763
X184.062Y-98.862
X184.062Y-117.962
X198.162Y-39.462
X198.162Y-58.562
X198.162Y-77.662
X198.162Y-96.762
X198.162Y-115.862
X203.162Y-41.562
X203.162Y-60.662
X203.162Y-79.763
X203.162Y-98.862
X203.162Y-117.962
X217.262Y-39.462
X217.262Y-58.562
X217.262Y-77.662
X217.262Y-96.762
X217.262Y-115.862
X222.262Y-41.562
X222.262Y-60.662
X222.262Y-79.763
X222.262Y-98.862
X222.262Y-117.962
X236.362Y-39.462
X236.362Y-58.562
X236.362Y-77.662
X236.362Y-96.762
X236.362Y-115.862
X241.362Y-41.562
X241.362Y-60.662
X241.362Y-79.763
X241.362Y-98.862
X241.362Y-117.962
X255.462Y-39.462
X255.462Y-58.562
X255.462Y-77.662
X255.462Y-96.762
X255.462Y-115.862
X260.462Y-41.562
X260.462Y-60.662
X260.462Y-79.763
X260.462Y-98.862
X260.462Y-117.962
T5
X41.552Y-42.822
X41.552Y-61.922
X41.552Y-81.022
X41.552Y-100.123
X41.552Y-119.222
X42.862Y-41.362
X42.862Y-60.462
X42.862Y-79.562
X42.862Y-98.662
X42.862Y-117.762
X47.862Y-40.862
X47.862Y-59.962
X47.862Y-79.062
X47.862Y-98.162
X47.862Y-117.262
X47.902Y-40.282
X47.902Y-59.383
X47.902Y-78.483
X47.902Y-97.582
X47.902Y-116.682
X60.652Y-42.822
X60.652Y-61.922
X60.652Y-81.022
X60.652Y-100.123
X60.652Y-119.222
X61.962Y-41.362
X61.962Y-60.462
X61.962Y-79.562
X61.962Y-98.662
X61.962Y-117.762
X66.962Y-40.862
X66.962Y-59.962
X66.962Y-79.062
X66.962Y-98.162
X66.962Y-117.262
X67.002Y-40.282
X67.002Y-59.383
X67.002Y-78.483
X67.002Y-97.582
X67.002Y-116.682
X79.752Y-42.822
X79.752Y-61.922
X79.752Y-81.022
X79.752Y-100.123
X79.752Y-119.222
X81.062Y-41.362
X81.062Y-60.462
X81.062Y-79.562
X81.062Y-98.662
X81.062Y-117.762
X86.062Y-40.862
X86.062Y-59.962
X86.062Y-79.062
X86.062Y-98.162
X86.062Y-117.262
X86.102Y-40.282
X86.102Y-59.383
X86.102Y-78.483
X86.102Y-97.582
X86.102Y-116.682
X98.852Y-42.822
X98.852Y-61.922
X98.852Y-81.022
X98.852Y-100.123
X98.852Y-119.222
X100.162Y-41.362
X100.162Y-60.462
X100.162Y-79.562
X100.162Y-98.662
X100.162Y-117.762
X105.162Y-40.862
X105.162Y-59.962
X105.162Y-79.062
X105.162Y-98.162
X105.162Y-117.262
X105.203Y-40.282
X105.203Y-59.383
X105.203Y-78.483
X105.203Y-97.582
X105.203Y-116.682
X117.953Y-42.822
X117.953Y-61.922
X117.953Y-81.022
X117.953Y-100.123
X117.953Y-119.222
X119.262Y-41.362
X119.262Y-60.462
X119.262Y-79.562
X119.262Y-98.662
X119.262Y-117.762
X124.262Y-40.862
X124.262Y-59.962
X124.262Y-79.062
X124.262Y-98.162
X124.262Y-117.262
X124.302Y-40.282
X124.302Y-59.383
X124.302Y-78.483
X124.302Y-97.582
X124.302Y-116.682
X127.502Y-100.123
X127.502Y-119.222
X128.812Y-98.662
X128.812Y-117.762
X133.812Y-98.162
X133.812Y-117.262
X133.852Y-97.582
X133.852Y-116.682
X137.052Y-42.822
X137.052Y-61.922
X137.052Y-81.022
X137.052Y-100.123
X137.052Y-119.222
X138.362Y-41.362
X138.362Y-60.462
X138.362Y-79.562
X138.362Y-98.662
X138.362Y-117.762
X143.362Y-40.862
X143.362Y-59.962
X143.362Y-79.062
X143.362Y-98.162
X143.362Y-117.262
X143.403Y-40.282
X143.403Y-59.383
X143.403Y-78.483
X143.403Y-97.582
X143.403Y-116.682
X146.602Y-100.123
X146.602Y-119.222
X147.912Y-98.662
X147.912Y-117.762
X152.912Y-98.162
X152.912Y-117.262
X152.952Y-97.582
X152.952Y-116.682
X156.153Y-42.822
X156.153Y-61.922
X156.153Y-81.022
X156.153Y-100.123
X156.153Y-119.222
X157.463Y-41.362
X157.463Y-60.462
X157.463Y-79.562
X157.463Y-98.662
X157.463Y-117.762
X162.463Y-40.862
X162.463Y-59.962
X162.463Y-79.062
X162.463Y-98.162
X162.463Y-117.262
X162.502Y-40.282
X162.502Y-59.383
X162.502Y-78.483
X162.502Y-97.582
X162.502Y-116.682
X165.702Y-100.123
X165.702Y-119.222
X167.012Y-98.662
X167.012Y-117.762
X172.012Y-98.162
X172.012Y-117.262
X172.052Y-97.582
X172.052Y-116.682
X175.252Y-42.822
X175.252Y-61.922
X175.252Y-81.022
X175.252Y-100.123
X175.252Y-119.222
X176.562Y-41.362
X176.562Y-60.462
X176.562Y-79.562
X176.562Y-98.662
X176.562Y-117.762
X181.562Y-40.862
X181.562Y-59.962
X181.562Y-79.062
X181.562Y-98.162
X181.562Y-117.262
X181.602Y-40.282
X181.602Y-59.383
X181.602Y-78.483
X181.602Y-97.582
X181.602Y-116.682
X194.352Y-42.822
X194.352Y-61.922
X194.352Y-81.022
X194.352Y-100.123
X194.352Y-119.222
X195.662Y-41.362
X195.662Y-60.462
X195.662Y-79.562
X195.662Y-98.662
X195.662Y-117.762
X200.662Y-40.862
X200.662Y-59.962
X200.662Y-79.062
X200.662Y-98.162
X200.662Y-117.262
X200.702Y-40.282
X200.702Y-59.383
X200.702Y-78.483
X200.702Y-97.582
X200.702Y-116.682
X213.452Y-42.822
X213.452Y-61.922
X213.452Y-81.022
X213.452Y-100.123
X213.452Y-119.222
X214.762Y-41.362
X214.762Y-60.462
X214.762Y-79.562
X214.762Y-98.662
X214.762Y-117.762
X219.762Y-40.862
X219.762Y-59.962
X219.762Y-79.062
X219.762Y-98.162
X219.762Y-117.262
X219.802Y-40.282
X219.802Y-59.383
X219.802Y-78.483
X219.802Y-97.582
X219.802Y-116.682
X232.552Y-42.822
X232.552Y-61.922
X232.552Y-81.022
X232.552Y-100.123
X232.552Y-119.222
X233.862Y-41.362
X233.862Y-60.462
X233.862Y-79.562
X233.862Y-98.662
X233.862Y-117.762
X238.862Y-40.862
X238.862Y-59.962
X238.862Y-79.062
X238.862Y-98.162
X238.862Y-117.262
X238.902Y-40.282
X238.902Y-59.383
X238.902Y-78.483
X238.902Y-97.582
X238.902Y-116.682
X251.652Y-42.822
X251.652Y-61.922
X251.652Y-81.022
X251.652Y-100.123
X251.652Y-119.222
X252.962Y-41.362
X252.962Y-60.462
X252.962Y-79.562
X252.962Y-98.662
X252.962Y-117.762
X257.962Y-40.862
X257.962Y-59.962
X257.962Y-79.062
X257.962Y-98.162
X257.962Y-117.262
X258.002Y-40.282
X258.002Y-59.383
X258.002Y-78.483
X258.002Y-97.582
X258.002Y-116.682
T0
M30
