G04 #@! TF.GenerationSoftware,KiCad,Pcbnew,8.0.8*
G04 #@! TF.CreationDate,2025-01-24T21:27:49+01:00*
G04 #@! TF.ProjectId,CYOA_Ortho,43594f41-5f4f-4727-9468-6f2e6b696361,rev?*
G04 #@! TF.SameCoordinates,Original*
G04 #@! TF.FileFunction,Profile,NP*
%FSLAX46Y46*%
G04 Gerber Fmt 4.6, Leading zero omitted, Abs format (unit mm)*
G04 Created by KiCad (PCBNEW 8.0.8) date 2025-01-24 21:27:49*
%MOMM*%
%LPD*%
G01*
G04 APERTURE LIST*
G04 #@! TA.AperFunction,Profile*
%ADD10C,0.100000*%
G04 #@! TD*
G04 APERTURE END LIST*
D10*
X108668749Y-93099997D02*
G75*
G02*
X107668751Y-93099997I-499999J0D01*
G01*
X107668751Y-93099997D02*
G75*
G02*
X108668749Y-93099997I499999J0D01*
G01*
X250556248Y-112212503D02*
G75*
G02*
X249556248Y-112212503I-500000J0D01*
G01*
X249556248Y-112212503D02*
G75*
G02*
X250556248Y-112212503I500000J0D01*
G01*
X57300000Y-131312500D02*
X109786783Y-131299283D01*
X53012499Y-112212500D02*
G75*
G02*
X52012499Y-112212500I-500000J0D01*
G01*
X52012499Y-112212500D02*
G75*
G02*
X53012499Y-112212500I500000J0D01*
G01*
X227300000Y-58737500D02*
G75*
G02*
X226300000Y-58737500I-500000J0D01*
G01*
X226300000Y-58737500D02*
G75*
G02*
X227300000Y-58737500I500000J0D01*
G01*
X49470001Y-112212499D02*
G75*
G02*
X48870001Y-112212499I-300000J0D01*
G01*
X48870001Y-112212499D02*
G75*
G02*
X49470001Y-112212499I300000J0D01*
G01*
X131600000Y-106393750D02*
G75*
G02*
X131000000Y-106393750I-300000J0D01*
G01*
X131000000Y-106393750D02*
G75*
G02*
X131600000Y-106393750I300000J0D01*
G01*
X246200000Y-68293750D02*
G75*
G02*
X245600000Y-68293750I-300000J0D01*
G01*
X245600000Y-68293750D02*
G75*
G02*
X246200000Y-68293750I300000J0D01*
G01*
X169800000Y-118237500D02*
G75*
G02*
X169200000Y-118237500I-300000J0D01*
G01*
X169200000Y-118237500D02*
G75*
G02*
X169800000Y-118237500I300000J0D01*
G01*
X189074283Y-95250000D02*
G75*
G02*
X188074283Y-95250000I-500000J0D01*
G01*
X188074283Y-95250000D02*
G75*
G02*
X189074283Y-95250000I500000J0D01*
G01*
X150700000Y-65118750D02*
G75*
G02*
X150100000Y-65118750I-300000J0D01*
G01*
X150100000Y-65118750D02*
G75*
G02*
X150700000Y-65118750I300000J0D01*
G01*
X246200000Y-85756250D02*
G75*
G02*
X245600000Y-85756250I-300000J0D01*
G01*
X245600000Y-85756250D02*
G75*
G02*
X246200000Y-85756250I300000J0D01*
G01*
X246400000Y-60325000D02*
G75*
G02*
X245400000Y-60325000I-500000J0D01*
G01*
X245400000Y-60325000D02*
G75*
G02*
X246400000Y-60325000I500000J0D01*
G01*
X253731248Y-112212502D02*
G75*
G02*
X252731250Y-112212502I-499999J0D01*
G01*
X252731250Y-112212502D02*
G75*
G02*
X253731248Y-112212502I499999J0D01*
G01*
X55361783Y-79406250D02*
G75*
G02*
X54361783Y-79406250I-500000J0D01*
G01*
X54361783Y-79406250D02*
G75*
G02*
X55361783Y-79406250I500000J0D01*
G01*
X208000000Y-50831250D02*
G75*
G02*
X207400000Y-50831250I-300000J0D01*
G01*
X207400000Y-50831250D02*
G75*
G02*
X208000000Y-50831250I300000J0D01*
G01*
X150900000Y-41275000D02*
G75*
G02*
X149900000Y-41275000I-500000J0D01*
G01*
X149900000Y-41275000D02*
G75*
G02*
X150900000Y-41275000I500000J0D01*
G01*
X259912499Y-112212502D02*
G75*
G02*
X259312499Y-112212502I-300000J0D01*
G01*
X259312499Y-112212502D02*
G75*
G02*
X259912499Y-112212502I300000J0D01*
G01*
X169575717Y-38200000D02*
G75*
G02*
X171963217Y-35812517I2387483J0D01*
G01*
X226749283Y-38200000D02*
X226850717Y-38200000D01*
X57806249Y-112212499D02*
G75*
G02*
X56806251Y-112212499I-499999J0D01*
G01*
X56806251Y-112212499D02*
G75*
G02*
X57806249Y-112212499I499999J0D01*
G01*
X246400000Y-95250000D02*
G75*
G02*
X245400000Y-95250000I-500000J0D01*
G01*
X245400000Y-95250000D02*
G75*
G02*
X246400000Y-95250000I500000J0D01*
G01*
X252143748Y-112212503D02*
G75*
G02*
X251143748Y-112212503I-500000J0D01*
G01*
X251143748Y-112212503D02*
G75*
G02*
X252143748Y-112212503I500000J0D01*
G01*
X198068750Y-112212502D02*
G75*
G02*
X197068752Y-112212502I-499999J0D01*
G01*
X197068752Y-112212502D02*
G75*
G02*
X198068750Y-112212502I499999J0D01*
G01*
X227300000Y-95250000D02*
G75*
G02*
X226300000Y-95250000I-500000J0D01*
G01*
X226300000Y-95250000D02*
G75*
G02*
X227300000Y-95250000I500000J0D01*
G01*
X131800000Y-85756250D02*
G75*
G02*
X130800000Y-85756250I-500000J0D01*
G01*
X130800000Y-85756250D02*
G75*
G02*
X131800000Y-85756250I500000J0D01*
G01*
X131375717Y-38200000D02*
G75*
G02*
X133763217Y-35812517I2387483J0D01*
G01*
X218056248Y-112212503D02*
G75*
G02*
X217456248Y-112212503I-300000J0D01*
G01*
X217456248Y-112212503D02*
G75*
G02*
X218056248Y-112212503I300000J0D01*
G01*
X112700000Y-109637500D02*
G75*
G02*
X111700000Y-109637500I-500000J0D01*
G01*
X111700000Y-109637500D02*
G75*
G02*
X112700000Y-109637500I500000J0D01*
G01*
X55161783Y-108012500D02*
G75*
G02*
X54561783Y-108012500I-300000J0D01*
G01*
X54561783Y-108012500D02*
G75*
G02*
X55161783Y-108012500I300000J0D01*
G01*
X150700000Y-47656250D02*
G75*
G02*
X150100000Y-47656250I-300000J0D01*
G01*
X150100000Y-47656250D02*
G75*
G02*
X150700000Y-47656250I300000J0D01*
G01*
X131600000Y-66706250D02*
G75*
G02*
X131000000Y-66706250I-300000J0D01*
G01*
X131000000Y-66706250D02*
G75*
G02*
X131600000Y-66706250I300000J0D01*
G01*
X229431249Y-93100000D02*
G75*
G02*
X228431249Y-93100000I-500000J0D01*
G01*
X228431249Y-93100000D02*
G75*
G02*
X229431249Y-93100000I500000J0D01*
G01*
X45018749Y-93099998D02*
G75*
G02*
X44018749Y-93099998I-500000J0D01*
G01*
X44018749Y-93099998D02*
G75*
G02*
X45018749Y-93099998I500000J0D01*
G01*
X246200000Y-126206250D02*
G75*
G02*
X245600000Y-126206250I-300000J0D01*
G01*
X245600000Y-126206250D02*
G75*
G02*
X246200000Y-126206250I300000J0D01*
G01*
X208200000Y-57150000D02*
G75*
G02*
X207200000Y-57150000I-500000J0D01*
G01*
X207200000Y-57150000D02*
G75*
G02*
X208200000Y-57150000I500000J0D01*
G01*
X246200000Y-52450000D02*
G75*
G02*
X245600000Y-52450000I-300000J0D01*
G01*
X245600000Y-52450000D02*
G75*
G02*
X246200000Y-52450000I300000J0D01*
G01*
X248338217Y-131299283D02*
G75*
G02*
X245950717Y-128911783I-17J2387483D01*
G01*
X112500000Y-49281250D02*
G75*
G02*
X111900000Y-49281250I-300000J0D01*
G01*
X111900000Y-49281250D02*
G75*
G02*
X112500000Y-49281250I300000J0D01*
G01*
X262625000Y-35812500D02*
G75*
G02*
X265012500Y-38200000I0J-2387500D01*
G01*
X114663217Y-131299283D02*
G75*
G02*
X112275717Y-128911783I-17J2387483D01*
G01*
X78540000Y-93099996D02*
G75*
G02*
X77940000Y-93099996I-300000J0D01*
G01*
X77940000Y-93099996D02*
G75*
G02*
X78540000Y-93099996I300000J0D01*
G01*
X40220000Y-112212501D02*
G75*
G02*
X39620000Y-112212501I-300000J0D01*
G01*
X39620000Y-112212501D02*
G75*
G02*
X40220000Y-112212501I300000J0D01*
G01*
X224637498Y-112212502D02*
G75*
G02*
X223637500Y-112212502I-499999J0D01*
G01*
X223637500Y-112212502D02*
G75*
G02*
X224637498Y-112212502I499999J0D01*
G01*
X246400000Y-127825000D02*
G75*
G02*
X245400000Y-127825000I-500000J0D01*
G01*
X245400000Y-127825000D02*
G75*
G02*
X246400000Y-127825000I500000J0D01*
G01*
X250556248Y-93100000D02*
G75*
G02*
X249556248Y-93100000I-500000J0D01*
G01*
X249556248Y-93100000D02*
G75*
G02*
X250556248Y-93100000I500000J0D01*
G01*
X189074283Y-63500000D02*
G75*
G02*
X188074283Y-63500000I-500000J0D01*
G01*
X188074283Y-63500000D02*
G75*
G02*
X189074283Y-63500000I500000J0D01*
G01*
X43431249Y-93099998D02*
G75*
G02*
X42431249Y-93099998I-500000J0D01*
G01*
X42431249Y-93099998D02*
G75*
G02*
X43431249Y-93099998I500000J0D01*
G01*
X208200000Y-42862500D02*
G75*
G02*
X207200000Y-42862500I-500000J0D01*
G01*
X207200000Y-42862500D02*
G75*
G02*
X208200000Y-42862500I500000J0D01*
G01*
X229238217Y-131299283D02*
X243461783Y-131299283D01*
X55361783Y-69912500D02*
G75*
G02*
X54361783Y-69912500I-500000J0D01*
G01*
X54361783Y-69912500D02*
G75*
G02*
X55361783Y-69912500I500000J0D01*
G01*
X189074283Y-82550000D02*
G75*
G02*
X188074283Y-82550000I-500000J0D01*
G01*
X188074283Y-82550000D02*
G75*
G02*
X189074283Y-82550000I500000J0D01*
G01*
X189074283Y-60325000D02*
G75*
G02*
X188074283Y-60325000I-500000J0D01*
G01*
X188074283Y-60325000D02*
G75*
G02*
X189074283Y-60325000I500000J0D01*
G01*
X135912499Y-112212501D02*
G75*
G02*
X134912499Y-112212501I-500000J0D01*
G01*
X134912499Y-112212501D02*
G75*
G02*
X135912499Y-112212501I500000J0D01*
G01*
X148900000Y-112212501D02*
G75*
G02*
X148300000Y-112212501I-300000J0D01*
G01*
X148300000Y-112212501D02*
G75*
G02*
X148900000Y-112212501I300000J0D01*
G01*
X246400000Y-118237500D02*
G75*
G02*
X245400000Y-118237500I-500000J0D01*
G01*
X245400000Y-118237500D02*
G75*
G02*
X246400000Y-118237500I500000J0D01*
G01*
X188874283Y-90550000D02*
G75*
G02*
X188274283Y-90550000I-300000J0D01*
G01*
X188274283Y-90550000D02*
G75*
G02*
X188874283Y-90550000I300000J0D01*
G01*
X245950717Y-38200000D02*
G75*
G02*
X248338217Y-35812517I2387483J0D01*
G01*
X240610000Y-112210000D02*
G75*
G02*
X240010000Y-112210000I-300000J0D01*
G01*
X240010000Y-112210000D02*
G75*
G02*
X240610000Y-112210000I300000J0D01*
G01*
X112500000Y-50868750D02*
G75*
G02*
X111900000Y-50868750I-300000J0D01*
G01*
X111900000Y-50868750D02*
G75*
G02*
X112500000Y-50868750I300000J0D01*
G01*
X170000000Y-46068750D02*
G75*
G02*
X169000000Y-46068750I-500000J0D01*
G01*
X169000000Y-46068750D02*
G75*
G02*
X170000000Y-46068750I500000J0D01*
G01*
X208200000Y-107981250D02*
G75*
G02*
X207200000Y-107981250I-500000J0D01*
G01*
X207200000Y-107981250D02*
G75*
G02*
X208200000Y-107981250I500000J0D01*
G01*
X227300000Y-107981250D02*
G75*
G02*
X226300000Y-107981250I-500000J0D01*
G01*
X226300000Y-107981250D02*
G75*
G02*
X227300000Y-107981250I500000J0D01*
G01*
X112500000Y-106431250D02*
G75*
G02*
X111900000Y-106431250I-300000J0D01*
G01*
X111900000Y-106431250D02*
G75*
G02*
X112500000Y-106431250I300000J0D01*
G01*
X227100000Y-77787500D02*
G75*
G02*
X226500000Y-77787500I-300000J0D01*
G01*
X226500000Y-77787500D02*
G75*
G02*
X227100000Y-77787500I300000J0D01*
G01*
X246200000Y-87343750D02*
G75*
G02*
X245600000Y-87343750I-300000J0D01*
G01*
X245600000Y-87343750D02*
G75*
G02*
X246200000Y-87343750I300000J0D01*
G01*
X40006250Y-93099998D02*
G75*
G02*
X39406250Y-93099998I-300000J0D01*
G01*
X39406250Y-93099998D02*
G75*
G02*
X40006250Y-93099998I300000J0D01*
G01*
X227300000Y-119825000D02*
G75*
G02*
X226300000Y-119825000I-500000J0D01*
G01*
X226300000Y-119825000D02*
G75*
G02*
X227300000Y-119825000I500000J0D01*
G01*
X112174283Y-128911783D02*
X112275717Y-128911783D01*
X133763217Y-131299283D02*
X147986783Y-131299283D01*
X229431249Y-112212503D02*
G75*
G02*
X228431249Y-112212503I-500000J0D01*
G01*
X228431249Y-112212503D02*
G75*
G02*
X229431249Y-112212503I500000J0D01*
G01*
X188574283Y-128911783D02*
G75*
G02*
X186186783Y-131299283I-2387483J-17D01*
G01*
X246400000Y-58737500D02*
G75*
G02*
X245400000Y-58737500I-500000J0D01*
G01*
X245400000Y-58737500D02*
G75*
G02*
X246400000Y-58737500I500000J0D01*
G01*
X131800000Y-76200000D02*
G75*
G02*
X130800000Y-76200000I-500000J0D01*
G01*
X130800000Y-76200000D02*
G75*
G02*
X131800000Y-76200000I500000J0D01*
G01*
X169800000Y-68293750D02*
G75*
G02*
X169200000Y-68293750I-300000J0D01*
G01*
X169200000Y-68293750D02*
G75*
G02*
X169800000Y-68293750I300000J0D01*
G01*
X207674283Y-128911783D02*
G75*
G02*
X205286783Y-131299283I-2387483J-17D01*
G01*
X83368749Y-93099996D02*
G75*
G02*
X82368751Y-93099996I-499999J0D01*
G01*
X82368751Y-93099996D02*
G75*
G02*
X83368749Y-93099996I499999J0D01*
G01*
X262625000Y-112212500D02*
G75*
G02*
X265012500Y-114600000I0J-2387500D01*
G01*
X112700000Y-65156250D02*
G75*
G02*
X111700000Y-65156250I-500000J0D01*
G01*
X111700000Y-65156250D02*
G75*
G02*
X112700000Y-65156250I500000J0D01*
G01*
X55361783Y-65150000D02*
G75*
G02*
X54361783Y-65150000I-500000J0D01*
G01*
X54361783Y-65150000D02*
G75*
G02*
X55361783Y-65150000I500000J0D01*
G01*
X188874283Y-123031250D02*
G75*
G02*
X188274283Y-123031250I-300000J0D01*
G01*
X188274283Y-123031250D02*
G75*
G02*
X188874283Y-123031250I300000J0D01*
G01*
X112700000Y-84206250D02*
G75*
G02*
X111700000Y-84206250I-500000J0D01*
G01*
X111700000Y-84206250D02*
G75*
G02*
X112700000Y-84206250I500000J0D01*
G01*
X227300000Y-96837500D02*
G75*
G02*
X226300000Y-96837500I-500000J0D01*
G01*
X226300000Y-96837500D02*
G75*
G02*
X227300000Y-96837500I500000J0D01*
G01*
X227300000Y-127825000D02*
G75*
G02*
X226300000Y-127825000I-500000J0D01*
G01*
X226300000Y-127825000D02*
G75*
G02*
X227300000Y-127825000I500000J0D01*
G01*
X112500000Y-87381250D02*
G75*
G02*
X111900000Y-87381250I-300000J0D01*
G01*
X111900000Y-87381250D02*
G75*
G02*
X112500000Y-87381250I300000J0D01*
G01*
X264974283Y-90725000D02*
G75*
G02*
X262586783Y-93112483I-2387483J0D01*
G01*
X109786783Y-35812500D02*
X57300000Y-35812500D01*
X248338217Y-131299283D02*
X262625000Y-131312500D01*
X189074283Y-107981250D02*
G75*
G02*
X188074283Y-107981250I-500000J0D01*
G01*
X188074283Y-107981250D02*
G75*
G02*
X189074283Y-107981250I500000J0D01*
G01*
X222540000Y-93099999D02*
G75*
G02*
X221940000Y-93099999I-300000J0D01*
G01*
X221940000Y-93099999D02*
G75*
G02*
X222540000Y-93099999I300000J0D01*
G01*
X202743751Y-112212502D02*
G75*
G02*
X202143751Y-112212502I-300000J0D01*
G01*
X202143751Y-112212502D02*
G75*
G02*
X202743751Y-112212502I300000J0D01*
G01*
X208000000Y-104806250D02*
G75*
G02*
X207400000Y-104806250I-300000J0D01*
G01*
X207400000Y-104806250D02*
G75*
G02*
X208000000Y-104806250I300000J0D01*
G01*
X76987499Y-112212500D02*
G75*
G02*
X75987499Y-112212500I-500000J0D01*
G01*
X75987499Y-112212500D02*
G75*
G02*
X76987499Y-112212500I500000J0D01*
G01*
X246400000Y-123031250D02*
G75*
G02*
X245400000Y-123031250I-500000J0D01*
G01*
X245400000Y-123031250D02*
G75*
G02*
X246400000Y-123031250I500000J0D01*
G01*
X215031249Y-93099999D02*
G75*
G02*
X214031251Y-93099999I-499999J0D01*
G01*
X214031251Y-93099999D02*
G75*
G02*
X215031249Y-93099999I499999J0D01*
G01*
X232656248Y-112212503D02*
G75*
G02*
X231656248Y-112212503I-500000J0D01*
G01*
X231656248Y-112212503D02*
G75*
G02*
X232656248Y-112212503I500000J0D01*
G01*
X150700000Y-118237500D02*
G75*
G02*
X150100000Y-118237500I-300000J0D01*
G01*
X150100000Y-118237500D02*
G75*
G02*
X150700000Y-118237500I300000J0D01*
G01*
X227300000Y-109600000D02*
G75*
G02*
X226300000Y-109600000I-500000J0D01*
G01*
X226300000Y-109600000D02*
G75*
G02*
X227300000Y-109600000I500000J0D01*
G01*
X62568749Y-112212499D02*
G75*
G02*
X61568751Y-112212499I-499999J0D01*
G01*
X61568751Y-112212499D02*
G75*
G02*
X62568749Y-112212499I499999J0D01*
G01*
X45018749Y-112212501D02*
G75*
G02*
X44018749Y-112212501I-500000J0D01*
G01*
X44018749Y-112212501D02*
G75*
G02*
X45018749Y-112212501I500000J0D01*
G01*
X246200000Y-104806250D02*
G75*
G02*
X245600000Y-104806250I-300000J0D01*
G01*
X245600000Y-104806250D02*
G75*
G02*
X246200000Y-104806250I300000J0D01*
G01*
X208200000Y-123031250D02*
G75*
G02*
X207200000Y-123031250I-500000J0D01*
G01*
X207200000Y-123031250D02*
G75*
G02*
X208200000Y-123031250I500000J0D01*
G01*
X152863217Y-131299283D02*
G75*
G02*
X150475717Y-128911783I-17J2387483D01*
G01*
X188874283Y-68293750D02*
G75*
G02*
X188274283Y-68293750I-300000J0D01*
G01*
X188274283Y-68293750D02*
G75*
G02*
X188874283Y-68293750I300000J0D01*
G01*
X55161783Y-52481250D02*
G75*
G02*
X54561783Y-52481250I-300000J0D01*
G01*
X54561783Y-52481250D02*
G75*
G02*
X55161783Y-52481250I300000J0D01*
G01*
X55361783Y-57181250D02*
G75*
G02*
X54361783Y-57181250I-500000J0D01*
G01*
X54361783Y-57181250D02*
G75*
G02*
X55361783Y-57181250I500000J0D01*
G01*
X167086783Y-35812500D02*
G75*
G02*
X169474300Y-38200000I17J-2387500D01*
G01*
X208000000Y-76200000D02*
G75*
G02*
X207400000Y-76200000I-300000J0D01*
G01*
X207400000Y-76200000D02*
G75*
G02*
X208000000Y-76200000I300000J0D01*
G01*
X55361783Y-109631250D02*
G75*
G02*
X54361783Y-109631250I-500000J0D01*
G01*
X54361783Y-109631250D02*
G75*
G02*
X55361783Y-109631250I500000J0D01*
G01*
X127693750Y-112212500D02*
G75*
G02*
X127093750Y-112212500I-300000J0D01*
G01*
X127093750Y-112212500D02*
G75*
G02*
X127693750Y-112212500I300000J0D01*
G01*
X208200000Y-116650000D02*
G75*
G02*
X207200000Y-116650000I-500000J0D01*
G01*
X207200000Y-116650000D02*
G75*
G02*
X208200000Y-116650000I500000J0D01*
G01*
X186875001Y-112212502D02*
G75*
G02*
X185875003Y-112212502I-499999J0D01*
G01*
X185875003Y-112212502D02*
G75*
G02*
X186875001Y-112212502I499999J0D01*
G01*
X227300000Y-98425000D02*
G75*
G02*
X226300000Y-98425000I-500000J0D01*
G01*
X226300000Y-98425000D02*
G75*
G02*
X227300000Y-98425000I500000J0D01*
G01*
X265012500Y-109825000D02*
G75*
G02*
X262625000Y-112212500I-2387500J0D01*
G01*
X189074283Y-80962500D02*
G75*
G02*
X188074283Y-80962500I-500000J0D01*
G01*
X188074283Y-80962500D02*
G75*
G02*
X189074283Y-80962500I500000J0D01*
G01*
X64187500Y-93099997D02*
G75*
G02*
X63187500Y-93099997I-500000J0D01*
G01*
X63187500Y-93099997D02*
G75*
G02*
X64187500Y-93099997I500000J0D01*
G01*
X128886783Y-35812500D02*
G75*
G02*
X131274300Y-38200000I17J-2387500D01*
G01*
X95887500Y-93099997D02*
G75*
G02*
X94887502Y-93099997I-499999J0D01*
G01*
X94887502Y-93099997D02*
G75*
G02*
X95887500Y-93099997I499999J0D01*
G01*
X114663217Y-131299283D02*
X128886783Y-131299283D01*
X226850717Y-38200000D02*
G75*
G02*
X229238217Y-35812517I2387483J0D01*
G01*
X149099999Y-93099998D02*
G75*
G02*
X148100001Y-93099998I-499999J0D01*
G01*
X148100001Y-93099998D02*
G75*
G02*
X149099999Y-93099998I499999J0D01*
G01*
X237449998Y-93099999D02*
G75*
G02*
X236450000Y-93099999I-499999J0D01*
G01*
X236450000Y-93099999D02*
G75*
G02*
X237449998Y-93099999I499999J0D01*
G01*
X204040000Y-93100000D02*
G75*
G02*
X203440000Y-93100000I-300000J0D01*
G01*
X203440000Y-93100000D02*
G75*
G02*
X204040000Y-93100000I300000J0D01*
G01*
X227100000Y-68293750D02*
G75*
G02*
X226500000Y-68293750I-300000J0D01*
G01*
X226500000Y-68293750D02*
G75*
G02*
X227100000Y-68293750I300000J0D01*
G01*
X246400000Y-46068750D02*
G75*
G02*
X245400000Y-46068750I-500000J0D01*
G01*
X245400000Y-46068750D02*
G75*
G02*
X246400000Y-46068750I500000J0D01*
G01*
X170000000Y-76200000D02*
G75*
G02*
X169000000Y-76200000I-500000J0D01*
G01*
X169000000Y-76200000D02*
G75*
G02*
X170000000Y-76200000I500000J0D01*
G01*
X189074283Y-58737500D02*
G75*
G02*
X188074283Y-58737500I-500000J0D01*
G01*
X188074283Y-58737500D02*
G75*
G02*
X189074283Y-58737500I500000J0D01*
G01*
X150700000Y-66706250D02*
G75*
G02*
X150100000Y-66706250I-300000J0D01*
G01*
X150100000Y-66706250D02*
G75*
G02*
X150700000Y-66706250I300000J0D01*
G01*
X246200000Y-39687500D02*
G75*
G02*
X245600000Y-39687500I-300000J0D01*
G01*
X245600000Y-39687500D02*
G75*
G02*
X246200000Y-39687500I300000J0D01*
G01*
X227100000Y-66706250D02*
G75*
G02*
X226500000Y-66706250I-300000J0D01*
G01*
X226500000Y-66706250D02*
G75*
G02*
X227100000Y-66706250I300000J0D01*
G01*
X246400000Y-107981250D02*
G75*
G02*
X245400000Y-107981250I-500000J0D01*
G01*
X245400000Y-107981250D02*
G75*
G02*
X246400000Y-107981250I500000J0D01*
G01*
X131800000Y-80962500D02*
G75*
G02*
X130800000Y-80962500I-500000J0D01*
G01*
X130800000Y-80962500D02*
G75*
G02*
X131800000Y-80962500I500000J0D01*
G01*
X253300000Y-93099999D02*
G75*
G02*
X252700000Y-93099999I-300000J0D01*
G01*
X252700000Y-93099999D02*
G75*
G02*
X253300000Y-93099999I300000J0D01*
G01*
X169800000Y-71500000D02*
G75*
G02*
X169200000Y-71500000I-300000J0D01*
G01*
X169200000Y-71500000D02*
G75*
G02*
X169800000Y-71500000I300000J0D01*
G01*
X208000000Y-90550000D02*
G75*
G02*
X207400000Y-90550000I-300000J0D01*
G01*
X207400000Y-90550000D02*
G75*
G02*
X208000000Y-90550000I300000J0D01*
G01*
X170000000Y-109600000D02*
G75*
G02*
X169000000Y-109600000I-500000J0D01*
G01*
X169000000Y-109600000D02*
G75*
G02*
X170000000Y-109600000I500000J0D01*
G01*
X208200000Y-109600000D02*
G75*
G02*
X207200000Y-109600000I-500000J0D01*
G01*
X207200000Y-109600000D02*
G75*
G02*
X208200000Y-109600000I500000J0D01*
G01*
X246400000Y-96837500D02*
G75*
G02*
X245400000Y-96837500I-500000J0D01*
G01*
X245400000Y-96837500D02*
G75*
G02*
X246400000Y-96837500I500000J0D01*
G01*
X178868749Y-112212502D02*
G75*
G02*
X177868751Y-112212502I-499999J0D01*
G01*
X177868751Y-112212502D02*
G75*
G02*
X178868749Y-112212502I499999J0D01*
G01*
X54811066Y-38200000D02*
X54912500Y-38200000D01*
X55161783Y-126237500D02*
G75*
G02*
X54561783Y-126237500I-300000J0D01*
G01*
X54561783Y-126237500D02*
G75*
G02*
X55161783Y-126237500I300000J0D01*
G01*
X89799999Y-112212500D02*
G75*
G02*
X88799999Y-112212500I-500000J0D01*
G01*
X88799999Y-112212500D02*
G75*
G02*
X89799999Y-112212500I500000J0D01*
G01*
X38200000Y-131312500D02*
G75*
G02*
X35812500Y-128925000I0J2387500D01*
G01*
X116700000Y-112212501D02*
G75*
G02*
X115700000Y-112212501I-500000J0D01*
G01*
X115700000Y-112212501D02*
G75*
G02*
X116700000Y-112212501I500000J0D01*
G01*
X112500000Y-68331250D02*
G75*
G02*
X111900000Y-68331250I-300000J0D01*
G01*
X111900000Y-68331250D02*
G75*
G02*
X112500000Y-68331250I300000J0D01*
G01*
X208200000Y-103218750D02*
G75*
G02*
X207200000Y-103218750I-500000J0D01*
G01*
X207200000Y-103218750D02*
G75*
G02*
X208200000Y-103218750I500000J0D01*
G01*
X41874999Y-93099997D02*
G75*
G02*
X40875001Y-93099997I-499999J0D01*
G01*
X40875001Y-93099997D02*
G75*
G02*
X41874999Y-93099997I499999J0D01*
G01*
X169800000Y-82550000D02*
G75*
G02*
X169200000Y-82550000I-300000J0D01*
G01*
X169200000Y-82550000D02*
G75*
G02*
X169800000Y-82550000I300000J0D01*
G01*
X227300000Y-79375000D02*
G75*
G02*
X226300000Y-79375000I-500000J0D01*
G01*
X226300000Y-79375000D02*
G75*
G02*
X227300000Y-79375000I500000J0D01*
G01*
X188874283Y-87343750D02*
G75*
G02*
X188274283Y-87343750I-300000J0D01*
G01*
X188274283Y-87343750D02*
G75*
G02*
X188874283Y-87343750I300000J0D01*
G01*
X227100000Y-126206250D02*
G75*
G02*
X226500000Y-126206250I-300000J0D01*
G01*
X226500000Y-126206250D02*
G75*
G02*
X227100000Y-126206250I300000J0D01*
G01*
X238600000Y-112212502D02*
G75*
G02*
X238000000Y-112212502I-300000J0D01*
G01*
X238000000Y-112212502D02*
G75*
G02*
X238600000Y-112212502I300000J0D01*
G01*
X169800000Y-39687500D02*
G75*
G02*
X169200000Y-39687500I-300000J0D01*
G01*
X169200000Y-39687500D02*
G75*
G02*
X169800000Y-39687500I300000J0D01*
G01*
X131600000Y-58900000D02*
G75*
G02*
X131000000Y-58900000I-300000J0D01*
G01*
X131000000Y-58900000D02*
G75*
G02*
X131600000Y-58900000I300000J0D01*
G01*
X246400000Y-79375000D02*
G75*
G02*
X245400000Y-79375000I-500000J0D01*
G01*
X245400000Y-79375000D02*
G75*
G02*
X246400000Y-79375000I500000J0D01*
G01*
X189074283Y-98425000D02*
G75*
G02*
X188074283Y-98425000I-500000J0D01*
G01*
X188074283Y-98425000D02*
G75*
G02*
X189074283Y-98425000I500000J0D01*
G01*
X261920000Y-112230000D02*
G75*
G02*
X261320000Y-112230000I-300000J0D01*
G01*
X261320000Y-112230000D02*
G75*
G02*
X261920000Y-112230000I300000J0D01*
G01*
X208000000Y-68293750D02*
G75*
G02*
X207400000Y-68293750I-300000J0D01*
G01*
X207400000Y-68293750D02*
G75*
G02*
X208000000Y-68293750I300000J0D01*
G01*
X227300000Y-101600000D02*
G75*
G02*
X226300000Y-101600000I-500000J0D01*
G01*
X226300000Y-101600000D02*
G75*
G02*
X227300000Y-101600000I500000J0D01*
G01*
X154099999Y-112212501D02*
G75*
G02*
X153100001Y-112212501I-499999J0D01*
G01*
X153100001Y-112212501D02*
G75*
G02*
X154099999Y-112212501I499999J0D01*
G01*
X99112499Y-112212501D02*
G75*
G02*
X98112499Y-112212501I-500000J0D01*
G01*
X98112499Y-112212501D02*
G75*
G02*
X99112499Y-112212501I500000J0D01*
G01*
X264974283Y-90725000D02*
X265012500Y-38200000D01*
X208000000Y-66706250D02*
G75*
G02*
X207400000Y-66706250I-300000J0D01*
G01*
X207400000Y-66706250D02*
G75*
G02*
X208000000Y-66706250I300000J0D01*
G01*
X150900000Y-107981250D02*
G75*
G02*
X149900000Y-107981250I-500000J0D01*
G01*
X149900000Y-107981250D02*
G75*
G02*
X150900000Y-107981250I500000J0D01*
G01*
X189074283Y-65118750D02*
G75*
G02*
X188074283Y-65118750I-500000J0D01*
G01*
X188074283Y-65118750D02*
G75*
G02*
X189074283Y-65118750I500000J0D01*
G01*
X112700000Y-79412500D02*
G75*
G02*
X111700000Y-79412500I-500000J0D01*
G01*
X111700000Y-79412500D02*
G75*
G02*
X112700000Y-79412500I500000J0D01*
G01*
X150900000Y-61912500D02*
G75*
G02*
X149900000Y-61912500I-500000J0D01*
G01*
X149900000Y-61912500D02*
G75*
G02*
X150900000Y-61912500I500000J0D01*
G01*
X55361783Y-115125000D02*
G75*
G02*
X54361783Y-115125000I-500000J0D01*
G01*
X54361783Y-115125000D02*
G75*
G02*
X55361783Y-115125000I500000J0D01*
G01*
X150700000Y-106393750D02*
G75*
G02*
X150100000Y-106393750I-300000J0D01*
G01*
X150100000Y-106393750D02*
G75*
G02*
X150700000Y-106393750I300000J0D01*
G01*
X131600000Y-118500000D02*
G75*
G02*
X131000000Y-118500000I-300000J0D01*
G01*
X131000000Y-118500000D02*
G75*
G02*
X131600000Y-118500000I300000J0D01*
G01*
X194893750Y-112212502D02*
G75*
G02*
X193893752Y-112212502I-499999J0D01*
G01*
X193893752Y-112212502D02*
G75*
G02*
X194893750Y-112212502I499999J0D01*
G01*
X246200000Y-66706250D02*
G75*
G02*
X245600000Y-66706250I-300000J0D01*
G01*
X245600000Y-66706250D02*
G75*
G02*
X246200000Y-66706250I300000J0D01*
G01*
X60981249Y-112212499D02*
G75*
G02*
X59981251Y-112212499I-499999J0D01*
G01*
X59981251Y-112212499D02*
G75*
G02*
X60981249Y-112212499I499999J0D01*
G01*
X199656250Y-112212502D02*
G75*
G02*
X198656252Y-112212502I-499999J0D01*
G01*
X198656252Y-112212502D02*
G75*
G02*
X199656250Y-112212502I499999J0D01*
G01*
X55361783Y-71531250D02*
G75*
G02*
X54361783Y-71531250I-500000J0D01*
G01*
X54361783Y-71531250D02*
G75*
G02*
X55361783Y-71531250I500000J0D01*
G01*
X131600000Y-52450000D02*
G75*
G02*
X131000000Y-52450000I-300000J0D01*
G01*
X131000000Y-52450000D02*
G75*
G02*
X131600000Y-52450000I300000J0D01*
G01*
X124740000Y-93099997D02*
G75*
G02*
X124140000Y-93099997I-300000J0D01*
G01*
X124140000Y-93099997D02*
G75*
G02*
X124740000Y-93099997I300000J0D01*
G01*
X210163217Y-131299283D02*
G75*
G02*
X207775717Y-128911783I-17J2387483D01*
G01*
X188874283Y-52450000D02*
G75*
G02*
X188274283Y-52450000I-300000J0D01*
G01*
X188274283Y-52450000D02*
G75*
G02*
X188874283Y-52450000I300000J0D01*
G01*
X243461783Y-35812500D02*
G75*
G02*
X245849300Y-38200000I17J-2387500D01*
G01*
X246200000Y-76200000D02*
G75*
G02*
X245600000Y-76200000I-300000J0D01*
G01*
X245600000Y-76200000D02*
G75*
G02*
X246200000Y-76200000I300000J0D01*
G01*
X227300000Y-100012500D02*
G75*
G02*
X226300000Y-100012500I-500000J0D01*
G01*
X226300000Y-100012500D02*
G75*
G02*
X227300000Y-100012500I500000J0D01*
G01*
X175693749Y-112212502D02*
G75*
G02*
X174693751Y-112212502I-499999J0D01*
G01*
X174693751Y-112212502D02*
G75*
G02*
X175693749Y-112212502I499999J0D01*
G01*
X208200000Y-118237500D02*
G75*
G02*
X207200000Y-118237500I-500000J0D01*
G01*
X207200000Y-118237500D02*
G75*
G02*
X208200000Y-118237500I500000J0D01*
G01*
X227300000Y-121443750D02*
G75*
G02*
X226300000Y-121443750I-500000J0D01*
G01*
X226300000Y-121443750D02*
G75*
G02*
X227300000Y-121443750I500000J0D01*
G01*
X170000000Y-79375000D02*
G75*
G02*
X169000000Y-79375000I-500000J0D01*
G01*
X169000000Y-79375000D02*
G75*
G02*
X170000000Y-79375000I500000J0D01*
G01*
X131600000Y-90550000D02*
G75*
G02*
X131000000Y-90550000I-300000J0D01*
G01*
X131000000Y-90550000D02*
G75*
G02*
X131600000Y-90550000I300000J0D01*
G01*
X169800000Y-90550000D02*
G75*
G02*
X169200000Y-90550000I-300000J0D01*
G01*
X169200000Y-90550000D02*
G75*
G02*
X169800000Y-90550000I300000J0D01*
G01*
X141399999Y-112212501D02*
G75*
G02*
X140400001Y-112212501I-499999J0D01*
G01*
X140400001Y-112212501D02*
G75*
G02*
X141399999Y-112212501I499999J0D01*
G01*
X131600000Y-39687500D02*
G75*
G02*
X131000000Y-39687500I-300000J0D01*
G01*
X131000000Y-39687500D02*
G75*
G02*
X131600000Y-39687500I300000J0D01*
G01*
X227100000Y-69881250D02*
G75*
G02*
X226500000Y-69881250I-300000J0D01*
G01*
X226500000Y-69881250D02*
G75*
G02*
X227100000Y-69881250I300000J0D01*
G01*
X227300000Y-82550000D02*
G75*
G02*
X226300000Y-82550000I-500000J0D01*
G01*
X226300000Y-82550000D02*
G75*
G02*
X227300000Y-82550000I500000J0D01*
G01*
X55161783Y-66737500D02*
G75*
G02*
X54561783Y-66737500I-300000J0D01*
G01*
X54561783Y-66737500D02*
G75*
G02*
X55161783Y-66737500I300000J0D01*
G01*
X211856249Y-112212503D02*
G75*
G02*
X210856249Y-112212503I-500000J0D01*
G01*
X210856249Y-112212503D02*
G75*
G02*
X211856249Y-112212503I500000J0D01*
G01*
X246400000Y-101600000D02*
G75*
G02*
X245400000Y-101600000I-500000J0D01*
G01*
X245400000Y-101600000D02*
G75*
G02*
X246400000Y-101600000I500000J0D01*
G01*
X265012500Y-109825000D02*
X264974283Y-95500000D01*
X112500000Y-57187500D02*
G75*
G02*
X111900000Y-57187500I-300000J0D01*
G01*
X111900000Y-57187500D02*
G75*
G02*
X112500000Y-57187500I300000J0D01*
G01*
X112700000Y-119862500D02*
G75*
G02*
X111700000Y-119862500I-500000J0D01*
G01*
X111700000Y-119862500D02*
G75*
G02*
X112700000Y-119862500I500000J0D01*
G01*
X150700000Y-57150000D02*
G75*
G02*
X150100000Y-57150000I-300000J0D01*
G01*
X150100000Y-57150000D02*
G75*
G02*
X150700000Y-57150000I300000J0D01*
G01*
X97556249Y-93099997D02*
G75*
G02*
X96556251Y-93099997I-499999J0D01*
G01*
X96556251Y-93099997D02*
G75*
G02*
X97556249Y-93099997I499999J0D01*
G01*
X189074283Y-46068750D02*
G75*
G02*
X188074283Y-46068750I-500000J0D01*
G01*
X188074283Y-46068750D02*
G75*
G02*
X189074283Y-46068750I500000J0D01*
G01*
X169800000Y-98425000D02*
G75*
G02*
X169200000Y-98425000I-300000J0D01*
G01*
X169200000Y-98425000D02*
G75*
G02*
X169800000Y-98425000I300000J0D01*
G01*
X112700000Y-77825000D02*
G75*
G02*
X111700000Y-77825000I-500000J0D01*
G01*
X111700000Y-77825000D02*
G75*
G02*
X112700000Y-77825000I500000J0D01*
G01*
X150700000Y-126206250D02*
G75*
G02*
X150100000Y-126206250I-300000J0D01*
G01*
X150100000Y-126206250D02*
G75*
G02*
X150700000Y-126206250I300000J0D01*
G01*
X188874283Y-71500000D02*
G75*
G02*
X188274283Y-71500000I-300000J0D01*
G01*
X188274283Y-71500000D02*
G75*
G02*
X188874283Y-71500000I300000J0D01*
G01*
X246400000Y-63500000D02*
G75*
G02*
X245400000Y-63500000I-500000J0D01*
G01*
X245400000Y-63500000D02*
G75*
G02*
X246400000Y-63500000I500000J0D01*
G01*
X189074283Y-101600000D02*
G75*
G02*
X188074283Y-101600000I-500000J0D01*
G01*
X188074283Y-101600000D02*
G75*
G02*
X189074283Y-101600000I500000J0D01*
G01*
X227100000Y-88931250D02*
G75*
G02*
X226500000Y-88931250I-300000J0D01*
G01*
X226500000Y-88931250D02*
G75*
G02*
X227100000Y-88931250I300000J0D01*
G01*
X246400000Y-42862500D02*
G75*
G02*
X245400000Y-42862500I-500000J0D01*
G01*
X245400000Y-42862500D02*
G75*
G02*
X246400000Y-42862500I500000J0D01*
G01*
X227300000Y-44450000D02*
G75*
G02*
X226300000Y-44450000I-500000J0D01*
G01*
X226300000Y-44450000D02*
G75*
G02*
X227300000Y-44450000I500000J0D01*
G01*
X227300000Y-123031250D02*
G75*
G02*
X226300000Y-123031250I-500000J0D01*
G01*
X226300000Y-123031250D02*
G75*
G02*
X227300000Y-123031250I500000J0D01*
G01*
X112500000Y-121481250D02*
G75*
G02*
X111900000Y-121481250I-300000J0D01*
G01*
X111900000Y-121481250D02*
G75*
G02*
X112500000Y-121481250I300000J0D01*
G01*
X65856249Y-112212499D02*
G75*
G02*
X64856251Y-112212499I-499999J0D01*
G01*
X64856251Y-112212499D02*
G75*
G02*
X65856249Y-112212499I499999J0D01*
G01*
X169800000Y-65118750D02*
G75*
G02*
X169200000Y-65118750I-300000J0D01*
G01*
X169200000Y-65118750D02*
G75*
G02*
X169800000Y-65118750I300000J0D01*
G01*
X169800000Y-52450000D02*
G75*
G02*
X169200000Y-52450000I-300000J0D01*
G01*
X169200000Y-52450000D02*
G75*
G02*
X169800000Y-52450000I300000J0D01*
G01*
X112500000Y-127862500D02*
G75*
G02*
X111900000Y-127862500I-300000J0D01*
G01*
X111900000Y-127862500D02*
G75*
G02*
X112500000Y-127862500I300000J0D01*
G01*
X38200000Y-112212500D02*
G75*
G02*
X35812500Y-109825000I0J2387500D01*
G01*
X122640000Y-93099998D02*
G75*
G02*
X122040000Y-93099998I-300000J0D01*
G01*
X122040000Y-93099998D02*
G75*
G02*
X122640000Y-93099998I300000J0D01*
G01*
X55161783Y-87375000D02*
G75*
G02*
X54561783Y-87375000I-300000J0D01*
G01*
X54561783Y-87375000D02*
G75*
G02*
X55161783Y-87375000I300000J0D01*
G01*
X112700000Y-66743750D02*
G75*
G02*
X111700000Y-66743750I-500000J0D01*
G01*
X111700000Y-66743750D02*
G75*
G02*
X112700000Y-66743750I500000J0D01*
G01*
X170000000Y-63500000D02*
G75*
G02*
X169000000Y-63500000I-500000J0D01*
G01*
X169000000Y-63500000D02*
G75*
G02*
X170000000Y-63500000I500000J0D01*
G01*
X265012500Y-128925000D02*
G75*
G02*
X262625000Y-131312500I-2387500J0D01*
G01*
X160487499Y-93099999D02*
G75*
G02*
X159487499Y-93099999I-500000J0D01*
G01*
X159487499Y-93099999D02*
G75*
G02*
X160487499Y-93099999I500000J0D01*
G01*
X55361783Y-58768750D02*
G75*
G02*
X54361783Y-58768750I-500000J0D01*
G01*
X54361783Y-58768750D02*
G75*
G02*
X55361783Y-58768750I500000J0D01*
G01*
X169800000Y-85756250D02*
G75*
G02*
X169200000Y-85756250I-300000J0D01*
G01*
X169200000Y-85756250D02*
G75*
G02*
X169800000Y-85756250I300000J0D01*
G01*
X246400000Y-90550000D02*
G75*
G02*
X245400000Y-90550000I-500000J0D01*
G01*
X245400000Y-90550000D02*
G75*
G02*
X246400000Y-90550000I500000J0D01*
G01*
X131600000Y-49243750D02*
G75*
G02*
X131000000Y-49243750I-300000J0D01*
G01*
X131000000Y-49243750D02*
G75*
G02*
X131600000Y-49243750I300000J0D01*
G01*
X227300000Y-115093750D02*
G75*
G02*
X226300000Y-115093750I-500000J0D01*
G01*
X226300000Y-115093750D02*
G75*
G02*
X227300000Y-115093750I500000J0D01*
G01*
X246400000Y-109600000D02*
G75*
G02*
X245400000Y-109600000I-500000J0D01*
G01*
X245400000Y-109600000D02*
G75*
G02*
X246400000Y-109600000I500000J0D01*
G01*
X80193749Y-112212499D02*
G75*
G02*
X79193751Y-112212499I-499999J0D01*
G01*
X79193751Y-112212499D02*
G75*
G02*
X80193749Y-112212499I499999J0D01*
G01*
X112500000Y-108018750D02*
G75*
G02*
X111900000Y-108018750I-300000J0D01*
G01*
X111900000Y-108018750D02*
G75*
G02*
X112500000Y-108018750I300000J0D01*
G01*
X246400000Y-103218750D02*
G75*
G02*
X245400000Y-103218750I-500000J0D01*
G01*
X245400000Y-103218750D02*
G75*
G02*
X246400000Y-103218750I500000J0D01*
G01*
X206087500Y-112212503D02*
G75*
G02*
X205087500Y-112212503I-500000J0D01*
G01*
X205087500Y-112212503D02*
G75*
G02*
X206087500Y-112212503I500000J0D01*
G01*
X169800000Y-69881250D02*
G75*
G02*
X169200000Y-69881250I-300000J0D01*
G01*
X169200000Y-69881250D02*
G75*
G02*
X169800000Y-69881250I300000J0D01*
G01*
X35825000Y-95500000D02*
G75*
G02*
X38212500Y-93112500I2387500J0D01*
G01*
X129481249Y-93099997D02*
G75*
G02*
X128481251Y-93099997I-499999J0D01*
G01*
X128481251Y-93099997D02*
G75*
G02*
X129481249Y-93099997I499999J0D01*
G01*
X55361783Y-63531250D02*
G75*
G02*
X54361783Y-63531250I-500000J0D01*
G01*
X54361783Y-63531250D02*
G75*
G02*
X55361783Y-63531250I500000J0D01*
G01*
X227300000Y-42862500D02*
G75*
G02*
X226300000Y-42862500I-500000J0D01*
G01*
X226300000Y-42862500D02*
G75*
G02*
X227300000Y-42862500I500000J0D01*
G01*
X188874283Y-66706250D02*
G75*
G02*
X188274283Y-66706250I-300000J0D01*
G01*
X188274283Y-66706250D02*
G75*
G02*
X188874283Y-66706250I300000J0D01*
G01*
X235831248Y-93099999D02*
G75*
G02*
X234831250Y-93099999I-499999J0D01*
G01*
X234831250Y-93099999D02*
G75*
G02*
X235831248Y-93099999I499999J0D01*
G01*
X178868749Y-93099999D02*
G75*
G02*
X177868751Y-93099999I-499999J0D01*
G01*
X177868751Y-93099999D02*
G75*
G02*
X178868749Y-93099999I499999J0D01*
G01*
X188874283Y-69881250D02*
G75*
G02*
X188274283Y-69881250I-300000J0D01*
G01*
X188274283Y-69881250D02*
G75*
G02*
X188874283Y-69881250I300000J0D01*
G01*
X246200000Y-77787500D02*
G75*
G02*
X245600000Y-77787500I-300000J0D01*
G01*
X245600000Y-77787500D02*
G75*
G02*
X246200000Y-77787500I300000J0D01*
G01*
X150700000Y-88931250D02*
G75*
G02*
X150100000Y-88931250I-300000J0D01*
G01*
X150100000Y-88931250D02*
G75*
G02*
X150700000Y-88931250I300000J0D01*
G01*
X213443749Y-93100000D02*
G75*
G02*
X212443749Y-93100000I-500000J0D01*
G01*
X212443749Y-93100000D02*
G75*
G02*
X213443749Y-93100000I500000J0D01*
G01*
X112500000Y-39900000D02*
G75*
G02*
X111900000Y-39900000I-300000J0D01*
G01*
X111900000Y-39900000D02*
G75*
G02*
X112500000Y-39900000I300000J0D01*
G01*
X55361783Y-77818750D02*
G75*
G02*
X54361783Y-77818750I-500000J0D01*
G01*
X54361783Y-77818750D02*
G75*
G02*
X55361783Y-77818750I500000J0D01*
G01*
X169449283Y-128911783D02*
G75*
G02*
X167061783Y-131299283I-2387483J-17D01*
G01*
X38200000Y-131312500D02*
X52423566Y-131312500D01*
X174106249Y-112212502D02*
G75*
G02*
X173106251Y-112212502I-499999J0D01*
G01*
X173106251Y-112212502D02*
G75*
G02*
X174106249Y-112212502I499999J0D01*
G01*
X150374283Y-128911783D02*
G75*
G02*
X147986783Y-131299283I-2387483J-17D01*
G01*
X55361783Y-61943750D02*
G75*
G02*
X54361783Y-61943750I-500000J0D01*
G01*
X54361783Y-61943750D02*
G75*
G02*
X55361783Y-61943750I500000J0D01*
G01*
X208200000Y-63500000D02*
G75*
G02*
X207200000Y-63500000I-500000J0D01*
G01*
X207200000Y-63500000D02*
G75*
G02*
X208200000Y-63500000I500000J0D01*
G01*
X242212498Y-112212502D02*
G75*
G02*
X241212500Y-112212502I-499999J0D01*
G01*
X241212500Y-112212502D02*
G75*
G02*
X242212498Y-112212502I499999J0D01*
G01*
X226749283Y-128911783D02*
X226850717Y-128911783D01*
X155475000Y-93099999D02*
G75*
G02*
X154875000Y-93099999I-300000J0D01*
G01*
X154875000Y-93099999D02*
G75*
G02*
X155475000Y-93099999I300000J0D01*
G01*
X246400000Y-69881250D02*
G75*
G02*
X245400000Y-69881250I-500000J0D01*
G01*
X245400000Y-69881250D02*
G75*
G02*
X246400000Y-69881250I500000J0D01*
G01*
X170000000Y-60325000D02*
G75*
G02*
X169000000Y-60325000I-500000J0D01*
G01*
X169000000Y-60325000D02*
G75*
G02*
X170000000Y-60325000I500000J0D01*
G01*
X112700000Y-76237500D02*
G75*
G02*
X111700000Y-76237500I-500000J0D01*
G01*
X111700000Y-76237500D02*
G75*
G02*
X112700000Y-76237500I500000J0D01*
G01*
X99112499Y-93099998D02*
G75*
G02*
X98112499Y-93099998I-500000J0D01*
G01*
X98112499Y-93099998D02*
G75*
G02*
X99112499Y-93099998I500000J0D01*
G01*
X227300000Y-60325000D02*
G75*
G02*
X226300000Y-60325000I-500000J0D01*
G01*
X226300000Y-60325000D02*
G75*
G02*
X227300000Y-60325000I500000J0D01*
G01*
X150700000Y-85756250D02*
G75*
G02*
X150100000Y-85756250I-300000J0D01*
G01*
X150100000Y-85756250D02*
G75*
G02*
X150700000Y-85756250I300000J0D01*
G01*
X221431248Y-112212502D02*
G75*
G02*
X220431250Y-112212502I-499999J0D01*
G01*
X220431250Y-112212502D02*
G75*
G02*
X221431248Y-112212502I499999J0D01*
G01*
X91387499Y-93099997D02*
G75*
G02*
X90387499Y-93099997I-500000J0D01*
G01*
X90387499Y-93099997D02*
G75*
G02*
X91387499Y-93099997I500000J0D01*
G01*
X193275000Y-93099999D02*
G75*
G02*
X192275002Y-93099999I-499999J0D01*
G01*
X192275002Y-93099999D02*
G75*
G02*
X193275000Y-93099999I499999J0D01*
G01*
X188874283Y-49243750D02*
G75*
G02*
X188274283Y-49243750I-300000J0D01*
G01*
X188274283Y-49243750D02*
G75*
G02*
X188874283Y-49243750I300000J0D01*
G01*
X208000000Y-69881250D02*
G75*
G02*
X207400000Y-69881250I-300000J0D01*
G01*
X207400000Y-69881250D02*
G75*
G02*
X208000000Y-69881250I300000J0D01*
G01*
X167756249Y-93099999D02*
G75*
G02*
X166756251Y-93099999I-499999J0D01*
G01*
X166756251Y-93099999D02*
G75*
G02*
X167756249Y-93099999I499999J0D01*
G01*
X227300000Y-52450000D02*
G75*
G02*
X226300000Y-52450000I-500000J0D01*
G01*
X226300000Y-52450000D02*
G75*
G02*
X227300000Y-52450000I500000J0D01*
G01*
X112700000Y-63537500D02*
G75*
G02*
X111700000Y-63537500I-500000J0D01*
G01*
X111700000Y-63537500D02*
G75*
G02*
X112700000Y-63537500I500000J0D01*
G01*
X189074283Y-118237500D02*
G75*
G02*
X188074283Y-118237500I-500000J0D01*
G01*
X188074283Y-118237500D02*
G75*
G02*
X189074283Y-118237500I500000J0D01*
G01*
X112700000Y-104843750D02*
G75*
G02*
X111700000Y-104843750I-500000J0D01*
G01*
X111700000Y-104843750D02*
G75*
G02*
X112700000Y-104843750I500000J0D01*
G01*
X188874283Y-76200000D02*
G75*
G02*
X188274283Y-76200000I-300000J0D01*
G01*
X188274283Y-76200000D02*
G75*
G02*
X188874283Y-76200000I300000J0D01*
G01*
X91387499Y-112212500D02*
G75*
G02*
X90387499Y-112212500I-500000J0D01*
G01*
X90387499Y-112212500D02*
G75*
G02*
X91387499Y-112212500I500000J0D01*
G01*
X88190000Y-93099996D02*
G75*
G02*
X87590000Y-93099996I-300000J0D01*
G01*
X87590000Y-93099996D02*
G75*
G02*
X88190000Y-93099996I300000J0D01*
G01*
X131600000Y-70000000D02*
G75*
G02*
X131000000Y-70000000I-300000J0D01*
G01*
X131000000Y-70000000D02*
G75*
G02*
X131600000Y-70000000I300000J0D01*
G01*
X115112500Y-112212501D02*
G75*
G02*
X114112500Y-112212501I-500000J0D01*
G01*
X114112500Y-112212501D02*
G75*
G02*
X115112500Y-112212501I500000J0D01*
G01*
X226749283Y-128911783D02*
G75*
G02*
X224361783Y-131299283I-2387483J-17D01*
G01*
X227100000Y-85756250D02*
G75*
G02*
X226500000Y-85756250I-300000J0D01*
G01*
X226500000Y-85756250D02*
G75*
G02*
X227100000Y-85756250I300000J0D01*
G01*
X170000000Y-41275000D02*
G75*
G02*
X169000000Y-41275000I-500000J0D01*
G01*
X169000000Y-41275000D02*
G75*
G02*
X170000000Y-41275000I500000J0D01*
G01*
X150900000Y-58737500D02*
G75*
G02*
X149900000Y-58737500I-500000J0D01*
G01*
X149900000Y-58737500D02*
G75*
G02*
X150900000Y-58737500I500000J0D01*
G01*
X124687499Y-112212500D02*
G75*
G02*
X123687501Y-112212500I-499999J0D01*
G01*
X123687501Y-112212500D02*
G75*
G02*
X124687499Y-112212500I499999J0D01*
G01*
X246200000Y-50831250D02*
G75*
G02*
X245600000Y-50831250I-300000J0D01*
G01*
X245600000Y-50831250D02*
G75*
G02*
X246200000Y-50831250I300000J0D01*
G01*
X133763217Y-131299283D02*
G75*
G02*
X131375717Y-128911783I-17J2387483D01*
G01*
X246400000Y-80962500D02*
G75*
G02*
X245400000Y-80962500I-500000J0D01*
G01*
X245400000Y-80962500D02*
G75*
G02*
X246400000Y-80962500I500000J0D01*
G01*
X208000000Y-52450000D02*
G75*
G02*
X207400000Y-52450000I-300000J0D01*
G01*
X207400000Y-52450000D02*
G75*
G02*
X208000000Y-52450000I300000J0D01*
G01*
X52423566Y-35812500D02*
G75*
G02*
X54811100Y-38200000I34J-2387500D01*
G01*
X152500000Y-93099998D02*
G75*
G02*
X151900000Y-93099998I-300000J0D01*
G01*
X151900000Y-93099998D02*
G75*
G02*
X152500000Y-93099998I300000J0D01*
G01*
X208000000Y-88931250D02*
G75*
G02*
X207400000Y-88931250I-300000J0D01*
G01*
X207400000Y-88931250D02*
G75*
G02*
X208000000Y-88931250I300000J0D01*
G01*
X186875001Y-93099999D02*
G75*
G02*
X185875003Y-93099999I-499999J0D01*
G01*
X185875003Y-93099999D02*
G75*
G02*
X186875001Y-93099999I499999J0D01*
G01*
X167086783Y-35812500D02*
X152838217Y-35812500D01*
X46310000Y-112212500D02*
G75*
G02*
X45710000Y-112212500I-300000J0D01*
G01*
X45710000Y-112212500D02*
G75*
G02*
X46310000Y-112212500I300000J0D01*
G01*
X246400000Y-61912500D02*
G75*
G02*
X245400000Y-61912500I-500000J0D01*
G01*
X245400000Y-61912500D02*
G75*
G02*
X246400000Y-61912500I500000J0D01*
G01*
X248999998Y-93099999D02*
G75*
G02*
X248000000Y-93099999I-499999J0D01*
G01*
X248000000Y-93099999D02*
G75*
G02*
X248999998Y-93099999I499999J0D01*
G01*
X114663217Y-35812500D02*
X128886783Y-35812500D01*
X246400000Y-88931250D02*
G75*
G02*
X245400000Y-88931250I-500000J0D01*
G01*
X245400000Y-88931250D02*
G75*
G02*
X246400000Y-88931250I500000J0D01*
G01*
X150700000Y-95000000D02*
G75*
G02*
X150100000Y-95000000I-300000J0D01*
G01*
X150100000Y-95000000D02*
G75*
G02*
X150700000Y-95000000I300000J0D01*
G01*
X210299999Y-93099999D02*
G75*
G02*
X209300001Y-93099999I-499999J0D01*
G01*
X209300001Y-93099999D02*
G75*
G02*
X210299999Y-93099999I499999J0D01*
G01*
X126306249Y-112212500D02*
G75*
G02*
X125306251Y-112212500I-499999J0D01*
G01*
X125306251Y-112212500D02*
G75*
G02*
X126306249Y-112212500I499999J0D01*
G01*
X131800000Y-77787500D02*
G75*
G02*
X130800000Y-77787500I-500000J0D01*
G01*
X130800000Y-77787500D02*
G75*
G02*
X131800000Y-77787500I500000J0D01*
G01*
X112700000Y-61950000D02*
G75*
G02*
X111700000Y-61950000I-500000J0D01*
G01*
X111700000Y-61950000D02*
G75*
G02*
X112700000Y-61950000I500000J0D01*
G01*
X112700000Y-60362500D02*
G75*
G02*
X111700000Y-60362500I-500000J0D01*
G01*
X111700000Y-60362500D02*
G75*
G02*
X112700000Y-60362500I500000J0D01*
G01*
X259912499Y-93099999D02*
G75*
G02*
X259312499Y-93099999I-300000J0D01*
G01*
X259312499Y-93099999D02*
G75*
G02*
X259912499Y-93099999I300000J0D01*
G01*
X169800000Y-127825000D02*
G75*
G02*
X169200000Y-127825000I-300000J0D01*
G01*
X169200000Y-127825000D02*
G75*
G02*
X169800000Y-127825000I300000J0D01*
G01*
X198068750Y-93099999D02*
G75*
G02*
X197068752Y-93099999I-499999J0D01*
G01*
X197068752Y-93099999D02*
G75*
G02*
X198068750Y-93099999I499999J0D01*
G01*
X81781249Y-112212499D02*
G75*
G02*
X80781251Y-112212499I-499999J0D01*
G01*
X80781251Y-112212499D02*
G75*
G02*
X81781249Y-112212499I499999J0D01*
G01*
X208200000Y-119825000D02*
G75*
G02*
X207200000Y-119825000I-500000J0D01*
G01*
X207200000Y-119825000D02*
G75*
G02*
X208200000Y-119825000I500000J0D01*
G01*
X171938217Y-131299283D02*
X186186783Y-131299283D01*
X202943750Y-93099999D02*
G75*
G02*
X201943752Y-93099999I-499999J0D01*
G01*
X201943752Y-93099999D02*
G75*
G02*
X202943750Y-93099999I499999J0D01*
G01*
X208200000Y-95250000D02*
G75*
G02*
X207200000Y-95250000I-500000J0D01*
G01*
X207200000Y-95250000D02*
G75*
G02*
X208200000Y-95250000I500000J0D01*
G01*
X189074283Y-103218750D02*
G75*
G02*
X188074283Y-103218750I-500000J0D01*
G01*
X188074283Y-103218750D02*
G75*
G02*
X189074283Y-103218750I500000J0D01*
G01*
X227100000Y-106393750D02*
G75*
G02*
X226500000Y-106393750I-300000J0D01*
G01*
X226500000Y-106393750D02*
G75*
G02*
X227100000Y-106393750I300000J0D01*
G01*
X189074283Y-126206250D02*
G75*
G02*
X188074283Y-126206250I-500000J0D01*
G01*
X188074283Y-126206250D02*
G75*
G02*
X189074283Y-126206250I500000J0D01*
G01*
X65656250Y-93099996D02*
G75*
G02*
X65056250Y-93099996I-300000J0D01*
G01*
X65056250Y-93099996D02*
G75*
G02*
X65656250Y-93099996I300000J0D01*
G01*
X208200000Y-80962500D02*
G75*
G02*
X207200000Y-80962500I-500000J0D01*
G01*
X207200000Y-80962500D02*
G75*
G02*
X208200000Y-80962500I500000J0D01*
G01*
X69000000Y-93099997D02*
G75*
G02*
X68000000Y-93099997I-500000J0D01*
G01*
X68000000Y-93099997D02*
G75*
G02*
X69000000Y-93099997I500000J0D01*
G01*
X227100000Y-71500000D02*
G75*
G02*
X226500000Y-71500000I-300000J0D01*
G01*
X226500000Y-71500000D02*
G75*
G02*
X227100000Y-71500000I300000J0D01*
G01*
X246200000Y-124618750D02*
G75*
G02*
X245600000Y-124618750I-300000J0D01*
G01*
X245600000Y-124618750D02*
G75*
G02*
X246200000Y-124618750I300000J0D01*
G01*
X246400000Y-57150000D02*
G75*
G02*
X245400000Y-57150000I-500000J0D01*
G01*
X245400000Y-57150000D02*
G75*
G02*
X246400000Y-57150000I500000J0D01*
G01*
X55361783Y-82581250D02*
G75*
G02*
X54361783Y-82581250I-500000J0D01*
G01*
X54361783Y-82581250D02*
G75*
G02*
X55361783Y-82581250I500000J0D01*
G01*
X246400000Y-41275000D02*
G75*
G02*
X245400000Y-41275000I-500000J0D01*
G01*
X245400000Y-41275000D02*
G75*
G02*
X246400000Y-41275000I500000J0D01*
G01*
X150900000Y-60325000D02*
G75*
G02*
X149900000Y-60325000I-500000J0D01*
G01*
X149900000Y-60325000D02*
G75*
G02*
X150900000Y-60325000I500000J0D01*
G01*
X170000000Y-44450000D02*
G75*
G02*
X169000000Y-44450000I-500000J0D01*
G01*
X169000000Y-44450000D02*
G75*
G02*
X170000000Y-44450000I500000J0D01*
G01*
X55161783Y-50810000D02*
G75*
G02*
X54561783Y-50810000I-300000J0D01*
G01*
X54561783Y-50810000D02*
G75*
G02*
X55161783Y-50810000I300000J0D01*
G01*
X213443749Y-112212503D02*
G75*
G02*
X212443749Y-112212503I-500000J0D01*
G01*
X212443749Y-112212503D02*
G75*
G02*
X213443749Y-112212503I500000J0D01*
G01*
X55361783Y-121475000D02*
G75*
G02*
X54361783Y-121475000I-500000J0D01*
G01*
X54361783Y-121475000D02*
G75*
G02*
X55361783Y-121475000I500000J0D01*
G01*
X57300000Y-131312500D02*
G75*
G02*
X54912500Y-128925000I0J2387500D01*
G01*
X131274283Y-128911783D02*
X131375717Y-128911783D01*
X150700000Y-50831250D02*
G75*
G02*
X150100000Y-50831250I-300000J0D01*
G01*
X150100000Y-50831250D02*
G75*
G02*
X150700000Y-50831250I300000J0D01*
G01*
X169800000Y-66706250D02*
G75*
G02*
X169200000Y-66706250I-300000J0D01*
G01*
X169200000Y-66706250D02*
G75*
G02*
X169800000Y-66706250I300000J0D01*
G01*
X112700000Y-96875000D02*
G75*
G02*
X111700000Y-96875000I-500000J0D01*
G01*
X111700000Y-96875000D02*
G75*
G02*
X112700000Y-96875000I500000J0D01*
G01*
X208200000Y-101600000D02*
G75*
G02*
X207200000Y-101600000I-500000J0D01*
G01*
X207200000Y-101600000D02*
G75*
G02*
X208200000Y-101600000I500000J0D01*
G01*
X88043750Y-112212499D02*
G75*
G02*
X87443750Y-112212499I-300000J0D01*
G01*
X87443750Y-112212499D02*
G75*
G02*
X88043750Y-112212499I300000J0D01*
G01*
X189074283Y-47656250D02*
G75*
G02*
X188074283Y-47656250I-500000J0D01*
G01*
X188074283Y-47656250D02*
G75*
G02*
X189074283Y-47656250I500000J0D01*
G01*
X150700000Y-98425000D02*
G75*
G02*
X150100000Y-98425000I-300000J0D01*
G01*
X150100000Y-98425000D02*
G75*
G02*
X150700000Y-98425000I300000J0D01*
G01*
X189074283Y-116650000D02*
G75*
G02*
X188074283Y-116650000I-500000J0D01*
G01*
X188074283Y-116650000D02*
G75*
G02*
X189074283Y-116650000I500000J0D01*
G01*
X246400000Y-82550000D02*
G75*
G02*
X245400000Y-82550000I-500000J0D01*
G01*
X245400000Y-82550000D02*
G75*
G02*
X246400000Y-82550000I500000J0D01*
G01*
X150700000Y-39687500D02*
G75*
G02*
X150100000Y-39687500I-300000J0D01*
G01*
X150100000Y-39687500D02*
G75*
G02*
X150700000Y-39687500I300000J0D01*
G01*
X189074283Y-121443750D02*
G75*
G02*
X188074283Y-121443750I-500000J0D01*
G01*
X188074283Y-121443750D02*
G75*
G02*
X189074283Y-121443750I500000J0D01*
G01*
X112500000Y-42800000D02*
G75*
G02*
X111900000Y-42800000I-300000J0D01*
G01*
X111900000Y-42800000D02*
G75*
G02*
X112500000Y-42800000I300000J0D01*
G01*
X207674283Y-128911783D02*
X207775717Y-128911783D01*
X55161783Y-39920000D02*
G75*
G02*
X54561783Y-39920000I-300000J0D01*
G01*
X54561783Y-39920000D02*
G75*
G02*
X55161783Y-39920000I300000J0D01*
G01*
X188874283Y-88931250D02*
G75*
G02*
X188274283Y-88931250I-300000J0D01*
G01*
X188274283Y-88931250D02*
G75*
G02*
X188874283Y-88931250I300000J0D01*
G01*
X174106249Y-93099999D02*
G75*
G02*
X173106251Y-93099999I-499999J0D01*
G01*
X173106251Y-93099999D02*
G75*
G02*
X174106249Y-93099999I499999J0D01*
G01*
X107120000Y-93099997D02*
G75*
G02*
X106520000Y-93099997I-300000J0D01*
G01*
X106520000Y-93099997D02*
G75*
G02*
X107120000Y-93099997I300000J0D01*
G01*
X150450717Y-38200000D02*
G75*
G02*
X152838217Y-35812517I2387483J0D01*
G01*
X246200000Y-49243750D02*
G75*
G02*
X245600000Y-49243750I-300000J0D01*
G01*
X245600000Y-49243750D02*
G75*
G02*
X246200000Y-49243750I300000J0D01*
G01*
X150700000Y-63500000D02*
G75*
G02*
X150100000Y-63500000I-300000J0D01*
G01*
X150100000Y-63500000D02*
G75*
G02*
X150700000Y-63500000I300000J0D01*
G01*
X131600000Y-61700000D02*
G75*
G02*
X131000000Y-61700000I-300000J0D01*
G01*
X131000000Y-61700000D02*
G75*
G02*
X131600000Y-61700000I300000J0D01*
G01*
X255300000Y-93099999D02*
G75*
G02*
X254700000Y-93099999I-300000J0D01*
G01*
X254700000Y-93099999D02*
G75*
G02*
X255300000Y-93099999I300000J0D01*
G01*
X188574283Y-128911783D02*
X188675717Y-128911783D01*
X76520000Y-93099997D02*
G75*
G02*
X75920000Y-93099997I-300000J0D01*
G01*
X75920000Y-93099997D02*
G75*
G02*
X76520000Y-93099997I300000J0D01*
G01*
X150700000Y-90550000D02*
G75*
G02*
X150100000Y-90550000I-300000J0D01*
G01*
X150100000Y-90550000D02*
G75*
G02*
X150700000Y-90550000I300000J0D01*
G01*
X246200000Y-47656250D02*
G75*
G02*
X245600000Y-47656250I-300000J0D01*
G01*
X245600000Y-47656250D02*
G75*
G02*
X246200000Y-47656250I300000J0D01*
G01*
X170000000Y-42862500D02*
G75*
G02*
X169000000Y-42862500I-500000J0D01*
G01*
X169000000Y-42862500D02*
G75*
G02*
X170000000Y-42862500I500000J0D01*
G01*
X243831249Y-93100000D02*
G75*
G02*
X242831249Y-93100000I-500000J0D01*
G01*
X242831249Y-93100000D02*
G75*
G02*
X243831249Y-93100000I500000J0D01*
G01*
X169800000Y-49243750D02*
G75*
G02*
X169200000Y-49243750I-300000J0D01*
G01*
X169200000Y-49243750D02*
G75*
G02*
X169800000Y-49243750I300000J0D01*
G01*
X191063217Y-131299283D02*
G75*
G02*
X188675717Y-128911783I-17J2387483D01*
G01*
X112700000Y-116687500D02*
G75*
G02*
X111700000Y-116687500I-500000J0D01*
G01*
X111700000Y-116687500D02*
G75*
G02*
X112700000Y-116687500I500000J0D01*
G01*
X55361783Y-76231250D02*
G75*
G02*
X54361783Y-76231250I-500000J0D01*
G01*
X54361783Y-76231250D02*
G75*
G02*
X55361783Y-76231250I500000J0D01*
G01*
X208200000Y-41275000D02*
G75*
G02*
X207200000Y-41275000I-500000J0D01*
G01*
X207200000Y-41275000D02*
G75*
G02*
X208200000Y-41275000I500000J0D01*
G01*
X208000000Y-39687500D02*
G75*
G02*
X207400000Y-39687500I-300000J0D01*
G01*
X207400000Y-39687500D02*
G75*
G02*
X208000000Y-39687500I300000J0D01*
G01*
X71975001Y-112212499D02*
G75*
G02*
X71375001Y-112212499I-300000J0D01*
G01*
X71375001Y-112212499D02*
G75*
G02*
X71975001Y-112212499I300000J0D01*
G01*
X216699998Y-93099999D02*
G75*
G02*
X215700000Y-93099999I-499999J0D01*
G01*
X215700000Y-93099999D02*
G75*
G02*
X216699998Y-93099999I499999J0D01*
G01*
X112700000Y-124656250D02*
G75*
G02*
X111700000Y-124656250I-500000J0D01*
G01*
X111700000Y-124656250D02*
G75*
G02*
X112700000Y-124656250I500000J0D01*
G01*
X191063217Y-35812500D02*
X205286783Y-35812500D01*
X86220000Y-93099997D02*
G75*
G02*
X85620000Y-93099997I-300000J0D01*
G01*
X85620000Y-93099997D02*
G75*
G02*
X86220000Y-93099997I300000J0D01*
G01*
X210299999Y-112212502D02*
G75*
G02*
X209300001Y-112212502I-499999J0D01*
G01*
X209300001Y-112212502D02*
G75*
G02*
X210299999Y-112212502I499999J0D01*
G01*
X170000000Y-61912500D02*
G75*
G02*
X169000000Y-61912500I-500000J0D01*
G01*
X169000000Y-61912500D02*
G75*
G02*
X170000000Y-61912500I500000J0D01*
G01*
X147400000Y-112212501D02*
G75*
G02*
X146800000Y-112212501I-300000J0D01*
G01*
X146800000Y-112212501D02*
G75*
G02*
X147400000Y-112212501I300000J0D01*
G01*
X141399999Y-93099998D02*
G75*
G02*
X140400001Y-93099998I-499999J0D01*
G01*
X140400001Y-93099998D02*
G75*
G02*
X141399999Y-93099998I499999J0D01*
G01*
X169800000Y-100012500D02*
G75*
G02*
X169200000Y-100012500I-300000J0D01*
G01*
X169200000Y-100012500D02*
G75*
G02*
X169800000Y-100012500I300000J0D01*
G01*
X208000000Y-71500000D02*
G75*
G02*
X207400000Y-71500000I-300000J0D01*
G01*
X207400000Y-71500000D02*
G75*
G02*
X208000000Y-71500000I300000J0D01*
G01*
X188874283Y-124618750D02*
G75*
G02*
X188274283Y-124618750I-300000J0D01*
G01*
X188274283Y-124618750D02*
G75*
G02*
X188874283Y-124618750I300000J0D01*
G01*
X112700000Y-98462500D02*
G75*
G02*
X111700000Y-98462500I-500000J0D01*
G01*
X111700000Y-98462500D02*
G75*
G02*
X112700000Y-98462500I500000J0D01*
G01*
X145887499Y-112212502D02*
G75*
G02*
X145287499Y-112212502I-300000J0D01*
G01*
X145287499Y-112212502D02*
G75*
G02*
X145887499Y-112212502I300000J0D01*
G01*
X131800000Y-107981250D02*
G75*
G02*
X130800000Y-107981250I-500000J0D01*
G01*
X130800000Y-107981250D02*
G75*
G02*
X131800000Y-107981250I500000J0D01*
G01*
X68800000Y-112212500D02*
G75*
G02*
X68200000Y-112212500I-300000J0D01*
G01*
X68200000Y-112212500D02*
G75*
G02*
X68800000Y-112212500I300000J0D01*
G01*
X84956249Y-112212499D02*
G75*
G02*
X83956251Y-112212499I-499999J0D01*
G01*
X83956251Y-112212499D02*
G75*
G02*
X84956249Y-112212499I499999J0D01*
G01*
X227100000Y-124618750D02*
G75*
G02*
X226500000Y-124618750I-300000J0D01*
G01*
X226500000Y-124618750D02*
G75*
G02*
X227100000Y-124618750I300000J0D01*
G01*
X112700000Y-115131250D02*
G75*
G02*
X111700000Y-115131250I-500000J0D01*
G01*
X111700000Y-115131250D02*
G75*
G02*
X112700000Y-115131250I500000J0D01*
G01*
X67212499Y-93099997D02*
G75*
G02*
X66612499Y-93099997I-300000J0D01*
G01*
X66612499Y-93099997D02*
G75*
G02*
X67212499Y-93099997I300000J0D01*
G01*
X208000000Y-47656250D02*
G75*
G02*
X207400000Y-47656250I-300000J0D01*
G01*
X207400000Y-47656250D02*
G75*
G02*
X208000000Y-47656250I300000J0D01*
G01*
X246400000Y-121443750D02*
G75*
G02*
X245400000Y-121443750I-500000J0D01*
G01*
X245400000Y-121443750D02*
G75*
G02*
X246400000Y-121443750I500000J0D01*
G01*
X189074283Y-44450000D02*
G75*
G02*
X188074283Y-44450000I-500000J0D01*
G01*
X188074283Y-44450000D02*
G75*
G02*
X189074283Y-44450000I500000J0D01*
G01*
X55361783Y-42893750D02*
G75*
G02*
X54361783Y-42893750I-500000J0D01*
G01*
X54361783Y-42893750D02*
G75*
G02*
X55361783Y-42893750I500000J0D01*
G01*
X256937498Y-112212502D02*
G75*
G02*
X255937500Y-112212502I-499999J0D01*
G01*
X255937500Y-112212502D02*
G75*
G02*
X256937498Y-112212502I499999J0D01*
G01*
X134356249Y-112212500D02*
G75*
G02*
X133356251Y-112212500I-499999J0D01*
G01*
X133356251Y-112212500D02*
G75*
G02*
X134356249Y-112212500I499999J0D01*
G01*
X112700000Y-103256250D02*
G75*
G02*
X111700000Y-103256250I-500000J0D01*
G01*
X111700000Y-103256250D02*
G75*
G02*
X112700000Y-103256250I500000J0D01*
G01*
X112500000Y-58775000D02*
G75*
G02*
X111900000Y-58775000I-300000J0D01*
G01*
X111900000Y-58775000D02*
G75*
G02*
X112500000Y-58775000I300000J0D01*
G01*
X191687500Y-112212503D02*
G75*
G02*
X190687500Y-112212503I-500000J0D01*
G01*
X190687500Y-112212503D02*
G75*
G02*
X191687500Y-112212503I500000J0D01*
G01*
X208200000Y-100012500D02*
G75*
G02*
X207200000Y-100012500I-500000J0D01*
G01*
X207200000Y-100012500D02*
G75*
G02*
X208200000Y-100012500I500000J0D01*
G01*
X81781249Y-93099996D02*
G75*
G02*
X80781251Y-93099996I-499999J0D01*
G01*
X80781251Y-93099996D02*
G75*
G02*
X81781249Y-93099996I499999J0D01*
G01*
X227100000Y-87343750D02*
G75*
G02*
X226500000Y-87343750I-300000J0D01*
G01*
X226500000Y-87343750D02*
G75*
G02*
X227100000Y-87343750I300000J0D01*
G01*
X234243748Y-93100000D02*
G75*
G02*
X233243748Y-93100000I-500000J0D01*
G01*
X233243748Y-93100000D02*
G75*
G02*
X234243748Y-93100000I500000J0D01*
G01*
X175693749Y-93099999D02*
G75*
G02*
X174693751Y-93099999I-499999J0D01*
G01*
X174693751Y-93099999D02*
G75*
G02*
X175693749Y-93099999I499999J0D01*
G01*
X188874283Y-50831250D02*
G75*
G02*
X188274283Y-50831250I-300000J0D01*
G01*
X188274283Y-50831250D02*
G75*
G02*
X188874283Y-50831250I300000J0D01*
G01*
X55361783Y-98456250D02*
G75*
G02*
X54361783Y-98456250I-500000J0D01*
G01*
X54361783Y-98456250D02*
G75*
G02*
X55361783Y-98456250I500000J0D01*
G01*
X150900000Y-46068750D02*
G75*
G02*
X149900000Y-46068750I-500000J0D01*
G01*
X149900000Y-46068750D02*
G75*
G02*
X150900000Y-46068750I500000J0D01*
G01*
X131800000Y-84168750D02*
G75*
G02*
X130800000Y-84168750I-500000J0D01*
G01*
X130800000Y-84168750D02*
G75*
G02*
X131800000Y-84168750I500000J0D01*
G01*
X54811066Y-128925000D02*
X54912500Y-128925000D01*
X211856249Y-93100000D02*
G75*
G02*
X210856249Y-93100000I-500000J0D01*
G01*
X210856249Y-93100000D02*
G75*
G02*
X211856249Y-93100000I500000J0D01*
G01*
X227300000Y-116650000D02*
G75*
G02*
X226300000Y-116650000I-500000J0D01*
G01*
X226300000Y-116650000D02*
G75*
G02*
X227300000Y-116650000I500000J0D01*
G01*
X150700000Y-100012500D02*
G75*
G02*
X150100000Y-100012500I-300000J0D01*
G01*
X150100000Y-100012500D02*
G75*
G02*
X150700000Y-100012500I300000J0D01*
G01*
X89799999Y-93099997D02*
G75*
G02*
X88799999Y-93099997I-500000J0D01*
G01*
X88799999Y-93099997D02*
G75*
G02*
X89799999Y-93099997I500000J0D01*
G01*
X169800000Y-47656250D02*
G75*
G02*
X169200000Y-47656250I-300000J0D01*
G01*
X169200000Y-47656250D02*
G75*
G02*
X169800000Y-47656250I300000J0D01*
G01*
X219843748Y-93100000D02*
G75*
G02*
X218843748Y-93100000I-500000J0D01*
G01*
X218843748Y-93100000D02*
G75*
G02*
X219843748Y-93100000I500000J0D01*
G01*
X55361783Y-116681250D02*
G75*
G02*
X54361783Y-116681250I-500000J0D01*
G01*
X54361783Y-116681250D02*
G75*
G02*
X55361783Y-116681250I500000J0D01*
G01*
X103706250Y-112212500D02*
G75*
G02*
X103106250Y-112212500I-300000J0D01*
G01*
X103106250Y-112212500D02*
G75*
G02*
X103706250Y-112212500I300000J0D01*
G01*
X216699998Y-112212502D02*
G75*
G02*
X215700000Y-112212502I-499999J0D01*
G01*
X215700000Y-112212502D02*
G75*
G02*
X216699998Y-112212502I499999J0D01*
G01*
X147961783Y-35812500D02*
G75*
G02*
X150349300Y-38200000I17J-2387500D01*
G01*
X35812500Y-114600000D02*
X35812500Y-128925000D01*
X108668749Y-112212500D02*
G75*
G02*
X107668751Y-112212500I-499999J0D01*
G01*
X107668751Y-112212500D02*
G75*
G02*
X108668749Y-112212500I499999J0D01*
G01*
X35812500Y-38200000D02*
G75*
G02*
X38200000Y-35812500I2387500J0D01*
G01*
X55361783Y-44481250D02*
G75*
G02*
X54361783Y-44481250I-500000J0D01*
G01*
X54361783Y-44481250D02*
G75*
G02*
X55361783Y-44481250I500000J0D01*
G01*
X204500000Y-112212503D02*
G75*
G02*
X203500000Y-112212503I-500000J0D01*
G01*
X203500000Y-112212503D02*
G75*
G02*
X204500000Y-112212503I500000J0D01*
G01*
X102287499Y-112212500D02*
G75*
G02*
X101287501Y-112212500I-499999J0D01*
G01*
X101287501Y-112212500D02*
G75*
G02*
X102287499Y-112212500I499999J0D01*
G01*
X131600000Y-88931250D02*
G75*
G02*
X131000000Y-88931250I-300000J0D01*
G01*
X131000000Y-88931250D02*
G75*
G02*
X131600000Y-88931250I300000J0D01*
G01*
X169800000Y-88931250D02*
G75*
G02*
X169200000Y-88931250I-300000J0D01*
G01*
X169200000Y-88931250D02*
G75*
G02*
X169800000Y-88931250I300000J0D01*
G01*
X221431248Y-93099999D02*
G75*
G02*
X220431250Y-93099999I-499999J0D01*
G01*
X220431250Y-93099999D02*
G75*
G02*
X221431248Y-93099999I499999J0D01*
G01*
X246400000Y-115093750D02*
G75*
G02*
X245400000Y-115093750I-500000J0D01*
G01*
X245400000Y-115093750D02*
G75*
G02*
X246400000Y-115093750I500000J0D01*
G01*
X150700000Y-127825000D02*
G75*
G02*
X150100000Y-127825000I-300000J0D01*
G01*
X150100000Y-127825000D02*
G75*
G02*
X150700000Y-127825000I300000J0D01*
G01*
X150900000Y-42862500D02*
G75*
G02*
X149900000Y-42862500I-500000J0D01*
G01*
X149900000Y-42862500D02*
G75*
G02*
X150900000Y-42862500I500000J0D01*
G01*
X55361783Y-127838217D02*
G75*
G02*
X54361783Y-127838217I-500000J0D01*
G01*
X54361783Y-127838217D02*
G75*
G02*
X55361783Y-127838217I500000J0D01*
G01*
X194893750Y-93099999D02*
G75*
G02*
X193893752Y-93099999I-499999J0D01*
G01*
X193893752Y-93099999D02*
G75*
G02*
X194893750Y-93099999I499999J0D01*
G01*
X210163217Y-35812500D02*
X224361783Y-35812500D01*
X232656248Y-93100000D02*
G75*
G02*
X231656248Y-93100000I-500000J0D01*
G01*
X231656248Y-93100000D02*
G75*
G02*
X232656248Y-93100000I500000J0D01*
G01*
X131800000Y-41275000D02*
G75*
G02*
X130800000Y-41275000I-500000J0D01*
G01*
X130800000Y-41275000D02*
G75*
G02*
X131800000Y-41275000I500000J0D01*
G01*
X246400000Y-84168750D02*
G75*
G02*
X245400000Y-84168750I-500000J0D01*
G01*
X245400000Y-84168750D02*
G75*
G02*
X246400000Y-84168750I500000J0D01*
G01*
X256937498Y-93099999D02*
G75*
G02*
X255937500Y-93099999I-499999J0D01*
G01*
X255937500Y-93099999D02*
G75*
G02*
X256937498Y-93099999I499999J0D01*
G01*
X240750000Y-93099999D02*
G75*
G02*
X240150000Y-93099999I-300000J0D01*
G01*
X240150000Y-93099999D02*
G75*
G02*
X240750000Y-93099999I300000J0D01*
G01*
X172487499Y-93099999D02*
G75*
G02*
X171487501Y-93099999I-499999J0D01*
G01*
X171487501Y-93099999D02*
G75*
G02*
X172487499Y-93099999I499999J0D01*
G01*
X150900000Y-79375000D02*
G75*
G02*
X149900000Y-79375000I-500000J0D01*
G01*
X149900000Y-79375000D02*
G75*
G02*
X150900000Y-79375000I500000J0D01*
G01*
X150700000Y-69881250D02*
G75*
G02*
X150100000Y-69881250I-300000J0D01*
G01*
X150100000Y-69881250D02*
G75*
G02*
X150700000Y-69881250I300000J0D01*
G01*
X189074283Y-106393750D02*
G75*
G02*
X188074283Y-106393750I-500000J0D01*
G01*
X188074283Y-106393750D02*
G75*
G02*
X189074283Y-106393750I500000J0D01*
G01*
X229238217Y-35812500D02*
X243461783Y-35812500D01*
X189074283Y-85756250D02*
G75*
G02*
X188074283Y-85756250I-500000J0D01*
G01*
X188074283Y-85756250D02*
G75*
G02*
X189074283Y-85756250I500000J0D01*
G01*
X165887501Y-112212502D02*
G75*
G02*
X165287501Y-112212502I-300000J0D01*
G01*
X165287501Y-112212502D02*
G75*
G02*
X165887501Y-112212502I300000J0D01*
G01*
X131800000Y-42862500D02*
G75*
G02*
X130800000Y-42862500I-500000J0D01*
G01*
X130800000Y-42862500D02*
G75*
G02*
X131800000Y-42862500I500000J0D01*
G01*
X59393749Y-93099996D02*
G75*
G02*
X58393751Y-93099996I-499999J0D01*
G01*
X58393751Y-93099996D02*
G75*
G02*
X59393749Y-93099996I499999J0D01*
G01*
X207775717Y-38200000D02*
G75*
G02*
X210163217Y-35812517I2387483J0D01*
G01*
X227300000Y-118237500D02*
G75*
G02*
X226300000Y-118237500I-500000J0D01*
G01*
X226300000Y-118237500D02*
G75*
G02*
X227300000Y-118237500I500000J0D01*
G01*
X167556250Y-112212502D02*
G75*
G02*
X166956250Y-112212502I-300000J0D01*
G01*
X166956250Y-112212502D02*
G75*
G02*
X167556250Y-112212502I300000J0D01*
G01*
X208000000Y-87343750D02*
G75*
G02*
X207400000Y-87343750I-300000J0D01*
G01*
X207400000Y-87343750D02*
G75*
G02*
X208000000Y-87343750I300000J0D01*
G01*
X83368749Y-112212499D02*
G75*
G02*
X82368751Y-112212499I-499999J0D01*
G01*
X82368751Y-112212499D02*
G75*
G02*
X83368749Y-112212499I499999J0D01*
G01*
X55361783Y-100043750D02*
G75*
G02*
X54361783Y-100043750I-500000J0D01*
G01*
X54361783Y-100043750D02*
G75*
G02*
X55361783Y-100043750I500000J0D01*
G01*
X227100000Y-39687500D02*
G75*
G02*
X226500000Y-39687500I-300000J0D01*
G01*
X226500000Y-39687500D02*
G75*
G02*
X227100000Y-39687500I300000J0D01*
G01*
X208200000Y-84168750D02*
G75*
G02*
X207200000Y-84168750I-500000J0D01*
G01*
X207200000Y-84168750D02*
G75*
G02*
X208200000Y-84168750I500000J0D01*
G01*
X150700000Y-49243750D02*
G75*
G02*
X150100000Y-49243750I-300000J0D01*
G01*
X150100000Y-49243750D02*
G75*
G02*
X150700000Y-49243750I300000J0D01*
G01*
X55361783Y-104837500D02*
G75*
G02*
X54361783Y-104837500I-500000J0D01*
G01*
X54361783Y-104837500D02*
G75*
G02*
X55361783Y-104837500I500000J0D01*
G01*
X49587501Y-93099996D02*
G75*
G02*
X48987501Y-93099996I-300000J0D01*
G01*
X48987501Y-93099996D02*
G75*
G02*
X49587501Y-93099996I300000J0D01*
G01*
X189074283Y-127825000D02*
G75*
G02*
X188074283Y-127825000I-500000J0D01*
G01*
X188074283Y-127825000D02*
G75*
G02*
X189074283Y-127825000I500000J0D01*
G01*
X258090000Y-112212502D02*
G75*
G02*
X257490000Y-112212502I-300000J0D01*
G01*
X257490000Y-112212502D02*
G75*
G02*
X258090000Y-112212502I300000J0D01*
G01*
X55361783Y-101631250D02*
G75*
G02*
X54361783Y-101631250I-500000J0D01*
G01*
X54361783Y-101631250D02*
G75*
G02*
X55361783Y-101631250I500000J0D01*
G01*
X177281249Y-93099999D02*
G75*
G02*
X176281251Y-93099999I-499999J0D01*
G01*
X176281251Y-93099999D02*
G75*
G02*
X177281249Y-93099999I499999J0D01*
G01*
X131800000Y-109600000D02*
G75*
G02*
X130800000Y-109600000I-500000J0D01*
G01*
X130800000Y-109600000D02*
G75*
G02*
X131800000Y-109600000I500000J0D01*
G01*
X245849283Y-128911783D02*
G75*
G02*
X243461783Y-131299283I-2387483J-17D01*
G01*
X112700000Y-82587500D02*
G75*
G02*
X111700000Y-82587500I-500000J0D01*
G01*
X111700000Y-82587500D02*
G75*
G02*
X112700000Y-82587500I500000J0D01*
G01*
X112500000Y-44600000D02*
G75*
G02*
X111900000Y-44600000I-300000J0D01*
G01*
X111900000Y-44600000D02*
G75*
G02*
X112500000Y-44600000I300000J0D01*
G01*
X131800000Y-126500000D02*
G75*
G02*
X130800000Y-126500000I-500000J0D01*
G01*
X130800000Y-126500000D02*
G75*
G02*
X131800000Y-126500000I500000J0D01*
G01*
X258524998Y-93099999D02*
G75*
G02*
X257525000Y-93099999I-499999J0D01*
G01*
X257525000Y-93099999D02*
G75*
G02*
X258524998Y-93099999I499999J0D01*
G01*
X169800000Y-106393750D02*
G75*
G02*
X169200000Y-106393750I-300000J0D01*
G01*
X169200000Y-106393750D02*
G75*
G02*
X169800000Y-106393750I300000J0D01*
G01*
X43431249Y-112212501D02*
G75*
G02*
X42431249Y-112212501I-500000J0D01*
G01*
X42431249Y-112212501D02*
G75*
G02*
X43431249Y-112212501I500000J0D01*
G01*
X189074283Y-79375000D02*
G75*
G02*
X188074283Y-79375000I-500000J0D01*
G01*
X188074283Y-79375000D02*
G75*
G02*
X189074283Y-79375000I500000J0D01*
G01*
X208200000Y-115093750D02*
G75*
G02*
X207200000Y-115093750I-500000J0D01*
G01*
X207200000Y-115093750D02*
G75*
G02*
X208200000Y-115093750I500000J0D01*
G01*
X55361783Y-123062500D02*
G75*
G02*
X54361783Y-123062500I-500000J0D01*
G01*
X54361783Y-123062500D02*
G75*
G02*
X55361783Y-123062500I500000J0D01*
G01*
X185299999Y-93100000D02*
G75*
G02*
X184299999Y-93100000I-500000J0D01*
G01*
X184299999Y-93100000D02*
G75*
G02*
X185299999Y-93100000I500000J0D01*
G01*
X131600000Y-98425000D02*
G75*
G02*
X131000000Y-98425000I-300000J0D01*
G01*
X131000000Y-98425000D02*
G75*
G02*
X131600000Y-98425000I300000J0D01*
G01*
X227300000Y-61912500D02*
G75*
G02*
X226300000Y-61912500I-500000J0D01*
G01*
X226300000Y-61912500D02*
G75*
G02*
X227300000Y-61912500I500000J0D01*
G01*
X150900000Y-76200000D02*
G75*
G02*
X149900000Y-76200000I-500000J0D01*
G01*
X149900000Y-76200000D02*
G75*
G02*
X150900000Y-76200000I500000J0D01*
G01*
X248999998Y-112212502D02*
G75*
G02*
X248000000Y-112212502I-499999J0D01*
G01*
X248000000Y-112212502D02*
G75*
G02*
X248999998Y-112212502I499999J0D01*
G01*
X150700000Y-52450000D02*
G75*
G02*
X150100000Y-52450000I-300000J0D01*
G01*
X150100000Y-52450000D02*
G75*
G02*
X150700000Y-52450000I300000J0D01*
G01*
X189074283Y-61912500D02*
G75*
G02*
X188074283Y-61912500I-500000J0D01*
G01*
X188074283Y-61912500D02*
G75*
G02*
X189074283Y-61912500I500000J0D01*
G01*
X48000000Y-93099997D02*
G75*
G02*
X47400000Y-93099997I-300000J0D01*
G01*
X47400000Y-93099997D02*
G75*
G02*
X48000000Y-93099997I300000J0D01*
G01*
X131800000Y-60325000D02*
G75*
G02*
X130800000Y-60325000I-500000J0D01*
G01*
X130800000Y-60325000D02*
G75*
G02*
X131800000Y-60325000I500000J0D01*
G01*
X246400000Y-98425000D02*
G75*
G02*
X245400000Y-98425000I-500000J0D01*
G01*
X245400000Y-98425000D02*
G75*
G02*
X246400000Y-98425000I500000J0D01*
G01*
X103906249Y-93099997D02*
G75*
G02*
X102906251Y-93099997I-499999J0D01*
G01*
X102906251Y-93099997D02*
G75*
G02*
X103906249Y-93099997I499999J0D01*
G01*
X150900000Y-109600000D02*
G75*
G02*
X149900000Y-109600000I-500000J0D01*
G01*
X149900000Y-109600000D02*
G75*
G02*
X150900000Y-109600000I500000J0D01*
G01*
X208200000Y-46068750D02*
G75*
G02*
X207200000Y-46068750I-500000J0D01*
G01*
X207200000Y-46068750D02*
G75*
G02*
X208200000Y-46068750I500000J0D01*
G01*
X242212498Y-93099999D02*
G75*
G02*
X241212500Y-93099999I-499999J0D01*
G01*
X241212500Y-93099999D02*
G75*
G02*
X242212498Y-93099999I499999J0D01*
G01*
X131800000Y-79375000D02*
G75*
G02*
X130800000Y-79375000I-500000J0D01*
G01*
X130800000Y-79375000D02*
G75*
G02*
X131800000Y-79375000I500000J0D01*
G01*
X208200000Y-44450000D02*
G75*
G02*
X207200000Y-44450000I-500000J0D01*
G01*
X207200000Y-44450000D02*
G75*
G02*
X208200000Y-44450000I500000J0D01*
G01*
X131800000Y-124618750D02*
G75*
G02*
X130800000Y-124618750I-500000J0D01*
G01*
X130800000Y-124618750D02*
G75*
G02*
X131800000Y-124618750I500000J0D01*
G01*
X38200000Y-35812500D02*
X52423566Y-35812500D01*
X245849283Y-128911783D02*
X245950717Y-128911783D01*
X112700000Y-95287500D02*
G75*
G02*
X111700000Y-95287500I-500000J0D01*
G01*
X111700000Y-95287500D02*
G75*
G02*
X112700000Y-95287500I500000J0D01*
G01*
X201275001Y-93100000D02*
G75*
G02*
X200275001Y-93100000I-500000J0D01*
G01*
X200275001Y-93100000D02*
G75*
G02*
X201275001Y-93100000I500000J0D01*
G01*
X107081249Y-112212500D02*
G75*
G02*
X106081251Y-112212500I-499999J0D01*
G01*
X106081251Y-112212500D02*
G75*
G02*
X107081249Y-112212500I499999J0D01*
G01*
X131600000Y-87343750D02*
G75*
G02*
X131000000Y-87343750I-300000J0D01*
G01*
X131000000Y-87343750D02*
G75*
G02*
X131600000Y-87343750I300000J0D01*
G01*
X112174283Y-38200000D02*
X112275717Y-38200000D01*
X252143748Y-93100000D02*
G75*
G02*
X251143748Y-93100000I-500000J0D01*
G01*
X251143748Y-93100000D02*
G75*
G02*
X252143748Y-93100000I500000J0D01*
G01*
X55161783Y-85787500D02*
G75*
G02*
X54561783Y-85787500I-300000J0D01*
G01*
X54561783Y-85787500D02*
G75*
G02*
X55161783Y-85787500I300000J0D01*
G01*
X62568749Y-93099996D02*
G75*
G02*
X61568751Y-93099996I-499999J0D01*
G01*
X61568751Y-93099996D02*
G75*
G02*
X62568749Y-93099996I499999J0D01*
G01*
X55361783Y-60356250D02*
G75*
G02*
X54361783Y-60356250I-500000J0D01*
G01*
X54361783Y-60356250D02*
G75*
G02*
X55361783Y-60356250I500000J0D01*
G01*
X189074283Y-84168750D02*
G75*
G02*
X188074283Y-84168750I-500000J0D01*
G01*
X188074283Y-84168750D02*
G75*
G02*
X189074283Y-84168750I500000J0D01*
G01*
X147580000Y-93099998D02*
G75*
G02*
X146980000Y-93099998I-300000J0D01*
G01*
X146980000Y-93099998D02*
G75*
G02*
X147580000Y-93099998I300000J0D01*
G01*
X208200000Y-127825000D02*
G75*
G02*
X207200000Y-127825000I-500000J0D01*
G01*
X207200000Y-127825000D02*
G75*
G02*
X208200000Y-127825000I500000J0D01*
G01*
X134356249Y-93099997D02*
G75*
G02*
X133356251Y-93099997I-499999J0D01*
G01*
X133356251Y-93099997D02*
G75*
G02*
X134356249Y-93099997I499999J0D01*
G01*
X196481250Y-93099999D02*
G75*
G02*
X195481252Y-93099999I-499999J0D01*
G01*
X195481252Y-93099999D02*
G75*
G02*
X196481250Y-93099999I499999J0D01*
G01*
X150900000Y-44450000D02*
G75*
G02*
X149900000Y-44450000I-500000J0D01*
G01*
X149900000Y-44450000D02*
G75*
G02*
X150900000Y-44450000I500000J0D01*
G01*
X265012500Y-128925000D02*
X265012500Y-114600000D01*
X131600000Y-127825000D02*
G75*
G02*
X131000000Y-127825000I-300000J0D01*
G01*
X131000000Y-127825000D02*
G75*
G02*
X131600000Y-127825000I300000J0D01*
G01*
X116700000Y-93099998D02*
G75*
G02*
X115700000Y-93099998I-500000J0D01*
G01*
X115700000Y-93099998D02*
G75*
G02*
X116700000Y-93099998I500000J0D01*
G01*
X112700000Y-81000000D02*
G75*
G02*
X111700000Y-81000000I-500000J0D01*
G01*
X111700000Y-81000000D02*
G75*
G02*
X112700000Y-81000000I500000J0D01*
G01*
X246200000Y-106393750D02*
G75*
G02*
X245600000Y-106393750I-300000J0D01*
G01*
X245600000Y-106393750D02*
G75*
G02*
X246200000Y-106393750I300000J0D01*
G01*
X115112500Y-93099998D02*
G75*
G02*
X114112500Y-93099998I-500000J0D01*
G01*
X114112500Y-93099998D02*
G75*
G02*
X115112500Y-93099998I500000J0D01*
G01*
X189074283Y-119825000D02*
G75*
G02*
X188074283Y-119825000I-500000J0D01*
G01*
X188074283Y-119825000D02*
G75*
G02*
X189074283Y-119825000I500000J0D01*
G01*
X160487499Y-112212502D02*
G75*
G02*
X159487499Y-112212502I-500000J0D01*
G01*
X159487499Y-112212502D02*
G75*
G02*
X160487499Y-112212502I500000J0D01*
G01*
X224700000Y-93099999D02*
G75*
G02*
X224100000Y-93099999I-300000J0D01*
G01*
X224100000Y-93099999D02*
G75*
G02*
X224700000Y-93099999I300000J0D01*
G01*
X208200000Y-96837500D02*
G75*
G02*
X207200000Y-96837500I-500000J0D01*
G01*
X207200000Y-96837500D02*
G75*
G02*
X208200000Y-96837500I500000J0D01*
G01*
X262586783Y-93112500D02*
G75*
G02*
X264974300Y-95500000I17J-2387500D01*
G01*
X131600000Y-63600000D02*
G75*
G02*
X131000000Y-63600000I-300000J0D01*
G01*
X131000000Y-63600000D02*
G75*
G02*
X131600000Y-63600000I300000J0D01*
G01*
X227100000Y-49243750D02*
G75*
G02*
X226500000Y-49243750I-300000J0D01*
G01*
X226500000Y-49243750D02*
G75*
G02*
X227100000Y-49243750I300000J0D01*
G01*
X188874283Y-77787500D02*
G75*
G02*
X188274283Y-77787500I-300000J0D01*
G01*
X188274283Y-77787500D02*
G75*
G02*
X188874283Y-77787500I300000J0D01*
G01*
X235831248Y-112212502D02*
G75*
G02*
X234831250Y-112212502I-499999J0D01*
G01*
X234831250Y-112212502D02*
G75*
G02*
X235831248Y-112212502I499999J0D01*
G01*
X215031249Y-112212502D02*
G75*
G02*
X214031251Y-112212502I-499999J0D01*
G01*
X214031251Y-112212502D02*
G75*
G02*
X215031249Y-112212502I499999J0D01*
G01*
X208200000Y-60325000D02*
G75*
G02*
X207200000Y-60325000I-500000J0D01*
G01*
X207200000Y-60325000D02*
G75*
G02*
X208200000Y-60325000I500000J0D01*
G01*
X208000000Y-124618750D02*
G75*
G02*
X207400000Y-124618750I-300000J0D01*
G01*
X207400000Y-124618750D02*
G75*
G02*
X208000000Y-124618750I300000J0D01*
G01*
X131600000Y-100012500D02*
G75*
G02*
X131000000Y-100012500I-300000J0D01*
G01*
X131000000Y-100012500D02*
G75*
G02*
X131600000Y-100012500I300000J0D01*
G01*
X246400000Y-119825000D02*
G75*
G02*
X245400000Y-119825000I-500000J0D01*
G01*
X245400000Y-119825000D02*
G75*
G02*
X246400000Y-119825000I500000J0D01*
G01*
X237449998Y-112212502D02*
G75*
G02*
X236450000Y-112212502I-499999J0D01*
G01*
X236450000Y-112212502D02*
G75*
G02*
X237449998Y-112212502I499999J0D01*
G01*
X150900000Y-80962500D02*
G75*
G02*
X149900000Y-80962500I-500000J0D01*
G01*
X149900000Y-80962500D02*
G75*
G02*
X150900000Y-80962500I500000J0D01*
G01*
X150900000Y-82550000D02*
G75*
G02*
X149900000Y-82550000I-500000J0D01*
G01*
X149900000Y-82550000D02*
G75*
G02*
X150900000Y-82550000I500000J0D01*
G01*
X169800000Y-84168750D02*
G75*
G02*
X169200000Y-84168750I-300000J0D01*
G01*
X169200000Y-84168750D02*
G75*
G02*
X169800000Y-84168750I300000J0D01*
G01*
X169800000Y-126206250D02*
G75*
G02*
X169200000Y-126206250I-300000J0D01*
G01*
X169200000Y-126206250D02*
G75*
G02*
X169800000Y-126206250I300000J0D01*
G01*
X231099998Y-93099999D02*
G75*
G02*
X230100000Y-93099999I-499999J0D01*
G01*
X230100000Y-93099999D02*
G75*
G02*
X231099998Y-93099999I499999J0D01*
G01*
X46412500Y-93099997D02*
G75*
G02*
X45812500Y-93099997I-300000J0D01*
G01*
X45812500Y-93099997D02*
G75*
G02*
X46412500Y-93099997I300000J0D01*
G01*
X227300000Y-63500000D02*
G75*
G02*
X226300000Y-63500000I-500000J0D01*
G01*
X226300000Y-63500000D02*
G75*
G02*
X227300000Y-63500000I500000J0D01*
G01*
X227300000Y-103218750D02*
G75*
G02*
X226300000Y-103218750I-500000J0D01*
G01*
X226300000Y-103218750D02*
G75*
G02*
X227300000Y-103218750I500000J0D01*
G01*
X170000000Y-77787500D02*
G75*
G02*
X169000000Y-77787500I-500000J0D01*
G01*
X169000000Y-77787500D02*
G75*
G02*
X170000000Y-77787500I500000J0D01*
G01*
X169800000Y-95000000D02*
G75*
G02*
X169200000Y-95000000I-300000J0D01*
G01*
X169200000Y-95000000D02*
G75*
G02*
X169800000Y-95000000I300000J0D01*
G01*
X110287500Y-93099998D02*
G75*
G02*
X109287500Y-93099998I-500000J0D01*
G01*
X109287500Y-93099998D02*
G75*
G02*
X110287500Y-93099998I500000J0D01*
G01*
X112275717Y-38200000D02*
G75*
G02*
X114663217Y-35812517I2387483J0D01*
G01*
X227100000Y-47656250D02*
G75*
G02*
X226500000Y-47656250I-300000J0D01*
G01*
X226500000Y-47656250D02*
G75*
G02*
X227100000Y-47656250I300000J0D01*
G01*
X55361783Y-119856250D02*
G75*
G02*
X54361783Y-119856250I-500000J0D01*
G01*
X54361783Y-119856250D02*
G75*
G02*
X55361783Y-119856250I500000J0D01*
G01*
X51370000Y-112212499D02*
G75*
G02*
X50770000Y-112212499I-300000J0D01*
G01*
X50770000Y-112212499D02*
G75*
G02*
X51370000Y-112212499I300000J0D01*
G01*
X70387500Y-93099997D02*
G75*
G02*
X69787500Y-93099997I-300000J0D01*
G01*
X69787500Y-93099997D02*
G75*
G02*
X70387500Y-93099997I300000J0D01*
G01*
X201075001Y-112212503D02*
G75*
G02*
X200475001Y-112212503I-300000J0D01*
G01*
X200475001Y-112212503D02*
G75*
G02*
X201075001Y-112212503I300000J0D01*
G01*
X54811066Y-128925000D02*
G75*
G02*
X52423566Y-131312466I-2387466J0D01*
G01*
X112500000Y-47693750D02*
G75*
G02*
X111900000Y-47693750I-300000J0D01*
G01*
X111900000Y-47693750D02*
G75*
G02*
X112500000Y-47693750I300000J0D01*
G01*
X55361783Y-80993750D02*
G75*
G02*
X54361783Y-80993750I-500000J0D01*
G01*
X54361783Y-80993750D02*
G75*
G02*
X55361783Y-80993750I500000J0D01*
G01*
X55361783Y-96868750D02*
G75*
G02*
X54361783Y-96868750I-500000J0D01*
G01*
X54361783Y-96868750D02*
G75*
G02*
X55361783Y-96868750I500000J0D01*
G01*
X208200000Y-121443750D02*
G75*
G02*
X207200000Y-121443750I-500000J0D01*
G01*
X207200000Y-121443750D02*
G75*
G02*
X208200000Y-121443750I500000J0D01*
G01*
X208200000Y-98425000D02*
G75*
G02*
X207200000Y-98425000I-500000J0D01*
G01*
X207200000Y-98425000D02*
G75*
G02*
X208200000Y-98425000I500000J0D01*
G01*
X48100000Y-112212500D02*
G75*
G02*
X47500000Y-112212500I-300000J0D01*
G01*
X47500000Y-112212500D02*
G75*
G02*
X48100000Y-112212500I300000J0D01*
G01*
X55161783Y-49275000D02*
G75*
G02*
X54561783Y-49275000I-300000J0D01*
G01*
X54561783Y-49275000D02*
G75*
G02*
X55161783Y-49275000I300000J0D01*
G01*
X35812500Y-114600000D02*
G75*
G02*
X38200000Y-112212500I2387500J0D01*
G01*
X109786783Y-35812500D02*
G75*
G02*
X112174300Y-38200000I17J-2387500D01*
G01*
X227100000Y-90550000D02*
G75*
G02*
X226500000Y-90550000I-300000J0D01*
G01*
X226500000Y-90550000D02*
G75*
G02*
X227100000Y-90550000I300000J0D01*
G01*
X35825000Y-95500000D02*
X35812500Y-109825000D01*
X112500000Y-90587500D02*
G75*
G02*
X111900000Y-90587500I-300000J0D01*
G01*
X111900000Y-90587500D02*
G75*
G02*
X112500000Y-90587500I300000J0D01*
G01*
X210163217Y-131299283D02*
X224361783Y-131299283D01*
X131274283Y-128911783D02*
G75*
G02*
X128886783Y-131299283I-2387483J-17D01*
G01*
X189074283Y-115093750D02*
G75*
G02*
X188074283Y-115093750I-500000J0D01*
G01*
X188074283Y-115093750D02*
G75*
G02*
X189074283Y-115093750I500000J0D01*
G01*
X126306249Y-93099997D02*
G75*
G02*
X125306251Y-93099997I-499999J0D01*
G01*
X125306251Y-93099997D02*
G75*
G02*
X126306249Y-93099997I499999J0D01*
G01*
X169800000Y-124618750D02*
G75*
G02*
X169200000Y-124618750I-300000J0D01*
G01*
X169200000Y-124618750D02*
G75*
G02*
X169800000Y-124618750I300000J0D01*
G01*
X41874999Y-112212500D02*
G75*
G02*
X40875001Y-112212500I-499999J0D01*
G01*
X40875001Y-112212500D02*
G75*
G02*
X41874999Y-112212500I499999J0D01*
G01*
X193275000Y-112212502D02*
G75*
G02*
X192275002Y-112212502I-499999J0D01*
G01*
X192275002Y-112212502D02*
G75*
G02*
X193275000Y-112212502I499999J0D01*
G01*
X150700000Y-87343750D02*
G75*
G02*
X150100000Y-87343750I-300000J0D01*
G01*
X150100000Y-87343750D02*
G75*
G02*
X150700000Y-87343750I300000J0D01*
G01*
X205286783Y-35812500D02*
G75*
G02*
X207674300Y-38200000I17J-2387500D01*
G01*
X224361783Y-35812500D02*
G75*
G02*
X226749300Y-38200000I17J-2387500D01*
G01*
X112500000Y-123068750D02*
G75*
G02*
X111900000Y-123068750I-300000J0D01*
G01*
X111900000Y-123068750D02*
G75*
G02*
X112500000Y-123068750I300000J0D01*
G01*
X150374283Y-128911783D02*
X150475717Y-128911783D01*
X255349998Y-112212502D02*
G75*
G02*
X254350000Y-112212502I-499999J0D01*
G01*
X254350000Y-112212502D02*
G75*
G02*
X255349998Y-112212502I499999J0D01*
G01*
X57806249Y-93099996D02*
G75*
G02*
X56806251Y-93099996I-499999J0D01*
G01*
X56806251Y-93099996D02*
G75*
G02*
X57806249Y-93099996I499999J0D01*
G01*
X112500000Y-88968750D02*
G75*
G02*
X111900000Y-88968750I-300000J0D01*
G01*
X111900000Y-88968750D02*
G75*
G02*
X112500000Y-88968750I300000J0D01*
G01*
X246400000Y-44450000D02*
G75*
G02*
X245400000Y-44450000I-500000J0D01*
G01*
X245400000Y-44450000D02*
G75*
G02*
X246400000Y-44450000I500000J0D01*
G01*
X131600000Y-50831250D02*
G75*
G02*
X131000000Y-50831250I-300000J0D01*
G01*
X131000000Y-50831250D02*
G75*
G02*
X131600000Y-50831250I300000J0D01*
G01*
X186186783Y-35812500D02*
G75*
G02*
X188574300Y-38200000I17J-2387500D01*
G01*
X100699999Y-93099998D02*
G75*
G02*
X99699999Y-93099998I-500000J0D01*
G01*
X99699999Y-93099998D02*
G75*
G02*
X100699999Y-93099998I500000J0D01*
G01*
X135912499Y-93099998D02*
G75*
G02*
X134912499Y-93099998I-500000J0D01*
G01*
X134912499Y-93099998D02*
G75*
G02*
X135912499Y-93099998I500000J0D01*
G01*
X227300000Y-80962500D02*
G75*
G02*
X226300000Y-80962500I-500000J0D01*
G01*
X226300000Y-80962500D02*
G75*
G02*
X227300000Y-80962500I500000J0D01*
G01*
X95887500Y-112212500D02*
G75*
G02*
X94887502Y-112212500I-499999J0D01*
G01*
X94887502Y-112212500D02*
G75*
G02*
X95887500Y-112212500I499999J0D01*
G01*
X208000000Y-77787500D02*
G75*
G02*
X207400000Y-77787500I-300000J0D01*
G01*
X207400000Y-77787500D02*
G75*
G02*
X208000000Y-77787500I300000J0D01*
G01*
X131800000Y-82550000D02*
G75*
G02*
X130800000Y-82550000I-500000J0D01*
G01*
X130800000Y-82550000D02*
G75*
G02*
X131800000Y-82550000I500000J0D01*
G01*
X169449283Y-128911783D02*
X169550717Y-128911783D01*
X131600000Y-71300000D02*
G75*
G02*
X131000000Y-71300000I-300000J0D01*
G01*
X131000000Y-71300000D02*
G75*
G02*
X131600000Y-71300000I300000J0D01*
G01*
X155675000Y-112212502D02*
G75*
G02*
X154675000Y-112212502I-500000J0D01*
G01*
X154675000Y-112212502D02*
G75*
G02*
X155675000Y-112212502I500000J0D01*
G01*
X238670000Y-93099999D02*
G75*
G02*
X238070000Y-93099999I-300000J0D01*
G01*
X238070000Y-93099999D02*
G75*
G02*
X238670000Y-93099999I300000J0D01*
G01*
X59393749Y-112212499D02*
G75*
G02*
X58393751Y-112212499I-499999J0D01*
G01*
X58393751Y-112212499D02*
G75*
G02*
X59393749Y-112212499I499999J0D01*
G01*
X208200000Y-58737500D02*
G75*
G02*
X207200000Y-58737500I-500000J0D01*
G01*
X207200000Y-58737500D02*
G75*
G02*
X208200000Y-58737500I500000J0D01*
G01*
X97556249Y-112212500D02*
G75*
G02*
X96556251Y-112212500I-499999J0D01*
G01*
X96556251Y-112212500D02*
G75*
G02*
X97556249Y-112212500I499999J0D01*
G01*
X208000000Y-85756250D02*
G75*
G02*
X207400000Y-85756250I-300000J0D01*
G01*
X207400000Y-85756250D02*
G75*
G02*
X208000000Y-85756250I300000J0D01*
G01*
X208200000Y-79375000D02*
G75*
G02*
X207200000Y-79375000I-500000J0D01*
G01*
X207200000Y-79375000D02*
G75*
G02*
X208200000Y-79375000I500000J0D01*
G01*
X185360000Y-112212503D02*
G75*
G02*
X184760000Y-112212503I-300000J0D01*
G01*
X184760000Y-112212503D02*
G75*
G02*
X185360000Y-112212503I300000J0D01*
G01*
X133763217Y-35812500D02*
X147961783Y-35812500D01*
X112500000Y-52487500D02*
G75*
G02*
X111900000Y-52487500I-300000J0D01*
G01*
X111900000Y-52487500D02*
G75*
G02*
X112500000Y-52487500I300000J0D01*
G01*
X55361783Y-84200000D02*
G75*
G02*
X54361783Y-84200000I-500000J0D01*
G01*
X54361783Y-84200000D02*
G75*
G02*
X55361783Y-84200000I500000J0D01*
G01*
X53012499Y-93099997D02*
G75*
G02*
X52012499Y-93099997I-500000J0D01*
G01*
X52012499Y-93099997D02*
G75*
G02*
X53012499Y-93099997I500000J0D01*
G01*
X196481250Y-112212502D02*
G75*
G02*
X195481252Y-112212502I-499999J0D01*
G01*
X195481252Y-112212502D02*
G75*
G02*
X196481250Y-112212502I499999J0D01*
G01*
X131600000Y-57150000D02*
G75*
G02*
X131000000Y-57150000I-300000J0D01*
G01*
X131000000Y-57150000D02*
G75*
G02*
X131600000Y-57150000I300000J0D01*
G01*
X172487499Y-112212502D02*
G75*
G02*
X171487501Y-112212502I-499999J0D01*
G01*
X171487501Y-112212502D02*
G75*
G02*
X172487499Y-112212502I499999J0D01*
G01*
X199656250Y-93099999D02*
G75*
G02*
X198656252Y-93099999I-499999J0D01*
G01*
X198656252Y-93099999D02*
G75*
G02*
X199656250Y-93099999I499999J0D01*
G01*
X110287500Y-112212501D02*
G75*
G02*
X109287500Y-112212501I-500000J0D01*
G01*
X109287500Y-112212501D02*
G75*
G02*
X110287500Y-112212501I500000J0D01*
G01*
X231099998Y-112212502D02*
G75*
G02*
X230100000Y-112212502I-499999J0D01*
G01*
X230100000Y-112212502D02*
G75*
G02*
X231099998Y-112212502I499999J0D01*
G01*
X227100000Y-104806250D02*
G75*
G02*
X226500000Y-104806250I-300000J0D01*
G01*
X226500000Y-104806250D02*
G75*
G02*
X227100000Y-104806250I300000J0D01*
G01*
X55361783Y-103250000D02*
G75*
G02*
X54361783Y-103250000I-500000J0D01*
G01*
X54361783Y-103250000D02*
G75*
G02*
X55361783Y-103250000I500000J0D01*
G01*
X131600000Y-46068750D02*
G75*
G02*
X131000000Y-46068750I-300000J0D01*
G01*
X131000000Y-46068750D02*
G75*
G02*
X131600000Y-46068750I300000J0D01*
G01*
X227300000Y-50831250D02*
G75*
G02*
X226300000Y-50831250I-500000J0D01*
G01*
X226300000Y-50831250D02*
G75*
G02*
X227300000Y-50831250I500000J0D01*
G01*
X188574283Y-38200000D02*
X188675717Y-38200000D01*
X208200000Y-82550000D02*
G75*
G02*
X207200000Y-82550000I-500000J0D01*
G01*
X207200000Y-82550000D02*
G75*
G02*
X208200000Y-82550000I500000J0D01*
G01*
X131274283Y-38200000D02*
X131375717Y-38200000D01*
X189074283Y-41275000D02*
G75*
G02*
X188074283Y-41275000I-500000J0D01*
G01*
X188074283Y-41275000D02*
G75*
G02*
X189074283Y-41275000I500000J0D01*
G01*
X189074283Y-96837500D02*
G75*
G02*
X188074283Y-96837500I-500000J0D01*
G01*
X188074283Y-96837500D02*
G75*
G02*
X189074283Y-96837500I500000J0D01*
G01*
X100699999Y-112212501D02*
G75*
G02*
X99699999Y-112212501I-500000J0D01*
G01*
X99699999Y-112212501D02*
G75*
G02*
X100699999Y-112212501I500000J0D01*
G01*
X171963217Y-35812500D02*
X186186783Y-35812500D01*
X165887501Y-93099999D02*
G75*
G02*
X165287501Y-93099999I-300000J0D01*
G01*
X165287501Y-93099999D02*
G75*
G02*
X165887501Y-93099999I300000J0D01*
G01*
X207674283Y-38200000D02*
X207775717Y-38200000D01*
X227300000Y-84168750D02*
G75*
G02*
X226300000Y-84168750I-500000J0D01*
G01*
X226300000Y-84168750D02*
G75*
G02*
X227300000Y-84168750I500000J0D01*
G01*
X152863217Y-131299283D02*
X167061783Y-131299283D01*
X55361783Y-95281250D02*
G75*
G02*
X54361783Y-95281250I-500000J0D01*
G01*
X54361783Y-95281250D02*
G75*
G02*
X55361783Y-95281250I500000J0D01*
G01*
X208200000Y-61912500D02*
G75*
G02*
X207200000Y-61912500I-500000J0D01*
G01*
X207200000Y-61912500D02*
G75*
G02*
X208200000Y-61912500I500000J0D01*
G01*
X112174283Y-128911783D02*
G75*
G02*
X109786783Y-131299283I-2387483J-17D01*
G01*
X105293750Y-112212500D02*
G75*
G02*
X104693750Y-112212500I-300000J0D01*
G01*
X104693750Y-112212500D02*
G75*
G02*
X105293750Y-112212500I300000J0D01*
G01*
X189074283Y-109600000D02*
G75*
G02*
X188074283Y-109600000I-500000J0D01*
G01*
X188074283Y-109600000D02*
G75*
G02*
X189074283Y-109600000I500000J0D01*
G01*
X112500000Y-100050000D02*
G75*
G02*
X111900000Y-100050000I-300000J0D01*
G01*
X111900000Y-100050000D02*
G75*
G02*
X112500000Y-100050000I300000J0D01*
G01*
X102287499Y-93099997D02*
G75*
G02*
X101287501Y-93099997I-499999J0D01*
G01*
X101287501Y-93099997D02*
G75*
G02*
X102287499Y-93099997I499999J0D01*
G01*
X54912500Y-38200000D02*
G75*
G02*
X57300000Y-35812500I2387500J0D01*
G01*
X60981249Y-93099996D02*
G75*
G02*
X59981251Y-93099996I-499999J0D01*
G01*
X59981251Y-93099996D02*
G75*
G02*
X60981249Y-93099996I499999J0D01*
G01*
X35812500Y-38200000D02*
X35825000Y-90725000D01*
X152500000Y-112212501D02*
G75*
G02*
X151900000Y-112212501I-300000J0D01*
G01*
X151900000Y-112212501D02*
G75*
G02*
X152500000Y-112212501I300000J0D01*
G01*
X150700000Y-68293750D02*
G75*
G02*
X150100000Y-68293750I-300000J0D01*
G01*
X150100000Y-68293750D02*
G75*
G02*
X150700000Y-68293750I300000J0D01*
G01*
X227300000Y-65118750D02*
G75*
G02*
X226300000Y-65118750I-500000J0D01*
G01*
X226300000Y-65118750D02*
G75*
G02*
X227300000Y-65118750I500000J0D01*
G01*
X246400000Y-65118750D02*
G75*
G02*
X245400000Y-65118750I-500000J0D01*
G01*
X245400000Y-65118750D02*
G75*
G02*
X246400000Y-65118750I500000J0D01*
G01*
X171938217Y-131299283D02*
G75*
G02*
X169550717Y-128911783I-17J2387483D01*
G01*
X112500000Y-69918750D02*
G75*
G02*
X111900000Y-69918750I-300000J0D01*
G01*
X111900000Y-69918750D02*
G75*
G02*
X112500000Y-69918750I300000J0D01*
G01*
X84956249Y-93099996D02*
G75*
G02*
X83956251Y-93099996I-499999J0D01*
G01*
X83956251Y-93099996D02*
G75*
G02*
X84956249Y-93099996I499999J0D01*
G01*
X51256250Y-93099996D02*
G75*
G02*
X50656250Y-93099996I-300000J0D01*
G01*
X50656250Y-93099996D02*
G75*
G02*
X51256250Y-93099996I300000J0D01*
G01*
X70387500Y-112212500D02*
G75*
G02*
X69787500Y-112212500I-300000J0D01*
G01*
X69787500Y-112212500D02*
G75*
G02*
X70387500Y-112212500I300000J0D01*
G01*
X55361783Y-47687500D02*
G75*
G02*
X54361783Y-47687500I-500000J0D01*
G01*
X54361783Y-47687500D02*
G75*
G02*
X55361783Y-47687500I500000J0D01*
G01*
X112700000Y-41312500D02*
G75*
G02*
X111700000Y-41312500I-500000J0D01*
G01*
X111700000Y-41312500D02*
G75*
G02*
X112700000Y-41312500I500000J0D01*
G01*
X55361783Y-46100000D02*
G75*
G02*
X54361783Y-46100000I-500000J0D01*
G01*
X54361783Y-46100000D02*
G75*
G02*
X55361783Y-46100000I500000J0D01*
G01*
X112500000Y-126243750D02*
G75*
G02*
X111900000Y-126243750I-300000J0D01*
G01*
X111900000Y-126243750D02*
G75*
G02*
X112500000Y-126243750I300000J0D01*
G01*
X170000000Y-107981250D02*
G75*
G02*
X169000000Y-107981250I-500000J0D01*
G01*
X169000000Y-107981250D02*
G75*
G02*
X170000000Y-107981250I500000J0D01*
G01*
X229238217Y-131299283D02*
G75*
G02*
X226850717Y-128911783I-17J2387483D01*
G01*
X227300000Y-57150000D02*
G75*
G02*
X226300000Y-57150000I-500000J0D01*
G01*
X226300000Y-57150000D02*
G75*
G02*
X227300000Y-57150000I500000J0D01*
G01*
X55361783Y-118268750D02*
G75*
G02*
X54361783Y-118268750I-500000J0D01*
G01*
X54361783Y-118268750D02*
G75*
G02*
X55361783Y-118268750I500000J0D01*
G01*
X261531249Y-93100000D02*
G75*
G02*
X260931249Y-93100000I-300000J0D01*
G01*
X260931249Y-93100000D02*
G75*
G02*
X261531249Y-93100000I300000J0D01*
G01*
X227300000Y-41275000D02*
G75*
G02*
X226300000Y-41275000I-500000J0D01*
G01*
X226300000Y-41275000D02*
G75*
G02*
X227300000Y-41275000I500000J0D01*
G01*
X80193749Y-93099996D02*
G75*
G02*
X79193751Y-93099996I-499999J0D01*
G01*
X79193751Y-93099996D02*
G75*
G02*
X80193749Y-93099996I499999J0D01*
G01*
X123099999Y-112212501D02*
G75*
G02*
X122099999Y-112212501I-500000J0D01*
G01*
X122099999Y-112212501D02*
G75*
G02*
X123099999Y-112212501I500000J0D01*
G01*
X246400000Y-100012500D02*
G75*
G02*
X245400000Y-100012500I-500000J0D01*
G01*
X245400000Y-100012500D02*
G75*
G02*
X246400000Y-100012500I500000J0D01*
G01*
X112500000Y-85793750D02*
G75*
G02*
X111900000Y-85793750I-300000J0D01*
G01*
X111900000Y-85793750D02*
G75*
G02*
X112500000Y-85793750I300000J0D01*
G01*
X169800000Y-57150000D02*
G75*
G02*
X169200000Y-57150000I-300000J0D01*
G01*
X169200000Y-57150000D02*
G75*
G02*
X169800000Y-57150000I300000J0D01*
G01*
X208000000Y-106393750D02*
G75*
G02*
X207400000Y-106393750I-300000J0D01*
G01*
X207400000Y-106393750D02*
G75*
G02*
X208000000Y-106393750I300000J0D01*
G01*
X112500000Y-101637500D02*
G75*
G02*
X111900000Y-101637500I-300000J0D01*
G01*
X111900000Y-101637500D02*
G75*
G02*
X112500000Y-101637500I300000J0D01*
G01*
X208000000Y-65118750D02*
G75*
G02*
X207400000Y-65118750I-300000J0D01*
G01*
X207400000Y-65118750D02*
G75*
G02*
X208000000Y-65118750I300000J0D01*
G01*
X189074283Y-100012500D02*
G75*
G02*
X188074283Y-100012500I-500000J0D01*
G01*
X188074283Y-100012500D02*
G75*
G02*
X189074283Y-100012500I500000J0D01*
G01*
X227100000Y-76200000D02*
G75*
G02*
X226500000Y-76200000I-300000J0D01*
G01*
X226500000Y-76200000D02*
G75*
G02*
X227100000Y-76200000I300000J0D01*
G01*
X150349283Y-38200000D02*
X150450717Y-38200000D01*
X246400000Y-116650000D02*
G75*
G02*
X245400000Y-116650000I-500000J0D01*
G01*
X245400000Y-116650000D02*
G75*
G02*
X246400000Y-116650000I500000J0D01*
G01*
X131600000Y-47656250D02*
G75*
G02*
X131000000Y-47656250I-300000J0D01*
G01*
X131000000Y-47656250D02*
G75*
G02*
X131600000Y-47656250I300000J0D01*
G01*
X78574999Y-112212499D02*
G75*
G02*
X77575001Y-112212499I-499999J0D01*
G01*
X77575001Y-112212499D02*
G75*
G02*
X78574999Y-112212499I499999J0D01*
G01*
X150900000Y-77787500D02*
G75*
G02*
X149900000Y-77787500I-500000J0D01*
G01*
X149900000Y-77787500D02*
G75*
G02*
X150900000Y-77787500I500000J0D01*
G01*
X112700000Y-118275000D02*
G75*
G02*
X111700000Y-118275000I-500000J0D01*
G01*
X111700000Y-118275000D02*
G75*
G02*
X112700000Y-118275000I500000J0D01*
G01*
X105060000Y-93099997D02*
G75*
G02*
X104460000Y-93099997I-300000J0D01*
G01*
X104460000Y-93099997D02*
G75*
G02*
X105060000Y-93099997I300000J0D01*
G01*
X169800000Y-50831250D02*
G75*
G02*
X169200000Y-50831250I-300000J0D01*
G01*
X169200000Y-50831250D02*
G75*
G02*
X169800000Y-50831250I300000J0D01*
G01*
X112500000Y-71300000D02*
G75*
G02*
X111900000Y-71300000I-300000J0D01*
G01*
X111900000Y-71300000D02*
G75*
G02*
X112500000Y-71300000I300000J0D01*
G01*
X55161783Y-106425000D02*
G75*
G02*
X54561783Y-106425000I-300000J0D01*
G01*
X54561783Y-106425000D02*
G75*
G02*
X55161783Y-106425000I300000J0D01*
G01*
X55161783Y-68325000D02*
G75*
G02*
X54561783Y-68325000I-300000J0D01*
G01*
X54561783Y-68325000D02*
G75*
G02*
X55161783Y-68325000I300000J0D01*
G01*
X208000000Y-49243750D02*
G75*
G02*
X207400000Y-49243750I-300000J0D01*
G01*
X207400000Y-49243750D02*
G75*
G02*
X208000000Y-49243750I300000J0D01*
G01*
X67212499Y-112212500D02*
G75*
G02*
X66612499Y-112212500I-300000J0D01*
G01*
X66612499Y-112212500D02*
G75*
G02*
X67212499Y-112212500I300000J0D01*
G01*
X188874283Y-57150000D02*
G75*
G02*
X188274283Y-57150000I-300000J0D01*
G01*
X188274283Y-57150000D02*
G75*
G02*
X188874283Y-57150000I300000J0D01*
G01*
X131800000Y-44450000D02*
G75*
G02*
X130800000Y-44450000I-500000J0D01*
G01*
X130800000Y-44450000D02*
G75*
G02*
X131800000Y-44450000I500000J0D01*
G01*
X131800000Y-65118750D02*
G75*
G02*
X130800000Y-65118750I-500000J0D01*
G01*
X130800000Y-65118750D02*
G75*
G02*
X131800000Y-65118750I500000J0D01*
G01*
X170000000Y-80962500D02*
G75*
G02*
X169000000Y-80962500I-500000J0D01*
G01*
X169000000Y-80962500D02*
G75*
G02*
X170000000Y-80962500I500000J0D01*
G01*
X169800000Y-87343750D02*
G75*
G02*
X169200000Y-87343750I-300000J0D01*
G01*
X169200000Y-87343750D02*
G75*
G02*
X169800000Y-87343750I300000J0D01*
G01*
X55361783Y-88962500D02*
G75*
G02*
X54361783Y-88962500I-500000J0D01*
G01*
X54361783Y-88962500D02*
G75*
G02*
X55361783Y-88962500I500000J0D01*
G01*
X219870000Y-112212503D02*
G75*
G02*
X219270000Y-112212503I-300000J0D01*
G01*
X219270000Y-112212503D02*
G75*
G02*
X219870000Y-112212503I300000J0D01*
G01*
X154000000Y-93099998D02*
G75*
G02*
X153400000Y-93099998I-300000J0D01*
G01*
X153400000Y-93099998D02*
G75*
G02*
X154000000Y-93099998I300000J0D01*
G01*
X150700000Y-124618750D02*
G75*
G02*
X150100000Y-124618750I-300000J0D01*
G01*
X150100000Y-124618750D02*
G75*
G02*
X150700000Y-124618750I300000J0D01*
G01*
X191063217Y-131299283D02*
X205286783Y-131299283D01*
X150700000Y-71500000D02*
G75*
G02*
X150100000Y-71500000I-300000J0D01*
G01*
X150100000Y-71500000D02*
G75*
G02*
X150700000Y-71500000I300000J0D01*
G01*
X38212500Y-93112500D02*
G75*
G02*
X35825000Y-90725000I0J2387500D01*
G01*
X189074283Y-42862500D02*
G75*
G02*
X188074283Y-42862500I-500000J0D01*
G01*
X188074283Y-42862500D02*
G75*
G02*
X189074283Y-42862500I500000J0D01*
G01*
X170000000Y-58737500D02*
G75*
G02*
X169000000Y-58737500I-500000J0D01*
G01*
X169000000Y-58737500D02*
G75*
G02*
X170000000Y-58737500I500000J0D01*
G01*
X208000000Y-126206250D02*
G75*
G02*
X207400000Y-126206250I-300000J0D01*
G01*
X207400000Y-126206250D02*
G75*
G02*
X208000000Y-126206250I300000J0D01*
G01*
X55361783Y-41306250D02*
G75*
G02*
X54361783Y-41306250I-500000J0D01*
G01*
X54361783Y-41306250D02*
G75*
G02*
X55361783Y-41306250I500000J0D01*
G01*
X86375000Y-112212500D02*
G75*
G02*
X85775000Y-112212500I-300000J0D01*
G01*
X85775000Y-112212500D02*
G75*
G02*
X86375000Y-112212500I300000J0D01*
G01*
X169474283Y-38200000D02*
X169575717Y-38200000D01*
X218256248Y-93100000D02*
G75*
G02*
X217256248Y-93100000I-500000J0D01*
G01*
X217256248Y-93100000D02*
G75*
G02*
X218256248Y-93100000I500000J0D01*
G01*
X243831249Y-112212503D02*
G75*
G02*
X242831249Y-112212503I-500000J0D01*
G01*
X242831249Y-112212503D02*
G75*
G02*
X243831249Y-112212503I500000J0D01*
G01*
X150700000Y-84168750D02*
G75*
G02*
X150100000Y-84168750I-300000J0D01*
G01*
X150100000Y-84168750D02*
G75*
G02*
X150700000Y-84168750I300000J0D01*
G01*
X188675717Y-38200000D02*
G75*
G02*
X191063217Y-35812517I2387483J0D01*
G01*
X127893749Y-93099997D02*
G75*
G02*
X126893751Y-93099997I-499999J0D01*
G01*
X126893751Y-93099997D02*
G75*
G02*
X127893749Y-93099997I499999J0D01*
G01*
X205887500Y-93100000D02*
G75*
G02*
X205287500Y-93100000I-300000J0D01*
G01*
X205287500Y-93100000D02*
G75*
G02*
X205887500Y-93100000I300000J0D01*
G01*
X248338217Y-35812500D02*
X262625000Y-35812500D01*
X227300000Y-46068750D02*
G75*
G02*
X226300000Y-46068750I-500000J0D01*
G01*
X226300000Y-46068750D02*
G75*
G02*
X227300000Y-46068750I500000J0D01*
G01*
X245849283Y-38200000D02*
X245950717Y-38200000D01*
X64187500Y-112212500D02*
G75*
G02*
X63187500Y-112212500I-500000J0D01*
G01*
X63187500Y-112212500D02*
G75*
G02*
X64187500Y-112212500I500000J0D01*
G01*
X112700000Y-46106250D02*
G75*
G02*
X111700000Y-46106250I-500000J0D01*
G01*
X111700000Y-46106250D02*
G75*
G02*
X112700000Y-46106250I500000J0D01*
G01*
X129281250Y-112212500D02*
G75*
G02*
X128681250Y-112212500I-300000J0D01*
G01*
X128681250Y-112212500D02*
G75*
G02*
X129281250Y-112212500I300000J0D01*
G01*
X188874283Y-39687500D02*
G75*
G02*
X188274283Y-39687500I-300000J0D01*
G01*
X188274283Y-39687500D02*
G75*
G02*
X188874283Y-39687500I300000J0D01*
G01*
X234243748Y-112212503D02*
G75*
G02*
X233243748Y-112212503I-500000J0D01*
G01*
X233243748Y-112212503D02*
G75*
G02*
X234243748Y-112212503I500000J0D01*
G01*
X177281249Y-112212502D02*
G75*
G02*
X176281251Y-112212502I-499999J0D01*
G01*
X176281251Y-112212502D02*
G75*
G02*
X177281249Y-112212502I499999J0D01*
G01*
X223049998Y-112212502D02*
G75*
G02*
X222050000Y-112212502I-499999J0D01*
G01*
X222050000Y-112212502D02*
G75*
G02*
X223049998Y-112212502I499999J0D01*
G01*
X55161783Y-124650000D02*
G75*
G02*
X54561783Y-124650000I-300000J0D01*
G01*
X54561783Y-124650000D02*
G75*
G02*
X55161783Y-124650000I300000J0D01*
G01*
X55361783Y-90581250D02*
G75*
G02*
X54361783Y-90581250I-500000J0D01*
G01*
X54361783Y-90581250D02*
G75*
G02*
X55361783Y-90581250I500000J0D01*
G01*
X246400000Y-71500000D02*
G75*
G02*
X245400000Y-71500000I-500000J0D01*
G01*
X245400000Y-71500000D02*
G75*
G02*
X246400000Y-71500000I500000J0D01*
G01*
X189074283Y-104806250D02*
G75*
G02*
X188074283Y-104806250I-500000J0D01*
G01*
X188074283Y-104806250D02*
G75*
G02*
X189074283Y-104806250I500000J0D01*
G01*
X131600000Y-68500000D02*
G75*
G02*
X131000000Y-68500000I-300000J0D01*
G01*
X131000000Y-68500000D02*
G75*
G02*
X131600000Y-68500000I300000J0D01*
G01*
M02*
